<svg version="1.1" xmlns="http://www.w3.org/2000/svg" xmlns:xlink="http://www.w3.org/1999/xlink" width="480.00001" height="50" viewBox="0,0,480.00001,50"><g transform="translate(0,-155)"><g data-paper-data="{&quot;isPaintingLayer&quot;:true}" stroke-miterlimit="10" stroke-dasharray="" stroke-dashoffset="0" style="mix-blend-mode: normal"><g fill="#ffffff" fill-rule="nonzero" stroke="#ffffff" stroke-width="3.5" stroke-linecap="butt" stroke-linejoin="miter"><path d="M250.41335,175.49334c0.82666,0 1.25333,0.42667 1.25333,1.25333v9.17331c0,0.82667 -0.42667,1.24 -1.25333,1.24h-3.79999c-0.84,0 -1.25333,-0.41333 -1.25333,-1.24v-2.82666c-0.17333,0.16 -0.38667,0.24 -0.65333,0.24c-0.18667,0 -0.42667,-0.17333 -0.69333,-0.53333v3.50666c0,0.24 -0.06667,0.45333 -0.2,0.64c-0.16,0.22667 -0.41334,0.34667 -0.78667,0.34667c-0.34666,0 -0.61333,-0.12 -0.77333,-0.33333c-0.15997,-0.18667 -0.22667,-0.4 -0.22667,-0.65333v-3.15999c-0.26666,0.54667 -0.47999,0.90666 -0.66666,1.06666c-0.13333,0.18667 -0.33333,0.26667 -0.6,0.26667c-0.26666,0 -0.46666,-0.09333 -0.6,-0.28c-0.18666,-0.21333 -0.26666,-0.45333 -0.26666,-0.73333c0,-0.17333 0.05333,-0.37333 0.17333,-0.6c0.62666,-0.93333 1.22666,-2.06666 1.8,-3.38666h-0.8c-0.29334,0 -0.52,-0.06667 -0.69333,-0.21333c-0.18667,-0.13333 -0.26667,-0.4 -0.26667,-0.77333c0,-0.4 0.08,-0.66667 0.26667,-0.81333c0.13333,-0.10666 0.35999,-0.17333 0.69333,-0.17333h0.95999v-1.25333c0,-0.30667 0.09334,-0.54666 0.29334,-0.72c0.14666,-0.17334 0.38666,-0.26667 0.70666,-0.26667c0.29334,0 0.53333,0.09333 0.70667,0.26667c0.1867,0.17333 0.28,0.41333 0.28,0.72v1.25333h0.54666c0.32,0 0.54667,0.06667 0.70667,0.2c0.04,0.02666 0.0666,0.06666 0.0933,0.09333v-1.05333c0,-0.82666 0.41333,-1.25333 1.25333,-1.25333zM245.36,181.51999v-2.33333c-0.18667,0.2 -0.45333,0.29333 -0.8,0.29333h-0.54666v0.76c0.37333,0.44 0.82666,0.86666 1.34666,1.28zM249.58666,185.02665v-1.37333h-2.13333v1.37333c0,0.28 0.13333,0.41333 0.41333,0.41333h1.29333c0.28,0 0.42667,-0.13333 0.42667,-0.41333zM249.58666,181.98665v-1.46666h-2.13333v1.46666zM249.58666,178.85333v-1.21333c0,-0.28 -0.14667,-0.42666 -0.42667,-0.42666h-1.29333c-0.28,0 -0.41333,0.14667 -0.41333,0.42666v1.21333z"/><path d="M264.63995,175.49334c0.16003,0.2 0.25333,0.42667 0.25333,0.68c0,0.46667 -0.24,0.76 -0.69333,0.88c-1.09333,0.22667 -2.30666,0.41333 -3.61332,0.56c0.13333,0.48 0.24,0.94666 0.34666,1.37333h3.42666c0.32,0 0.56,0.06667 0.70667,0.2c0.1333,0.10667 0.2,0.33333 0.2,0.66666c0,0.26667 -0.06667,0.46667 -0.17334,0.57333c-0.16,0.18667 -0.41333,0.28 -0.73333,0.28h-3.07999c0.05337,0.4 0.10667,0.78666 0.14667,1.14666h3.19999c0.34666,0 0.58666,0.08 0.73333,0.21333c0.13333,0.10667 0.21333,0.34667 0.21333,0.69333c0,0.29333 -0.06666,0.50667 -0.17333,0.61333c-0.16,0.21334 -0.42667,0.30667 -0.77333,0.30667h-3.13333c-0.02666,1.4 -0.25333,2.33333 -0.66666,2.81333c-0.46667,0.53333 -1.2,0.8 -2.18666,0.8c-1.30667,-0.02667 -2.29333,-0.21333 -2.94666,-0.54666c-0.34667,-0.16 -0.53333,-0.45333 -0.53333,-0.85333c0,-0.29333 0.06666,-0.53333 0.21333,-0.73333c0.14666,-0.18667 0.33333,-0.29334 0.54666,-0.30667c0.26667,0 0.61333,0.08 1.05333,0.21333c0.64,0.17333 1.14667,0.25333 1.50667,0.25333c0.44,0 0.70666,-0.14667 0.81333,-0.44c0.0667,-0.12 0.1067,-0.52 0.12,-1.2h-5.18666c-0.32,0 -0.55999,-0.06667 -0.71999,-0.21333c-0.15997,-0.13333 -0.22667,-0.36 -0.22667,-0.70666c0,-0.34667 0.06667,-0.57333 0.22667,-0.69333c0.14666,-0.13333 0.38666,-0.21333 0.71999,-0.21333h5.13332c-0.04,-0.37333 -0.0933,-0.74667 -0.16,-1.14666h-4.70665c-0.30667,0 -0.53333,-0.06667 -0.69333,-0.2c-0.14663,-0.10667 -0.21333,-0.33333 -0.21333,-0.65333c0,-0.33333 0.06666,-0.56 0.21333,-0.66666c0.14666,-0.13333 0.37333,-0.2 0.69333,-0.2h4.37332c-0.10666,-0.41333 -0.21333,-0.8 -0.32,-1.17333c-1.59999,0.14666 -2.87999,0.21333 -3.81332,0.21333c-0.62667,0 -0.93333,-0.36 -0.93333,-1.09333c0.01333,-0.46667 0.30666,-0.73333 0.89333,-0.78666c3.26666,-0.10667 6.17332,-0.41333 8.71998,-0.89333c0.24,-0.02667 0.42666,-0.04 0.58666,-0.04c0.25334,0 0.46667,0.09333 0.64,0.28z"/><path d="M278.54654,181.29332c0,1.30666 -0.37333,2.41333 -1.10666,3.29333c-0.72,0.85333 -1.70666,1.45333 -2.98666,1.82666c-0.25333,0.06667 -0.41337,0.10667 -0.46667,0.10667c-0.29333,0 -0.53333,-0.10667 -0.71999,-0.30667c-0.1867,-0.18667 -0.28,-0.44 -0.28,-0.73333c0,-0.33333 0.21333,-0.61333 0.64,-0.82666c0.18666,-0.08 0.49333,-0.2 0.89333,-0.37333c1.38666,-0.65333 2.09332,-1.65333 2.09332,-2.98666c0,-1.78666 -0.93333,-2.78666 -2.78666,-2.99999c0.0134,0.28 0.0267,0.45334 0.0267,0.50666c0,0.8 -0.12,1.62666 -0.34666,2.50666c-0.29334,1.12 -0.73334,2.10666 -1.30667,2.94666c-0.77333,1.12 -1.61333,1.66666 -2.54666,1.66666c-0.81333,0 -1.45333,-0.37333 -1.91999,-1.12c-0.4,-0.64 -0.6,-1.38666 -0.6,-2.23999c0,-1.84 0.53333,-3.31999 1.59999,-4.42666c1.05333,-1.09333 2.50666,-1.63999 4.34666,-1.63999c1.62666,0 2.91999,0.38666 3.89332,1.16c1.04,0.84 1.57333,2.05333 1.57333,3.63999zM271.9066,178.38666c-0.98666,0.24 -1.72,0.73333 -2.22666,1.50666c-0.48,0.72 -0.70667,1.6 -0.70667,2.63999c0,0.97333 0.22667,1.45333 0.68,1.45333c0.16,0 0.37333,-0.12 0.62667,-0.37333c0.54666,-0.54667 0.97333,-1.30666 1.26666,-2.29333c0.24,-0.82666 0.37333,-1.70666 0.37333,-2.61333z"/><path d="M286.03987,175.00001c0.36,0 0.62666,0.08 0.78666,0.24c0.2,0.17333 0.30667,0.41333 0.30667,0.72v0.16h4.15999c0.29333,0 0.52,0.06667 0.65333,0.18667c0.11997,0.10667 0.18667,0.32 0.18667,0.62667c0,0.25333 -0.05334,0.44 -0.16,0.54667c-0.14667,0.17333 -0.37334,0.25333 -0.68,0.25333h-2.49333v2.97333c0,0.52 -0.17333,0.88 -0.49333,1.09333h1.16c0.45333,0 0.79999,0.06667 1.03999,0.2c0.34667,0.24 0.53334,0.56 0.53334,0.93333c0,0.30667 -0.24,0.62667 -0.69334,0.96c-0.53333,0.4 -1.17333,0.77333 -1.93332,1.14666c0.93333,0.21333 1.94666,0.36 3.06666,0.41333c0.43999,0.04 0.67996,0.29333 0.70666,0.76c0,0.29333 -0.06667,0.52 -0.17333,0.66666c-0.09334,0.21333 -0.32,0.33333 -0.69333,0.36c-0.65334,0 -1.36,-0.05334 -2.12,-0.14667c-1.17333,-0.18667 -2.27999,-0.49333 -3.33332,-0.94666c-0.68,0.24 -1.38667,0.45333 -2.10667,0.66666c-1.22666,0.32 -2.05332,0.50666 -2.47999,0.53333c-0.36,0 -0.62666,-0.12 -0.78666,-0.33333c-0.16,-0.17333 -0.24,-0.34667 -0.24,-0.50666c0,-0.38667 0.13333,-0.65333 0.42666,-0.82666c1.10667,-0.24 2.10666,-0.46667 3.01333,-0.70666c-0.45333,-0.30667 -0.84,-0.62667 -1.16,-0.97333c-0.0266,-0.02667 -0.0533,-0.04 -0.0533,-0.06667c-0.24,0.13333 -0.48,0.26667 -0.70667,0.37333c-0.16,0.12 -0.34666,0.17333 -0.54666,0.17333c-0.29333,0 -0.54667,-0.12 -0.76,-0.36c-0.17333,-0.18667 -0.25333,-0.37333 -0.25333,-0.57333c0,-0.16 0.08,-0.30667 0.24,-0.44c0.85333,-0.41333 1.61333,-0.81333 2.25332,-1.21333c-0.1067,-0.10667 -0.16,-0.29333 -0.16,-0.53333c0.02667,-0.08 0.09334,-0.16 0.2,-0.25333c0.64,-0.70666 1.00003,-1.44 1.05333,-2.18666v-1.18666h-2.85332c-0.29333,0 -0.50667,-0.05333 -0.64,-0.17333c-0.1333,-0.10667 -0.2,-0.32 -0.2,-0.62667c0,-0.29333 0.06667,-0.50666 0.2,-0.62667c0.13333,-0.12 0.34667,-0.18667 0.64,-0.18667h3.99999v-0.16c0,-0.26667 0.10666,-0.50667 0.32,-0.74667c0.14666,-0.13333 0.4,-0.21333 0.77333,-0.21333zM286.06657,184.26665c0.16,-0.05333 0.31999,-0.10667 0.46666,-0.16c1.09333,-0.37333 1.64,-0.62667 1.64,-0.76c0,-0.09334 -0.08,-0.14667 -0.24,-0.14667h-3.57333c0.57334,0.42667 1.14667,0.78666 1.70667,1.06666zM286.21323,181.79999c-0.08,-0.10667 -0.14666,-0.21333 -0.18666,-0.32c-0.0666,-0.2 -0.0933,-0.45333 -0.0933,-0.76c0,-0.2 0.02667,-0.38667 0.10667,-0.54667c0.08,-0.05333 0.17333,-0.09333 0.25333,-0.12h0.34667c0.25333,0 0.38666,-0.08 0.38666,-0.25333v-2.06666h-1.45333v0.96c0,0.4 -0.05333,0.77333 -0.13333,1.14666c-0.09333,0.4 -0.21333,0.74667 -0.34667,1.02666c0.04,0.02666 0.0666,0.04 0.0933,0.05333c0.1867,0.14667 0.28,0.30667 0.28,0.48c0,0.13333 -0.06667,0.26667 -0.17334,0.4zM282.39991,178.48c0.1867,0.10667 0.28,0.34667 0.28,0.72c0,0.10667 -0.05337,0.24 -0.14667,0.42667c-0.25333,0.58666 -0.52,1.05333 -0.81333,1.37333c-0.13333,0.28 -0.37333,0.41333 -0.69333,0.41333c-0.24,0 -0.48,-0.08 -0.69333,-0.25333c-0.22667,-0.14667 -0.33334,-0.36 -0.33334,-0.65333c0,-0.08 0.04,-0.18667 0.12,-0.30667c0.30667,-0.37333 0.58667,-0.84 0.84,-1.38666c0.14667,-0.38667 0.36,-0.58667 0.65333,-0.58667c0.32,0 0.57334,0.09333 0.78667,0.25333zM291.18655,178.63999c0.18667,0.18667 0.4,0.56 0.66667,1.12c0.14666,0.37333 0.22666,0.68 0.22666,0.89333c0,0.25333 -0.08,0.44 -0.21333,0.56c-0.18667,0.2 -0.42666,0.30667 -0.73333,0.30667c-0.26667,0 -0.46667,-0.04 -0.6,-0.14667c-0.10667,-0.06667 -0.15997,-0.17333 -0.18667,-0.30667c-0.21333,-0.44 -0.53333,-1.01333 -0.93333,-1.72c-0.0267,-0.04 -0.04,-0.09333 -0.04,-0.16c0,-0.10667 0.0267,-0.22667 0.08,-0.38667c0.09334,-0.16 0.25334,-0.30667 0.48,-0.41333c0.14667,-0.06667 0.29334,-0.10667 0.44,-0.10667c0.37333,0 0.64,0.12 0.81333,0.36z"/><path d="M294.50654,177.61334v-1.6c0.01334,-0.50667 0.32,-0.77333 0.90667,-0.8c0.58666,0 0.89329,0.26667 0.91999,0.8v1.61333c0.21334,0.02667 0.38667,0.06667 0.50667,0.14667c0.04,-0.06667 0.09333,-0.13334 0.17333,-0.18667c0.70667,-0.77333 1.25333,-1.53333 1.65333,-2.25333c0.21333,-0.18667 0.4,-0.28 0.57333,-0.28c0.30667,0 0.57334,0.08 0.78667,0.24c0.16,0.13333 0.26666,0.26667 0.30666,0.41333h2.53333c0.89333,0 1.34666,0.29333 1.34666,0.86666c0,0.21333 -0.16,0.56 -0.45333,1.06666h0.2c0.74667,0 1.12,0.44 1.12,1.30666v2.75999c0,0.28 -0.08,0.46667 -0.22667,0.57333c-0.13333,0.13333 -0.32,0.2 -0.58666,0.2c-0.30667,0 -0.53333,-0.06667 -0.66667,-0.2c-0.09333,-0.09333 -0.13333,-0.24 -0.13333,-0.45333v-0.14667c-0.05333,0.01333 -0.09333,0.01333 -0.13333,0.01333h-1.01333c-0.49334,0 -0.73334,-0.24 -0.73334,-0.72v-1.69333c0,-0.05333 0,-0.09333 0.0133,-0.12h-0.29333c-0.0133,0.14667 -0.0266,0.30667 -0.0533,0.49333c-0.08,0.53333 -0.22666,0.98666 -0.42666,1.34666c-0.17334,0.4 -0.44,0.73333 -0.78667,1.02666c-0.10666,0.08 -0.21333,0.10667 -0.32,0.10667c-0.2,0 -0.36,-0.04 -0.49333,-0.14667c-0.02667,0.16 -0.06667,0.28 -0.14667,0.33333c-0.13333,0.10667 -0.34666,0.16 -0.63999,0.16c-0.28,0 -0.48,-0.05333 -0.6,-0.18667c-0.14664,-0.13333 -0.21334,-0.33333 -0.21334,-0.58666v-2.75999c-0.18666,-0.02667 -0.35999,-0.10667 -0.49333,-0.25333c-0.01333,0.29333 -0.06666,0.48 -0.14666,0.58667c-0.14667,0.18667 -0.36,0.28 -0.65334,0.29333v1.14666c0.0266,0 0.0666,-0.01333 0.0933,-0.01333c0.24,0 0.44,0.09333 0.62666,0.26667c0.11997,0.17333 0.18667,0.38667 0.18667,0.64c0,0.28 -0.08,0.49333 -0.22667,0.64c-0.10666,0.13333 -0.32,0.22667 -0.62666,0.28c-0.0266,0 -0.0533,0.01333 -0.0533,0.01333v3.37332c0,0.90667 -0.51999,1.37333 -1.53333,1.37333c-0.49333,-0.02667 -0.82666,-0.13333 -1.01333,-0.34667c-0.20003,-0.2 -0.29333,-0.48 -0.29333,-0.82666c0,-0.4 0.04,-0.72 0.14667,-0.96c0.14666,-0.13333 0.33333,-0.21333 0.54666,-0.21333c0.21334,0 0.32,-0.09333 0.32,-0.28v-1.93333h-0.21333c-0.34667,0 -0.57333,-0.06667 -0.70667,-0.22667c-0.13329,-0.13333 -0.19999,-0.36 -0.19999,-0.68c0,-0.32 0.07999,-0.56 0.23999,-0.72c0.10667,-0.10667 0.30667,-0.16 0.62667,-0.18667c0.09333,0 0.17333,-0.01334 0.25333,-0.02667v-1.30666h-0.10666c-0.29334,0 -0.52,-0.06667 -0.69334,-0.22667c-0.18666,-0.13333 -0.26666,-0.38667 -0.26666,-0.76c0,-0.4 0.08,-0.66666 0.26666,-0.81333c0.13334,-0.10666 0.36,-0.17333 0.69334,-0.17333zM302.87989,179.16c0,0.05333 0.0133,0.09333 0.0133,0.12v1.01333c0,0.08 0.02666,0.10667 0.10666,0.10667h0.33334c0.05333,0 0.09333,0.01333 0.13333,0.01333v-1.04c0,-0.13333 -0.09333,-0.21333 -0.25333,-0.21333h-0.33334zM299.81318,180.07999c0.09336,-0.24 0.15996,-0.54667 0.18666,-0.92h-0.54666c-0.14664,0 -0.21334,0.08 -0.21334,0.21333v1.50666c0.26667,-0.21333 0.46667,-0.48 0.57334,-0.8zM301.73319,177.64c0.18667,-0.25333 0.29333,-0.41333 0.29333,-0.46666c0,-0.04 -0.13333,-0.06667 -0.37333,-0.06667h-1.93333c-0.13333,0.2 -0.25333,0.37333 -0.36,0.53333zM300.49318,182.63999v-0.10667c0,-0.21333 0.06667,-0.4 0.21334,-0.53333c0.14666,-0.14667 0.36,-0.22667 0.65333,-0.22667c0.28,0 0.48,0.05334 0.61333,0.14667c0.16,0.05333 0.24,0.26667 0.24,0.61333v0.10667h2.71999c0.28,0 0.49333,0.05333 0.62667,0.16c0.10663,0.10667 0.17333,0.29333 0.17333,0.58667c0,0.24 -0.05337,0.41334 -0.14667,0.50667c-0.14666,0.17333 -0.35999,0.25333 -0.65333,0.25333h-2.22666c0.05333,0.08 0.11997,0.14667 0.18667,0.2c0.41333,0.50666 1.23999,0.97333 2.46666,1.38666c0.28,0.09333 0.42666,0.29333 0.42666,0.58666c0,0.21333 -0.08,0.41333 -0.22666,0.61333c-0.2,0.24 -0.45333,0.36 -0.76,0.36c-0.24,0 -0.54667,-0.09333 -0.92,-0.28c-0.72,-0.36 -1.47999,-0.88 -2.27999,-1.57333c-0.10667,-0.08 -0.1867,-0.12 -0.24,-0.12c-0.05333,0 -0.13333,0.04 -0.21333,0.09333c-0.70667,0.66666 -1.4,1.17333 -2.09333,1.49333c-0.48,0.25333 -0.88,0.38666 -1.2,0.38666c-0.36,0 -0.62666,-0.14667 -0.8,-0.42666c-0.12003,-0.17333 -0.17333,-0.34667 -0.17333,-0.53333c0,-0.29333 0.12,-0.49333 0.37333,-0.6c1.25333,-0.41333 2.12,-0.88 2.6,-1.38666c0.06666,-0.06667 0.13336,-0.13333 0.18666,-0.2h-2.47999c-0.26667,0 -0.46667,-0.05333 -0.6,-0.17333c-0.13337,-0.10667 -0.18667,-0.30667 -0.18667,-0.58667c0,-0.28 0.05334,-0.48 0.18667,-0.58667c0.12,-0.10667 0.32,-0.16 0.6,-0.16z"/><path d="M312.70648,175.16c0.36,0 0.62667,0.08 0.78667,0.24c0.2,0.17333 0.30666,0.4 0.30666,0.69333h3.50666c0.96,0 1.44,0.52 1.44,1.53333v1.12c0,0.37333 -0.09333,0.61333 -0.28,0.74667c-0.18667,0.17333 -0.44,0.25333 -0.76,0.25333c-0.18666,0 -0.34666,-0.01333 -0.48,-0.05333c-0.02666,0.18667 -0.06666,0.32 -0.14666,0.4c-0.16,0.18667 -0.38667,0.28 -0.70667,0.28h-7.11998c-0.29333,0 -0.50667,-0.05333 -0.65333,-0.18667c-0.08,-0.06667 -0.1333,-0.16 -0.16,-0.28c-0.14667,0.02667 -0.30667,0.04 -0.46667,0.04c-0.36,0 -0.61333,-0.06667 -0.77333,-0.22667c-0.1867,-0.18667 -0.28,-0.44 -0.28,-0.76v-1.33333c0,-1.01333 0.48,-1.53333 1.45333,-1.53333h3.23999c0,-0.25333 0.10667,-0.49333 0.32,-0.72c0.14667,-0.13333 0.4,-0.21333 0.77333,-0.21333zM309.01316,178.71999c0.06667,0 0.1467,-0.01333 0.24,-0.01333h7.11998c0.10667,0 0.20003,0.01334 0.29333,0.02667v-0.6c0,-0.17334 -0.10666,-0.26667 -0.31999,-0.26667h-7.06665c-0.18667,0 -0.26667,0.09333 -0.26667,0.26667v0.58667zM317.82647,181.30666c0.33333,0 0.57333,0.06667 0.73333,0.2c0.11997,0.10667 0.18667,0.33333 0.18667,0.68c0,0.29333 -0.05333,0.49333 -0.16,0.6c-0.16,0.2 -0.41333,0.29333 -0.76,0.29333h-2.55999v1.92c0,0.21333 0.09333,0.32 0.30666,0.32h0.49334c0.06666,0 0.16,-0.04 0.29333,-0.14667c0.11996,-0.13333 0.18666,-0.4 0.18666,-0.8c0.02667,-0.21333 0.10667,-0.37333 0.25334,-0.49333c0.12,-0.10666 0.28,-0.17333 0.49333,-0.17333c0.32,0 0.58666,0.09333 0.78666,0.25333c0.24,0.17333 0.3733,0.46667 0.4,0.86667c0,0.72 -0.12,1.25333 -0.34666,1.61333c-0.32,0.46667 -0.77333,0.72 -1.33333,0.74667h-2.48c-0.77333,0 -1.14666,-0.45333 -1.14666,-1.34666v-2.75999h-1.38666c-0.10667,0.70666 -0.34667,1.37333 -0.69333,2c-0.52,0.85333 -1.26667,1.52 -2.24,2.02666c-0.17333,0.12 -0.4,0.18667 -0.69333,0.18667c-0.41333,0 -0.69333,-0.10667 -0.84,-0.29333c-0.24,-0.21333 -0.34666,-0.44 -0.34666,-0.65333c0,-0.29333 0.10666,-0.52 0.31999,-0.73333c0.85334,-0.41333 1.49333,-0.89333 1.89333,-1.42666c0.21334,-0.29333 0.37334,-0.65333 0.45334,-1.10666h-1.84c-0.30667,0 -0.54667,-0.06667 -0.70666,-0.2c-0.14664,-0.13333 -0.21334,-0.36 -0.21334,-0.69333c0,-0.33333 0.06667,-0.56 0.21334,-0.68c0.14666,-0.13333 0.38666,-0.2 0.70666,-0.2z"/><path d="M329.95981,175.76c0.58667,0 1.04,0.10667 1.33333,0.29333c0.32,0.24 0.48,0.57333 0.48,1.02666c-0.02667,0.61333 -0.34667,1.26666 -0.96,1.95999c-0.64,0.73333 -1.62666,1.45333 -2.95999,2.17333c0.04003,0.13333 0.08003,0.25333 0.13333,0.36c0.29333,0.86666 0.45333,1.64 0.45333,2.33333c0,1.14666 -0.26666,1.99999 -0.79999,2.53333c-0.53334,0.50666 -1.32,0.77333 -2.37333,0.8c-1.04,0 -2.01333,-0.21333 -2.94666,-0.62667c-0.32,-0.17333 -0.49333,-0.41333 -0.49333,-0.72c0,-0.32 0.06666,-0.6 0.21333,-0.84c0.12,-0.17334 0.29333,-0.26667 0.52,-0.26667c0.21333,0 0.4,0.04 0.56,0.10667c0.76,0.25333 1.29333,0.37333 1.61333,0.37333c0.65333,0 1.14666,-0.10667 1.47999,-0.32c0.16,-0.24 0.24,-0.68 0.24,-1.32c0,-0.44 -0.45333,-1.56 -1.35999,-3.35999c-0.10667,-0.25333 -0.14667,-0.42667 -0.14667,-0.52c0,-0.24 0.14667,-0.46667 0.44,-0.68c0.21333,-0.16 0.46666,-0.24 0.76,-0.26667c0.33333,0 0.62666,0.18667 0.86666,0.56c0.0266,0.05334 0.04,0.08 0.0533,0.10667c0.73334,-0.37333 1.30667,-0.74666 1.73333,-1.10666c0.30667,-0.26667 0.46667,-0.50667 0.46667,-0.69333c0,-0.05333 -0.06667,-0.08 -0.2,-0.08h-7.78665c-0.30666,0 -0.53333,-0.08 -0.66666,-0.24c-0.17334,-0.13333 -0.25334,-0.36 -0.25334,-0.68c0,-0.28 0.09334,-0.52 0.30667,-0.70666c0.10667,-0.13333 0.32,-0.2 0.61333,-0.2z"/><path d="M344.98646,180.78664c0,0.4 -0.22667,0.69333 -0.66667,0.86667c-0.58666,0.22667 -1.46666,0.56 -2.61333,1.01333c0.0266,0.34667 0.0533,0.65333 0.0533,0.90667c0,0.29333 -0.09333,0.52 -0.28,0.69333c-0.18667,0.18667 -0.41333,0.26667 -0.69333,0.26667c-0.65333,0 -0.97333,-0.34667 -0.97333,-1.06666c-1.24,0.46667 -1.85333,0.86666 -1.85333,1.21333c0,0.32 0.53333,0.46667 1.61333,0.46667c0.66666,0 1.41333,-0.02666 2.26666,-0.09333l1.23999,-0.09333c0.26667,0 0.50667,0.09333 0.69334,0.26667c0.1867,0.18667 0.28,0.41333 0.28,0.68c0,0.49333 -0.29334,0.77333 -0.85334,0.84c-0.83999,0.09334 -2.05332,0.14667 -3.62665,0.14667c-1.10667,0 -1.92,-0.12 -2.42666,-0.34667c-0.74667,-0.34667 -1.12,-0.96 -1.12,-1.86666c0,-0.61333 0.45333,-1.24 1.37333,-1.86666c0.4,-0.26667 1.09333,-0.64 2.09333,-1.12c-0.24,-0.48 -0.58667,-0.73333 -1.04,-0.73333c-0.65333,0 -1.21333,0.18667 -1.69333,0.56c-0.48,0.38667 -0.94666,0.77333 -1.4,1.14666c-0.24,0.16 -0.46666,0.24 -0.67999,0.24c-0.24,0 -0.44,-0.08 -0.6,-0.24c-0.16,-0.16 -0.24,-0.37333 -0.24,-0.61333c0,-0.26667 0.12,-0.54667 0.38666,-0.81333c0.69334,-0.70666 1.38667,-1.57333 2.08,-2.58666c-0.64,0.02667 -1.06667,0.04 -1.28,0.04c-0.28,0 -0.50666,-0.08 -0.69333,-0.24c-0.1867,-0.16 -0.28,-0.37333 -0.28,-0.65333c0,-0.25333 0.09333,-0.46667 0.28,-0.62667c0.18667,-0.14667 0.41333,-0.22667 0.69333,-0.22667c0.50667,0 1.29333,-0.02667 2.38666,-0.08c0.13334,-0.29333 0.28,-0.6 0.42667,-0.92c0.2,-0.33333 0.46666,-0.50666 0.78666,-0.50666c0.25334,0 0.48,0.09333 0.66667,0.25333c0.17336,0.17333 0.26666,0.38666 0.26666,0.64c0,0.09333 -0.0267,0.24 -0.08,0.42667l2.77333,-0.2c0.26667,0 0.48,0.09333 0.66667,0.25333c0.16003,0.17333 0.25333,0.38666 0.25333,0.64c0,0.50667 -0.29333,0.77334 -0.86667,0.82666c-1.09333,0.08 -2.35999,0.16 -3.79999,0.26667c-0.21333,0.32 -0.42666,0.64 -0.64,0.94666c0.02667,0 0.18667,-0.04 0.45334,-0.09333c0.17333,-0.02666 0.32,-0.05333 0.45333,-0.05333c1.14666,0 1.97333,0.52 2.47999,1.56c1.62667,-0.69333 2.57333,-1.04 2.86666,-1.04c0.25333,0 0.46667,0.09333 0.62667,0.26667c0.16,0.18667 0.24,0.4 0.24,0.65333z"/><path d="M350.43973,175.52c0.25334,0.21333 0.38667,0.44 0.38667,0.69333c0,0.22667 -0.06667,0.41333 -0.2,0.57333c-0.53333,0.92 -1.26666,1.76 -2.18666,2.51999c-0.18667,0.18667 -0.41333,0.28 -0.68,0.28c-0.32,0 -0.61333,-0.12 -0.85333,-0.38667c-0.20003,-0.22667 -0.29333,-0.49333 -0.29333,-0.78666c0,-0.10667 0.09333,-0.26667 0.28,-0.45333c0.22666,-0.18667 0.42666,-0.36 0.61333,-0.54667c0.70666,-0.69333 1.28,-1.33333 1.71999,-1.93333c0.10667,-0.13333 0.26667,-0.22667 0.46667,-0.26667c0.24,0.02667 0.48,0.12 0.74666,0.30667zM350.41311,178.27999c0.22666,0.02667 0.45333,0.12 0.69333,0.29333c0.16,0.13333 0.2667,0.26667 0.32,0.42667c0,-0.01333 0.0134,-0.02667 0.0267,-0.04c0.13333,-0.12 0.34666,-0.18667 0.63999,-0.18667h1.78667v-0.88h-1.52c-0.29333,0 -0.50667,-0.05333 -0.64,-0.18667c-0.14663,-0.10667 -0.21333,-0.30667 -0.21333,-0.61333c0,-0.30667 0.06666,-0.52 0.21333,-0.62667c0.13333,-0.12 0.34667,-0.18667 0.64,-0.18667h1.52v-0.22667c0,-0.33333 0.06666,-0.57333 0.22666,-0.70666c0.12,-0.16 0.36,-0.24 0.73333,-0.24c0.37334,0 0.61333,0.08 0.74667,0.22667c0.14666,0.14667 0.22666,0.38667 0.22666,0.72v0.22667h1.93333c0.29334,0 0.52,0.06667 0.66667,0.18667c0.11996,0.10667 0.18666,0.30667 0.18666,0.62667c0,0.25333 -0.05333,0.44 -0.16,0.54667c-0.16,0.17333 -0.38666,0.25333 -0.69333,0.25333h-1.93333v0.88h2.2c0.29333,0 0.52,0.06667 0.65333,0.18667c0.11997,0.10667 0.18667,0.32 0.18667,0.62666c0,0.25333 -0.05334,0.44 -0.16,0.54667c-0.14667,0.18667 -0.37334,0.26667 -0.68,0.26667h-0.52v0.96h0.69333c0.32,0 0.54667,0.06667 0.69333,0.17333c0.11997,0.12 0.18667,0.33333 0.18667,0.65333c0,0.26667 -0.05333,0.45333 -0.16,0.56c-0.16,0.18667 -0.4,0.28 -0.72,0.28h-0.69333v2.86666c0,0.90666 -0.64,1.4 -1.89333,1.45333c-0.32,0 -0.6,-0.02666 -0.86666,-0.05333c-0.25334,-0.02667 -0.48,-0.09334 -0.66667,-0.18667c-0.13333,-0.10667 -0.22666,-0.24 -0.30666,-0.37333c-0.08,-0.2 -0.12,-0.44 -0.12,-0.73333c-0.21334,0.12 -0.42667,0.18667 -0.64,0.2c-0.46667,0 -0.77333,-0.2 -0.90667,-0.61333c-0.10666,-0.45333 -0.22666,-0.88 -0.33333,-1.26666c-0.0267,-0.06667 -0.04,-0.13334 -0.04,-0.18667c0,-0.26667 0.12,-0.50666 0.38667,-0.70666c0.24,-0.16 0.50666,-0.24 0.79999,-0.24c0.36,0 0.61334,0.14667 0.74667,0.41333c0.13333,0.32 0.28,0.73333 0.41333,1.26666c0.0266,0.10667 0.0533,0.2 0.0533,0.26667c0,0.09333 -0.0134,0.17333 -0.0267,0.24c0.12,-0.02666 0.24,-0.04 0.34666,-0.05333h0.8c0.25333,0 0.38667,-0.08 0.38667,-0.26667v-2.02666h-3.70666c-0.29333,0 -0.52,-0.05333 -0.66666,-0.18667c-0.14664,-0.12 -0.21334,-0.33333 -0.21334,-0.65333c0,-0.32 0.06667,-0.53333 0.21334,-0.65333c0.13333,-0.10666 0.34666,-0.17333 0.66666,-0.17333h3.70666v-0.96h-3.53333c-0.29333,0 -0.50666,-0.05333 -0.63999,-0.18667c-0.10667,-0.09333 -0.17337,-0.25333 -0.18667,-0.46667c-0.30667,0.50666 -0.65333,0.98666 -1.02667,1.42666v5.26665c0,0.32 -0.09333,0.54666 -0.25333,0.68c-0.13333,0.14667 -0.36,0.22667 -0.66666,0.22667c-0.29334,0 -0.52,-0.08 -0.65333,-0.22667c-0.17334,-0.13333 -0.25334,-0.36 -0.25334,-0.68v-3.46666c-0.21333,0.17333 -0.46666,0.25333 -0.76,0.25333c-0.31999,0 -0.58666,-0.12 -0.81333,-0.36c-0.1867,-0.21333 -0.28,-0.46667 -0.28,-0.76c0,-0.09333 0.08,-0.24 0.26667,-0.44c0.29333,-0.21333 0.54667,-0.44 0.78666,-0.68c0.90667,-0.84 1.64,-1.62666 2.21333,-2.37333c0.14667,-0.17333 0.34667,-0.28 0.58667,-0.33333z"/><path d="M370.94635,182.11999c0,1.65333 -0.62667,2.89333 -1.88,3.70666c-1.06666,0.68 -2.46666,1.02666 -4.19999,1.02666c-0.26666,0 -0.48,-0.08 -0.64,-0.24c-0.16,-0.17333 -0.24,-0.38667 -0.24,-0.64c0,-0.25333 0.08,-0.46667 0.24,-0.62666c0.16,-0.16 0.37334,-0.24 0.64,-0.24c2.88,0 4.31999,-0.98666 4.31999,-2.98666c0,-1.02666 -0.65333,-1.54666 -1.94666,-1.54666c-1.2,0 -2.81333,0.29333 -4.85332,0.85333c-0.13333,0.04 -0.22663,0.05333 -0.29333,0.05333c-0.24,0 -0.45334,-0.09333 -0.61334,-0.28c-0.15999,-0.17333 -0.23999,-0.38666 -0.23999,-0.62666c0,-0.32 0.15999,-0.57333 0.47999,-0.74667c0.12,-0.05333 0.42667,-0.14667 0.90667,-0.28c1.63999,-0.41333 3.17332,-0.62667 4.61332,-0.62667c1.05333,0 1.92,0.26667 2.59999,0.78666c0.73333,0.58667 1.10667,1.38666 1.10667,2.41333z"/><path d="M384.07965,178.13333c-0.78667,0.16 -1.24,0.25333 -1.36,0.28c-0.61333,0.17333 -1.10666,0.41333 -1.50666,0.72c-1.22667,0.94666 -1.82667,2.11999 -1.82667,3.50666c0,1.21333 1.13333,1.81333 3.41333,1.81333c0.64,0 0.96,0.33333 0.96,0.97333c0,0.28 -0.09334,0.50667 -0.28,0.68c-0.18667,0.18667 -0.41334,0.28 -0.68,0.28c-3.57333,0 -5.34665,-1.24 -5.34665,-3.74666c0,-1.44 0.66666,-2.81333 2.01332,-4.11999c-0.86666,0.10667 -1.91999,0.24 -3.15999,0.4c-1.12,0.16 -1.67996,0.22667 -1.70666,0.22667c-0.29333,0 -0.53333,-0.08 -0.70667,-0.26667c-0.18666,-0.18667 -0.26666,-0.44 -0.26666,-0.76c0,-0.4 0.18666,-0.69333 0.58666,-0.85333c0.17334,-0.06667 0.54667,-0.13333 1.13333,-0.21333c4.46666,-0.53333 7.37332,-0.81333 8.73332,-0.81333c0.27999,0 0.50666,0.09333 0.69333,0.26667c0.17336,0.18667 0.26666,0.41333 0.26666,0.69333c0,0.50667 -0.32,0.81333 -0.95999,0.93333z"/><path d="M398.11957,184.14665c0,0.28 -0.09334,0.50666 -0.28,0.68c-0.18667,0.18667 -0.42667,0.26667 -0.69333,0.26667c-0.58667,0 -0.91997,-0.30667 -0.98667,-0.93333c-0.21333,-1.81333 -0.68,-3.69332 -1.39999,-5.66665c-0.0666,-0.16 -0.0933,-0.30667 -0.0933,-0.41333c0,-0.26667 0.09334,-0.48 0.30667,-0.66666c0.21333,-0.17334 0.45333,-0.26667 0.72,-0.26667c0.37333,0 0.65333,0.2 0.86666,0.58666c0.26667,0.53333 0.6,1.57333 0.98667,3.14666c0.37333,1.58666 0.57333,2.67999 0.57333,3.26666zM393.39956,183.13332c0,0.66666 -0.37333,1.4 -1.09333,2.21333c-0.73333,0.81333 -1.42666,1.22666 -2.06666,1.22666c-1.01333,0 -1.73333,-0.56 -2.17333,-1.70666c-0.26667,-0.66666 -0.44,-1.65333 -0.54667,-2.98666c-0.04,-0.45333 -0.0533,-0.97333 -0.0533,-1.57333c0,-1.12 0.04003,-1.97333 0.13333,-2.54666c0.09334,-0.61333 0.48,-0.93333 1.16,-0.93333c0.26667,0 0.49333,0.09333 0.66667,0.26667c0.16003,0.17333 0.25333,0.4 0.25333,0.66666c0,0.08 -0.0133,0.64 -0.04,1.68c-0.04,1.04 -0.0533,1.68 -0.0533,1.89333c0,0.61333 0.04,1.2 0.14666,1.77333c0.13334,0.86667 0.36,1.29333 0.65333,1.29333c0.29334,0 0.68,-0.44 1.16,-1.34666c0.24,-0.46667 0.52,-0.70666 0.82667,-0.70666c0.67999,0 1.02666,0.26667 1.02666,0.78666z"/><path d="M410.94628,185.06666c0,0.25333 -0.09334,0.48 -0.26667,0.69333c-0.17333,0.21334 -0.38667,0.30667 -0.62667,0.30667c-0.21333,0 -0.42666,-0.05333 -0.66666,-0.18667c-0.21333,-0.12 -0.41333,-0.24 -0.61333,-0.37333c-0.45333,-0.25333 -0.94667,-0.50666 -1.50667,-0.76c-0.22666,0.56 -0.62666,1.01333 -1.18666,1.36c-0.57333,0.33333 -1.17333,0.50666 -1.81333,0.50666c-0.8,0 -1.49333,-0.13333 -2.06666,-0.38667c-0.77333,-0.33333 -1.16,-0.85333 -1.16,-1.54666c0,-0.8 0.36,-1.38666 1.08,-1.77333c0.56,-0.29333 1.29333,-0.45333 2.17333,-0.45333c0.45333,0 0.90666,0.04 1.38666,0.09333l-0.0267,-1.02666c-0.44,0.01333 -0.77334,0.01333 -1.01334,0.01333h-1.25333c-0.55999,0 -0.93333,-0.02667 -1.11999,-0.08c-0.42667,-0.10667 -0.64,-0.34667 -0.64,-0.74667c0,-0.57333 0.29333,-0.86666 0.89333,-0.86666c0.26667,0 0.68,0 1.24,0c0.54666,0.01333 0.95999,0.01333 1.23999,0.01333c0.4,0 0.6,0 0.6,0l-0.0267,-1.13333c-0.53334,0.02667 -1.25333,0.02667 -2.16,0.02667c-0.74666,0 -1.18666,-0.01333 -1.34666,-0.04c-0.56,-0.10667 -0.82667,-0.37333 -0.82667,-0.81333c0,-0.56 0.32,-0.84 0.97333,-0.84c0.22667,0 0.57334,0 1.05334,0c0.46666,0.01333 0.81333,0.01333 1.05333,0.01333c0.24,0 0.63999,0 1.19999,-0.02667v-0.51999c0,-0.28 0.09334,-0.50666 0.28,-0.69333c0.17333,-0.17334 0.4,-0.26667 0.69333,-0.26667c0.26667,0 0.50667,0.09333 0.69334,0.28c0.17336,0.18667 0.26666,0.41333 0.26666,0.68v0.41333c0.89333,-0.05333 1.66666,-0.13333 2.33333,-0.24c0.10667,-0.01334 0.1867,-0.02667 0.24,-0.02667c0.24,0 0.46666,0.08 0.65333,0.21333c0.17337,0.14667 0.26667,0.33333 0.26667,0.57333c0,0.48 -0.26667,0.78666 -0.78667,0.90667c-0.4,0.10667 -1.28,0.18667 -2.66666,0.26666l0.0267,1.13333c0.69333,-0.04 1.43999,-0.13333 2.25333,-0.26667c0.10666,-0.01334 0.21336,-0.02667 0.30666,-0.02667c0.56,0 0.85333,0.26667 0.85333,0.78666c0,0.28 -0.06666,0.48 -0.17333,0.6c-0.13333,0.13333 -0.33333,0.24 -0.6,0.30667c-0.42666,0.10667 -1.29333,0.2 -2.57333,0.28c0.0134,0.4 0.0267,0.92 0.0267,1.53333c1.21333,0.38667 2.16,0.81333 2.85333,1.29333c0.32,0.22667 0.48,0.49333 0.48,0.8zM404.29294,184.01332c-0.88,0 -1.30666,0.17333 -1.30666,0.52c0,0.37333 0.41333,0.56 1.26666,0.56c0.58666,0 1,-0.30667 1.25333,-0.94666c-0.41333,-0.08 -0.81333,-0.13333 -1.21333,-0.13333z"/><path d="M425.05283,177.94667c0,0.50667 -0.26666,0.74667 -0.78666,0.74667c-0.56,0 -1.46666,-0.02667 -2.71999,-0.08c-0.0133,0.50667 -0.0266,1.26666 -0.0533,2.26666c0.28,0.48 0.42667,1 0.42667,1.54666c0,0.82666 -0.28,1.62666 -0.81333,2.39999c-0.50667,0.72 -1.14667,1.28 -1.90666,1.70666c-0.61334,0.33333 -1.18667,0.50667 -1.72,0.50667c-0.58666,0 -0.86666,-0.30667 -0.86666,-0.89333c0,-0.33333 0.24,-0.61333 0.74666,-0.82666c0.69333,-0.29333 1.29333,-0.68 1.82666,-1.13333c-0.95999,0 -1.70666,-0.17333 -2.25332,-0.52c-0.64,-0.4 -0.96,-1.01333 -0.96,-1.84c0,-0.74666 0.29333,-1.32 0.90666,-1.72c0.50667,-0.33333 1.12,-0.50667 1.85333,-0.50667c0.24,0 0.52,0.01333 0.82667,0.04v-1.02666l-2.6,0.09333c-0.21333,0.01333 -0.61333,0.04 -1.2,0.09333c-0.50666,0.05334 -0.89333,0.06667 -1.18666,0.06667c-0.21333,0 -0.4,-0.06667 -0.56,-0.22667c-0.15996,-0.16 -0.22666,-0.34667 -0.22666,-0.57333c0,-0.65333 0.46666,-0.98666 1.39999,-0.98666c0.24,0 1.65333,-0.02667 4.23999,-0.08v-0.72c0,-0.22667 0.10667,-0.42667 0.34667,-0.6c0.21333,-0.17334 0.45333,-0.26667 0.69333,-0.26667c0.72,0 1.08,0.50667 1.08,1.52c0.18666,0 0.49333,0 0.90666,-0.01333c0.4,0 0.69333,0 0.90667,0c0.53333,0 0.91999,0.04 1.13333,0.12c0.37333,0.16 0.55999,0.45333 0.55999,0.90666zM419.31957,181.17332c-0.18667,-0.13333 -0.4,-0.21333 -0.65334,-0.21333c-0.22666,0 -0.41333,0.09333 -0.57333,0.26667c-0.16,0.18667 -0.24,0.4 -0.24,0.61333c0,0.53333 0.30667,0.8 0.93333,0.8c0.53334,0 0.81334,-0.29333 0.81334,-0.88c0,-0.25333 -0.09334,-0.45333 -0.28,-0.58666z"/></g><path d="M0,155h480.00001v50h-480.00001z" fill-opacity="0" fill="#a60000" fill-rule="evenodd" stroke="none" stroke-width="0.3175" stroke-linecap="round" stroke-linejoin="round"/><g fill="#000000" fill-rule="nonzero" stroke="none" stroke-width="0.26458" stroke-linecap="butt" stroke-linejoin="miter"><path d="M250.41335,175.49334c0.82666,0 1.25333,0.42667 1.25333,1.25333v9.17331c0,0.82667 -0.42667,1.24 -1.25333,1.24h-3.79999c-0.84,0 -1.25333,-0.41333 -1.25333,-1.24v-2.82666c-0.17333,0.16 -0.38667,0.24 -0.65333,0.24c-0.18667,0 -0.42667,-0.17333 -0.69333,-0.53333v3.50666c0,0.24 -0.06667,0.45333 -0.2,0.64c-0.16,0.22667 -0.41334,0.34667 -0.78667,0.34667c-0.34666,0 -0.61333,-0.12 -0.77333,-0.33333c-0.15997,-0.18667 -0.22667,-0.4 -0.22667,-0.65333v-3.15999c-0.26666,0.54667 -0.47999,0.90666 -0.66666,1.06666c-0.13333,0.18667 -0.33333,0.26667 -0.6,0.26667c-0.26666,0 -0.46666,-0.09333 -0.6,-0.28c-0.18666,-0.21333 -0.26666,-0.45333 -0.26666,-0.73333c0,-0.17333 0.05333,-0.37333 0.17333,-0.6c0.62666,-0.93333 1.22666,-2.06666 1.8,-3.38666h-0.8c-0.29334,0 -0.52,-0.06667 -0.69333,-0.21333c-0.18667,-0.13333 -0.26667,-0.4 -0.26667,-0.77333c0,-0.4 0.08,-0.66667 0.26667,-0.81333c0.13333,-0.10666 0.35999,-0.17333 0.69333,-0.17333h0.95999v-1.25333c0,-0.30667 0.09334,-0.54666 0.29334,-0.72c0.14666,-0.17334 0.38666,-0.26667 0.70666,-0.26667c0.29334,0 0.53333,0.09333 0.70667,0.26667c0.1867,0.17333 0.28,0.41333 0.28,0.72v1.25333h0.54666c0.32,0 0.54667,0.06667 0.70667,0.2c0.04,0.02666 0.0666,0.06666 0.0933,0.09333v-1.05333c0,-0.82666 0.41333,-1.25333 1.25333,-1.25333zM245.36,181.51999v-2.33333c-0.18667,0.2 -0.45333,0.29333 -0.8,0.29333h-0.54666v0.76c0.37333,0.44 0.82666,0.86666 1.34666,1.28zM249.58666,185.02665v-1.37333h-2.13333v1.37333c0,0.28 0.13333,0.41333 0.41333,0.41333h1.29333c0.28,0 0.42667,-0.13333 0.42667,-0.41333zM249.58666,181.98665v-1.46666h-2.13333v1.46666zM249.58666,178.85333v-1.21333c0,-0.28 -0.14667,-0.42666 -0.42667,-0.42666h-1.29333c-0.28,0 -0.41333,0.14667 -0.41333,0.42666v1.21333z"/><path d="M264.63995,175.49334c0.16003,0.2 0.25333,0.42667 0.25333,0.68c0,0.46667 -0.24,0.76 -0.69333,0.88c-1.09333,0.22667 -2.30666,0.41333 -3.61332,0.56c0.13333,0.48 0.24,0.94666 0.34666,1.37333h3.42666c0.32,0 0.56,0.06667 0.70667,0.2c0.1333,0.10667 0.2,0.33333 0.2,0.66666c0,0.26667 -0.06667,0.46667 -0.17334,0.57333c-0.16,0.18667 -0.41333,0.28 -0.73333,0.28h-3.07999c0.05337,0.4 0.10667,0.78666 0.14667,1.14666h3.19999c0.34666,0 0.58666,0.08 0.73333,0.21333c0.13333,0.10667 0.21333,0.34667 0.21333,0.69333c0,0.29333 -0.06666,0.50667 -0.17333,0.61333c-0.16,0.21334 -0.42667,0.30667 -0.77333,0.30667h-3.13333c-0.02666,1.4 -0.25333,2.33333 -0.66666,2.81333c-0.46667,0.53333 -1.2,0.8 -2.18666,0.8c-1.30667,-0.02667 -2.29333,-0.21333 -2.94666,-0.54666c-0.34667,-0.16 -0.53333,-0.45333 -0.53333,-0.85333c0,-0.29333 0.06666,-0.53333 0.21333,-0.73333c0.14666,-0.18667 0.33333,-0.29334 0.54666,-0.30667c0.26667,0 0.61333,0.08 1.05333,0.21333c0.64,0.17333 1.14667,0.25333 1.50667,0.25333c0.44,0 0.70666,-0.14667 0.81333,-0.44c0.0667,-0.12 0.1067,-0.52 0.12,-1.2h-5.18666c-0.32,0 -0.55999,-0.06667 -0.71999,-0.21333c-0.15997,-0.13333 -0.22667,-0.36 -0.22667,-0.70666c0,-0.34667 0.06667,-0.57333 0.22667,-0.69333c0.14666,-0.13333 0.38666,-0.21333 0.71999,-0.21333h5.13332c-0.04,-0.37333 -0.0933,-0.74667 -0.16,-1.14666h-4.70665c-0.30667,0 -0.53333,-0.06667 -0.69333,-0.2c-0.14663,-0.10667 -0.21333,-0.33333 -0.21333,-0.65333c0,-0.33333 0.06666,-0.56 0.21333,-0.66666c0.14666,-0.13333 0.37333,-0.2 0.69333,-0.2h4.37332c-0.10666,-0.41333 -0.21333,-0.8 -0.32,-1.17333c-1.59999,0.14666 -2.87999,0.21333 -3.81332,0.21333c-0.62667,0 -0.93333,-0.36 -0.93333,-1.09333c0.01333,-0.46667 0.30666,-0.73333 0.89333,-0.78666c3.26666,-0.10667 6.17332,-0.41333 8.71998,-0.89333c0.24,-0.02667 0.42666,-0.04 0.58666,-0.04c0.25334,0 0.46667,0.09333 0.64,0.28z"/><path d="M278.54654,181.29332c0,1.30666 -0.37333,2.41333 -1.10666,3.29333c-0.72,0.85333 -1.70666,1.45333 -2.98666,1.82666c-0.25333,0.06667 -0.41337,0.10667 -0.46667,0.10667c-0.29333,0 -0.53333,-0.10667 -0.71999,-0.30667c-0.1867,-0.18667 -0.28,-0.44 -0.28,-0.73333c0,-0.33333 0.21333,-0.61333 0.64,-0.82666c0.18666,-0.08 0.49333,-0.2 0.89333,-0.37333c1.38666,-0.65333 2.09332,-1.65333 2.09332,-2.98666c0,-1.78666 -0.93333,-2.78666 -2.78666,-2.99999c0.0134,0.28 0.0267,0.45334 0.0267,0.50666c0,0.8 -0.12,1.62666 -0.34666,2.50666c-0.29334,1.12 -0.73334,2.10666 -1.30667,2.94666c-0.77333,1.12 -1.61333,1.66666 -2.54666,1.66666c-0.81333,0 -1.45333,-0.37333 -1.91999,-1.12c-0.4,-0.64 -0.6,-1.38666 -0.6,-2.23999c0,-1.84 0.53333,-3.31999 1.59999,-4.42666c1.05333,-1.09333 2.50666,-1.63999 4.34666,-1.63999c1.62666,0 2.91999,0.38666 3.89332,1.16c1.04,0.84 1.57333,2.05333 1.57333,3.63999zM271.9066,178.38666c-0.98666,0.24 -1.72,0.73333 -2.22666,1.50666c-0.48,0.72 -0.70667,1.6 -0.70667,2.63999c0,0.97333 0.22667,1.45333 0.68,1.45333c0.16,0 0.37333,-0.12 0.62667,-0.37333c0.54666,-0.54667 0.97333,-1.30666 1.26666,-2.29333c0.24,-0.82666 0.37333,-1.70666 0.37333,-2.61333z"/><path d="M286.03987,175.00001c0.36,0 0.62666,0.08 0.78666,0.24c0.2,0.17333 0.30667,0.41333 0.30667,0.72v0.16h4.15999c0.29333,0 0.52,0.06667 0.65333,0.18667c0.11997,0.10667 0.18667,0.32 0.18667,0.62667c0,0.25333 -0.05334,0.44 -0.16,0.54667c-0.14667,0.17333 -0.37334,0.25333 -0.68,0.25333h-2.49333v2.97333c0,0.52 -0.17333,0.88 -0.49333,1.09333h1.16c0.45333,0 0.79999,0.06667 1.03999,0.2c0.34667,0.24 0.53334,0.56 0.53334,0.93333c0,0.30667 -0.24,0.62667 -0.69334,0.96c-0.53333,0.4 -1.17333,0.77333 -1.93332,1.14666c0.93333,0.21333 1.94666,0.36 3.06666,0.41333c0.43999,0.04 0.67996,0.29333 0.70666,0.76c0,0.29333 -0.06667,0.52 -0.17333,0.66666c-0.09334,0.21333 -0.32,0.33333 -0.69333,0.36c-0.65334,0 -1.36,-0.05334 -2.12,-0.14667c-1.17333,-0.18667 -2.27999,-0.49333 -3.33332,-0.94666c-0.68,0.24 -1.38667,0.45333 -2.10667,0.66666c-1.22666,0.32 -2.05332,0.50666 -2.47999,0.53333c-0.36,0 -0.62666,-0.12 -0.78666,-0.33333c-0.16,-0.17333 -0.24,-0.34667 -0.24,-0.50666c0,-0.38667 0.13333,-0.65333 0.42666,-0.82666c1.10667,-0.24 2.10666,-0.46667 3.01333,-0.70666c-0.45333,-0.30667 -0.84,-0.62667 -1.16,-0.97333c-0.0266,-0.02667 -0.0533,-0.04 -0.0533,-0.06667c-0.24,0.13333 -0.48,0.26667 -0.70667,0.37333c-0.16,0.12 -0.34666,0.17333 -0.54666,0.17333c-0.29333,0 -0.54667,-0.12 -0.76,-0.36c-0.17333,-0.18667 -0.25333,-0.37333 -0.25333,-0.57333c0,-0.16 0.08,-0.30667 0.24,-0.44c0.85333,-0.41333 1.61333,-0.81333 2.25332,-1.21333c-0.1067,-0.10667 -0.16,-0.29333 -0.16,-0.53333c0.02667,-0.08 0.09334,-0.16 0.2,-0.25333c0.64,-0.70666 1.00003,-1.44 1.05333,-2.18666v-1.18666h-2.85332c-0.29333,0 -0.50667,-0.05333 -0.64,-0.17333c-0.1333,-0.10667 -0.2,-0.32 -0.2,-0.62667c0,-0.29333 0.06667,-0.50666 0.2,-0.62667c0.13333,-0.12 0.34667,-0.18667 0.64,-0.18667h3.99999v-0.16c0,-0.26667 0.10666,-0.50667 0.32,-0.74667c0.14666,-0.13333 0.4,-0.21333 0.77333,-0.21333zM286.06657,184.26665c0.16,-0.05333 0.31999,-0.10667 0.46666,-0.16c1.09333,-0.37333 1.64,-0.62667 1.64,-0.76c0,-0.09334 -0.08,-0.14667 -0.24,-0.14667h-3.57333c0.57334,0.42667 1.14667,0.78666 1.70667,1.06666zM286.21323,181.79999c-0.08,-0.10667 -0.14666,-0.21333 -0.18666,-0.32c-0.0666,-0.2 -0.0933,-0.45333 -0.0933,-0.76c0,-0.2 0.02667,-0.38667 0.10667,-0.54667c0.08,-0.05333 0.17333,-0.09333 0.25333,-0.12h0.34667c0.25333,0 0.38666,-0.08 0.38666,-0.25333v-2.06666h-1.45333v0.96c0,0.4 -0.05333,0.77333 -0.13333,1.14666c-0.09333,0.4 -0.21333,0.74667 -0.34667,1.02666c0.04,0.02666 0.0666,0.04 0.0933,0.05333c0.1867,0.14667 0.28,0.30667 0.28,0.48c0,0.13333 -0.06667,0.26667 -0.17334,0.4zM282.39991,178.48c0.1867,0.10667 0.28,0.34667 0.28,0.72c0,0.10667 -0.05337,0.24 -0.14667,0.42667c-0.25333,0.58666 -0.52,1.05333 -0.81333,1.37333c-0.13333,0.28 -0.37333,0.41333 -0.69333,0.41333c-0.24,0 -0.48,-0.08 -0.69333,-0.25333c-0.22667,-0.14667 -0.33334,-0.36 -0.33334,-0.65333c0,-0.08 0.04,-0.18667 0.12,-0.30667c0.30667,-0.37333 0.58667,-0.84 0.84,-1.38666c0.14667,-0.38667 0.36,-0.58667 0.65333,-0.58667c0.32,0 0.57334,0.09333 0.78667,0.25333zM291.18655,178.63999c0.18667,0.18667 0.4,0.56 0.66667,1.12c0.14666,0.37333 0.22666,0.68 0.22666,0.89333c0,0.25333 -0.08,0.44 -0.21333,0.56c-0.18667,0.2 -0.42666,0.30667 -0.73333,0.30667c-0.26667,0 -0.46667,-0.04 -0.6,-0.14667c-0.10667,-0.06667 -0.15997,-0.17333 -0.18667,-0.30667c-0.21333,-0.44 -0.53333,-1.01333 -0.93333,-1.72c-0.0267,-0.04 -0.04,-0.09333 -0.04,-0.16c0,-0.10667 0.0267,-0.22667 0.08,-0.38667c0.09334,-0.16 0.25334,-0.30667 0.48,-0.41333c0.14667,-0.06667 0.29334,-0.10667 0.44,-0.10667c0.37333,0 0.64,0.12 0.81333,0.36z"/><path d="M294.50654,177.61334v-1.6c0.01334,-0.50667 0.32,-0.77333 0.90667,-0.8c0.58666,0 0.89329,0.26667 0.91999,0.8v1.61333c0.21334,0.02667 0.38667,0.06667 0.50667,0.14667c0.04,-0.06667 0.09333,-0.13334 0.17333,-0.18667c0.70667,-0.77333 1.25333,-1.53333 1.65333,-2.25333c0.21333,-0.18667 0.4,-0.28 0.57333,-0.28c0.30667,0 0.57334,0.08 0.78667,0.24c0.16,0.13333 0.26666,0.26667 0.30666,0.41333h2.53333c0.89333,0 1.34666,0.29333 1.34666,0.86666c0,0.21333 -0.16,0.56 -0.45333,1.06666h0.2c0.74667,0 1.12,0.44 1.12,1.30666v2.75999c0,0.28 -0.08,0.46667 -0.22667,0.57333c-0.13333,0.13333 -0.32,0.2 -0.58666,0.2c-0.30667,0 -0.53333,-0.06667 -0.66667,-0.2c-0.09333,-0.09333 -0.13333,-0.24 -0.13333,-0.45333v-0.14667c-0.05333,0.01333 -0.09333,0.01333 -0.13333,0.01333h-1.01333c-0.49334,0 -0.73334,-0.24 -0.73334,-0.72v-1.69333c0,-0.05333 0,-0.09333 0.0133,-0.12h-0.29333c-0.0133,0.14667 -0.0266,0.30667 -0.0533,0.49333c-0.08,0.53333 -0.22666,0.98666 -0.42666,1.34666c-0.17334,0.4 -0.44,0.73333 -0.78667,1.02666c-0.10666,0.08 -0.21333,0.10667 -0.32,0.10667c-0.2,0 -0.36,-0.04 -0.49333,-0.14667c-0.02667,0.16 -0.06667,0.28 -0.14667,0.33333c-0.13333,0.10667 -0.34666,0.16 -0.63999,0.16c-0.28,0 -0.48,-0.05333 -0.6,-0.18667c-0.14664,-0.13333 -0.21334,-0.33333 -0.21334,-0.58666v-2.75999c-0.18666,-0.02667 -0.35999,-0.10667 -0.49333,-0.25333c-0.01333,0.29333 -0.06666,0.48 -0.14666,0.58667c-0.14667,0.18667 -0.36,0.28 -0.65334,0.29333v1.14666c0.0266,0 0.0666,-0.01333 0.0933,-0.01333c0.24,0 0.44,0.09333 0.62666,0.26667c0.11997,0.17333 0.18667,0.38667 0.18667,0.64c0,0.28 -0.08,0.49333 -0.22667,0.64c-0.10666,0.13333 -0.32,0.22667 -0.62666,0.28c-0.0266,0 -0.0533,0.01333 -0.0533,0.01333v3.37332c0,0.90667 -0.51999,1.37333 -1.53333,1.37333c-0.49333,-0.02667 -0.82666,-0.13333 -1.01333,-0.34667c-0.20003,-0.2 -0.29333,-0.48 -0.29333,-0.82666c0,-0.4 0.04,-0.72 0.14667,-0.96c0.14666,-0.13333 0.33333,-0.21333 0.54666,-0.21333c0.21334,0 0.32,-0.09333 0.32,-0.28v-1.93333h-0.21333c-0.34667,0 -0.57333,-0.06667 -0.70667,-0.22667c-0.13329,-0.13333 -0.19999,-0.36 -0.19999,-0.68c0,-0.32 0.07999,-0.56 0.23999,-0.72c0.10667,-0.10667 0.30667,-0.16 0.62667,-0.18667c0.09333,0 0.17333,-0.01334 0.25333,-0.02667v-1.30666h-0.10666c-0.29334,0 -0.52,-0.06667 -0.69334,-0.22667c-0.18666,-0.13333 -0.26666,-0.38667 -0.26666,-0.76c0,-0.4 0.08,-0.66666 0.26666,-0.81333c0.13334,-0.10666 0.36,-0.17333 0.69334,-0.17333zM302.87989,179.16c0,0.05333 0.0133,0.09333 0.0133,0.12v1.01333c0,0.08 0.02666,0.10667 0.10666,0.10667h0.33334c0.05333,0 0.09333,0.01333 0.13333,0.01333v-1.04c0,-0.13333 -0.09333,-0.21333 -0.25333,-0.21333h-0.33334zM299.81319,180.07999c0.09336,-0.24 0.15996,-0.54667 0.18666,-0.92h-0.54666c-0.14664,0 -0.21334,0.08 -0.21334,0.21333v1.50666c0.26667,-0.21333 0.46667,-0.48 0.57334,-0.8zM301.73319,177.64c0.18667,-0.25333 0.29333,-0.41333 0.29333,-0.46666c0,-0.04 -0.13333,-0.06667 -0.37333,-0.06667h-1.93333c-0.13333,0.2 -0.25333,0.37333 -0.36,0.53333zM300.49318,182.63999v-0.10667c0,-0.21333 0.06667,-0.4 0.21334,-0.53333c0.14666,-0.14667 0.36,-0.22667 0.65333,-0.22667c0.28,0 0.48,0.05334 0.61333,0.14667c0.16,0.05333 0.24,0.26667 0.24,0.61333v0.10667h2.71999c0.28,0 0.49333,0.05333 0.62667,0.16c0.10663,0.10667 0.17333,0.29333 0.17333,0.58667c0,0.24 -0.05337,0.41334 -0.14667,0.50667c-0.14666,0.17333 -0.35999,0.25333 -0.65333,0.25333h-2.22666c0.05333,0.08 0.11997,0.14667 0.18667,0.2c0.41333,0.50666 1.23999,0.97333 2.46666,1.38666c0.28,0.09333 0.42666,0.29333 0.42666,0.58666c0,0.21333 -0.08,0.41333 -0.22666,0.61333c-0.2,0.24 -0.45333,0.36 -0.76,0.36c-0.24,0 -0.54667,-0.09333 -0.92,-0.28c-0.72,-0.36 -1.47999,-0.88 -2.27999,-1.57333c-0.10667,-0.08 -0.1867,-0.12 -0.24,-0.12c-0.05333,0 -0.13333,0.04 -0.21333,0.09333c-0.70667,0.66666 -1.4,1.17333 -2.09333,1.49333c-0.48,0.25333 -0.88,0.38666 -1.2,0.38666c-0.36,0 -0.62666,-0.14667 -0.8,-0.42666c-0.12003,-0.17333 -0.17333,-0.34667 -0.17333,-0.53333c0,-0.29333 0.12,-0.49333 0.37333,-0.6c1.25333,-0.41333 2.12,-0.88 2.6,-1.38666c0.06666,-0.06667 0.13336,-0.13333 0.18666,-0.2h-2.47999c-0.26667,0 -0.46667,-0.05333 -0.6,-0.17333c-0.13337,-0.10667 -0.18667,-0.30667 -0.18667,-0.58667c0,-0.28 0.05334,-0.48 0.18667,-0.58667c0.12,-0.10667 0.32,-0.16 0.6,-0.16z"/><path d="M312.70648,175.16c0.36,0 0.62667,0.08 0.78667,0.24c0.2,0.17333 0.30666,0.4 0.30666,0.69333h3.50666c0.96,0 1.44,0.52 1.44,1.53333v1.12c0,0.37333 -0.09333,0.61333 -0.28,0.74667c-0.18667,0.17333 -0.44,0.25333 -0.76,0.25333c-0.18666,0 -0.34666,-0.01333 -0.48,-0.05333c-0.02666,0.18667 -0.06666,0.32 -0.14666,0.4c-0.16,0.18667 -0.38667,0.28 -0.70667,0.28h-7.11998c-0.29333,0 -0.50667,-0.05333 -0.65333,-0.18667c-0.08,-0.06667 -0.1333,-0.16 -0.16,-0.28c-0.14667,0.02667 -0.30667,0.04 -0.46667,0.04c-0.36,0 -0.61333,-0.06667 -0.77333,-0.22667c-0.1867,-0.18667 -0.28,-0.44 -0.28,-0.76v-1.33333c0,-1.01333 0.48,-1.53333 1.45333,-1.53333h3.23999c0,-0.25333 0.10667,-0.49333 0.32,-0.72c0.14667,-0.13333 0.4,-0.21333 0.77333,-0.21333zM309.01316,178.71999c0.06667,0 0.1467,-0.01333 0.24,-0.01333h7.11998c0.10667,0 0.20003,0.01334 0.29333,0.02667v-0.6c0,-0.17334 -0.10666,-0.26667 -0.31999,-0.26667h-7.06665c-0.18667,0 -0.26667,0.09333 -0.26667,0.26667v0.58667zM317.82647,181.30666c0.33333,0 0.57333,0.06667 0.73333,0.2c0.11997,0.10667 0.18667,0.33333 0.18667,0.68c0,0.29333 -0.05333,0.49333 -0.16,0.6c-0.16,0.2 -0.41333,0.29333 -0.76,0.29333h-2.55999v1.92c0,0.21333 0.09333,0.32 0.30666,0.32h0.49334c0.06666,0 0.16,-0.04 0.29333,-0.14667c0.11996,-0.13333 0.18666,-0.4 0.18666,-0.8c0.02667,-0.21333 0.10667,-0.37333 0.25334,-0.49333c0.12,-0.10666 0.28,-0.17333 0.49333,-0.17333c0.32,0 0.58666,0.09333 0.78666,0.25333c0.24,0.17333 0.3733,0.46667 0.4,0.86667c0,0.72 -0.12,1.25333 -0.34666,1.61333c-0.32,0.46667 -0.77333,0.72 -1.33333,0.74667h-2.48c-0.77333,0 -1.14666,-0.45333 -1.14666,-1.34666v-2.75999h-1.38666c-0.10667,0.70666 -0.34667,1.37333 -0.69333,2c-0.52,0.85333 -1.26667,1.52 -2.24,2.02666c-0.17333,0.12 -0.4,0.18667 -0.69333,0.18667c-0.41333,0 -0.69333,-0.10667 -0.84,-0.29333c-0.24,-0.21333 -0.34666,-0.44 -0.34666,-0.65333c0,-0.29333 0.10666,-0.52 0.31999,-0.73333c0.85334,-0.41333 1.49333,-0.89333 1.89333,-1.42666c0.21334,-0.29333 0.37334,-0.65333 0.45334,-1.10666h-1.84c-0.30667,0 -0.54667,-0.06667 -0.70666,-0.2c-0.14664,-0.13333 -0.21334,-0.36 -0.21334,-0.69333c0,-0.33333 0.06667,-0.56 0.21334,-0.68c0.14666,-0.13333 0.38666,-0.2 0.70666,-0.2z"/><path d="M329.95981,175.76c0.58667,0 1.04,0.10667 1.33333,0.29333c0.32,0.24 0.48,0.57333 0.48,1.02666c-0.02667,0.61333 -0.34667,1.26666 -0.96,1.95999c-0.64,0.73333 -1.62666,1.45333 -2.95999,2.17333c0.04003,0.13333 0.08003,0.25333 0.13333,0.36c0.29333,0.86666 0.45333,1.64 0.45333,2.33333c0,1.14666 -0.26666,1.99999 -0.79999,2.53333c-0.53334,0.50666 -1.32,0.77333 -2.37333,0.8c-1.04,0 -2.01333,-0.21333 -2.94666,-0.62667c-0.32,-0.17333 -0.49333,-0.41333 -0.49333,-0.72c0,-0.32 0.06666,-0.6 0.21333,-0.84c0.12,-0.17334 0.29333,-0.26667 0.52,-0.26667c0.21333,0 0.4,0.04 0.56,0.10667c0.76,0.25333 1.29333,0.37333 1.61333,0.37333c0.65333,0 1.14666,-0.10667 1.47999,-0.32c0.16,-0.24 0.24,-0.68 0.24,-1.32c0,-0.44 -0.45333,-1.56 -1.35999,-3.35999c-0.10667,-0.25333 -0.14667,-0.42667 -0.14667,-0.52c0,-0.24 0.14667,-0.46667 0.44,-0.68c0.21333,-0.16 0.46666,-0.24 0.76,-0.26667c0.33333,0 0.62666,0.18667 0.86666,0.56c0.0266,0.05334 0.04,0.08 0.0533,0.10667c0.73334,-0.37333 1.30667,-0.74666 1.73333,-1.10666c0.30667,-0.26667 0.46667,-0.50667 0.46667,-0.69333c0,-0.05333 -0.06667,-0.08 -0.2,-0.08h-7.78665c-0.30666,0 -0.53333,-0.08 -0.66666,-0.24c-0.17334,-0.13333 -0.25334,-0.36 -0.25334,-0.68c0,-0.28 0.09334,-0.52 0.30667,-0.70666c0.10667,-0.13333 0.32,-0.2 0.61333,-0.2z"/><path d="M344.98646,180.78664c0,0.4 -0.22667,0.69333 -0.66667,0.86667c-0.58666,0.22667 -1.46666,0.56 -2.61333,1.01333c0.0266,0.34667 0.0533,0.65333 0.0533,0.90667c0,0.29333 -0.09333,0.52 -0.28,0.69333c-0.18667,0.18667 -0.41333,0.26667 -0.69333,0.26667c-0.65333,0 -0.97333,-0.34667 -0.97333,-1.06666c-1.24,0.46667 -1.85333,0.86666 -1.85333,1.21333c0,0.32 0.53333,0.46667 1.61333,0.46667c0.66666,0 1.41333,-0.02666 2.26666,-0.09333l1.23999,-0.09333c0.26667,0 0.50667,0.09333 0.69334,0.26667c0.1867,0.18667 0.28,0.41333 0.28,0.68c0,0.49333 -0.29334,0.77333 -0.85334,0.84c-0.83999,0.09334 -2.05332,0.14667 -3.62665,0.14667c-1.10667,0 -1.92,-0.12 -2.42666,-0.34667c-0.74667,-0.34667 -1.12,-0.96 -1.12,-1.86666c0,-0.61333 0.45333,-1.24 1.37333,-1.86666c0.4,-0.26667 1.09333,-0.64 2.09333,-1.12c-0.24,-0.48 -0.58667,-0.73333 -1.04,-0.73333c-0.65333,0 -1.21333,0.18667 -1.69333,0.56c-0.48,0.38667 -0.94666,0.77333 -1.4,1.14666c-0.24,0.16 -0.46666,0.24 -0.67999,0.24c-0.24,0 -0.44,-0.08 -0.6,-0.24c-0.16,-0.16 -0.24,-0.37333 -0.24,-0.61333c0,-0.26667 0.12,-0.54667 0.38666,-0.81333c0.69334,-0.70666 1.38667,-1.57333 2.08,-2.58666c-0.64,0.02667 -1.06667,0.04 -1.28,0.04c-0.28,0 -0.50666,-0.08 -0.69333,-0.24c-0.1867,-0.16 -0.28,-0.37333 -0.28,-0.65333c0,-0.25333 0.09333,-0.46667 0.28,-0.62667c0.18667,-0.14667 0.41333,-0.22667 0.69333,-0.22667c0.50667,0 1.29333,-0.02667 2.38666,-0.08c0.13334,-0.29333 0.28,-0.6 0.42667,-0.92c0.2,-0.33333 0.46666,-0.50666 0.78666,-0.50666c0.25334,0 0.48,0.09333 0.66667,0.25333c0.17336,0.17333 0.26666,0.38666 0.26666,0.64c0,0.09333 -0.0267,0.24 -0.08,0.42667l2.77333,-0.2c0.26667,0 0.48,0.09333 0.66667,0.25333c0.16003,0.17333 0.25333,0.38666 0.25333,0.64c0,0.50667 -0.29333,0.77334 -0.86667,0.82666c-1.09333,0.08 -2.35999,0.16 -3.79999,0.26667c-0.21333,0.32 -0.42666,0.64 -0.64,0.94666c0.02667,0 0.18667,-0.04 0.45334,-0.09333c0.17333,-0.02666 0.32,-0.05333 0.45333,-0.05333c1.14666,0 1.97333,0.52 2.47999,1.56c1.62667,-0.69333 2.57333,-1.04 2.86666,-1.04c0.25333,0 0.46667,0.09333 0.62667,0.26667c0.16,0.18667 0.24,0.4 0.24,0.65333z"/><path d="M350.43973,175.52c0.25334,0.21333 0.38667,0.44 0.38667,0.69333c0,0.22667 -0.06667,0.41333 -0.2,0.57333c-0.53333,0.92 -1.26666,1.76 -2.18666,2.51999c-0.18667,0.18667 -0.41333,0.28 -0.68,0.28c-0.32,0 -0.61333,-0.12 -0.85333,-0.38667c-0.20003,-0.22667 -0.29333,-0.49333 -0.29333,-0.78666c0,-0.10667 0.09333,-0.26667 0.28,-0.45333c0.22666,-0.18667 0.42666,-0.36 0.61333,-0.54667c0.70666,-0.69333 1.28,-1.33333 1.71999,-1.93333c0.10667,-0.13333 0.26667,-0.22667 0.46667,-0.26667c0.24,0.02667 0.48,0.12 0.74666,0.30667zM350.41311,178.27999c0.22666,0.02667 0.45333,0.12 0.69333,0.29333c0.16,0.13333 0.2667,0.26667 0.32,0.42667c0,-0.01333 0.0134,-0.02667 0.0267,-0.04c0.13333,-0.12 0.34666,-0.18667 0.63999,-0.18667h1.78667v-0.88h-1.52c-0.29333,0 -0.50667,-0.05333 -0.64,-0.18667c-0.14663,-0.10667 -0.21333,-0.30667 -0.21333,-0.61333c0,-0.30667 0.06666,-0.52 0.21333,-0.62667c0.13333,-0.12 0.34667,-0.18667 0.64,-0.18667h1.52v-0.22667c0,-0.33333 0.06666,-0.57333 0.22666,-0.70666c0.12,-0.16 0.36,-0.24 0.73333,-0.24c0.37334,0 0.61333,0.08 0.74667,0.22667c0.14666,0.14667 0.22666,0.38667 0.22666,0.72v0.22667h1.93333c0.29334,0 0.52,0.06667 0.66667,0.18667c0.11996,0.10667 0.18666,0.30667 0.18666,0.62667c0,0.25333 -0.05333,0.44 -0.16,0.54667c-0.16,0.17333 -0.38666,0.25333 -0.69333,0.25333h-1.93333v0.88h2.2c0.29333,0 0.52,0.06667 0.65333,0.18667c0.11997,0.10667 0.18667,0.32 0.18667,0.62666c0,0.25333 -0.05334,0.44 -0.16,0.54667c-0.14667,0.18667 -0.37334,0.26667 -0.68,0.26667h-0.52v0.96h0.69333c0.32,0 0.54667,0.06667 0.69333,0.17333c0.11997,0.12 0.18667,0.33333 0.18667,0.65333c0,0.26667 -0.05333,0.45333 -0.16,0.56c-0.16,0.18667 -0.4,0.28 -0.72,0.28h-0.69333v2.86666c0,0.90666 -0.64,1.4 -1.89333,1.45333c-0.32,0 -0.6,-0.02666 -0.86666,-0.05333c-0.25334,-0.02667 -0.48,-0.09334 -0.66667,-0.18667c-0.13333,-0.10667 -0.22666,-0.24 -0.30666,-0.37333c-0.08,-0.2 -0.12,-0.44 -0.12,-0.73333c-0.21334,0.12 -0.42667,0.18667 -0.64,0.2c-0.46667,0 -0.77333,-0.2 -0.90667,-0.61333c-0.10666,-0.45333 -0.22666,-0.88 -0.33333,-1.26666c-0.0267,-0.06667 -0.04,-0.13334 -0.04,-0.18667c0,-0.26667 0.12,-0.50666 0.38667,-0.70666c0.24,-0.16 0.50666,-0.24 0.79999,-0.24c0.36,0 0.61334,0.14667 0.74667,0.41333c0.13333,0.32 0.28,0.73333 0.41333,1.26666c0.0266,0.10667 0.0533,0.2 0.0533,0.26667c0,0.09333 -0.0134,0.17333 -0.0267,0.24c0.12,-0.02666 0.24,-0.04 0.34666,-0.05333h0.8c0.25333,0 0.38667,-0.08 0.38667,-0.26667v-2.02666h-3.70666c-0.29333,0 -0.52,-0.05333 -0.66666,-0.18667c-0.14664,-0.12 -0.21334,-0.33333 -0.21334,-0.65333c0,-0.32 0.06667,-0.53333 0.21334,-0.65333c0.13333,-0.10666 0.34666,-0.17333 0.66666,-0.17333h3.70666v-0.96h-3.53333c-0.29333,0 -0.50666,-0.05333 -0.63999,-0.18667c-0.10667,-0.09333 -0.17337,-0.25333 -0.18667,-0.46667c-0.30667,0.50666 -0.65333,0.98666 -1.02667,1.42666v5.26665c0,0.32 -0.09333,0.54666 -0.25333,0.68c-0.13333,0.14667 -0.36,0.22667 -0.66666,0.22667c-0.29334,0 -0.52,-0.08 -0.65333,-0.22667c-0.17334,-0.13333 -0.25334,-0.36 -0.25334,-0.68v-3.46666c-0.21333,0.17333 -0.46666,0.25333 -0.76,0.25333c-0.31999,0 -0.58666,-0.12 -0.81333,-0.36c-0.1867,-0.21333 -0.28,-0.46667 -0.28,-0.76c0,-0.09333 0.08,-0.24 0.26667,-0.44c0.29333,-0.21333 0.54667,-0.44 0.78666,-0.68c0.90667,-0.84 1.64,-1.62666 2.21333,-2.37333c0.14667,-0.17333 0.34667,-0.28 0.58667,-0.33333z"/><path d="M370.94635,182.11999c0,1.65333 -0.62667,2.89333 -1.88,3.70666c-1.06666,0.68 -2.46666,1.02666 -4.19999,1.02666c-0.26666,0 -0.48,-0.08 -0.64,-0.24c-0.16,-0.17333 -0.24,-0.38667 -0.24,-0.64c0,-0.25333 0.08,-0.46667 0.24,-0.62666c0.16,-0.16 0.37334,-0.24 0.64,-0.24c2.88,0 4.31999,-0.98666 4.31999,-2.98666c0,-1.02666 -0.65333,-1.54666 -1.94666,-1.54666c-1.2,0 -2.81333,0.29333 -4.85332,0.85333c-0.13333,0.04 -0.22663,0.05333 -0.29333,0.05333c-0.24,0 -0.45334,-0.09333 -0.61334,-0.28c-0.15999,-0.17333 -0.23999,-0.38666 -0.23999,-0.62666c0,-0.32 0.15999,-0.57333 0.47999,-0.74667c0.12,-0.05333 0.42667,-0.14667 0.90667,-0.28c1.63999,-0.41333 3.17332,-0.62667 4.61332,-0.62667c1.05333,0 1.92,0.26667 2.59999,0.78666c0.73333,0.58667 1.10667,1.38666 1.10667,2.41333z"/><path d="M384.07965,178.13333c-0.78667,0.16 -1.24,0.25333 -1.36,0.28c-0.61333,0.17333 -1.10666,0.41333 -1.50666,0.72c-1.22667,0.94666 -1.82667,2.11999 -1.82667,3.50666c0,1.21333 1.13333,1.81333 3.41333,1.81333c0.64,0 0.96,0.33333 0.96,0.97333c0,0.28 -0.09334,0.50667 -0.28,0.68c-0.18667,0.18667 -0.41334,0.28 -0.68,0.28c-3.57333,0 -5.34665,-1.24 -5.34665,-3.74666c0,-1.44 0.66666,-2.81333 2.01332,-4.11999c-0.86666,0.10667 -1.91999,0.24 -3.15999,0.4c-1.12,0.16 -1.67996,0.22667 -1.70666,0.22667c-0.29333,0 -0.53333,-0.08 -0.70667,-0.26667c-0.18666,-0.18667 -0.26666,-0.44 -0.26666,-0.76c0,-0.4 0.18666,-0.69333 0.58666,-0.85333c0.17334,-0.06667 0.54667,-0.13333 1.13333,-0.21333c4.46666,-0.53333 7.37332,-0.81333 8.73332,-0.81333c0.27999,0 0.50666,0.09333 0.69333,0.26667c0.17336,0.18667 0.26666,0.41333 0.26666,0.69333c0,0.50667 -0.32,0.81333 -0.95999,0.93333z"/><path d="M398.11957,184.14665c0,0.28 -0.09334,0.50666 -0.28,0.68c-0.18667,0.18667 -0.42667,0.26667 -0.69333,0.26667c-0.58667,0 -0.91997,-0.30667 -0.98667,-0.93333c-0.21333,-1.81333 -0.68,-3.69332 -1.39999,-5.66665c-0.0666,-0.16 -0.0933,-0.30667 -0.0933,-0.41333c0,-0.26667 0.09334,-0.48 0.30667,-0.66666c0.21333,-0.17334 0.45333,-0.26667 0.72,-0.26667c0.37333,0 0.65333,0.2 0.86666,0.58666c0.26667,0.53333 0.6,1.57333 0.98667,3.14666c0.37333,1.58666 0.57333,2.67999 0.57333,3.26666zM393.39956,183.13332c0,0.66666 -0.37333,1.4 -1.09333,2.21333c-0.73333,0.81333 -1.42666,1.22666 -2.06666,1.22666c-1.01333,0 -1.73333,-0.56 -2.17333,-1.70666c-0.26667,-0.66666 -0.44,-1.65333 -0.54667,-2.98666c-0.04,-0.45333 -0.0533,-0.97333 -0.0533,-1.57333c0,-1.12 0.04003,-1.97333 0.13333,-2.54666c0.09334,-0.61333 0.48,-0.93333 1.16,-0.93333c0.26667,0 0.49333,0.09333 0.66667,0.26667c0.16003,0.17333 0.25333,0.4 0.25333,0.66666c0,0.08 -0.0133,0.64 -0.04,1.68c-0.04,1.04 -0.0533,1.68 -0.0533,1.89333c0,0.61333 0.04,1.2 0.14666,1.77333c0.13334,0.86667 0.36,1.29333 0.65333,1.29333c0.29334,0 0.68,-0.44 1.16,-1.34666c0.24,-0.46667 0.52,-0.70666 0.82667,-0.70666c0.67999,0 1.02666,0.26667 1.02666,0.78666z"/><path d="M410.94628,185.06666c0,0.25333 -0.09334,0.48 -0.26667,0.69333c-0.17333,0.21334 -0.38667,0.30667 -0.62667,0.30667c-0.21333,0 -0.42666,-0.05333 -0.66666,-0.18667c-0.21333,-0.12 -0.41333,-0.24 -0.61333,-0.37333c-0.45333,-0.25333 -0.94667,-0.50666 -1.50667,-0.76c-0.22666,0.56 -0.62666,1.01333 -1.18666,1.36c-0.57333,0.33333 -1.17333,0.50666 -1.81333,0.50666c-0.8,0 -1.49333,-0.13333 -2.06666,-0.38667c-0.77333,-0.33333 -1.16,-0.85333 -1.16,-1.54666c0,-0.8 0.36,-1.38666 1.08,-1.77333c0.56,-0.29333 1.29333,-0.45333 2.17333,-0.45333c0.45333,0 0.90666,0.04 1.38666,0.09333l-0.0267,-1.02666c-0.44,0.01333 -0.77334,0.01333 -1.01334,0.01333h-1.25333c-0.55999,0 -0.93333,-0.02667 -1.11999,-0.08c-0.42667,-0.10667 -0.64,-0.34667 -0.64,-0.74667c0,-0.57333 0.29333,-0.86666 0.89333,-0.86666c0.26667,0 0.68,0 1.24,0c0.54666,0.01333 0.95999,0.01333 1.23999,0.01333c0.4,0 0.6,0 0.6,0l-0.0267,-1.13333c-0.53334,0.02667 -1.25333,0.02667 -2.16,0.02667c-0.74666,0 -1.18666,-0.01333 -1.34666,-0.04c-0.56,-0.10667 -0.82667,-0.37333 -0.82667,-0.81333c0,-0.56 0.32,-0.84 0.97333,-0.84c0.22667,0 0.57334,0 1.05334,0c0.46666,0.01333 0.81333,0.01333 1.05333,0.01333c0.24,0 0.63999,0 1.19999,-0.02667v-0.51999c0,-0.28 0.09334,-0.50666 0.28,-0.69333c0.17333,-0.17334 0.4,-0.26667 0.69333,-0.26667c0.26667,0 0.50667,0.09333 0.69334,0.28c0.17336,0.18667 0.26666,0.41333 0.26666,0.68v0.41333c0.89333,-0.05333 1.66666,-0.13333 2.33333,-0.24c0.10667,-0.01334 0.1867,-0.02667 0.24,-0.02667c0.24,0 0.46666,0.08 0.65333,0.21333c0.17337,0.14667 0.26667,0.33333 0.26667,0.57333c0,0.48 -0.26667,0.78666 -0.78667,0.90667c-0.4,0.10667 -1.28,0.18667 -2.66666,0.26666l0.0267,1.13333c0.69333,-0.04 1.43999,-0.13333 2.25333,-0.26667c0.10666,-0.01334 0.21336,-0.02667 0.30666,-0.02667c0.56,0 0.85333,0.26667 0.85333,0.78666c0,0.28 -0.06666,0.48 -0.17333,0.6c-0.13333,0.13333 -0.33333,0.24 -0.6,0.30667c-0.42666,0.10667 -1.29333,0.2 -2.57333,0.28c0.0134,0.4 0.0267,0.92 0.0267,1.53333c1.21333,0.38667 2.16,0.81333 2.85333,1.29333c0.32,0.22667 0.48,0.49333 0.48,0.8zM404.29294,184.01332c-0.88,0 -1.30666,0.17333 -1.30666,0.52c0,0.37333 0.41333,0.56 1.26666,0.56c0.58666,0 1,-0.30667 1.25333,-0.94666c-0.41333,-0.08 -0.81333,-0.13333 -1.21333,-0.13333z"/><path d="M425.05283,177.94667c0,0.50667 -0.26666,0.74667 -0.78666,0.74667c-0.56,0 -1.46666,-0.02667 -2.71999,-0.08c-0.0133,0.50667 -0.0266,1.26666 -0.0533,2.26666c0.28,0.48 0.42667,1 0.42667,1.54666c0,0.82666 -0.28,1.62666 -0.81333,2.39999c-0.50667,0.72 -1.14667,1.28 -1.90666,1.70666c-0.61334,0.33333 -1.18667,0.50667 -1.72,0.50667c-0.58666,0 -0.86666,-0.30667 -0.86666,-0.89333c0,-0.33333 0.24,-0.61333 0.74666,-0.82666c0.69333,-0.29333 1.29333,-0.68 1.82666,-1.13333c-0.95999,0 -1.70666,-0.17333 -2.25332,-0.52c-0.64,-0.4 -0.96,-1.01333 -0.96,-1.84c0,-0.74666 0.29333,-1.32 0.90666,-1.72c0.50667,-0.33333 1.12,-0.50667 1.85333,-0.50667c0.24,0 0.52,0.01333 0.82667,0.04v-1.02666l-2.6,0.09333c-0.21333,0.01333 -0.61333,0.04 -1.2,0.09333c-0.50666,0.05334 -0.89333,0.06667 -1.18666,0.06667c-0.21333,0 -0.4,-0.06667 -0.56,-0.22667c-0.15996,-0.16 -0.22666,-0.34667 -0.22666,-0.57333c0,-0.65333 0.46666,-0.98666 1.39999,-0.98666c0.24,0 1.65333,-0.02667 4.23999,-0.08v-0.72c0,-0.22667 0.10667,-0.42667 0.34667,-0.6c0.21333,-0.17334 0.45333,-0.26667 0.69333,-0.26667c0.72,0 1.08,0.50667 1.08,1.52c0.18666,0 0.49333,0 0.90666,-0.01333c0.4,0 0.69333,0 0.90667,0c0.53333,0 0.91999,0.04 1.13333,0.12c0.37333,0.16 0.55999,0.45333 0.55999,0.90666zM419.31957,181.17332c-0.18667,-0.13333 -0.4,-0.21333 -0.65334,-0.21333c-0.22666,0 -0.41333,0.09333 -0.57333,0.26667c-0.16,0.18667 -0.24,0.4 -0.24,0.61333c0,0.53333 0.30667,0.8 0.93333,0.8c0.53334,0 0.81334,-0.29333 0.81334,-0.88c0,-0.25333 -0.09334,-0.45333 -0.28,-0.58666z"/></g></g></g></svg>