<svg version="1.1" xmlns="http://www.w3.org/2000/svg" xmlns:xlink="http://www.w3.org/1999/xlink" width="480.00001" height="50" viewBox="0,0,480.00001,50"><g transform="translate(0,-155)"><g data-paper-data="{&quot;isPaintingLayer&quot;:true}" stroke-miterlimit="10" stroke-dasharray="" stroke-dashoffset="0" style="mix-blend-mode: normal"><g fill="#ffffff" fill-rule="nonzero" stroke="#ffffff" stroke-width="3.5" stroke-linecap="butt" stroke-linejoin="miter"><path d="M251.17332,178.70666c0,0.96 -0.33333,1.97333 -0.97333,3.03999c-0.54667,0.90666 -1.24,1.74666 -2.06666,2.49333c-1.50667,1.36 -3.22666,2.22666 -5.17332,2.63999c-0.09334,0.01334 -0.17337,0.02667 -0.22667,0.02667c-0.26667,0 -0.49333,-0.10667 -0.66667,-0.29333c-0.18666,-0.18667 -0.26666,-0.42667 -0.26666,-0.69333c0,-0.46666 0.25333,-0.77333 0.77333,-0.93333c0.82666,-0.24 1.48,-0.48 1.97333,-0.70666c0.6,-0.26667 1.2,-0.64 1.78666,-1.10666c-0.32,-0.18667 -0.78666,-0.48 -1.41333,-0.88c-0.34666,-0.21333 -0.50666,-0.48 -0.50666,-0.82666c0,-0.25333 0.09333,-0.48 0.29333,-0.69333c0.18666,-0.2 0.4,-0.30667 0.66666,-0.30667c0.25334,0 0.66667,0.17333 1.24,0.52c0.41333,0.26667 0.8,0.53333 1.14666,0.81333c0.72,-0.84 1.18667,-1.65333 1.4,-2.43999c0.0267,-0.09333 0.04,-0.16 0.04,-0.2c0,-0.10666 -0.09333,-0.17333 -0.28,-0.17333h-4.02666c-0.90666,1.38666 -1.79999,2.38666 -2.67999,3.02666c-0.21333,0.16 -0.41333,0.22667 -0.61333,0.22667c-0.26667,0 -0.49333,-0.09333 -0.68,-0.30667c-0.20003,-0.2 -0.29333,-0.42667 -0.29333,-0.69333c0,-0.24 0.12,-0.48 0.38666,-0.74667c0.21334,-0.18667 0.44,-0.38666 0.66667,-0.58667c0.84,-0.82666 1.71999,-2.09333 2.63999,-3.81332c0.18667,-0.36 0.46667,-0.54667 0.84,-0.54667c0.26667,0 0.49333,0.09333 0.70667,0.26667c0.19999,0.18667 0.30666,0.41333 0.30666,0.66667c0,0.17333 -0.08,0.4 -0.22666,0.66666h3.35999c1.23999,0 1.86666,0.52 1.86666,1.56z"/><path d="M263.62662,177.24c-0.89333,0.96 -1.81333,1.81333 -2.77333,2.58666v6.01332c0,0.30667 -0.10666,0.54666 -0.30666,0.72c-0.17333,0.13333 -0.4,0.21333 -0.69333,0.24c-0.26667,-0.01333 -0.48,-0.09333 -0.64,-0.25333c-0.20003,-0.17333 -0.29333,-0.41333 -0.29333,-0.70666v-4.59999c-1.09333,0.72 -2.28,1.38666 -3.57333,1.99999c-0.13333,0.08 -0.29333,0.10667 -0.48,0.10667c-0.26666,0 -0.48,-0.10667 -0.64,-0.30667c-0.18666,-0.2 -0.26666,-0.42667 -0.26666,-0.69333c0,-0.37333 0.18666,-0.66666 0.56,-0.85333c2.97332,-1.41333 5.53332,-3.26666 7.69331,-5.57332c0.18667,-0.2 0.41333,-0.30667 0.66667,-0.32c0.25333,0.02667 0.49333,0.12 0.70666,0.28c0.2,0.2 0.3067,0.42667 0.32,0.68c-0.01333,0.25333 -0.10667,0.48 -0.28,0.68z"/><path d="M278.58661,185.33331c0,0.26667 -0.10666,0.49333 -0.30666,0.66667c-0.21334,0.17334 -0.46667,0.26667 -0.73333,0.26667c-0.25334,0 -0.45334,-0.09333 -0.61334,-0.26667c-0.09333,-0.10667 -0.2,-0.29333 -0.33333,-0.58667l-8.42664,0.84c0,0 -0.04,0 -0.12,0c-0.62667,0 -0.93334,-0.30667 -0.93334,-0.92c0,-0.29333 0.08,-0.52 0.25334,-0.70666c0.16,-0.17333 0.38666,-0.26667 0.65333,-0.28c0.08,0 0.2,0 0.36,-0.01333c0.98666,-2.42666 1.95999,-4.99999 2.89332,-7.71998c0.16,-0.46667 0.45334,-0.70667 0.89334,-0.70667c0.26666,0 0.49333,0.09333 0.69333,0.26667c0.2,0.18667 0.30666,0.4 0.30666,0.66666c0,0.37333 -0.87999,2.79999 -2.62666,7.26665l5.13332,-0.50667c-0.21333,-0.34667 -0.52,-0.89333 -0.89333,-1.62666c-0.09333,-0.18667 -0.13333,-0.34667 -0.13333,-0.49333c0,-0.25333 0.09333,-0.48 0.30667,-0.66666c0.19999,-0.18667 0.43999,-0.28 0.70666,-0.28c0.32,0 0.6,0.17333 0.81333,0.50667c0.13333,0.24 0.52,0.93333 1.14666,2.10666c0.21334,0.38667 0.49334,0.97333 0.86667,1.77333c0.0533,0.17333 0.0933,0.30667 0.0933,0.41333z"/><path d="M290.57322,177.92c-0.18667,0.17333 -0.42666,0.25333 -0.69333,0.25333h-7.69331c-0.28,0 -0.50667,-0.08 -0.68,-0.25333c-0.1867,-0.16 -0.28,-0.38667 -0.28,-0.66666c0,-0.26667 0.09333,-0.48 0.28,-0.65333c0.17333,-0.16 0.4,-0.25333 0.68,-0.25333h7.69331c0.26667,0 0.50666,0.09333 0.69333,0.25333c0.17337,0.17333 0.26667,0.4 0.26667,0.66666c0,0.26667 -0.09334,0.49333 -0.26667,0.65333zM291.17322,181.15998c0,1.38666 -0.74667,2.63999 -2.22666,3.74666c-1.25333,0.92 -2.64,1.52 -4.18666,1.82666c-0.09333,0.01334 -0.17333,0.02667 -0.25333,0.02667c-0.26667,0 -0.48,-0.10667 -0.64,-0.30667c-0.17333,-0.2 -0.25333,-0.42666 -0.25333,-0.69333c0,-0.49333 0.25333,-0.8 0.78666,-0.92c0.97333,-0.21333 1.84,-0.53333 2.61333,-0.96c1.01333,-0.56 1.69333,-1.21333 2.05333,-1.98666c0.08003,-0.18667 0.13333,-0.33333 0.13333,-0.41333c0,-0.10666 -0.13333,-0.17333 -0.37333,-0.17333h-7.34665c-0.29333,0 -0.52,-0.08 -0.69333,-0.26667c-0.18667,-0.17333 -0.26667,-0.4 -0.26667,-0.69333c0,-0.26667 0.08,-0.48 0.26667,-0.64c0.17333,-0.16 0.4,-0.24 0.69333,-0.24h7.62665c1.37333,0 2.06666,0.57333 2.06666,1.69333z"/><path d="M305.82651,176.82667c-0.12,0.10667 -0.24,0.14667 -0.36,0.14667c-0.21333,0 -0.37333,-0.09333 -0.50666,-0.30667c-0.13333,-0.21333 -0.32,-0.49333 -0.56,-0.86666c-0.17333,-0.25333 -0.25333,-0.45333 -0.25333,-0.6c0,-0.14667 0.05333,-0.26667 0.16,-0.37333c0.10666,-0.09334 0.24,-0.14667 0.4,-0.14667c0.21333,0 0.38666,0.09333 0.53333,0.26667c0.26666,0.33333 0.49333,0.68 0.66666,1.05333c0.06667,0.16 0.10667,0.32 0.10667,0.48c0,0.13333 -0.06667,0.24 -0.18667,0.34667zM304.09317,177.22667c-0.13333,0.10667 -0.25333,0.14667 -0.37333,0.14667c-0.2,0 -0.36,-0.09333 -0.48,-0.30667c-0.05333,-0.09333 -0.25333,-0.38666 -0.57333,-0.88c-0.17333,-0.25333 -0.25333,-0.45333 -0.25333,-0.6c0,-0.14667 0.05333,-0.26667 0.16,-0.37333c0.10666,-0.09334 0.24,-0.14667 0.4,-0.14667c0.21333,0 0.38666,0.09333 0.53333,0.26667c0.26667,0.33333 0.49333,0.68 0.66666,1.05333c0.06667,0.16 0.10667,0.32 0.10667,0.49333c0,0.13333 -0.06667,0.24 -0.18667,0.34667zM301.54654,183.97332c-1.65332,1.46666 -3.42665,2.41333 -5.31998,2.86666c-0.12,0.02667 -0.21337,0.04 -0.26667,0.04c-0.26666,0 -0.49333,-0.10667 -0.66666,-0.29333c-0.18667,-0.21333 -0.26667,-0.45333 -0.26667,-0.72c0,-0.42667 0.24,-0.73333 0.73333,-0.90666c0.4,-0.12 1.01333,-0.33333 1.82666,-0.65333c0.94667,-0.45333 1.81333,-1.01333 2.58666,-1.70666c0.88,-0.77333 1.52,-1.6 1.92,-2.46666c0.1867,-0.4 0.28,-0.69333 0.28,-0.86666c0,-0.10666 -0.08,-0.17333 -0.24,-0.17333h-3.65332c-0.52,0.72 -1.24,1.44 -2.16,2.14666c-0.61333,0.48 -1.05333,0.70666 -1.32,0.70666c-0.26666,0 -0.49333,-0.10667 -0.67999,-0.32c-0.1867,-0.2 -0.28,-0.44 -0.28,-0.70666c0,-0.24 0.13333,-0.49333 0.4,-0.73333c0.22666,-0.17333 0.45333,-0.34667 0.69333,-0.53333c0.98666,-0.8 1.83999,-1.90666 2.55999,-3.29332c0.21333,-0.41333 0.49333,-0.62667 0.85333,-0.62667c0.26667,0 0.50667,0.09333 0.72,0.26667c0.2,0.18667 0.30667,0.4 0.30667,0.65333c0,0.18667 -0.05334,0.38667 -0.16,0.6h3.15999c0.53333,0 0.96,0.14667 1.28,0.42667c0.29333,0.28 0.45333,0.68 0.45333,1.21333c0,1.76 -0.92,3.45333 -2.76,5.07999z"/><path d="M315.41315,175.21333c0.32,0 0.54667,0.06667 0.68,0.2c0.1867,0.16 0.28,0.37333 0.28,0.64v0.66666h1.66666c0.30667,0 0.53334,0.06667 0.68,0.2c0.16,0.12 0.24,0.36 0.24,0.73333c0,0.32 -0.05336,0.54666 -0.14666,0.65333c-0.16,0.2 -0.41334,0.29333 -0.77334,0.29333h-3.14665v1.26666h2.19999c0.68,0 1.10666,0.14667 1.28,0.41333c0.17336,0.2 0.26666,1 0.26666,2.39999c0,1.33333 -0.03996,2.34666 -0.10666,3.06666c-0.10667,0.56 -0.30667,0.94666 -0.61334,1.17333c-0.34666,0.24 -0.81333,0.37333 -1.41333,0.37333h-0.65333c-0.36,0 -0.65333,-0.04 -0.86666,-0.10667c-0.26667,-0.05333 -0.45333,-0.16 -0.56,-0.30667c-0.1067,-0.13333 -0.16,-0.30667 -0.16,-0.52c0,-0.2 0.04,-0.44 0.14667,-0.74666c0.13333,-0.13333 0.26666,-0.22667 0.41333,-0.30667h0.36c0.09333,0 0.21333,0.01334 0.34666,0.02667c0.33334,0.05333 0.6,0.08 0.8,0.08c0.10667,0 0.18667,-0.02666 0.26667,-0.09333c0.08,-0.05333 0.13336,-0.2 0.18666,-0.41333c0.0267,-0.50667 0.04,-1.50666 0.04,-2.97333c0,-0.22667 -0.13333,-0.34667 -0.37333,-0.34667h-1.61333c-0.08,0.85333 -0.25333,1.72 -0.54666,2.59999c-0.37334,1.10666 -0.96,2.06666 -1.77333,2.89333c-0.2,0.21333 -0.44,0.32 -0.73333,0.32c-0.36,0 -0.61334,-0.09333 -0.77333,-0.26667c-0.1867,-0.14667 -0.28,-0.36 -0.28,-0.65333c0.01333,-0.21333 0.09333,-0.37333 0.22666,-0.50666c0.76,-0.82666 1.29333,-1.69333 1.6,-2.59999c0.30666,-0.84 0.46666,-1.78666 0.46666,-2.82666v-1.94666h-0.34666c-0.26667,0 -0.49333,-0.06667 -0.65333,-0.21333c-0.17334,-0.13333 -0.25334,-0.37333 -0.25334,-0.73333c0,-0.37333 0.08,-0.61333 0.25334,-0.74667c0.12,-0.12 0.33333,-0.18667 0.65333,-0.18667h1.77333v-0.66666c0,-0.22667 0.09333,-0.44 0.28,-0.65333c0.13333,-0.12 0.36,-0.18667 0.67999,-0.18667zM310.59983,175.68001c0.70667,0 1.06667,0.4 1.06667,1.2c0,0.88 -0.25334,2.05333 -0.73333,3.49333c0.37333,1.01333 0.57333,1.95999 0.57333,2.86666c0,0.74667 -0.14667,1.28 -0.42667,1.62666c-0.29333,0.4 -0.76,0.6 -1.38666,0.6c-0.33333,0 -0.62667,-0.01334 -0.89333,-0.06667v1.10666c-0.04,0.49333 -0.34667,0.75999 -0.93333,0.78666c-0.6,-0.02667 -0.91997,-0.29333 -0.94667,-0.78666v-9.74664c0,-0.72 0.25334,-1.08 0.78667,-1.08zM309.0265,183.49332c0.24,0 0.41334,-0.09333 0.52,-0.29333c0.0533,-0.13333 0.0933,-0.34667 0.0933,-0.66666c0,-0.46667 -0.16,-1 -0.48,-1.58666c-0.0666,-0.16 -0.0933,-0.32 -0.0933,-0.46667c0,-0.16 0.02667,-0.29333 0.10667,-0.42666c0.4,-0.85333 0.61333,-1.66666 0.61333,-2.43999c0,-0.10667 -0.03996,-0.16 -0.10666,-0.16h-0.88v6.03999c0.08,0 0.15996,0 0.22666,0z"/><path d="M327.46645,175.38667c0.18667,0.16 0.29334,0.38666 0.29334,0.68v2.66666h3.33332c0.34667,0 0.57333,0.06667 0.70667,0.18667c0.10663,0.14667 0.17333,0.38667 0.17333,0.72c0,0.30667 -0.05337,0.53333 -0.14667,0.66666c-0.14666,0.16 -0.38666,0.24 -0.73333,0.24h-3.33332v4.22666h3.58665c0.34667,0 0.58667,0.06667 0.73333,0.2c0.13334,0.12 0.21334,0.36 0.21334,0.70667c0,0.29333 -0.06667,0.48 -0.17334,0.61333c-0.16,0.18667 -0.42666,0.29333 -0.77333,0.29333h-10.4533c-0.32,0 -0.56,-0.06667 -0.72,-0.2c-0.15997,-0.13333 -0.22667,-0.36 -0.22667,-0.70666c0,-0.34667 0.06667,-0.57333 0.22667,-0.70667c0.14666,-0.13333 0.38666,-0.2 0.72,-0.2h0.66666v-7.18665c0,-0.25333 0.09333,-0.49333 0.30667,-0.72c0.13333,-0.13333 0.38666,-0.2 0.73333,-0.2c0.34666,0 0.58666,0.08 0.74666,0.22667c0.18667,0.16 0.29334,0.4 0.29334,0.69333v7.18665h2.03999v-8.70665c0,-0.24 0.09333,-0.48 0.29333,-0.70666c0.14667,-0.13333 0.4,-0.2 0.74667,-0.2c0.34666,0 0.58666,0.08 0.74666,0.22667z"/><path d="M343.34641,175.92c0.90667,0 1.36,0.45333 1.36,1.36v8.10665c0,0.66666 -0.05334,1.12 -0.16,1.34666c-0.16,0.26667 -0.41333,0.4 -0.74667,0.4c-0.89333,0 -1.54666,-0.09333 -1.95999,-0.25333c-0.36,-0.16 -0.53333,-0.42667 -0.53333,-0.82666c0,-0.36 0.06666,-0.62667 0.21333,-0.81333c0.08,-0.12 0.21333,-0.18667 0.41333,-0.18667h0.85333c0.06667,0 0.10667,-0.06667 0.10667,-0.22667v-1.30666h-2.42666v2.51999c0,0.33333 -0.08,0.57333 -0.22667,0.70667c-0.16,0.16 -0.38666,0.24 -0.70666,0.24c-0.30667,0 -0.54667,-0.08 -0.70667,-0.24c-0.15996,-0.14667 -0.22666,-0.38667 -0.22666,-0.70667v-2.51999h-2.42666c-0.12,1.28 -0.33334,2.28 -0.64,3.01333c-0.14667,0.46667 -0.48,0.70667 -1,0.70667c-0.61333,-0.04 -0.94666,-0.30667 -0.98666,-0.81333c0,-0.26667 0.09333,-0.58667 0.29333,-1.01333c0.4,-1.30666 0.61333,-2.78666 0.61333,-4.42665v-3.70666c0,-0.90666 0.45333,-1.36 1.36,-1.36zM338.59974,181.79999v-1.2h-2.32v0.38667c0,0.28 -0.0133,0.54666 -0.0133,0.81333zM340.46643,181.79999h2.42666v-1.2h-2.42666zM338.59977,178.87999v-1.14666h-2.09333c-0.15997,0 -0.22667,0.06667 -0.22667,0.2v0.94666zM340.46642,178.87999h2.42666v-0.86666c0,-0.18667 -0.06667,-0.28 -0.18667,-0.28h-2.23999z"/><path d="M358.54635,181.29332c0,1.30666 -0.37333,2.41333 -1.10666,3.29333c-0.72,0.85333 -1.70667,1.45333 -2.98666,1.82666c-0.25334,0.06667 -0.41337,0.10667 -0.46667,0.10667c-0.29333,0 -0.53333,-0.10667 -0.72,-0.30667c-0.1867,-0.18667 -0.28,-0.44 -0.28,-0.73333c0,-0.33333 0.21334,-0.61333 0.64,-0.82666c0.18667,-0.08 0.49333,-0.2 0.89333,-0.37333c1.38667,-0.65333 2.09333,-1.65333 2.09333,-2.98666c0,-1.78666 -0.93333,-2.78666 -2.78666,-2.99999c0.0134,0.28 0.0267,0.45334 0.0267,0.50666c0,0.8 -0.12,1.62666 -0.34667,2.50666c-0.29333,1.12 -0.73333,2.10666 -1.30666,2.94666c-0.77333,1.12 -1.61333,1.66666 -2.54666,1.66666c-0.81333,0 -1.45333,-0.37333 -1.92,-1.12c-0.39999,-0.64 -0.59999,-1.38666 -0.59999,-2.23999c0,-1.84 0.53333,-3.31999 1.59999,-4.42666c1.05333,-1.09333 2.50666,-1.63999 4.34666,-1.63999c1.62666,0 2.91999,0.38666 3.89332,1.16c1.04,0.84 1.57333,2.05333 1.57333,3.63999zM351.9064,178.38666c-0.98667,0.24 -1.72,0.73333 -2.22666,1.50666c-0.48,0.72 -0.70667,1.6 -0.70667,2.63999c0,0.97333 0.22667,1.45333 0.68,1.45333c0.16,0 0.37333,-0.12 0.62666,-0.37333c0.54667,-0.54667 0.97334,-1.30666 1.26667,-2.29333c0.24,-0.82666 0.37333,-1.70666 0.37333,-2.61333z"/><path d="M363.77303,175.52c0.25333,0.21333 0.38667,0.44 0.38667,0.69333c0,0.22667 -0.06667,0.41333 -0.2,0.57333c-0.53333,0.92 -1.26667,1.76 -2.18666,2.51999c-0.18667,0.18667 -0.41334,0.28 -0.68,0.28c-0.32,0 -0.61333,-0.12 -0.85333,-0.38667c-0.20003,-0.22667 -0.29333,-0.49333 -0.29333,-0.78666c0,-0.10667 0.09333,-0.26667 0.27999,-0.45333c0.22667,-0.18667 0.42667,-0.36 0.61334,-0.54667c0.70666,-0.69333 1.27999,-1.33333 1.71999,-1.93333c0.10667,-0.13333 0.26667,-0.22667 0.46667,-0.26667c0.24,0.02667 0.48,0.12 0.74666,0.30667zM363.7464,178.27999c0.22666,0.02667 0.45333,0.12 0.69333,0.29333c0.16,0.13333 0.2667,0.26667 0.32,0.42667c0,-0.01333 0.0134,-0.02667 0.0267,-0.04c0.13334,-0.12 0.34667,-0.18667 0.64,-0.18667h1.78666v-0.88h-1.51999c-0.29334,0 -0.50667,-0.05333 -0.64,-0.18667c-0.14663,-0.10667 -0.21333,-0.30667 -0.21333,-0.61333c0,-0.30667 0.06666,-0.52 0.21333,-0.62667c0.13333,-0.12 0.34666,-0.18667 0.64,-0.18667h1.51999v-0.22667c0,-0.33333 0.06667,-0.57333 0.22667,-0.70666c0.12,-0.16 0.36,-0.24 0.73333,-0.24c0.37333,0 0.61333,0.08 0.74667,0.22667c0.14666,0.14667 0.22666,0.38667 0.22666,0.72v0.22667h1.93333c0.29333,0 0.52,0.06667 0.66667,0.18667c0.11996,0.10667 0.18666,0.30667 0.18666,0.62667c0,0.25333 -0.05333,0.44 -0.16,0.54667c-0.16,0.17333 -0.38666,0.25333 -0.69333,0.25333h-1.93333v0.88h2.2c0.29333,0 0.51999,0.06667 0.65333,0.18667c0.11996,0.10667 0.18666,0.32 0.18666,0.62666c0,0.25333 -0.05333,0.44 -0.16,0.54667c-0.14666,0.18667 -0.37333,0.26667 -0.67999,0.26667h-0.52v0.96h0.69333c0.32,0 0.54666,0.06667 0.69333,0.17333c0.11997,0.12 0.18667,0.33333 0.18667,0.65333c0,0.26667 -0.05334,0.45333 -0.16,0.56c-0.16,0.18667 -0.4,0.28 -0.72,0.28h-0.69333v2.86666c0,0.90666 -0.64,1.4 -1.89333,1.45333c-0.32,0 -0.6,-0.02666 -0.86667,-0.05333c-0.25333,-0.02667 -0.47999,-0.09334 -0.66666,-0.18667c-0.13333,-0.10667 -0.22667,-0.24 -0.30667,-0.37333c-0.08,-0.2 -0.12,-0.44 -0.12,-0.73333c-0.21333,0.12 -0.42666,0.18667 -0.63999,0.2c-0.46667,0 -0.77334,-0.2 -0.90667,-0.61333c-0.10667,-0.45333 -0.22666,-0.88 -0.33333,-1.26666c-0.0267,-0.06667 -0.04,-0.13334 -0.04,-0.18667c0,-0.26667 0.12,-0.50666 0.38666,-0.70666c0.24,-0.16 0.50667,-0.24 0.8,-0.24c0.36,0 0.61333,0.14667 0.74667,0.41333c0.13333,0.32 0.28,0.73333 0.41333,1.26666c0.0266,0.10667 0.0533,0.2 0.0533,0.26667c0,0.09333 -0.0134,0.17333 -0.0267,0.24c0.12,-0.02666 0.24,-0.04 0.34666,-0.05333h0.8c0.25333,0 0.38667,-0.08 0.38667,-0.26667v-2.02666h-3.70666c-0.29333,0 -0.52,-0.05333 -0.66667,-0.18667c-0.14663,-0.12 -0.21333,-0.33333 -0.21333,-0.65333c0,-0.32 0.06667,-0.53333 0.21333,-0.65333c0.13334,-0.10666 0.34667,-0.17333 0.66667,-0.17333h3.70666v-0.96h-3.53333c-0.29333,0 -0.50666,-0.05333 -0.64,-0.18667c-0.10666,-0.09333 -0.17336,-0.25333 -0.18666,-0.46667c-0.30667,0.50666 -0.65334,0.98666 -1.02667,1.42666v5.26665c0,0.32 -0.09333,0.54666 -0.25333,0.68c-0.13333,0.14667 -0.36,0.22667 -0.66667,0.22667c-0.29333,0 -0.51999,-0.08 -0.65333,-0.22667c-0.17333,-0.13333 -0.25333,-0.36 -0.25333,-0.68v-3.46666c-0.21333,0.17333 -0.46667,0.25333 -0.76,0.25333c-0.32,0 -0.58666,-0.12 -0.81333,-0.36c-0.1867,-0.21333 -0.28,-0.46667 -0.28,-0.76c0,-0.09333 0.08,-0.24 0.26667,-0.44c0.29333,-0.21333 0.54666,-0.44 0.78666,-0.68c0.90667,-0.84 1.64,-1.62666 2.21333,-2.37333c0.14667,-0.17333 0.34667,-0.28 0.58667,-0.33333z"/><path d="M378.42626,175.32002c0.14666,0 0.33333,0.05334 0.54666,0.14667c0.18667,0.13333 0.29333,0.32 0.29333,0.53333c0,0.12 -0.04,0.24 -0.0933,0.36c-0.16,0.37333 -0.34666,0.73333 -0.58666,1.10666c0.08,0.10667 0.17336,0.2 0.26666,0.29333c0.12,-0.24 0.21333,-0.45333 0.29333,-0.65333c0.13334,-0.36 0.32,-0.54666 0.56,-0.54666c0.22667,0 0.41334,0.04 0.54667,0.12c0.10666,0.05333 0.17336,0.13333 0.22666,0.21333c-0.0133,-0.30667 -0.0133,-0.61333 -0.0133,-0.93333c0,-0.29333 0.05333,-0.49333 0.18667,-0.62667c0.10666,-0.10666 0.30666,-0.17333 0.6,-0.17333c0.22666,0 0.41333,0.05334 0.54666,0.14667c0.14667,0.13333 0.22667,0.33333 0.22667,0.62667l0.0133,0.57333c0.0267,0.01333 0.0534,0.01333 0.0667,0.01333c0.16,-0.26667 0.29333,-0.57333 0.4,-0.90666c0.12,-0.24 0.30666,-0.37333 0.54666,-0.4c0.16,0 0.33333,0.05333 0.54667,0.16c0.2,0.13333 0.30666,0.30667 0.30666,0.53333c0,0.10667 -0.04,0.22667 -0.0933,0.34667c-0.17333,0.4 -0.38667,0.77333 -0.65333,1.14666c0.09333,0.12 0.1867,0.24 0.28,0.36c0.22666,-0.37333 0.4,-0.70666 0.52,-1c0.12,-0.37333 0.30666,-0.56 0.57333,-0.56c0.22666,0 0.41333,0.04 0.57333,0.12c0.2,0.10667 0.30667,0.28 0.30667,0.52c0,0.09333 -0.03997,0.2 -0.10667,0.30667c-0.16,0.34667 -0.38667,0.72 -0.65333,1.10666c0.04003,0 0.08003,-0.01334 0.13333,-0.02667c0.32,0 0.52003,0.13333 0.61333,0.4c0.16003,0.52 0.25333,1.12 0.25333,1.8c-0.02666,0.34667 -0.22666,0.52 -0.59999,0.52c-0.32,-0.01333 -0.50664,-0.16 -0.53334,-0.45333c-0.18666,0.05334 -0.38666,0.10667 -0.58666,0.14667c0.08,0.13333 0.16,0.28 0.24,0.46667c0.0533,0.14667 0.0933,0.26667 0.12,0.36h0.56c0.26666,0 0.46666,0.05333 0.6,0.16c0.10663,0.09333 0.17333,0.28 0.17333,0.56c0,0.24 -0.05337,0.4 -0.14667,0.49333c-0.13333,0.16 -0.33333,0.24 -0.58666,0.24c0.0266,0.02667 0.04,0.04 0.0533,0.04c0.17337,0.16 0.26667,0.36 0.26667,0.57333c0,0.22667 -0.08,0.42667 -0.24,0.61333c-0.26667,0.38666 -0.57334,0.76 -0.94667,1.12c0.12,0.10667 0.22667,0.14667 0.30667,0.14667c0.08,0 0.2,-0.06667 0.34666,-0.22667c0.10667,-0.12 0.21337,-0.18667 0.30667,-0.18667c0.17333,0 0.32,0.08 0.42667,0.21333c0.17336,0.16 0.26666,0.44 0.26666,0.84c0,0.22667 -0.09333,0.42667 -0.25333,0.58667c-0.21333,0.22667 -0.41333,0.37333 -0.61333,0.45333c-0.14667,0.05333 -0.33334,0.09333 -0.54667,0.09333c-0.50666,0 -0.94666,-0.22667 -1.33333,-0.65333c-0.08,-0.06667 -0.13336,-0.13333 -0.18666,-0.2c-0.46667,0.32 -0.92,0.58667 -1.37333,0.8c-0.2,0.10667 -0.42667,0.16 -0.66667,0.16c-0.22667,0 -0.42666,-0.14667 -0.61333,-0.42667c-0.10667,-0.2 -0.14667,-0.41333 -0.14667,-0.65333c0,-0.21333 0.14667,-0.41333 0.44,-0.58667c0.46667,-0.16 0.96,-0.4 1.46666,-0.74666c-0.05333,-0.10667 -0.09333,-0.21333 -0.13333,-0.32c-0.21333,-0.53333 -0.38666,-1.08 -0.52,-1.64h-1.90666v0.30667c0.04,0.01333 0.09337,0.02667 0.14667,0.04c0.50666,0.2 0.91999,0.37333 1.23999,0.50666c0.28,0.18667 0.43997,0.41333 0.46667,0.68c0,0.29333 -0.06667,0.50667 -0.17333,0.64c-0.17334,0.29333 -0.41334,0.42667 -0.73333,0.42667c-0.09334,0 -0.18667,-0.01334 -0.29334,-0.06667c-0.24,-0.10667 -0.49333,-0.22667 -0.74666,-0.33333c-0.14667,0.96 -0.36,1.58666 -0.65333,1.86666c-0.09334,0.2 -0.34667,0.30667 -0.76,0.30667c-0.29333,0 -0.49333,-0.08 -0.62667,-0.21333c-0.16,-0.12 -0.24,-0.32 -0.24,-0.61333c0.01334,-0.08 0.0533,-0.17333 0.12,-0.25333c0.4,-0.72 0.6133,-1.46666 0.64,-2.23999v-1.08c-0.13333,-0.02667 -0.23996,-0.08 -0.30666,-0.14667c-0.0267,-0.01333 -0.04,-0.02666 -0.04,-0.05333c-0.18667,0.24 -0.42667,0.36 -0.73334,0.36c-0.10666,0 -0.21333,-0.06667 -0.31999,-0.21333v3.69332c0,0.22667 -0.06667,0.41333 -0.17334,0.56c-0.14666,0.2 -0.37333,0.30667 -0.69333,0.30667c-0.29333,0 -0.52,-0.10667 -0.66666,-0.29333c-0.13337,-0.16 -0.18667,-0.34667 -0.18667,-0.57333v-3.41333c-0.10667,0.34667 -0.2,0.57333 -0.28,0.69333c-0.10667,0.17333 -0.28,0.25333 -0.53333,0.25333c-0.24,0 -0.41333,-0.08 -0.54667,-0.25333c-0.15996,-0.18667 -0.22666,-0.4 -0.22666,-0.65333c0,-0.18667 0.04,-0.38666 0.12,-0.62667c0.44,-0.92 0.85333,-2.01333 1.25333,-3.27999h-0.08c-0.29334,0 -0.53334,-0.08 -0.70667,-0.24c-0.1867,-0.13333 -0.28,-0.4 -0.28,-0.78666c0,-0.4 0.09334,-0.66666 0.28,-0.81333c0.13334,-0.13333 0.36,-0.2 0.70667,-0.2h0.29333v-1.14666c0,-0.26667 0.08,-0.48 0.24,-0.62667c0.13333,-0.14667 0.33333,-0.22667 0.61333,-0.22667c0.26667,0 0.46667,0.08 0.62667,0.22667c0.16,0.14667 0.24,0.36 0.24,0.62667v1.16c0.13333,0.01333 0.24003,0.04 0.33333,0.08c0.02666,-0.17333 0.08,-0.32 0.18666,-0.42667c0.14667,-0.13333 0.32,-0.21333 0.50667,-0.21333c0.05337,0 0.09337,0.01333 0.14667,0.01333c0.16,-0.29333 0.30666,-0.61333 0.42666,-0.96c0.10667,-0.24 0.29333,-0.37333 0.54667,-0.4zM376.27968,180.43999c0.26666,0.34667 0.58666,0.66667 0.94666,0.98666c0.06667,0.05333 0.12003,0.12 0.17333,0.17333c0.13334,-0.08 0.32,-0.13333 0.56,-0.13333h2.91999c-0.0267,-0.14667 -0.0534,-0.28 -0.0667,-0.41333c-0.09334,0.16 -0.26667,0.25333 -0.50667,0.25333c-0.32,-0.01333 -0.4933,-0.16 -0.52,-0.45333c0,-0.04 -0.0133,-0.08 -0.0133,-0.10667c-0.64,0.16 -1.38666,0.25333 -2.23999,0.28c-0.24,0 -0.42667,-0.04 -0.53334,-0.14667c-0.10663,-0.10667 -0.17333,-0.26667 -0.17333,-0.50666c0,-0.18667 0.06667,-0.34667 0.17333,-0.48c0.08,-0.09333 0.21334,-0.14667 0.42667,-0.16h0.10667c0.22666,-0.29333 0.42666,-0.57333 0.61333,-0.84c-0.36,-0.29333 -0.72,-0.57333 -1.06667,-0.81333v0.14667c0,0.34667 -0.05333,0.58667 -0.16,0.70666c-0.13333,0.18667 -0.34666,0.28 -0.63999,0.30667v1.2zM382.77298,180.82666c-0.16,0.02667 -0.32,0.04 -0.48,0.04c0.0267,0.2 0.0667,0.4 0.12,0.6h0.66667c-0.09334,-0.2 -0.2,-0.41333 -0.30667,-0.64zM383.14632,183.85332c0.32,-0.30667 0.57334,-0.61333 0.78667,-0.90666c0.0134,-0.01334 0.0267,-0.02667 0.0267,-0.02667h-1.17333c0.12,0.34667 0.23999,0.66666 0.35999,0.93333zM380.49306,177.4c-0.0267,0.04 -0.04,0.06666 -0.04,0.09333c-0.13334,0.30667 -0.29333,0.62667 -0.49333,0.96c0.0266,0 0.0666,-0.01333 0.0933,-0.01333c0.24,0 0.40003,0.08 0.49333,0.21333c-0.0266,-0.4 -0.0533,-0.82666 -0.0533,-1.25333zM379.653,179.58666c-0.0267,-0.17333 -0.0533,-0.33333 -0.08,-0.48c0,-0.01333 -0.0133,-0.02667 -0.0133,-0.04c-0.13334,0.18667 -0.28,0.38667 -0.42667,0.57333c0.17333,0 0.34667,-0.02666 0.52,-0.05333zM382.06632,178.77333c0,0.25333 0.0133,0.52 0.04,0.8h0.0267c0.21334,-0.26667 0.41334,-0.52 0.6,-0.77333c-0.24,-0.2 -0.45333,-0.38666 -0.66666,-0.56zM384.35972,179.34666c-0.0267,-0.16 -0.0533,-0.30667 -0.08,-0.44c-0.0134,-0.05333 -0.0267,-0.09333 -0.0267,-0.12c-0.17333,0.22667 -0.36,0.44 -0.54667,0.65333c0.21334,-0.02666 0.44,-0.05333 0.65333,-0.09333z"/><path d="M394.14628,176.28v-0.22667c0,-0.33333 0.06667,-0.57333 0.21334,-0.70666c0.13333,-0.16 0.37333,-0.24 0.74666,-0.24c0.37333,0 0.61333,0.08 0.73333,0.22667c0.14667,0.14667 0.22667,0.38667 0.22667,0.72v0.22667h1.52c0.29333,0 0.51999,0.06667 0.66666,0.18667c0.11997,0.10667 0.18667,0.30667 0.18667,0.62667c0,0.25333 -0.05334,0.44 -0.16,0.54667c-0.16,0.17333 -0.38667,0.25333 -0.69333,0.25333h-1.52v0.88h2.14666c0.29333,0 0.52,0.06667 0.66667,0.18667c0.11996,0.10667 0.18666,0.32 0.18666,0.62667c0,0.25333 -0.05333,0.44 -0.16,0.54666c-0.16,0.18667 -0.38666,0.26667 -0.69333,0.26667h-0.86666v0.96h0.69333c0.32,0 0.54666,0.06667 0.68,0.17333c0.11996,0.12 0.18666,0.33333 0.18666,0.65333c0,0.26667 -0.05333,0.45333 -0.16,0.56c-0.16,0.18667 -0.38666,0.28 -0.70666,0.28h-0.69333v2.86666c0,0.90666 -0.64,1.4 -1.90667,1.45333c-0.23999,0 -0.46666,-0.02666 -0.67999,-0.05333c-0.2,-0.02667 -0.37334,-0.09334 -0.52,-0.18667c-0.10667,-0.10667 -0.1867,-0.24 -0.24,-0.37333c-0.0533,-0.17333 -0.0933,-0.38667 -0.0933,-0.64c-0.13334,0.05334 -0.28,0.09334 -0.42667,0.10667c-0.44,0 -0.72,-0.18667 -0.85333,-0.57333c-0.21333,-0.45333 -0.44,-0.86667 -0.68,-1.25333c-0.0534,-0.06667 -0.0667,-0.13334 -0.0667,-0.18667c0,-0.26667 0.12,-0.48 0.36,-0.66666c0.22667,-0.16 0.48,-0.24 0.76,-0.24c0.34667,0 0.57333,0.13333 0.70667,0.4c0.24,0.30667 0.49333,0.72 0.73333,1.24c0.0533,0.12 0.08,0.21333 0.0933,0.28c0,0.05333 -0.0133,0.09333 -0.0133,0.12h0.56c0.25333,0 0.38666,-0.08 0.38666,-0.26667v-2.02666h-3.13332c-0.29334,0 -0.50667,-0.05333 -0.66667,-0.18667c-0.14663,-0.12 -0.21333,-0.33333 -0.21333,-0.65333c0,-0.32 0.06666,-0.53333 0.21333,-0.65333c0.13333,-0.10666 0.36,-0.17333 0.66667,-0.17333h3.13332v-0.96h-3.37332c-0.29334,0 -0.50667,-0.05333 -0.64,-0.18667c-0.09333,-0.08 -0.14663,-0.18667 -0.17333,-0.34667v5.78665c0,0.76 -0.38667,1.14666 -1.14667,1.14666h-2.13333c-0.77333,0 -1.14666,-0.38667 -1.14666,-1.14666v-8.74664c0,-0.76 0.37333,-1.14666 1.14666,-1.14666h2.13333c0.76,0 1.14667,0.38667 1.14667,1.14666v2.39999c0.02666,-0.14667 0.08003,-0.26667 0.17333,-0.34667c0.13333,-0.12 0.34666,-0.18667 0.64,-0.18667h2.05332v-0.88h-1.53332c-0.29334,0 -0.50667,-0.05333 -0.64,-0.18667c-0.1333,-0.10667 -0.2,-0.30667 -0.2,-0.61333c0,-0.30667 0.06666,-0.52 0.2,-0.62667c0.13333,-0.12 0.34666,-0.18667 0.64,-0.18667zM389.55963,184.77331v-2.70666h-0.98666v2.70666c0,0.13333 0.06666,0.2 0.2,0.2h0.57333c0.13333,0 0.21333,-0.06667 0.21333,-0.2zM389.55963,180.13332v-2.34666c0,-0.13333 -0.08,-0.2 -0.21333,-0.2h-0.57333c-0.1333,0 -0.2,0.06667 -0.2,0.2v2.34666z"/><path d="M407.65293,181.03999c0.8,0 1.2,0.4 1.2,1.2v3.13333c0,0.78666 -0.4,1.18666 -1.2,1.18666h-3.27999c-0.8,0 -1.2,-0.4 -1.2,-1.18666v-3.13333c0,-0.8 0.4,-1.2 1.2,-1.2zM407.29293,184.85331v-0.54666h-2.55999v0.54666c0,0.17333 0.08,0.25333 0.26666,0.25333h2.02667c0.17336,0 0.26666,-0.08 0.26666,-0.25333zM407.29293,183.19998v-0.44c0,-0.16 -0.09333,-0.25333 -0.26666,-0.25333h-2.02667c-0.18666,0 -0.26666,0.09333 -0.26666,0.25333v0.44zM405.5996,176.18667v3.06666c0,0.74666 -0.29333,1.12 -0.88,1.12h-2.50666v6.37332c-0.04,0.46666 -0.34666,0.71999 -0.90666,0.74666c-0.58667,-0.02667 -0.8933,-0.28 -0.92,-0.74666v-10.45331c0,-0.64 0.28,-0.96 0.86667,-0.96h3.43999c0.6,0 0.90666,0.29333 0.90666,0.85333zM403.87961,178.90666v-0.54666h-1.66667v0.54666zM403.87961,177.26667v-0.48h-1.66667v0.48zM410.70625,175.32c0.74666,0 1.13333,0.30667 1.13333,0.90667v9.77331c0,0.89333 -0.49334,1.34666 -1.46667,1.34666c-0.4,0 -0.71999,-0.08 -0.94666,-0.22667c-0.26667,-0.13333 -0.40003,-0.36 -0.41333,-0.68c0,-0.4 0.04,-0.69333 0.14666,-0.86666c0.13334,-0.10667 0.26667,-0.16 0.38667,-0.16c0.0133,0 0.0267,0.01334 0.04,0.02667c0.08003,0.08 0.13333,0.13333 0.17333,0.13333c0.16003,0 0.25333,-0.06667 0.25333,-0.21333v-4.98665h-2.70666c-0.55999,0 -0.82666,-0.29333 -0.82666,-0.89333v-3.25333c0,-0.6 0.32,-0.90667 0.97333,-0.90667zM410.01292,178.36h-1.70666v0.54666h1.70666zM410.01292,177.26667v-0.49333h-1.70666v0.49333z"/></g><path d="M0,155h480.00001v50h-480.00001z" fill-opacity="0" fill="#a60000" fill-rule="evenodd" stroke="none" stroke-width="0.3175" stroke-linecap="round" stroke-linejoin="round"/><g fill="#000000" fill-rule="nonzero" stroke="none" stroke-width="0.26458" stroke-linecap="butt" stroke-linejoin="miter"><path d="M251.17332,178.70666c0,0.96 -0.33333,1.97333 -0.97333,3.03999c-0.54667,0.90666 -1.24,1.74666 -2.06666,2.49333c-1.50667,1.36 -3.22666,2.22666 -5.17332,2.63999c-0.09334,0.01334 -0.17337,0.02667 -0.22667,0.02667c-0.26667,0 -0.49333,-0.10667 -0.66667,-0.29333c-0.18666,-0.18667 -0.26666,-0.42667 -0.26666,-0.69333c0,-0.46666 0.25333,-0.77333 0.77333,-0.93333c0.82666,-0.24 1.48,-0.48 1.97333,-0.70666c0.6,-0.26667 1.2,-0.64 1.78666,-1.10666c-0.32,-0.18667 -0.78666,-0.48 -1.41333,-0.88c-0.34666,-0.21333 -0.50666,-0.48 -0.50666,-0.82666c0,-0.25333 0.09333,-0.48 0.29333,-0.69333c0.18666,-0.2 0.4,-0.30667 0.66666,-0.30667c0.25334,0 0.66667,0.17333 1.24,0.52c0.41333,0.26667 0.8,0.53333 1.14666,0.81333c0.72,-0.84 1.18667,-1.65333 1.4,-2.43999c0.0267,-0.09333 0.04,-0.16 0.04,-0.2c0,-0.10666 -0.09333,-0.17333 -0.28,-0.17333h-4.02666c-0.90666,1.38666 -1.79999,2.38666 -2.67999,3.02666c-0.21333,0.16 -0.41333,0.22667 -0.61333,0.22667c-0.26667,0 -0.49333,-0.09333 -0.68,-0.30667c-0.20003,-0.2 -0.29333,-0.42667 -0.29333,-0.69333c0,-0.24 0.12,-0.48 0.38666,-0.74667c0.21334,-0.18667 0.44,-0.38666 0.66667,-0.58667c0.84,-0.82666 1.71999,-2.09333 2.63999,-3.81332c0.18667,-0.36 0.46667,-0.54667 0.84,-0.54667c0.26667,0 0.49333,0.09333 0.70667,0.26667c0.19999,0.18667 0.30666,0.41333 0.30666,0.66667c0,0.17333 -0.08,0.4 -0.22666,0.66666h3.35999c1.23999,0 1.86666,0.52 1.86666,1.56z"/><path d="M263.62662,177.24c-0.89333,0.96 -1.81333,1.81333 -2.77333,2.58666v6.01332c0,0.30667 -0.10666,0.54666 -0.30666,0.72c-0.17333,0.13333 -0.4,0.21333 -0.69333,0.24c-0.26667,-0.01333 -0.48,-0.09333 -0.64,-0.25333c-0.20003,-0.17333 -0.29333,-0.41333 -0.29333,-0.70666v-4.59999c-1.09333,0.72 -2.28,1.38666 -3.57333,1.99999c-0.13333,0.08 -0.29333,0.10667 -0.48,0.10667c-0.26666,0 -0.48,-0.10667 -0.64,-0.30667c-0.18666,-0.2 -0.26666,-0.42667 -0.26666,-0.69333c0,-0.37333 0.18666,-0.66666 0.56,-0.85333c2.97332,-1.41333 5.53332,-3.26666 7.69331,-5.57332c0.18667,-0.2 0.41333,-0.30667 0.66667,-0.32c0.25333,0.02667 0.49333,0.12 0.70666,0.28c0.2,0.2 0.3067,0.42667 0.32,0.68c-0.01333,0.25333 -0.10667,0.48 -0.28,0.68z"/><path d="M278.58661,185.33331c0,0.26667 -0.10666,0.49333 -0.30666,0.66667c-0.21334,0.17334 -0.46667,0.26667 -0.73333,0.26667c-0.25334,0 -0.45334,-0.09333 -0.61334,-0.26667c-0.09333,-0.10667 -0.2,-0.29333 -0.33333,-0.58667l-8.42664,0.84c0,0 -0.04,0 -0.12,0c-0.62667,0 -0.93334,-0.30667 -0.93334,-0.92c0,-0.29333 0.08,-0.52 0.25334,-0.70666c0.16,-0.17333 0.38666,-0.26667 0.65333,-0.28c0.08,0 0.2,0 0.36,-0.01333c0.98666,-2.42666 1.95999,-4.99999 2.89332,-7.71998c0.16,-0.46667 0.45334,-0.70667 0.89334,-0.70667c0.26666,0 0.49333,0.09333 0.69333,0.26667c0.2,0.18667 0.30666,0.4 0.30666,0.66666c0,0.37333 -0.87999,2.79999 -2.62666,7.26665l5.13332,-0.50667c-0.21333,-0.34667 -0.52,-0.89333 -0.89333,-1.62666c-0.09333,-0.18667 -0.13333,-0.34667 -0.13333,-0.49333c0,-0.25333 0.09333,-0.48 0.30667,-0.66666c0.19999,-0.18667 0.43999,-0.28 0.70666,-0.28c0.32,0 0.6,0.17333 0.81333,0.50667c0.13333,0.24 0.52,0.93333 1.14666,2.10666c0.21334,0.38667 0.49334,0.97333 0.86667,1.77333c0.0533,0.17333 0.0933,0.30667 0.0933,0.41333z"/><path d="M290.57322,177.92c-0.18667,0.17333 -0.42666,0.25333 -0.69333,0.25333h-7.69331c-0.28,0 -0.50667,-0.08 -0.68,-0.25333c-0.1867,-0.16 -0.28,-0.38667 -0.28,-0.66666c0,-0.26667 0.09333,-0.48 0.28,-0.65333c0.17333,-0.16 0.4,-0.25333 0.68,-0.25333h7.69331c0.26667,0 0.50666,0.09333 0.69333,0.25333c0.17337,0.17333 0.26667,0.4 0.26667,0.66666c0,0.26667 -0.09334,0.49333 -0.26667,0.65333zM291.17322,181.15998c0,1.38666 -0.74667,2.63999 -2.22666,3.74666c-1.25333,0.92 -2.64,1.52 -4.18666,1.82666c-0.09333,0.01334 -0.17333,0.02667 -0.25333,0.02667c-0.26667,0 -0.48,-0.10667 -0.64,-0.30667c-0.17333,-0.2 -0.25333,-0.42666 -0.25333,-0.69333c0,-0.49333 0.25333,-0.8 0.78666,-0.92c0.97333,-0.21333 1.84,-0.53333 2.61333,-0.96c1.01333,-0.56 1.69333,-1.21333 2.05333,-1.98666c0.08003,-0.18667 0.13333,-0.33333 0.13333,-0.41333c0,-0.10666 -0.13333,-0.17333 -0.37333,-0.17333h-7.34665c-0.29333,0 -0.52,-0.08 -0.69333,-0.26667c-0.18667,-0.17333 -0.26667,-0.4 -0.26667,-0.69333c0,-0.26667 0.08,-0.48 0.26667,-0.64c0.17333,-0.16 0.4,-0.24 0.69333,-0.24h7.62665c1.37333,0 2.06666,0.57333 2.06666,1.69333z"/><path d="M305.82651,176.82667c-0.12,0.10667 -0.24,0.14667 -0.36,0.14667c-0.21333,0 -0.37333,-0.09333 -0.50666,-0.30667c-0.13333,-0.21333 -0.32,-0.49333 -0.56,-0.86666c-0.17333,-0.25333 -0.25333,-0.45333 -0.25333,-0.6c0,-0.14667 0.05333,-0.26667 0.16,-0.37333c0.10666,-0.09334 0.24,-0.14667 0.4,-0.14667c0.21333,0 0.38666,0.09333 0.53333,0.26667c0.26666,0.33333 0.49333,0.68 0.66666,1.05333c0.06667,0.16 0.10667,0.32 0.10667,0.48c0,0.13333 -0.06667,0.24 -0.18667,0.34667zM304.09318,177.22667c-0.13333,0.10667 -0.25333,0.14667 -0.37333,0.14667c-0.2,0 -0.36,-0.09333 -0.48,-0.30667c-0.05333,-0.09333 -0.25333,-0.38666 -0.57333,-0.88c-0.17333,-0.25333 -0.25333,-0.45333 -0.25333,-0.6c0,-0.14667 0.05333,-0.26667 0.16,-0.37333c0.10666,-0.09334 0.24,-0.14667 0.4,-0.14667c0.21333,0 0.38666,0.09333 0.53333,0.26667c0.26667,0.33333 0.49333,0.68 0.66666,1.05333c0.06667,0.16 0.10667,0.32 0.10667,0.49333c0,0.13333 -0.06667,0.24 -0.18667,0.34667zM301.54654,183.97332c-1.65332,1.46666 -3.42665,2.41333 -5.31998,2.86666c-0.12,0.02667 -0.21337,0.04 -0.26667,0.04c-0.26666,0 -0.49333,-0.10667 -0.66666,-0.29333c-0.18667,-0.21333 -0.26667,-0.45333 -0.26667,-0.72c0,-0.42667 0.24,-0.73333 0.73333,-0.90666c0.4,-0.12 1.01333,-0.33333 1.82666,-0.65333c0.94667,-0.45333 1.81333,-1.01333 2.58666,-1.70666c0.88,-0.77333 1.52,-1.6 1.92,-2.46666c0.1867,-0.4 0.28,-0.69333 0.28,-0.86666c0,-0.10666 -0.08,-0.17333 -0.24,-0.17333h-3.65332c-0.52,0.72 -1.24,1.44 -2.16,2.14666c-0.61333,0.48 -1.05333,0.70666 -1.32,0.70666c-0.26666,0 -0.49333,-0.10667 -0.67999,-0.32c-0.1867,-0.2 -0.28,-0.44 -0.28,-0.70666c0,-0.24 0.13333,-0.49333 0.4,-0.73333c0.22666,-0.17333 0.45333,-0.34667 0.69333,-0.53333c0.98666,-0.8 1.83999,-1.90666 2.55999,-3.29332c0.21333,-0.41333 0.49333,-0.62667 0.85333,-0.62667c0.26667,0 0.50667,0.09333 0.72,0.26667c0.2,0.18667 0.30667,0.4 0.30667,0.65333c0,0.18667 -0.05334,0.38667 -0.16,0.6h3.15999c0.53333,0 0.96,0.14667 1.28,0.42667c0.29333,0.28 0.45333,0.68 0.45333,1.21333c0,1.76 -0.92,3.45333 -2.76,5.07999z"/><path d="M315.41315,175.21333c0.32,0 0.54667,0.06667 0.68,0.2c0.1867,0.16 0.28,0.37333 0.28,0.64v0.66666h1.66666c0.30667,0 0.53334,0.06667 0.68,0.2c0.16,0.12 0.24,0.36 0.24,0.73333c0,0.32 -0.05336,0.54666 -0.14666,0.65333c-0.16,0.2 -0.41334,0.29333 -0.77334,0.29333h-3.14665v1.26666h2.19999c0.68,0 1.10666,0.14667 1.28,0.41333c0.17336,0.2 0.26666,1 0.26666,2.39999c0,1.33333 -0.03996,2.34666 -0.10666,3.06666c-0.10667,0.56 -0.30667,0.94666 -0.61334,1.17333c-0.34666,0.24 -0.81333,0.37333 -1.41333,0.37333h-0.65333c-0.36,0 -0.65333,-0.04 -0.86666,-0.10667c-0.26667,-0.05333 -0.45333,-0.16 -0.56,-0.30667c-0.1067,-0.13333 -0.16,-0.30667 -0.16,-0.52c0,-0.2 0.04,-0.44 0.14667,-0.74666c0.13333,-0.13333 0.26666,-0.22667 0.41333,-0.30667h0.36c0.09333,0 0.21333,0.01334 0.34666,0.02667c0.33334,0.05333 0.6,0.08 0.8,0.08c0.10667,0 0.18667,-0.02666 0.26667,-0.09333c0.08,-0.05333 0.13336,-0.2 0.18666,-0.41333c0.0267,-0.50667 0.04,-1.50666 0.04,-2.97333c0,-0.22667 -0.13333,-0.34667 -0.37333,-0.34667h-1.61333c-0.08,0.85333 -0.25333,1.72 -0.54666,2.59999c-0.37334,1.10666 -0.96,2.06666 -1.77333,2.89333c-0.2,0.21333 -0.44,0.32 -0.73333,0.32c-0.36,0 -0.61334,-0.09333 -0.77333,-0.26667c-0.1867,-0.14667 -0.28,-0.36 -0.28,-0.65333c0.01333,-0.21333 0.09333,-0.37333 0.22666,-0.50666c0.76,-0.82666 1.29333,-1.69333 1.6,-2.59999c0.30666,-0.84 0.46666,-1.78666 0.46666,-2.82666v-1.94666h-0.34666c-0.26667,0 -0.49333,-0.06667 -0.65333,-0.21333c-0.17334,-0.13333 -0.25334,-0.37333 -0.25334,-0.73333c0,-0.37333 0.08,-0.61333 0.25334,-0.74667c0.12,-0.12 0.33333,-0.18667 0.65333,-0.18667h1.77333v-0.66666c0,-0.22667 0.09333,-0.44 0.28,-0.65333c0.13333,-0.12 0.36,-0.18667 0.67999,-0.18667zM310.59983,175.68001c0.70667,0 1.06667,0.4 1.06667,1.2c0,0.88 -0.25334,2.05333 -0.73333,3.49333c0.37333,1.01333 0.57333,1.95999 0.57333,2.86666c0,0.74667 -0.14667,1.28 -0.42667,1.62666c-0.29333,0.4 -0.76,0.6 -1.38666,0.6c-0.33333,0 -0.62667,-0.01334 -0.89333,-0.06667v1.10666c-0.04,0.49333 -0.34667,0.75999 -0.93333,0.78666c-0.6,-0.02667 -0.91997,-0.29333 -0.94667,-0.78666v-9.74664c0,-0.72 0.25334,-1.08 0.78667,-1.08zM309.0265,183.49332c0.24,0 0.41334,-0.09333 0.52,-0.29333c0.0533,-0.13333 0.0933,-0.34667 0.0933,-0.66666c0,-0.46667 -0.16,-1 -0.48,-1.58666c-0.0666,-0.16 -0.0933,-0.32 -0.0933,-0.46667c0,-0.16 0.02667,-0.29333 0.10667,-0.42666c0.4,-0.85333 0.61333,-1.66666 0.61333,-2.43999c0,-0.10667 -0.03996,-0.16 -0.10666,-0.16h-0.88v6.03999c0.08,0 0.15996,0 0.22666,0z"/><path d="M327.46645,175.38667c0.18667,0.16 0.29334,0.38666 0.29334,0.68v2.66666h3.33332c0.34667,0 0.57333,0.06667 0.70667,0.18667c0.10663,0.14667 0.17333,0.38667 0.17333,0.72c0,0.30667 -0.05337,0.53333 -0.14667,0.66666c-0.14666,0.16 -0.38666,0.24 -0.73333,0.24h-3.33332v4.22666h3.58665c0.34667,0 0.58667,0.06667 0.73333,0.2c0.13334,0.12 0.21334,0.36 0.21334,0.70667c0,0.29333 -0.06667,0.48 -0.17334,0.61333c-0.16,0.18667 -0.42666,0.29333 -0.77333,0.29333h-10.4533c-0.32,0 -0.56,-0.06667 -0.72,-0.2c-0.15997,-0.13333 -0.22667,-0.36 -0.22667,-0.70666c0,-0.34667 0.06667,-0.57333 0.22667,-0.70667c0.14666,-0.13333 0.38666,-0.2 0.72,-0.2h0.66666v-7.18665c0,-0.25333 0.09333,-0.49333 0.30667,-0.72c0.13333,-0.13333 0.38666,-0.2 0.73333,-0.2c0.34666,0 0.58666,0.08 0.74666,0.22667c0.18667,0.16 0.29334,0.4 0.29334,0.69333v7.18665h2.03999v-8.70665c0,-0.24 0.09333,-0.48 0.29333,-0.70666c0.14667,-0.13333 0.4,-0.2 0.74667,-0.2c0.34666,0 0.58666,0.08 0.74666,0.22667z"/><path d="M343.34641,175.92c0.90667,0 1.36,0.45333 1.36,1.36v8.10665c0,0.66666 -0.05334,1.12 -0.16,1.34666c-0.16,0.26667 -0.41333,0.4 -0.74667,0.4c-0.89333,0 -1.54666,-0.09333 -1.95999,-0.25333c-0.36,-0.16 -0.53333,-0.42667 -0.53333,-0.82666c0,-0.36 0.06666,-0.62667 0.21333,-0.81333c0.08,-0.12 0.21333,-0.18667 0.41333,-0.18667h0.85333c0.06667,0 0.10667,-0.06667 0.10667,-0.22667v-1.30666h-2.42666v2.51999c0,0.33333 -0.08,0.57333 -0.22667,0.70667c-0.16,0.16 -0.38666,0.24 -0.70666,0.24c-0.30667,0 -0.54667,-0.08 -0.70667,-0.24c-0.15996,-0.14667 -0.22666,-0.38667 -0.22666,-0.70667v-2.51999h-2.42666c-0.12,1.28 -0.33334,2.28 -0.64,3.01333c-0.14667,0.46667 -0.48,0.70667 -1,0.70667c-0.61333,-0.04 -0.94666,-0.30667 -0.98666,-0.81333c0,-0.26667 0.09333,-0.58667 0.29333,-1.01333c0.4,-1.30666 0.61333,-2.78666 0.61333,-4.42665v-3.70666c0,-0.90666 0.45333,-1.36 1.36,-1.36zM338.59974,181.79999v-1.2h-2.32v0.38667c0,0.28 -0.0133,0.54666 -0.0133,0.81333zM340.46643,181.79999h2.42666v-1.2h-2.42666zM338.59977,178.87999v-1.14666h-2.09333c-0.15997,0 -0.22667,0.06667 -0.22667,0.2v0.94666zM340.46642,178.87999h2.42666v-0.86666c0,-0.18667 -0.06667,-0.28 -0.18667,-0.28h-2.23999z"/><path d="M358.54635,181.29332c0,1.30666 -0.37333,2.41333 -1.10666,3.29333c-0.72,0.85333 -1.70667,1.45333 -2.98666,1.82666c-0.25334,0.06667 -0.41337,0.10667 -0.46667,0.10667c-0.29333,0 -0.53333,-0.10667 -0.72,-0.30667c-0.1867,-0.18667 -0.28,-0.44 -0.28,-0.73333c0,-0.33333 0.21334,-0.61333 0.64,-0.82666c0.18667,-0.08 0.49333,-0.2 0.89333,-0.37333c1.38667,-0.65333 2.09333,-1.65333 2.09333,-2.98666c0,-1.78666 -0.93333,-2.78666 -2.78666,-2.99999c0.0134,0.28 0.0267,0.45334 0.0267,0.50666c0,0.8 -0.12,1.62666 -0.34667,2.50666c-0.29333,1.12 -0.73333,2.10666 -1.30666,2.94666c-0.77333,1.12 -1.61333,1.66666 -2.54666,1.66666c-0.81333,0 -1.45333,-0.37333 -1.92,-1.12c-0.39999,-0.64 -0.59999,-1.38666 -0.59999,-2.23999c0,-1.84 0.53333,-3.31999 1.59999,-4.42666c1.05333,-1.09333 2.50666,-1.63999 4.34666,-1.63999c1.62666,0 2.91999,0.38666 3.89332,1.16c1.04,0.84 1.57333,2.05333 1.57333,3.63999zM351.9064,178.38666c-0.98667,0.24 -1.72,0.73333 -2.22666,1.50666c-0.48,0.72 -0.70667,1.6 -0.70667,2.63999c0,0.97333 0.22667,1.45333 0.68,1.45333c0.16,0 0.37333,-0.12 0.62666,-0.37333c0.54667,-0.54667 0.97334,-1.30666 1.26667,-2.29333c0.24,-0.82666 0.37333,-1.70666 0.37333,-2.61333z"/><path d="M363.77303,175.52c0.25333,0.21333 0.38667,0.44 0.38667,0.69333c0,0.22667 -0.06667,0.41333 -0.2,0.57333c-0.53333,0.92 -1.26667,1.76 -2.18666,2.51999c-0.18667,0.18667 -0.41334,0.28 -0.68,0.28c-0.32,0 -0.61333,-0.12 -0.85333,-0.38667c-0.20003,-0.22667 -0.29333,-0.49333 -0.29333,-0.78666c0,-0.10667 0.09333,-0.26667 0.27999,-0.45333c0.22667,-0.18667 0.42667,-0.36 0.61334,-0.54667c0.70666,-0.69333 1.27999,-1.33333 1.71999,-1.93333c0.10667,-0.13333 0.26667,-0.22667 0.46667,-0.26667c0.24,0.02667 0.48,0.12 0.74666,0.30667zM363.7464,178.27999c0.22666,0.02667 0.45333,0.12 0.69333,0.29333c0.16,0.13333 0.2667,0.26667 0.32,0.42667c0,-0.01333 0.0134,-0.02667 0.0267,-0.04c0.13334,-0.12 0.34667,-0.18667 0.64,-0.18667h1.78666v-0.88h-1.51999c-0.29334,0 -0.50667,-0.05333 -0.64,-0.18667c-0.14663,-0.10667 -0.21333,-0.30667 -0.21333,-0.61333c0,-0.30667 0.06666,-0.52 0.21333,-0.62667c0.13333,-0.12 0.34666,-0.18667 0.64,-0.18667h1.51999v-0.22667c0,-0.33333 0.06667,-0.57333 0.22667,-0.70666c0.12,-0.16 0.36,-0.24 0.73333,-0.24c0.37333,0 0.61333,0.08 0.74667,0.22667c0.14666,0.14667 0.22666,0.38667 0.22666,0.72v0.22667h1.93333c0.29333,0 0.52,0.06667 0.66667,0.18667c0.11996,0.10667 0.18666,0.30667 0.18666,0.62667c0,0.25333 -0.05333,0.44 -0.16,0.54667c-0.16,0.17333 -0.38666,0.25333 -0.69333,0.25333h-1.93333v0.88h2.2c0.29333,0 0.51999,0.06667 0.65333,0.18667c0.11996,0.10667 0.18666,0.32 0.18666,0.62666c0,0.25333 -0.05333,0.44 -0.16,0.54667c-0.14666,0.18667 -0.37333,0.26667 -0.67999,0.26667h-0.52v0.96h0.69333c0.32,0 0.54666,0.06667 0.69333,0.17333c0.11997,0.12 0.18667,0.33333 0.18667,0.65333c0,0.26667 -0.05334,0.45333 -0.16,0.56c-0.16,0.18667 -0.4,0.28 -0.72,0.28h-0.69333v2.86666c0,0.90666 -0.64,1.4 -1.89333,1.45333c-0.32,0 -0.6,-0.02666 -0.86667,-0.05333c-0.25333,-0.02667 -0.47999,-0.09334 -0.66666,-0.18667c-0.13333,-0.10667 -0.22667,-0.24 -0.30667,-0.37333c-0.08,-0.2 -0.12,-0.44 -0.12,-0.73333c-0.21333,0.12 -0.42666,0.18667 -0.63999,0.2c-0.46667,0 -0.77334,-0.2 -0.90667,-0.61333c-0.10667,-0.45333 -0.22666,-0.88 -0.33333,-1.26666c-0.0267,-0.06667 -0.04,-0.13334 -0.04,-0.18667c0,-0.26667 0.12,-0.50666 0.38666,-0.70666c0.24,-0.16 0.50667,-0.24 0.8,-0.24c0.36,0 0.61333,0.14667 0.74667,0.41333c0.13333,0.32 0.28,0.73333 0.41333,1.26666c0.0266,0.10667 0.0533,0.2 0.0533,0.26667c0,0.09333 -0.0134,0.17333 -0.0267,0.24c0.12,-0.02666 0.24,-0.04 0.34666,-0.05333h0.8c0.25333,0 0.38667,-0.08 0.38667,-0.26667v-2.02666h-3.70666c-0.29333,0 -0.52,-0.05333 -0.66667,-0.18667c-0.14663,-0.12 -0.21333,-0.33333 -0.21333,-0.65333c0,-0.32 0.06667,-0.53333 0.21333,-0.65333c0.13334,-0.10666 0.34667,-0.17333 0.66667,-0.17333h3.70666v-0.96h-3.53333c-0.29333,0 -0.50666,-0.05333 -0.64,-0.18667c-0.10666,-0.09333 -0.17336,-0.25333 -0.18666,-0.46667c-0.30667,0.50666 -0.65334,0.98666 -1.02667,1.42666v5.26665c0,0.32 -0.09333,0.54666 -0.25333,0.68c-0.13333,0.14667 -0.36,0.22667 -0.66667,0.22667c-0.29333,0 -0.51999,-0.08 -0.65333,-0.22667c-0.17333,-0.13333 -0.25333,-0.36 -0.25333,-0.68v-3.46666c-0.21333,0.17333 -0.46667,0.25333 -0.76,0.25333c-0.32,0 -0.58666,-0.12 -0.81333,-0.36c-0.1867,-0.21333 -0.28,-0.46667 -0.28,-0.76c0,-0.09333 0.08,-0.24 0.26667,-0.44c0.29333,-0.21333 0.54666,-0.44 0.78666,-0.68c0.90667,-0.84 1.64,-1.62666 2.21333,-2.37333c0.14667,-0.17333 0.34667,-0.28 0.58667,-0.33333z"/><path d="M378.42626,175.32002c0.14666,0 0.33333,0.05334 0.54666,0.14667c0.18667,0.13333 0.29333,0.32 0.29333,0.53333c0,0.12 -0.04,0.24 -0.0933,0.36c-0.16,0.37333 -0.34666,0.73333 -0.58666,1.10666c0.08,0.10667 0.17336,0.2 0.26666,0.29333c0.12,-0.24 0.21333,-0.45333 0.29333,-0.65333c0.13334,-0.36 0.32,-0.54666 0.56,-0.54666c0.22667,0 0.41334,0.04 0.54667,0.12c0.10666,0.05333 0.17336,0.13333 0.22666,0.21333c-0.0133,-0.30667 -0.0133,-0.61333 -0.0133,-0.93333c0,-0.29333 0.05333,-0.49333 0.18667,-0.62667c0.10666,-0.10666 0.30666,-0.17333 0.6,-0.17333c0.22666,0 0.41333,0.05334 0.54666,0.14667c0.14667,0.13333 0.22667,0.33333 0.22667,0.62667l0.0133,0.57333c0.0267,0.01333 0.0534,0.01333 0.0667,0.01333c0.16,-0.26667 0.29333,-0.57333 0.4,-0.90666c0.12,-0.24 0.30666,-0.37333 0.54666,-0.4c0.16,0 0.33333,0.05333 0.54667,0.16c0.2,0.13333 0.30666,0.30667 0.30666,0.53333c0,0.10667 -0.04,0.22667 -0.0933,0.34667c-0.17333,0.4 -0.38667,0.77333 -0.65333,1.14666c0.09333,0.12 0.1867,0.24 0.28,0.36c0.22666,-0.37333 0.4,-0.70666 0.52,-1c0.12,-0.37333 0.30666,-0.56 0.57333,-0.56c0.22666,0 0.41333,0.04 0.57333,0.12c0.2,0.10667 0.30667,0.28 0.30667,0.52c0,0.09333 -0.03997,0.2 -0.10667,0.30667c-0.16,0.34667 -0.38667,0.72 -0.65333,1.10666c0.04003,0 0.08003,-0.01334 0.13333,-0.02667c0.32,0 0.52003,0.13333 0.61333,0.4c0.16003,0.52 0.25333,1.12 0.25333,1.8c-0.02666,0.34667 -0.22666,0.52 -0.59999,0.52c-0.32,-0.01333 -0.50664,-0.16 -0.53334,-0.45333c-0.18666,0.05334 -0.38666,0.10667 -0.58666,0.14667c0.08,0.13333 0.16,0.28 0.24,0.46667c0.0533,0.14667 0.0933,0.26667 0.12,0.36h0.56c0.26666,0 0.46666,0.05333 0.6,0.16c0.10663,0.09333 0.17333,0.28 0.17333,0.56c0,0.24 -0.05337,0.4 -0.14667,0.49333c-0.13333,0.16 -0.33333,0.24 -0.58666,0.24c0.0266,0.02667 0.04,0.04 0.0533,0.04c0.17337,0.16 0.26667,0.36 0.26667,0.57333c0,0.22667 -0.08,0.42667 -0.24,0.61333c-0.26667,0.38666 -0.57334,0.76 -0.94667,1.12c0.12,0.10667 0.22667,0.14667 0.30667,0.14667c0.08,0 0.2,-0.06667 0.34666,-0.22667c0.10667,-0.12 0.21337,-0.18667 0.30667,-0.18667c0.17333,0 0.32,0.08 0.42667,0.21333c0.17336,0.16 0.26666,0.44 0.26666,0.84c0,0.22667 -0.09333,0.42667 -0.25333,0.58667c-0.21333,0.22667 -0.41333,0.37333 -0.61333,0.45333c-0.14667,0.05333 -0.33334,0.09333 -0.54667,0.09333c-0.50666,0 -0.94666,-0.22667 -1.33333,-0.65333c-0.08,-0.06667 -0.13336,-0.13333 -0.18666,-0.2c-0.46667,0.32 -0.92,0.58667 -1.37333,0.8c-0.2,0.10667 -0.42667,0.16 -0.66667,0.16c-0.22667,0 -0.42666,-0.14667 -0.61333,-0.42667c-0.10667,-0.2 -0.14667,-0.41333 -0.14667,-0.65333c0,-0.21333 0.14667,-0.41333 0.44,-0.58667c0.46667,-0.16 0.96,-0.4 1.46666,-0.74666c-0.05333,-0.10667 -0.09333,-0.21333 -0.13333,-0.32c-0.21333,-0.53333 -0.38666,-1.08 -0.52,-1.64h-1.90666v0.30667c0.04,0.01333 0.09337,0.02667 0.14667,0.04c0.50666,0.2 0.91999,0.37333 1.23999,0.50666c0.28,0.18667 0.43997,0.41333 0.46667,0.68c0,0.29333 -0.06667,0.50667 -0.17333,0.64c-0.17334,0.29333 -0.41334,0.42667 -0.73333,0.42667c-0.09334,0 -0.18667,-0.01334 -0.29334,-0.06667c-0.24,-0.10667 -0.49333,-0.22667 -0.74666,-0.33333c-0.14667,0.96 -0.36,1.58666 -0.65333,1.86666c-0.09334,0.2 -0.34667,0.30667 -0.76,0.30667c-0.29333,0 -0.49333,-0.08 -0.62667,-0.21333c-0.16,-0.12 -0.24,-0.32 -0.24,-0.61333c0.01334,-0.08 0.0533,-0.17333 0.12,-0.25333c0.4,-0.72 0.6133,-1.46666 0.64,-2.23999v-1.08c-0.13333,-0.02667 -0.23996,-0.08 -0.30666,-0.14667c-0.0267,-0.01333 -0.04,-0.02666 -0.04,-0.05333c-0.18667,0.24 -0.42667,0.36 -0.73334,0.36c-0.10666,0 -0.21333,-0.06667 -0.31999,-0.21333v3.69332c0,0.22667 -0.06667,0.41333 -0.17334,0.56c-0.14666,0.2 -0.37333,0.30667 -0.69333,0.30667c-0.29333,0 -0.52,-0.10667 -0.66666,-0.29333c-0.13337,-0.16 -0.18667,-0.34667 -0.18667,-0.57333v-3.41333c-0.10667,0.34667 -0.2,0.57333 -0.28,0.69333c-0.10667,0.17333 -0.28,0.25333 -0.53333,0.25333c-0.24,0 -0.41333,-0.08 -0.54667,-0.25333c-0.15996,-0.18667 -0.22666,-0.4 -0.22666,-0.65333c0,-0.18667 0.04,-0.38666 0.12,-0.62667c0.44,-0.92 0.85333,-2.01333 1.25333,-3.27999h-0.08c-0.29334,0 -0.53334,-0.08 -0.70667,-0.24c-0.1867,-0.13333 -0.28,-0.4 -0.28,-0.78666c0,-0.4 0.09334,-0.66666 0.28,-0.81333c0.13334,-0.13333 0.36,-0.2 0.70667,-0.2h0.29333v-1.14666c0,-0.26667 0.08,-0.48 0.24,-0.62667c0.13333,-0.14667 0.33333,-0.22667 0.61333,-0.22667c0.26667,0 0.46667,0.08 0.62667,0.22667c0.16,0.14667 0.24,0.36 0.24,0.62667v1.16c0.13333,0.01333 0.24003,0.04 0.33333,0.08c0.02666,-0.17333 0.08,-0.32 0.18666,-0.42667c0.14667,-0.13333 0.32,-0.21333 0.50667,-0.21333c0.05337,0 0.09337,0.01333 0.14667,0.01333c0.16,-0.29333 0.30666,-0.61333 0.42666,-0.96c0.10667,-0.24 0.29333,-0.37333 0.54667,-0.4zM376.27968,180.43999c0.26666,0.34667 0.58666,0.66667 0.94666,0.98666c0.06667,0.05333 0.12003,0.12 0.17333,0.17333c0.13334,-0.08 0.32,-0.13333 0.56,-0.13333h2.91999c-0.0267,-0.14667 -0.0534,-0.28 -0.0667,-0.41333c-0.09334,0.16 -0.26667,0.25333 -0.50667,0.25333c-0.32,-0.01333 -0.4933,-0.16 -0.52,-0.45333c0,-0.04 -0.0133,-0.08 -0.0133,-0.10667c-0.64,0.16 -1.38666,0.25333 -2.23999,0.28c-0.24,0 -0.42667,-0.04 -0.53334,-0.14667c-0.10663,-0.10667 -0.17333,-0.26667 -0.17333,-0.50666c0,-0.18667 0.06667,-0.34667 0.17333,-0.48c0.08,-0.09333 0.21334,-0.14667 0.42667,-0.16h0.10667c0.22666,-0.29333 0.42666,-0.57333 0.61333,-0.84c-0.36,-0.29333 -0.72,-0.57333 -1.06667,-0.81333v0.14667c0,0.34667 -0.05333,0.58667 -0.16,0.70666c-0.13333,0.18667 -0.34666,0.28 -0.63999,0.30667v1.2zM382.77298,180.82666c-0.16,0.02667 -0.32,0.04 -0.48,0.04c0.0267,0.2 0.0667,0.4 0.12,0.6h0.66667c-0.09334,-0.2 -0.2,-0.41333 -0.30667,-0.64zM383.14632,183.85332c0.32,-0.30667 0.57334,-0.61333 0.78667,-0.90666c0.0134,-0.01334 0.0267,-0.02667 0.0267,-0.02667h-1.17333c0.12,0.34667 0.23999,0.66666 0.35999,0.93333zM380.49306,177.4c-0.0267,0.04 -0.04,0.06666 -0.04,0.09333c-0.13334,0.30667 -0.29333,0.62667 -0.49333,0.96c0.0266,0 0.0666,-0.01333 0.0933,-0.01333c0.24,0 0.40003,0.08 0.49333,0.21333c-0.0266,-0.4 -0.0533,-0.82666 -0.0533,-1.25333zM379.653,179.58666c-0.0267,-0.17333 -0.0533,-0.33333 -0.08,-0.48c0,-0.01333 -0.0133,-0.02667 -0.0133,-0.04c-0.13334,0.18667 -0.28,0.38667 -0.42667,0.57333c0.17333,0 0.34667,-0.02666 0.52,-0.05333zM382.06632,178.77333c0,0.25333 0.0133,0.52 0.04,0.8h0.0267c0.21334,-0.26667 0.41334,-0.52 0.6,-0.77333c-0.24,-0.2 -0.45333,-0.38666 -0.66666,-0.56zM384.35972,179.34666c-0.0267,-0.16 -0.0533,-0.30667 -0.08,-0.44c-0.0134,-0.05333 -0.0267,-0.09333 -0.0267,-0.12c-0.17333,0.22667 -0.36,0.44 -0.54667,0.65333c0.21334,-0.02666 0.44,-0.05333 0.65333,-0.09333z"/><path d="M394.14628,176.28v-0.22667c0,-0.33333 0.06667,-0.57333 0.21334,-0.70666c0.13333,-0.16 0.37333,-0.24 0.74666,-0.24c0.37333,0 0.61333,0.08 0.73333,0.22667c0.14667,0.14667 0.22667,0.38667 0.22667,0.72v0.22667h1.52c0.29333,0 0.51999,0.06667 0.66666,0.18667c0.11997,0.10667 0.18667,0.30667 0.18667,0.62667c0,0.25333 -0.05334,0.44 -0.16,0.54667c-0.16,0.17333 -0.38667,0.25333 -0.69333,0.25333h-1.52v0.88h2.14666c0.29333,0 0.52,0.06667 0.66667,0.18667c0.11996,0.10667 0.18666,0.32 0.18666,0.62667c0,0.25333 -0.05333,0.44 -0.16,0.54666c-0.16,0.18667 -0.38666,0.26667 -0.69333,0.26667h-0.86666v0.96h0.69333c0.32,0 0.54666,0.06667 0.68,0.17333c0.11996,0.12 0.18666,0.33333 0.18666,0.65333c0,0.26667 -0.05333,0.45333 -0.16,0.56c-0.16,0.18667 -0.38666,0.28 -0.70666,0.28h-0.69333v2.86666c0,0.90666 -0.64,1.4 -1.90667,1.45333c-0.23999,0 -0.46666,-0.02666 -0.67999,-0.05333c-0.2,-0.02667 -0.37334,-0.09334 -0.52,-0.18667c-0.10667,-0.10667 -0.1867,-0.24 -0.24,-0.37333c-0.0533,-0.17333 -0.0933,-0.38667 -0.0933,-0.64c-0.13334,0.05334 -0.28,0.09334 -0.42667,0.10667c-0.44,0 -0.72,-0.18667 -0.85333,-0.57333c-0.21333,-0.45333 -0.44,-0.86667 -0.68,-1.25333c-0.0534,-0.06667 -0.0667,-0.13334 -0.0667,-0.18667c0,-0.26667 0.12,-0.48 0.36,-0.66666c0.22667,-0.16 0.48,-0.24 0.76,-0.24c0.34667,0 0.57333,0.13333 0.70667,0.4c0.24,0.30667 0.49333,0.72 0.73333,1.24c0.0533,0.12 0.08,0.21333 0.0933,0.28c0,0.05333 -0.0133,0.09333 -0.0133,0.12h0.56c0.25333,0 0.38666,-0.08 0.38666,-0.26667v-2.02666h-3.13332c-0.29334,0 -0.50667,-0.05333 -0.66667,-0.18667c-0.14663,-0.12 -0.21333,-0.33333 -0.21333,-0.65333c0,-0.32 0.06666,-0.53333 0.21333,-0.65333c0.13333,-0.10666 0.36,-0.17333 0.66667,-0.17333h3.13332v-0.96h-3.37332c-0.29334,0 -0.50667,-0.05333 -0.64,-0.18667c-0.09333,-0.08 -0.14663,-0.18667 -0.17333,-0.34667v5.78665c0,0.76 -0.38667,1.14666 -1.14667,1.14666h-2.13333c-0.77333,0 -1.14666,-0.38667 -1.14666,-1.14666v-8.74664c0,-0.76 0.37333,-1.14666 1.14666,-1.14666h2.13333c0.76,0 1.14667,0.38667 1.14667,1.14666v2.39999c0.02666,-0.14667 0.08003,-0.26667 0.17333,-0.34667c0.13333,-0.12 0.34666,-0.18667 0.64,-0.18667h2.05332v-0.88h-1.53332c-0.29334,0 -0.50667,-0.05333 -0.64,-0.18667c-0.1333,-0.10667 -0.2,-0.30667 -0.2,-0.61333c0,-0.30667 0.06666,-0.52 0.2,-0.62667c0.13333,-0.12 0.34666,-0.18667 0.64,-0.18667zM389.55963,184.77331v-2.70666h-0.98666v2.70666c0,0.13333 0.06666,0.2 0.2,0.2h0.57333c0.13333,0 0.21333,-0.06667 0.21333,-0.2zM389.55963,180.13332v-2.34666c0,-0.13333 -0.08,-0.2 -0.21333,-0.2h-0.57333c-0.1333,0 -0.2,0.06667 -0.2,0.2v2.34666z"/><path d="M407.65293,181.03999c0.8,0 1.2,0.4 1.2,1.2v3.13333c0,0.78666 -0.4,1.18666 -1.2,1.18666h-3.27999c-0.8,0 -1.2,-0.4 -1.2,-1.18666v-3.13333c0,-0.8 0.4,-1.2 1.2,-1.2zM407.29293,184.85331v-0.54666h-2.55999v0.54666c0,0.17333 0.08,0.25333 0.26666,0.25333h2.02667c0.17336,0 0.26666,-0.08 0.26666,-0.25333zM407.29293,183.19998v-0.44c0,-0.16 -0.09333,-0.25333 -0.26666,-0.25333h-2.02667c-0.18666,0 -0.26666,0.09333 -0.26666,0.25333v0.44zM405.5996,176.18667v3.06666c0,0.74666 -0.29333,1.12 -0.88,1.12h-2.50666v6.37332c-0.04,0.46666 -0.34666,0.71999 -0.90666,0.74666c-0.58667,-0.02667 -0.8933,-0.28 -0.92,-0.74666v-10.45331c0,-0.64 0.28,-0.96 0.86667,-0.96h3.43999c0.6,0 0.90666,0.29333 0.90666,0.85333zM403.87961,178.90666v-0.54666h-1.66667v0.54666zM403.87961,177.26667v-0.48h-1.66667v0.48zM410.70625,175.32c0.74666,0 1.13333,0.30667 1.13333,0.90667v9.77331c0,0.89333 -0.49334,1.34666 -1.46667,1.34666c-0.4,0 -0.71999,-0.08 -0.94666,-0.22667c-0.26667,-0.13333 -0.40003,-0.36 -0.41333,-0.68c0,-0.4 0.04,-0.69333 0.14666,-0.86666c0.13334,-0.10667 0.26667,-0.16 0.38667,-0.16c0.0133,0 0.0267,0.01334 0.04,0.02667c0.08003,0.08 0.13333,0.13333 0.17333,0.13333c0.16003,0 0.25333,-0.06667 0.25333,-0.21333v-4.98665h-2.70666c-0.55999,0 -0.82666,-0.29333 -0.82666,-0.89333v-3.25333c0,-0.6 0.32,-0.90667 0.97333,-0.90667zM410.01292,178.36h-1.70666v0.54666h1.70666zM410.01292,177.26667v-0.49333h-1.70666v0.49333z"/></g></g></g></svg>