<svg version="1.1" xmlns="http://www.w3.org/2000/svg" xmlns:xlink="http://www.w3.org/1999/xlink" width="480.00001" height="50" viewBox="0,0,480.00001,50"><g transform="translate(0,-155)"><g data-paper-data="{&quot;isPaintingLayer&quot;:true}" stroke-miterlimit="10" stroke-dasharray="" stroke-dashoffset="0" style="mix-blend-mode: normal"><g fill="#ffffff" fill-rule="nonzero" stroke="#ffffff" stroke-width="3.5" stroke-linecap="butt" stroke-linejoin="miter"><path d="M246.37325,175.10666c0.32,0 0.54667,0.10667 0.68,0.30667c0.10667,0.10667 0.25333,0.30667 0.41333,0.6c0.0667,0.17333 0.1067,0.30667 0.12,0.4h1.32c0.0667,-0.21333 0.12,-0.42667 0.16,-0.64c0.08,-0.42667 0.29333,-0.63999 0.66666,-0.66666c0.24,0 0.48,0.06667 0.69333,0.2c0.21334,0.10667 0.32,0.32 0.32,0.62667c0,0.02666 -0.0133,0.06666 -0.0133,0.09333c-0.04,0.13333 -0.08,0.26667 -0.12,0.38667h0.8c0.21333,0 0.38666,0.05333 0.50666,0.13333c0.1067,0.08 0.16,0.26667 0.16,0.54667c0,0.22667 -0.03996,0.38667 -0.10666,0.46667c-0.10667,0.13333 -0.29334,0.2 -0.56,0.2h-1.46667v2.10666h0.16c0.13334,-0.4 0.26667,-0.84 0.42667,-1.33333c0.10667,-0.25333 0.34667,-0.38667 0.72,-0.4c0.21333,0 0.37333,0.04 0.49333,0.10667c0.13337,0.09333 0.21337,0.22667 0.22667,0.41333c0,0.14667 -0.13334,0.54667 -0.37334,1.21333c0.22667,0 0.4,0.05334 0.50667,0.14667c0.11997,0.09333 0.18667,0.28 0.18667,0.56c0,0.24 -0.03997,0.4 -0.10667,0.48c-0.13333,0.16 -0.32,0.22667 -0.58667,0.22667h-6.53331c-0.21334,0 -0.38667,-0.05333 -0.49333,-0.16c-0.1333,-0.09333 -0.2,-0.28 -0.2,-0.54667c0,-0.26667 0.06666,-0.46666 0.2,-0.57333c0.07999,-0.08 0.21333,-0.12 0.41333,-0.13333c-0.0267,-0.02666 -0.0267,-0.04 -0.0267,-0.05333c-0.10667,-0.24 -0.24,-0.53333 -0.41333,-0.88c-0.0133,-0.02666 -0.0133,-0.05333 -0.0133,-0.09333c0,-0.08 0.0134,-0.17333 0.0667,-0.29333c0.06667,-0.13333 0.18667,-0.25334 0.37333,-0.34667c0.12,-0.04 0.24,-0.06667 0.34667,-0.06667c0.30667,0 0.52,0.09333 0.65333,0.28c0.08,0.10667 0.17333,0.29333 0.28,0.58667c0.06667,0.2 0.10667,0.36 0.10667,0.46667c0,0.18667 -0.04,0.32 -0.12,0.4h0.32v-2.10666h-1.36c-0.21333,0 -0.37333,-0.04 -0.49333,-0.14667c-0.12003,-0.09333 -0.17333,-0.26667 -0.17333,-0.52c0,-0.26667 0.05333,-0.45333 0.17333,-0.56c0.09333,-0.08 0.25333,-0.12 0.49333,-0.12h0.65333c-0.10666,-0.13333 -0.2,-0.29333 -0.30666,-0.45333c-0.0267,-0.02666 -0.0267,-0.05333 -0.0267,-0.09333c0,-0.08 0.0134,-0.18667 0.0667,-0.32c0.08,-0.13333 0.21333,-0.25334 0.39999,-0.34667c0.13334,-0.05333 0.25334,-0.09333 0.38667,-0.09333zM248.59999,179.86666v-2.10666h-0.68v2.10666zM250.43999,181.77332c0.69333,0 1.03999,0.34667 1.03999,1.04v3.17333c0,0.69333 -0.34666,1.05333 -1.03999,1.05333h-4.42666c-0.69333,0 -1.04,-0.36 -1.04,-1.05333v-3.17333c0,-0.69333 0.34667,-1.04 1.04,-1.04zM249.66666,185.51998v-0.65333h-2.86666v0.65333c0,0.18667 0.08,0.26667 0.25333,0.26667h2.34666c0.17337,0 0.26667,-0.08 0.26667,-0.26667zM249.66666,183.67998v-0.4c0,-0.16 -0.09334,-0.25333 -0.26667,-0.25333h-2.34666c-0.17333,0 -0.25333,0.09333 -0.25333,0.25333v0.4zM243.5333,175.54667c0.22666,0 0.4,0.05334 0.50666,0.14667c0.10664,0.09333 0.17334,0.28 0.17334,0.56c0,0.24 -0.04,0.4 -0.0933,0.48c-0.13333,0.16 -0.32,0.22667 -0.58666,0.22667h-2.53333c-0.21333,0 -0.37333,-0.05333 -0.49333,-0.16c-0.1333,-0.10667 -0.2,-0.28 -0.2,-0.54667c0,-0.26667 0.06667,-0.46666 0.2,-0.57333c0.09333,-0.08 0.25333,-0.13333 0.49333,-0.13333zM243.70667,177.45333c0.29333,0 0.50667,0.06667 0.64,0.18667c0.11997,0.09333 0.18667,0.29333 0.18667,0.58667c0,0.25333 -0.05337,0.42666 -0.14667,0.53333c-0.16,0.17333 -0.38667,0.25333 -0.68,0.25333h-2.89333c-0.26666,0 -0.47999,-0.05333 -0.61333,-0.18667c-0.1333,-0.09333 -0.2,-0.29333 -0.2,-0.6c0,-0.29333 0.06667,-0.48 0.2,-0.58667c0.12,-0.12 0.32,-0.18667 0.61333,-0.18667zM243.58667,179.39999c0.26667,0 0.45333,0.05333 0.57333,0.16c0.1067,0.10667 0.16,0.28 0.16,0.54667c0,0.21333 -0.05333,0.37333 -0.13333,0.48c-0.13333,0.16 -0.33333,0.22667 -0.6,0.22667h-2.53333c-0.25333,0 -0.43999,-0.05333 -0.55999,-0.16c-0.13337,-0.10667 -0.18667,-0.28 -0.18667,-0.54666c0,-0.26667 0.05333,-0.44 0.18667,-0.54667c0.10666,-0.10667 0.29333,-0.16 0.55999,-0.16zM243.58667,181.17332c0.26667,0 0.45333,0.05333 0.57333,0.16c0.1067,0.10667 0.16,0.28 0.16,0.54667c0,0.21333 -0.05333,0.37333 -0.13333,0.48c-0.13333,0.16 -0.33333,0.22667 -0.6,0.22667h-2.53333c-0.25333,0 -0.43999,-0.05333 -0.55999,-0.16c-0.13337,-0.10667 -0.18667,-0.28 -0.18667,-0.54666c0,-0.26667 0.05333,-0.44 0.18667,-0.54667c0.10666,-0.10667 0.29333,-0.16 0.55999,-0.16zM243.44,182.99998c0.54667,0 0.82667,0.28 0.82667,0.82666v2.34666c0,0.56 -0.28,0.84 -0.82667,0.84h-2.39996c-0.56,0 -0.82666,-0.28 -0.82666,-0.84v-2.34666c0,-0.54666 0.26666,-0.82666 0.82666,-0.82666zM242.7067,185.39998v-0.78666c0,-0.13333 -0.08,-0.21333 -0.21333,-0.21333h-0.52c-0.1333,0 -0.2,0.08 -0.2,0.21333v0.78666c0,0.13333 0.06667,0.2 0.2,0.2h0.52c0.13333,0 0.21333,-0.06667 0.21333,-0.2z"/><path d="M264.54661,175.84c0.32,0 0.54666,0.06667 0.69333,0.17333c0.10663,0.12 0.17333,0.33333 0.17333,0.65333c0,0.26667 -0.05336,0.45333 -0.14666,0.56c-0.16,0.18667 -0.4,0.28 -0.72,0.28h-4.09332l-0.18667,0.93333h3.37332c0.86667,0 1.30667,0.44 1.30667,1.30666v5.82665c0,0.86666 -0.44,1.30666 -1.30667,1.30666h-8.47997c-0.88,0 -1.30667,-0.44 -1.30667,-1.30666v-5.82665c0,-0.86666 0.42667,-1.30666 1.30667,-1.30666h3.11999l0.18666,-0.93333h-4.15999c-0.29333,0 -0.50666,-0.05333 -0.66666,-0.18667c-0.1333,-0.12 -0.2,-0.33333 -0.2,-0.65333c0,-0.32 0.06667,-0.53333 0.2,-0.65333c0.13333,-0.10666 0.36,-0.17333 0.66666,-0.17333zM263.06662,184.99998v-4.67999c0,-0.21333 -0.10666,-0.32 -0.30666,-0.32h-0.98667v5.31999h0.98667c0.2,0 0.30666,-0.10667 0.30666,-0.32zM260.2133,184.31998h-1.57333v1h1.57333zM260.2133,182.97332v-0.78666h-1.57333v0.78666zM260.2133,180.83999v-0.84h-1.57333v0.84zM257.07997,179.99999h-1.04c-0.21336,0 -0.30666,0.10667 -0.30666,0.32v4.67999c0,0.21333 0.09333,0.32 0.30666,0.32h1.04z"/><path d="M278.31996,180.78664c0,0.4 -0.22667,0.69333 -0.66667,0.86667c-0.58666,0.22667 -1.46666,0.56 -2.61333,1.01333c0.0266,0.34667 0.0533,0.65333 0.0533,0.90667c0,0.29333 -0.09334,0.52 -0.28,0.69333c-0.18667,0.18667 -0.41333,0.26667 -0.69333,0.26667c-0.65333,0 -0.97333,-0.34667 -0.97333,-1.06666c-1.24,0.46667 -1.85333,0.86666 -1.85333,1.21333c0,0.32 0.53333,0.46667 1.61333,0.46667c0.66666,0 1.41333,-0.02666 2.26666,-0.09333l1.23999,-0.09333c0.26667,0 0.50667,0.09333 0.69334,0.26667c0.1867,0.18667 0.28,0.41333 0.28,0.68c0,0.49333 -0.29334,0.77333 -0.85334,0.84c-0.83999,0.09334 -2.05332,0.14667 -3.62665,0.14667c-1.10667,0 -1.92,-0.12 -2.42666,-0.34667c-0.74667,-0.34667 -1.12,-0.96 -1.12,-1.86666c0,-0.61333 0.45333,-1.24 1.37333,-1.86666c0.4,-0.26667 1.09333,-0.64 2.09333,-1.12c-0.24,-0.48 -0.58667,-0.73333 -1.04,-0.73333c-0.65333,0 -1.21333,0.18667 -1.69333,0.56c-0.48,0.38667 -0.94666,0.77333 -1.4,1.14666c-0.24,0.16 -0.46666,0.24 -0.67999,0.24c-0.24,0 -0.44,-0.08 -0.6,-0.24c-0.16,-0.16 -0.24,-0.37333 -0.24,-0.61333c0,-0.26667 0.12,-0.54667 0.38666,-0.81333c0.69334,-0.70666 1.38667,-1.57333 2.08,-2.58666c-0.64,0.02667 -1.06667,0.04 -1.28,0.04c-0.28,0 -0.50666,-0.08 -0.69333,-0.24c-0.1867,-0.16 -0.28,-0.37333 -0.28,-0.65333c0,-0.25333 0.09333,-0.46667 0.28,-0.62667c0.18667,-0.14667 0.41333,-0.22667 0.69333,-0.22667c0.50667,0 1.29333,-0.02667 2.38666,-0.08c0.13334,-0.29333 0.28,-0.6 0.42667,-0.92c0.2,-0.33333 0.46666,-0.50666 0.78666,-0.50666c0.25334,0 0.48,0.09333 0.66667,0.25333c0.17336,0.17333 0.26666,0.38666 0.26666,0.64c0,0.09333 -0.0267,0.24 -0.08,0.42667l2.77333,-0.2c0.26667,0 0.48,0.09333 0.66667,0.25333c0.16003,0.17333 0.25333,0.38666 0.25333,0.64c0,0.50667 -0.29333,0.77334 -0.86667,0.82666c-1.09333,0.08 -2.35999,0.16 -3.79999,0.26667c-0.21333,0.32 -0.42666,0.64 -0.64,0.94666c0.02667,0 0.18667,-0.04 0.45334,-0.09333c0.17333,-0.02666 0.32,-0.05333 0.45333,-0.05333c1.14666,0 1.97333,0.52 2.47999,1.56c1.62667,-0.69333 2.57333,-1.04 2.86666,-1.04c0.25333,0 0.46667,0.09333 0.62667,0.26667c0.16,0.18667 0.24,0.4 0.24,0.65333z"/><path d="M286.03987,175.00001c0.36,0 0.62666,0.08 0.78666,0.24c0.2,0.17333 0.30667,0.41333 0.30667,0.72v0.16h4.15999c0.29333,0 0.52,0.06667 0.65333,0.18667c0.11997,0.10667 0.18667,0.32 0.18667,0.62667c0,0.25333 -0.05334,0.44 -0.16,0.54667c-0.14667,0.17333 -0.37334,0.25333 -0.68,0.25333h-2.49333v2.97333c0,0.52 -0.17333,0.88 -0.49333,1.09333h1.16c0.45333,0 0.79999,0.06667 1.03999,0.2c0.34667,0.24 0.53334,0.56 0.53334,0.93333c0,0.30667 -0.24,0.62667 -0.69334,0.96c-0.53333,0.4 -1.17333,0.77333 -1.93332,1.14666c0.93333,0.21333 1.94666,0.36 3.06666,0.41333c0.43999,0.04 0.67996,0.29333 0.70666,0.76c0,0.29333 -0.06667,0.52 -0.17333,0.66666c-0.09334,0.21333 -0.32,0.33333 -0.69333,0.36c-0.65334,0 -1.36,-0.05334 -2.12,-0.14667c-1.17333,-0.18667 -2.27999,-0.49333 -3.33332,-0.94666c-0.68,0.24 -1.38667,0.45333 -2.10667,0.66666c-1.22666,0.32 -2.05332,0.50666 -2.47999,0.53333c-0.36,0 -0.62666,-0.12 -0.78666,-0.33333c-0.16,-0.17333 -0.24,-0.34667 -0.24,-0.50666c0,-0.38667 0.13333,-0.65333 0.42666,-0.82666c1.10667,-0.24 2.10666,-0.46667 3.01333,-0.70666c-0.45333,-0.30667 -0.84,-0.62667 -1.16,-0.97333c-0.0266,-0.02667 -0.0533,-0.04 -0.0533,-0.06667c-0.24,0.13333 -0.48,0.26667 -0.70667,0.37333c-0.16,0.12 -0.34666,0.17333 -0.54666,0.17333c-0.29333,0 -0.54667,-0.12 -0.76,-0.36c-0.17333,-0.18667 -0.25333,-0.37333 -0.25333,-0.57333c0,-0.16 0.08,-0.30667 0.24,-0.44c0.85333,-0.41333 1.61333,-0.81333 2.25332,-1.21333c-0.1067,-0.10667 -0.16,-0.29333 -0.16,-0.53333c0.02667,-0.08 0.09334,-0.16 0.2,-0.25333c0.64,-0.70666 1.00003,-1.44 1.05333,-2.18666v-1.18666h-2.85332c-0.29333,0 -0.50667,-0.05333 -0.64,-0.17333c-0.1333,-0.10667 -0.2,-0.32 -0.2,-0.62667c0,-0.29333 0.06667,-0.50666 0.2,-0.62667c0.13333,-0.12 0.34667,-0.18667 0.64,-0.18667h3.99999v-0.16c0,-0.26667 0.10666,-0.50667 0.32,-0.74667c0.14666,-0.13333 0.4,-0.21333 0.77333,-0.21333zM286.06657,184.26665c0.16,-0.05333 0.31999,-0.10667 0.46666,-0.16c1.09333,-0.37333 1.64,-0.62667 1.64,-0.76c0,-0.09334 -0.08,-0.14667 -0.24,-0.14667h-3.57333c0.57334,0.42667 1.14667,0.78666 1.70667,1.06666zM286.21323,181.79999c-0.08,-0.10667 -0.14666,-0.21333 -0.18666,-0.32c-0.0666,-0.2 -0.0933,-0.45333 -0.0933,-0.76c0,-0.2 0.02667,-0.38667 0.10667,-0.54667c0.08,-0.05333 0.17333,-0.09333 0.25333,-0.12h0.34667c0.25333,0 0.38666,-0.08 0.38666,-0.25333v-2.06666h-1.45333v0.96c0,0.4 -0.05333,0.77333 -0.13333,1.14666c-0.09333,0.4 -0.21333,0.74667 -0.34667,1.02666c0.04,0.02666 0.0666,0.04 0.0933,0.05333c0.1867,0.14667 0.28,0.30667 0.28,0.48c0,0.13333 -0.06667,0.26667 -0.17334,0.4zM282.39991,178.48c0.1867,0.10667 0.28,0.34667 0.28,0.72c0,0.10667 -0.05337,0.24 -0.14667,0.42667c-0.25333,0.58666 -0.52,1.05333 -0.81333,1.37333c-0.13333,0.28 -0.37333,0.41333 -0.69333,0.41333c-0.24,0 -0.48,-0.08 -0.69333,-0.25333c-0.22667,-0.14667 -0.33334,-0.36 -0.33334,-0.65333c0,-0.08 0.04,-0.18667 0.12,-0.30667c0.30667,-0.37333 0.58667,-0.84 0.84,-1.38666c0.14667,-0.38667 0.36,-0.58667 0.65333,-0.58667c0.32,0 0.57334,0.09333 0.78667,0.25333zM291.18655,178.63999c0.18667,0.18667 0.4,0.56 0.66667,1.12c0.14666,0.37333 0.22666,0.68 0.22666,0.89333c0,0.25333 -0.08,0.44 -0.21333,0.56c-0.18667,0.2 -0.42666,0.30667 -0.73333,0.30667c-0.26667,0 -0.46667,-0.04 -0.6,-0.14667c-0.10667,-0.06667 -0.15997,-0.17333 -0.18667,-0.30667c-0.21333,-0.44 -0.53333,-1.01333 -0.93333,-1.72c-0.0267,-0.04 -0.04,-0.09333 -0.04,-0.16c0,-0.10667 0.0267,-0.22667 0.08,-0.38667c0.09334,-0.16 0.25334,-0.30667 0.48,-0.41333c0.14667,-0.06667 0.29334,-0.10667 0.44,-0.10667c0.37333,0 0.64,0.12 0.81333,0.36z"/><path d="M294.50654,177.61334v-1.6c0.01334,-0.50667 0.32,-0.77333 0.90667,-0.8c0.58666,0 0.89329,0.26667 0.91999,0.8v1.61333c0.21334,0.02667 0.38667,0.06667 0.50667,0.14667c0.04,-0.06667 0.09333,-0.13334 0.17333,-0.18667c0.70667,-0.77333 1.25333,-1.53333 1.65333,-2.25333c0.21333,-0.18667 0.4,-0.28 0.57333,-0.28c0.30667,0 0.57334,0.08 0.78667,0.24c0.16,0.13333 0.26666,0.26667 0.30666,0.41333h2.53333c0.89333,0 1.34666,0.29333 1.34666,0.86666c0,0.21333 -0.16,0.56 -0.45333,1.06666h0.2c0.74667,0 1.12,0.44 1.12,1.30666v2.75999c0,0.28 -0.08,0.46667 -0.22667,0.57333c-0.13333,0.13333 -0.32,0.2 -0.58666,0.2c-0.30667,0 -0.53333,-0.06667 -0.66667,-0.2c-0.09333,-0.09333 -0.13333,-0.24 -0.13333,-0.45333v-0.14667c-0.05333,0.01333 -0.09333,0.01333 -0.13333,0.01333h-1.01333c-0.49334,0 -0.73334,-0.24 -0.73334,-0.72v-1.69333c0,-0.05333 0,-0.09333 0.0133,-0.12h-0.29333c-0.0133,0.14667 -0.0266,0.30667 -0.0533,0.49333c-0.08,0.53333 -0.22666,0.98666 -0.42666,1.34666c-0.17334,0.4 -0.44,0.73333 -0.78667,1.02666c-0.10666,0.08 -0.21333,0.10667 -0.32,0.10667c-0.2,0 -0.36,-0.04 -0.49333,-0.14667c-0.02667,0.16 -0.06667,0.28 -0.14667,0.33333c-0.13333,0.10667 -0.34666,0.16 -0.63999,0.16c-0.28,0 -0.48,-0.05333 -0.6,-0.18667c-0.14664,-0.13333 -0.21334,-0.33333 -0.21334,-0.58666v-2.75999c-0.18666,-0.02667 -0.35999,-0.10667 -0.49333,-0.25333c-0.01333,0.29333 -0.06666,0.48 -0.14666,0.58667c-0.14667,0.18667 -0.36,0.28 -0.65334,0.29333v1.14666c0.0266,0 0.0666,-0.01333 0.0933,-0.01333c0.24,0 0.44,0.09333 0.62666,0.26667c0.11997,0.17333 0.18667,0.38667 0.18667,0.64c0,0.28 -0.08,0.49333 -0.22667,0.64c-0.10666,0.13333 -0.32,0.22667 -0.62666,0.28c-0.0266,0 -0.0533,0.01333 -0.0533,0.01333v3.37332c0,0.90667 -0.51999,1.37333 -1.53333,1.37333c-0.49333,-0.02667 -0.82666,-0.13333 -1.01333,-0.34667c-0.20003,-0.2 -0.29333,-0.48 -0.29333,-0.82666c0,-0.4 0.04,-0.72 0.14667,-0.96c0.14666,-0.13333 0.33333,-0.21333 0.54666,-0.21333c0.21334,0 0.32,-0.09333 0.32,-0.28v-1.93333h-0.21333c-0.34667,0 -0.57333,-0.06667 -0.70667,-0.22667c-0.13329,-0.13333 -0.19999,-0.36 -0.19999,-0.68c0,-0.32 0.07999,-0.56 0.23999,-0.72c0.10667,-0.10667 0.30667,-0.16 0.62667,-0.18667c0.09333,0 0.17333,-0.01334 0.25333,-0.02667v-1.30666h-0.10666c-0.29334,0 -0.52,-0.06667 -0.69334,-0.22667c-0.18666,-0.13333 -0.26666,-0.38667 -0.26666,-0.76c0,-0.4 0.08,-0.66666 0.26666,-0.81333c0.13334,-0.10666 0.36,-0.17333 0.69334,-0.17333zM302.87989,179.16c0,0.05333 0.0133,0.09333 0.0133,0.12v1.01333c0,0.08 0.02666,0.10667 0.10666,0.10667h0.33334c0.05333,0 0.09333,0.01333 0.13333,0.01333v-1.04c0,-0.13333 -0.09333,-0.21333 -0.25333,-0.21333h-0.33334zM299.81318,180.07999c0.09336,-0.24 0.15996,-0.54667 0.18666,-0.92h-0.54666c-0.14664,0 -0.21334,0.08 -0.21334,0.21333v1.50666c0.26667,-0.21333 0.46667,-0.48 0.57334,-0.8zM301.73319,177.64c0.18667,-0.25333 0.29333,-0.41333 0.29333,-0.46666c0,-0.04 -0.13333,-0.06667 -0.37333,-0.06667h-1.93333c-0.13333,0.2 -0.25333,0.37333 -0.36,0.53333zM300.49318,182.63999v-0.10667c0,-0.21333 0.06667,-0.4 0.21334,-0.53333c0.14666,-0.14667 0.36,-0.22667 0.65333,-0.22667c0.28,0 0.48,0.05334 0.61333,0.14667c0.16,0.05333 0.24,0.26667 0.24,0.61333v0.10667h2.71999c0.28,0 0.49333,0.05333 0.62667,0.16c0.10663,0.10667 0.17333,0.29333 0.17333,0.58667c0,0.24 -0.05337,0.41334 -0.14667,0.50667c-0.14666,0.17333 -0.35999,0.25333 -0.65333,0.25333h-2.22666c0.05333,0.08 0.11997,0.14667 0.18667,0.2c0.41333,0.50666 1.23999,0.97333 2.46666,1.38666c0.28,0.09333 0.42666,0.29333 0.42666,0.58666c0,0.21333 -0.08,0.41333 -0.22666,0.61333c-0.2,0.24 -0.45333,0.36 -0.76,0.36c-0.24,0 -0.54667,-0.09333 -0.92,-0.28c-0.72,-0.36 -1.47999,-0.88 -2.27999,-1.57333c-0.10667,-0.08 -0.1867,-0.12 -0.24,-0.12c-0.05333,0 -0.13333,0.04 -0.21333,0.09333c-0.70667,0.66666 -1.4,1.17333 -2.09333,1.49333c-0.48,0.25333 -0.88,0.38666 -1.2,0.38666c-0.36,0 -0.62666,-0.14667 -0.8,-0.42666c-0.12003,-0.17333 -0.17333,-0.34667 -0.17333,-0.53333c0,-0.29333 0.12,-0.49333 0.37333,-0.6c1.25333,-0.41333 2.12,-0.88 2.6,-1.38666c0.06666,-0.06667 0.13336,-0.13333 0.18666,-0.2h-2.47999c-0.26667,0 -0.46667,-0.05333 -0.6,-0.17333c-0.13337,-0.10667 -0.18667,-0.30667 -0.18667,-0.58667c0,-0.28 0.05334,-0.48 0.18667,-0.58667c0.12,-0.10667 0.32,-0.16 0.6,-0.16z"/><path d="M311.61314,177.26667v-1.01333c0,-0.34667 0.10667,-0.61333 0.32,-0.8c0.16,-0.18667 0.42667,-0.29333 0.77333,-0.29333c0.32,0 0.58667,0.10667 0.8,0.29333c0.18667,0.18667 0.29333,0.45333 0.29333,0.8v1.01333h3.02666c0.89334,0 1.34667,0.45333 1.34667,1.36v4.10666c0,0.90666 -0.45333,1.36 -1.34667,1.36h-3.02666v2.16c0,0.26667 -0.07999,0.50666 -0.21333,0.70666c-0.17333,0.25333 -0.46666,0.38667 -0.88,0.38667c-0.37333,0 -0.65333,-0.13333 -0.83999,-0.37333c-0.17334,-0.2 -0.25334,-0.44 -0.25334,-0.72v-2.16h-2.97332c-0.90667,0 -1.34667,-0.45333 -1.34667,-1.36v-4.10666c0,-0.90666 0.44,-1.36 1.34667,-1.36zM316.09315,181.85332v-2.34666c0,-0.26667 -0.14666,-0.41333 -0.41333,-0.41333h-1.88v3.17333h1.88c0.26667,0 0.41333,-0.13333 0.41333,-0.41333zM311.61316,179.09333h-1.82666c-0.28,0 -0.41333,0.14667 -0.41333,0.41333v2.34666c0,0.28 0.13333,0.41333 0.41333,0.41333h1.82666z"/></g><g fill="#000000" fill-rule="nonzero" stroke="none" stroke-width="0.26458" stroke-linecap="butt" stroke-linejoin="miter"><path d="M246.37325,175.10666c0.32,0 0.54667,0.10667 0.68,0.30667c0.10667,0.10667 0.25333,0.30667 0.41333,0.6c0.0667,0.17333 0.1067,0.30667 0.12,0.4h1.32c0.0667,-0.21333 0.12,-0.42667 0.16,-0.64c0.08,-0.42667 0.29333,-0.63999 0.66666,-0.66666c0.24,0 0.48,0.06667 0.69333,0.2c0.21334,0.10667 0.32,0.32 0.32,0.62667c0,0.02666 -0.0133,0.06666 -0.0133,0.09333c-0.04,0.13333 -0.08,0.26667 -0.12,0.38667h0.8c0.21333,0 0.38666,0.05333 0.50666,0.13333c0.1067,0.08 0.16,0.26667 0.16,0.54667c0,0.22667 -0.03996,0.38667 -0.10666,0.46667c-0.10667,0.13333 -0.29334,0.2 -0.56,0.2h-1.46667v2.10666h0.16c0.13334,-0.4 0.26667,-0.84 0.42667,-1.33333c0.10667,-0.25333 0.34667,-0.38667 0.72,-0.4c0.21333,0 0.37333,0.04 0.49333,0.10667c0.13337,0.09333 0.21337,0.22667 0.22667,0.41333c0,0.14667 -0.13334,0.54667 -0.37334,1.21333c0.22667,0 0.4,0.05334 0.50667,0.14667c0.11997,0.09333 0.18667,0.28 0.18667,0.56c0,0.24 -0.03997,0.4 -0.10667,0.48c-0.13333,0.16 -0.32,0.22667 -0.58667,0.22667h-6.53331c-0.21334,0 -0.38667,-0.05333 -0.49333,-0.16c-0.1333,-0.09333 -0.2,-0.28 -0.2,-0.54667c0,-0.26667 0.06666,-0.46666 0.2,-0.57333c0.07999,-0.08 0.21333,-0.12 0.41333,-0.13333c-0.0267,-0.02666 -0.0267,-0.04 -0.0267,-0.05333c-0.10667,-0.24 -0.24,-0.53333 -0.41333,-0.88c-0.0133,-0.02666 -0.0133,-0.05333 -0.0133,-0.09333c0,-0.08 0.0134,-0.17333 0.0667,-0.29333c0.06667,-0.13333 0.18667,-0.25334 0.37333,-0.34667c0.12,-0.04 0.24,-0.06667 0.34667,-0.06667c0.30667,0 0.52,0.09333 0.65333,0.28c0.08,0.10667 0.17333,0.29333 0.28,0.58667c0.06667,0.2 0.10667,0.36 0.10667,0.46667c0,0.18667 -0.04,0.32 -0.12,0.4h0.32v-2.10666h-1.36c-0.21333,0 -0.37333,-0.04 -0.49333,-0.14667c-0.12003,-0.09333 -0.17333,-0.26667 -0.17333,-0.52c0,-0.26667 0.05333,-0.45333 0.17333,-0.56c0.09333,-0.08 0.25333,-0.12 0.49333,-0.12h0.65333c-0.10666,-0.13333 -0.2,-0.29333 -0.30666,-0.45333c-0.0267,-0.02666 -0.0267,-0.05333 -0.0267,-0.09333c0,-0.08 0.0134,-0.18667 0.0667,-0.32c0.08,-0.13333 0.21333,-0.25334 0.39999,-0.34667c0.13334,-0.05333 0.25334,-0.09333 0.38667,-0.09333zM248.59999,179.86666v-2.10666h-0.68v2.10666zM250.43999,181.77332c0.69333,0 1.03999,0.34667 1.03999,1.04v3.17333c0,0.69333 -0.34666,1.05333 -1.03999,1.05333h-4.42666c-0.69333,0 -1.04,-0.36 -1.04,-1.05333v-3.17333c0,-0.69333 0.34667,-1.04 1.04,-1.04zM249.66666,185.51998v-0.65333h-2.86666v0.65333c0,0.18667 0.08,0.26667 0.25333,0.26667h2.34666c0.17337,0 0.26667,-0.08 0.26667,-0.26667zM249.66666,183.67998v-0.4c0,-0.16 -0.09334,-0.25333 -0.26667,-0.25333h-2.34666c-0.17333,0 -0.25333,0.09333 -0.25333,0.25333v0.4zM243.5333,175.54667c0.22666,0 0.4,0.05334 0.50666,0.14667c0.10664,0.09333 0.17334,0.28 0.17334,0.56c0,0.24 -0.04,0.4 -0.0933,0.48c-0.13333,0.16 -0.32,0.22667 -0.58666,0.22667h-2.53333c-0.21333,0 -0.37333,-0.05333 -0.49333,-0.16c-0.1333,-0.10667 -0.2,-0.28 -0.2,-0.54667c0,-0.26667 0.06667,-0.46666 0.2,-0.57333c0.09333,-0.08 0.25333,-0.13333 0.49333,-0.13333zM243.70667,177.45333c0.29333,0 0.50667,0.06667 0.64,0.18667c0.11997,0.09333 0.18667,0.29333 0.18667,0.58667c0,0.25333 -0.05337,0.42666 -0.14667,0.53333c-0.16,0.17333 -0.38667,0.25333 -0.68,0.25333h-2.89333c-0.26666,0 -0.47999,-0.05333 -0.61333,-0.18667c-0.1333,-0.09333 -0.2,-0.29333 -0.2,-0.6c0,-0.29333 0.06667,-0.48 0.2,-0.58667c0.12,-0.12 0.32,-0.18667 0.61333,-0.18667zM243.58667,179.39999c0.26667,0 0.45333,0.05333 0.57333,0.16c0.1067,0.10667 0.16,0.28 0.16,0.54667c0,0.21333 -0.05333,0.37333 -0.13333,0.48c-0.13333,0.16 -0.33333,0.22667 -0.6,0.22667h-2.53333c-0.25333,0 -0.43999,-0.05333 -0.55999,-0.16c-0.13337,-0.10667 -0.18667,-0.28 -0.18667,-0.54666c0,-0.26667 0.05333,-0.44 0.18667,-0.54667c0.10666,-0.10667 0.29333,-0.16 0.55999,-0.16zM243.58667,181.17332c0.26667,0 0.45333,0.05333 0.57333,0.16c0.1067,0.10667 0.16,0.28 0.16,0.54667c0,0.21333 -0.05333,0.37333 -0.13333,0.48c-0.13333,0.16 -0.33333,0.22667 -0.6,0.22667h-2.53333c-0.25333,0 -0.43999,-0.05333 -0.55999,-0.16c-0.13337,-0.10667 -0.18667,-0.28 -0.18667,-0.54666c0,-0.26667 0.05333,-0.44 0.18667,-0.54667c0.10666,-0.10667 0.29333,-0.16 0.55999,-0.16zM243.44,182.99998c0.54667,0 0.82667,0.28 0.82667,0.82666v2.34666c0,0.56 -0.28,0.84 -0.82667,0.84h-2.39996c-0.56,0 -0.82666,-0.28 -0.82666,-0.84v-2.34666c0,-0.54666 0.26666,-0.82666 0.82666,-0.82666zM242.7067,185.39998v-0.78666c0,-0.13333 -0.08,-0.21333 -0.21333,-0.21333h-0.52c-0.1333,0 -0.2,0.08 -0.2,0.21333v0.78666c0,0.13333 0.06667,0.2 0.2,0.2h0.52c0.13333,0 0.21333,-0.06667 0.21333,-0.2z"/><path d="M264.54662,175.84c0.32,0 0.54666,0.06667 0.69333,0.17333c0.10663,0.12 0.17333,0.33333 0.17333,0.65333c0,0.26667 -0.05336,0.45333 -0.14666,0.56c-0.16,0.18667 -0.4,0.28 -0.72,0.28h-4.09332l-0.18667,0.93333h3.37332c0.86667,0 1.30667,0.44 1.30667,1.30666v5.82665c0,0.86666 -0.44,1.30666 -1.30667,1.30666h-8.47997c-0.88,0 -1.30667,-0.44 -1.30667,-1.30666v-5.82665c0,-0.86666 0.42667,-1.30666 1.30667,-1.30666h3.11999l0.18666,-0.93333h-4.15999c-0.29333,0 -0.50666,-0.05333 -0.66666,-0.18667c-0.1333,-0.12 -0.2,-0.33333 -0.2,-0.65333c0,-0.32 0.06667,-0.53333 0.2,-0.65333c0.13333,-0.10666 0.36,-0.17333 0.66666,-0.17333zM263.06662,184.99998v-4.67999c0,-0.21333 -0.10666,-0.32 -0.30666,-0.32h-0.98667v5.31999h0.98667c0.2,0 0.30666,-0.10667 0.30666,-0.32zM260.2133,184.31998h-1.57333v1h1.57333zM260.2133,182.97332v-0.78666h-1.57333v0.78666zM260.2133,180.83999v-0.84h-1.57333v0.84zM257.07997,179.99999h-1.04c-0.21336,0 -0.30666,0.10667 -0.30666,0.32v4.67999c0,0.21333 0.09333,0.32 0.30666,0.32h1.04z"/><path d="M278.31996,180.78664c0,0.4 -0.22667,0.69333 -0.66667,0.86667c-0.58666,0.22667 -1.46666,0.56 -2.61333,1.01333c0.0266,0.34667 0.0533,0.65333 0.0533,0.90667c0,0.29333 -0.09334,0.52 -0.28,0.69333c-0.18667,0.18667 -0.41333,0.26667 -0.69333,0.26667c-0.65333,0 -0.97333,-0.34667 -0.97333,-1.06666c-1.24,0.46667 -1.85333,0.86666 -1.85333,1.21333c0,0.32 0.53333,0.46667 1.61333,0.46667c0.66666,0 1.41333,-0.02666 2.26666,-0.09333l1.23999,-0.09333c0.26667,0 0.50667,0.09333 0.69334,0.26667c0.1867,0.18667 0.28,0.41333 0.28,0.68c0,0.49333 -0.29334,0.77333 -0.85334,0.84c-0.83999,0.09334 -2.05332,0.14667 -3.62665,0.14667c-1.10667,0 -1.92,-0.12 -2.42666,-0.34667c-0.74667,-0.34667 -1.12,-0.96 -1.12,-1.86666c0,-0.61333 0.45333,-1.24 1.37333,-1.86666c0.4,-0.26667 1.09333,-0.64 2.09333,-1.12c-0.24,-0.48 -0.58667,-0.73333 -1.04,-0.73333c-0.65333,0 -1.21333,0.18667 -1.69333,0.56c-0.48,0.38667 -0.94666,0.77333 -1.4,1.14666c-0.24,0.16 -0.46666,0.24 -0.67999,0.24c-0.24,0 -0.44,-0.08 -0.6,-0.24c-0.16,-0.16 -0.24,-0.37333 -0.24,-0.61333c0,-0.26667 0.12,-0.54667 0.38666,-0.81333c0.69334,-0.70666 1.38667,-1.57333 2.08,-2.58666c-0.64,0.02667 -1.06667,0.04 -1.28,0.04c-0.28,0 -0.50666,-0.08 -0.69333,-0.24c-0.1867,-0.16 -0.28,-0.37333 -0.28,-0.65333c0,-0.25333 0.09333,-0.46667 0.28,-0.62667c0.18667,-0.14667 0.41333,-0.22667 0.69333,-0.22667c0.50667,0 1.29333,-0.02667 2.38666,-0.08c0.13334,-0.29333 0.28,-0.6 0.42667,-0.92c0.2,-0.33333 0.46666,-0.50666 0.78666,-0.50666c0.25334,0 0.48,0.09333 0.66667,0.25333c0.17336,0.17333 0.26666,0.38666 0.26666,0.64c0,0.09333 -0.0267,0.24 -0.08,0.42667l2.77333,-0.2c0.26667,0 0.48,0.09333 0.66667,0.25333c0.16003,0.17333 0.25333,0.38666 0.25333,0.64c0,0.50667 -0.29333,0.77334 -0.86667,0.82666c-1.09333,0.08 -2.35999,0.16 -3.79999,0.26667c-0.21333,0.32 -0.42666,0.64 -0.64,0.94666c0.02667,0 0.18667,-0.04 0.45334,-0.09333c0.17333,-0.02666 0.32,-0.05333 0.45333,-0.05333c1.14666,0 1.97333,0.52 2.47999,1.56c1.62667,-0.69333 2.57333,-1.04 2.86666,-1.04c0.25333,0 0.46667,0.09333 0.62667,0.26667c0.16,0.18667 0.24,0.4 0.24,0.65333z"/><path d="M286.03987,175.00001c0.36,0 0.62666,0.08 0.78666,0.24c0.2,0.17333 0.30667,0.41333 0.30667,0.72v0.16h4.15999c0.29333,0 0.52,0.06667 0.65333,0.18667c0.11997,0.10667 0.18667,0.32 0.18667,0.62667c0,0.25333 -0.05334,0.44 -0.16,0.54667c-0.14667,0.17333 -0.37334,0.25333 -0.68,0.25333h-2.49333v2.97333c0,0.52 -0.17333,0.88 -0.49333,1.09333h1.16c0.45333,0 0.79999,0.06667 1.03999,0.2c0.34667,0.24 0.53334,0.56 0.53334,0.93333c0,0.30667 -0.24,0.62667 -0.69334,0.96c-0.53333,0.4 -1.17333,0.77333 -1.93332,1.14666c0.93333,0.21333 1.94666,0.36 3.06666,0.41333c0.43999,0.04 0.67996,0.29333 0.70666,0.76c0,0.29333 -0.06667,0.52 -0.17333,0.66666c-0.09334,0.21333 -0.32,0.33333 -0.69333,0.36c-0.65334,0 -1.36,-0.05334 -2.12,-0.14667c-1.17333,-0.18667 -2.27999,-0.49333 -3.33332,-0.94666c-0.68,0.24 -1.38667,0.45333 -2.10667,0.66666c-1.22666,0.32 -2.05332,0.50666 -2.47999,0.53333c-0.36,0 -0.62666,-0.12 -0.78666,-0.33333c-0.16,-0.17333 -0.24,-0.34667 -0.24,-0.50666c0,-0.38667 0.13333,-0.65333 0.42666,-0.82666c1.10667,-0.24 2.10666,-0.46667 3.01333,-0.70666c-0.45333,-0.30667 -0.84,-0.62667 -1.16,-0.97333c-0.0266,-0.02667 -0.0533,-0.04 -0.0533,-0.06667c-0.24,0.13333 -0.48,0.26667 -0.70667,0.37333c-0.16,0.12 -0.34666,0.17333 -0.54666,0.17333c-0.29333,0 -0.54667,-0.12 -0.76,-0.36c-0.17333,-0.18667 -0.25333,-0.37333 -0.25333,-0.57333c0,-0.16 0.08,-0.30667 0.24,-0.44c0.85333,-0.41333 1.61333,-0.81333 2.25332,-1.21333c-0.1067,-0.10667 -0.16,-0.29333 -0.16,-0.53333c0.02667,-0.08 0.09334,-0.16 0.2,-0.25333c0.64,-0.70666 1.00003,-1.44 1.05333,-2.18666v-1.18666h-2.85332c-0.29333,0 -0.50667,-0.05333 -0.64,-0.17333c-0.1333,-0.10667 -0.2,-0.32 -0.2,-0.62667c0,-0.29333 0.06667,-0.50666 0.2,-0.62667c0.13333,-0.12 0.34667,-0.18667 0.64,-0.18667h3.99999v-0.16c0,-0.26667 0.10666,-0.50667 0.32,-0.74667c0.14666,-0.13333 0.4,-0.21333 0.77333,-0.21333zM286.06657,184.26665c0.16,-0.05333 0.31999,-0.10667 0.46666,-0.16c1.09333,-0.37333 1.64,-0.62667 1.64,-0.76c0,-0.09334 -0.08,-0.14667 -0.24,-0.14667h-3.57333c0.57334,0.42667 1.14667,0.78666 1.70667,1.06666zM286.21323,181.79999c-0.08,-0.10667 -0.14666,-0.21333 -0.18666,-0.32c-0.0666,-0.2 -0.0933,-0.45333 -0.0933,-0.76c0,-0.2 0.02667,-0.38667 0.10667,-0.54667c0.08,-0.05333 0.17333,-0.09333 0.25333,-0.12h0.34667c0.25333,0 0.38666,-0.08 0.38666,-0.25333v-2.06666h-1.45333v0.96c0,0.4 -0.05333,0.77333 -0.13333,1.14666c-0.09333,0.4 -0.21333,0.74667 -0.34667,1.02666c0.04,0.02666 0.0666,0.04 0.0933,0.05333c0.1867,0.14667 0.28,0.30667 0.28,0.48c0,0.13333 -0.06667,0.26667 -0.17334,0.4zM282.39991,178.48c0.1867,0.10667 0.28,0.34667 0.28,0.72c0,0.10667 -0.05337,0.24 -0.14667,0.42667c-0.25333,0.58666 -0.52,1.05333 -0.81333,1.37333c-0.13333,0.28 -0.37333,0.41333 -0.69333,0.41333c-0.24,0 -0.48,-0.08 -0.69333,-0.25333c-0.22667,-0.14667 -0.33334,-0.36 -0.33334,-0.65333c0,-0.08 0.04,-0.18667 0.12,-0.30667c0.30667,-0.37333 0.58667,-0.84 0.84,-1.38666c0.14667,-0.38667 0.36,-0.58667 0.65333,-0.58667c0.32,0 0.57334,0.09333 0.78667,0.25333zM291.18655,178.63999c0.18667,0.18667 0.4,0.56 0.66667,1.12c0.14666,0.37333 0.22666,0.68 0.22666,0.89333c0,0.25333 -0.08,0.44 -0.21333,0.56c-0.18667,0.2 -0.42666,0.30667 -0.73333,0.30667c-0.26667,0 -0.46667,-0.04 -0.6,-0.14667c-0.10667,-0.06667 -0.15997,-0.17333 -0.18667,-0.30667c-0.21333,-0.44 -0.53333,-1.01333 -0.93333,-1.72c-0.0267,-0.04 -0.04,-0.09333 -0.04,-0.16c0,-0.10667 0.0267,-0.22667 0.08,-0.38667c0.09334,-0.16 0.25334,-0.30667 0.48,-0.41333c0.14667,-0.06667 0.29334,-0.10667 0.44,-0.10667c0.37333,0 0.64,0.12 0.81333,0.36z"/><path d="M294.50654,177.61334v-1.6c0.01334,-0.50667 0.32,-0.77333 0.90667,-0.8c0.58666,0 0.89329,0.26667 0.91999,0.8v1.61333c0.21334,0.02667 0.38667,0.06667 0.50667,0.14667c0.04,-0.06667 0.09333,-0.13334 0.17333,-0.18667c0.70667,-0.77333 1.25333,-1.53333 1.65333,-2.25333c0.21333,-0.18667 0.4,-0.28 0.57333,-0.28c0.30667,0 0.57334,0.08 0.78667,0.24c0.16,0.13333 0.26666,0.26667 0.30666,0.41333h2.53333c0.89333,0 1.34666,0.29333 1.34666,0.86666c0,0.21333 -0.16,0.56 -0.45333,1.06666h0.2c0.74667,0 1.12,0.44 1.12,1.30666v2.75999c0,0.28 -0.08,0.46667 -0.22667,0.57333c-0.13333,0.13333 -0.32,0.2 -0.58666,0.2c-0.30667,0 -0.53333,-0.06667 -0.66667,-0.2c-0.09333,-0.09333 -0.13333,-0.24 -0.13333,-0.45333v-0.14667c-0.05333,0.01333 -0.09333,0.01333 -0.13333,0.01333h-1.01333c-0.49334,0 -0.73334,-0.24 -0.73334,-0.72v-1.69333c0,-0.05333 0,-0.09333 0.0133,-0.12h-0.29333c-0.0133,0.14667 -0.0266,0.30667 -0.0533,0.49333c-0.08,0.53333 -0.22666,0.98666 -0.42666,1.34666c-0.17334,0.4 -0.44,0.73333 -0.78667,1.02666c-0.10666,0.08 -0.21333,0.10667 -0.32,0.10667c-0.2,0 -0.36,-0.04 -0.49333,-0.14667c-0.02667,0.16 -0.06667,0.28 -0.14667,0.33333c-0.13333,0.10667 -0.34666,0.16 -0.63999,0.16c-0.28,0 -0.48,-0.05333 -0.6,-0.18667c-0.14664,-0.13333 -0.21334,-0.33333 -0.21334,-0.58666v-2.75999c-0.18666,-0.02667 -0.35999,-0.10667 -0.49333,-0.25333c-0.01333,0.29333 -0.06666,0.48 -0.14666,0.58667c-0.14667,0.18667 -0.36,0.28 -0.65334,0.29333v1.14666c0.0266,0 0.0666,-0.01333 0.0933,-0.01333c0.24,0 0.44,0.09333 0.62666,0.26667c0.11997,0.17333 0.18667,0.38667 0.18667,0.64c0,0.28 -0.08,0.49333 -0.22667,0.64c-0.10666,0.13333 -0.32,0.22667 -0.62666,0.28c-0.0266,0 -0.0533,0.01333 -0.0533,0.01333v3.37332c0,0.90667 -0.51999,1.37333 -1.53333,1.37333c-0.49333,-0.02667 -0.82666,-0.13333 -1.01333,-0.34667c-0.20003,-0.2 -0.29333,-0.48 -0.29333,-0.82666c0,-0.4 0.04,-0.72 0.14667,-0.96c0.14666,-0.13333 0.33333,-0.21333 0.54666,-0.21333c0.21334,0 0.32,-0.09333 0.32,-0.28v-1.93333h-0.21333c-0.34667,0 -0.57333,-0.06667 -0.70667,-0.22667c-0.13329,-0.13333 -0.19999,-0.36 -0.19999,-0.68c0,-0.32 0.07999,-0.56 0.23999,-0.72c0.10667,-0.10667 0.30667,-0.16 0.62667,-0.18667c0.09333,0 0.17333,-0.01334 0.25333,-0.02667v-1.30666h-0.10666c-0.29334,0 -0.52,-0.06667 -0.69334,-0.22667c-0.18666,-0.13333 -0.26666,-0.38667 -0.26666,-0.76c0,-0.4 0.08,-0.66666 0.26666,-0.81333c0.13334,-0.10666 0.36,-0.17333 0.69334,-0.17333zM302.87989,179.16c0,0.05333 0.0133,0.09333 0.0133,0.12v1.01333c0,0.08 0.02666,0.10667 0.10666,0.10667h0.33334c0.05333,0 0.09333,0.01333 0.13333,0.01333v-1.04c0,-0.13333 -0.09333,-0.21333 -0.25333,-0.21333h-0.33334zM299.81319,180.07999c0.09336,-0.24 0.15996,-0.54667 0.18666,-0.92h-0.54666c-0.14664,0 -0.21334,0.08 -0.21334,0.21333v1.50666c0.26667,-0.21333 0.46667,-0.48 0.57334,-0.8zM301.73319,177.64c0.18667,-0.25333 0.29333,-0.41333 0.29333,-0.46666c0,-0.04 -0.13333,-0.06667 -0.37333,-0.06667h-1.93333c-0.13333,0.2 -0.25333,0.37333 -0.36,0.53333zM300.49318,182.63999v-0.10667c0,-0.21333 0.06667,-0.4 0.21334,-0.53333c0.14666,-0.14667 0.36,-0.22667 0.65333,-0.22667c0.28,0 0.48,0.05334 0.61333,0.14667c0.16,0.05333 0.24,0.26667 0.24,0.61333v0.10667h2.71999c0.28,0 0.49333,0.05333 0.62667,0.16c0.10663,0.10667 0.17333,0.29333 0.17333,0.58667c0,0.24 -0.05337,0.41334 -0.14667,0.50667c-0.14666,0.17333 -0.35999,0.25333 -0.65333,0.25333h-2.22666c0.05333,0.08 0.11997,0.14667 0.18667,0.2c0.41333,0.50666 1.23999,0.97333 2.46666,1.38666c0.28,0.09333 0.42666,0.29333 0.42666,0.58666c0,0.21333 -0.08,0.41333 -0.22666,0.61333c-0.2,0.24 -0.45333,0.36 -0.76,0.36c-0.24,0 -0.54667,-0.09333 -0.92,-0.28c-0.72,-0.36 -1.47999,-0.88 -2.27999,-1.57333c-0.10667,-0.08 -0.1867,-0.12 -0.24,-0.12c-0.05333,0 -0.13333,0.04 -0.21333,0.09333c-0.70667,0.66666 -1.4,1.17333 -2.09333,1.49333c-0.48,0.25333 -0.88,0.38666 -1.2,0.38666c-0.36,0 -0.62666,-0.14667 -0.8,-0.42666c-0.12003,-0.17333 -0.17333,-0.34667 -0.17333,-0.53333c0,-0.29333 0.12,-0.49333 0.37333,-0.6c1.25333,-0.41333 2.12,-0.88 2.6,-1.38666c0.06666,-0.06667 0.13336,-0.13333 0.18666,-0.2h-2.47999c-0.26667,0 -0.46667,-0.05333 -0.6,-0.17333c-0.13337,-0.10667 -0.18667,-0.30667 -0.18667,-0.58667c0,-0.28 0.05334,-0.48 0.18667,-0.58667c0.12,-0.10667 0.32,-0.16 0.6,-0.16z"/><path d="M311.61315,177.26667v-1.01333c0,-0.34667 0.10667,-0.61333 0.32,-0.8c0.16,-0.18667 0.42667,-0.29333 0.77333,-0.29333c0.32,0 0.58667,0.10667 0.8,0.29333c0.18667,0.18667 0.29333,0.45333 0.29333,0.8v1.01333h3.02666c0.89334,0 1.34667,0.45333 1.34667,1.36v4.10666c0,0.90666 -0.45333,1.36 -1.34667,1.36h-3.02666v2.16c0,0.26667 -0.07999,0.50666 -0.21333,0.70666c-0.17333,0.25333 -0.46666,0.38667 -0.88,0.38667c-0.37333,0 -0.65333,-0.13333 -0.83999,-0.37333c-0.17334,-0.2 -0.25334,-0.44 -0.25334,-0.72v-2.16h-2.97332c-0.90667,0 -1.34667,-0.45333 -1.34667,-1.36v-4.10666c0,-0.90666 0.44,-1.36 1.34667,-1.36zM316.09315,181.85332v-2.34666c0,-0.26667 -0.14666,-0.41333 -0.41333,-0.41333h-1.88v3.17333h1.88c0.26667,0 0.41333,-0.13333 0.41333,-0.41333zM311.61316,179.09333h-1.82666c-0.28,0 -0.41333,0.14667 -0.41333,0.41333v2.34666c0,0.28 0.13333,0.41333 0.41333,0.41333h1.82666z"/></g><path d="M0,155h480.00001v50h-480.00001z" fill-opacity="0" fill="#a60000" fill-rule="evenodd" stroke="none" stroke-width="0.3175" stroke-linecap="round" stroke-linejoin="round"/></g></g></svg>