<svg version="1.1" xmlns="http://www.w3.org/2000/svg" xmlns:xlink="http://www.w3.org/1999/xlink" width="506.80267" height="50" viewBox="0,0,506.80267,50"><g transform="translate(0,-155)"><g data-paper-data="{&quot;isPaintingLayer&quot;:true}" stroke-miterlimit="10" stroke-dasharray="" stroke-dashoffset="0" style="mix-blend-mode: normal"><g fill="#ffffff" fill-rule="nonzero" stroke="#ffffff" stroke-width="3.5" stroke-linecap="butt" stroke-linejoin="miter"><path d="M250.41335,175.49334c0.82666,0 1.25333,0.42667 1.25333,1.25333v9.17331c0,0.82666 -0.42667,1.23999 -1.25333,1.23999h-3.79999c-0.84,0 -1.25333,-0.41333 -1.25333,-1.23999v-2.82666c-0.17333,0.16 -0.38667,0.24 -0.65333,0.24c-0.18667,0 -0.42667,-0.17333 -0.69333,-0.53333v3.50665c0,0.24 -0.06667,0.45333 -0.2,0.64c-0.16,0.22666 -0.41334,0.34667 -0.78667,0.34667c-0.34666,0 -0.61333,-0.11999 -0.77333,-0.33333c-0.15997,-0.18667 -0.22667,-0.4 -0.22667,-0.65333v-3.15999c-0.26666,0.54666 -0.47999,0.90667 -0.66666,1.06667c-0.13333,0.18667 -0.33333,0.26666 -0.6,0.26666c-0.26666,0 -0.46666,-0.09333 -0.6,-0.28c-0.18666,-0.21334 -0.26666,-0.45333 -0.26666,-0.73333c0,-0.17334 0.05333,-0.37333 0.17333,-0.6c0.62666,-0.93333 1.22666,-2.06667 1.8,-3.38666h-0.8c-0.29334,0 -0.52,-0.06667 -0.69333,-0.21333c-0.18667,-0.13333 -0.26667,-0.4 -0.26667,-0.77333c0,-0.4 0.08,-0.66667 0.26667,-0.81333c0.13333,-0.10666 0.35999,-0.17333 0.69333,-0.17333h0.95999v-1.25333c0,-0.30667 0.09334,-0.54666 0.29334,-0.72c0.14666,-0.17334 0.38666,-0.26667 0.70666,-0.26667c0.29334,0 0.53333,0.09333 0.70667,0.26667c0.1867,0.17334 0.28,0.41333 0.28,0.72v1.25333h0.54666c0.32,0 0.54667,0.06667 0.70667,0.2c0.04,0.02666 0.0666,0.06666 0.0933,0.09333v-1.05334c0,-0.82666 0.41333,-1.25333 1.25333,-1.25333zM245.36,181.51999v-2.33333c-0.18667,0.20001 -0.45333,0.29334 -0.8,0.29334h-0.54666v0.76c0.37333,0.44 0.82666,0.86667 1.34666,1.28zM249.58666,185.02665v-1.37333h-2.13333v1.37333c0,0.28 0.13333,0.41333 0.41333,0.41333h1.29333c0.28,0 0.42667,-0.13333 0.42667,-0.41333zM249.58666,181.98666v-1.46667h-2.13333v1.46667zM249.58666,178.85333v-1.21333c0,-0.28 -0.14667,-0.42666 -0.42667,-0.42666h-1.29333c-0.28,0 -0.41333,0.14666 -0.41333,0.42666v1.21333z"/><path d="M264.63995,175.49334c0.16003,0.2 0.25333,0.42667 0.25333,0.68c0,0.46667 -0.24,0.76 -0.69333,0.88c-1.09333,0.22666 -2.30666,0.41333 -3.61332,0.55999c0.13333,0.48 0.24,0.94666 0.34666,1.37333h3.42666c0.32,0 0.56,0.06667 0.70667,0.2c0.1333,0.10666 0.2,0.33334 0.2,0.66667c0,0.26666 -0.06667,0.46667 -0.17334,0.57333c-0.16,0.18667 -0.41333,0.28 -0.73333,0.28h-3.07999c0.05337,0.4 0.10667,0.78666 0.14667,1.14666h3.19999c0.34666,0 0.58666,0.08 0.73333,0.21334c0.13333,0.10666 0.21333,0.34667 0.21333,0.69333c0,0.29334 -0.06666,0.50666 -0.17333,0.61333c-0.16,0.21334 -0.42667,0.30667 -0.77333,0.30667h-3.13333c-0.02666,1.39999 -0.25333,2.33333 -0.66666,2.81333c-0.46667,0.53333 -1.2,0.79999 -2.18666,0.79999c-1.30667,-0.02667 -2.29333,-0.21334 -2.94666,-0.54666c-0.34667,-0.16 -0.53333,-0.45333 -0.53333,-0.85333c0,-0.29334 0.06666,-0.53333 0.21333,-0.73333c0.14666,-0.18667 0.33333,-0.29333 0.54666,-0.30666c0.26667,0 0.61333,0.07999 1.05333,0.21333c0.64,0.17334 1.14667,0.25333 1.50667,0.25333c0.44,0 0.70666,-0.14666 0.81333,-0.44c0.0667,-0.12 0.1067,-0.51999 0.12,-1.2h-5.18666c-0.32,0 -0.55999,-0.06667 -0.71999,-0.21334c-0.15997,-0.13333 -0.22667,-0.36 -0.22667,-0.70666c0,-0.34667 0.06667,-0.57333 0.22667,-0.69333c0.14666,-0.13333 0.38666,-0.21334 0.71999,-0.21334h5.13332c-0.04,-0.37333 -0.0933,-0.74666 -0.16,-1.14666h-4.70665c-0.30667,0 -0.53333,-0.06666 -0.69333,-0.2c-0.14663,-0.10666 -0.21333,-0.33334 -0.21333,-0.65333c0,-0.33333 0.06666,-0.56 0.21333,-0.66667c0.14666,-0.13333 0.37333,-0.2 0.69333,-0.2h4.37332c-0.10666,-0.41333 -0.21333,-0.79999 -0.32,-1.17333c-1.59999,0.14667 -2.87999,0.21334 -3.81332,0.21334c-0.62667,0 -0.93333,-0.36 -0.93333,-1.09333c0.01333,-0.46667 0.30666,-0.73334 0.89333,-0.78666c3.26666,-0.10666 6.17332,-0.41333 8.71998,-0.89333c0.24,-0.02667 0.42666,-0.04 0.58666,-0.04c0.25334,0 0.46667,0.09333 0.64,0.28z"/><path d="M278.54655,181.29332c0,1.30667 -0.37333,2.41333 -1.10666,3.29333c-0.72,0.85333 -1.70666,1.45333 -2.98666,1.82666c-0.25333,0.06667 -0.41337,0.10666 -0.46667,0.10666c-0.29333,0 -0.53333,-0.10666 -0.71999,-0.30666c-0.1867,-0.18667 -0.28,-0.44 -0.28,-0.73333c0,-0.33334 0.21333,-0.61333 0.64,-0.82667c0.18666,-0.08 0.49333,-0.20001 0.89333,-0.37333c1.38666,-0.65333 2.09332,-1.65333 2.09332,-2.98666c0,-1.78666 -0.93333,-2.78665 -2.78666,-2.99999c0.0134,0.28 0.0267,0.45334 0.0267,0.50666c0,0.8 -0.12,1.62666 -0.34666,2.50666c-0.29334,1.11999 -0.73334,2.10666 -1.30667,2.94666c-0.77333,1.11999 -1.61333,1.66666 -2.54666,1.66666c-0.81333,0 -1.45333,-0.37333 -1.91999,-1.11999c-0.4,-0.64 -0.6,-1.38666 -0.6,-2.23999c0,-1.83999 0.53333,-3.31999 1.59999,-4.42666c1.05333,-1.09333 2.50666,-1.63999 4.34666,-1.63999c1.62666,0 2.91999,0.38667 3.89332,1.16c1.04,0.84 1.57333,2.05333 1.57333,3.63999zM271.9066,178.38667c-0.98666,0.24 -1.72,0.73333 -2.22666,1.50666c-0.48,0.72 -0.70667,1.6 -0.70667,2.63999c0,0.97333 0.22667,1.45333 0.68,1.45333c0.16,0 0.37333,-0.12 0.62667,-0.37333c0.54666,-0.54666 0.97333,-1.30666 1.26666,-2.29333c0.24,-0.82666 0.37333,-1.70666 0.37333,-2.61333z"/><path d="M291.09322,186.15998c-0.21333,0.18667 -0.44,0.29333 -0.70667,0.29333c-0.29333,0 -0.54666,-0.14666 -0.77333,-0.44c-0.78666,-0.98666 -1.71999,-1.98666 -2.81332,-2.98666c-1.28,1.16 -2.82666,2.25333 -4.61332,3.29333c-0.17334,0.09333 -0.34667,0.14667 -0.53334,0.14667c-0.26666,0 -0.48,-0.10667 -0.66666,-0.30667c-0.1867,-0.21334 -0.28,-0.44 -0.28,-0.70667c0,-0.32 0.16,-0.58666 0.49333,-0.79999c3.22666,-2.05333 5.35999,-3.78666 6.42665,-5.18666c0.26667,-0.36 0.41333,-0.61333 0.41333,-0.77333c0,-0.10666 -0.10666,-0.17334 -0.29333,-0.17334h-5.86665c-0.29333,0 -0.52,-0.08 -0.69333,-0.26666c-0.18667,-0.17334 -0.26667,-0.4 -0.26667,-0.69333c0,-0.28 0.08,-0.52 0.26667,-0.70667c0.17333,-0.17334 0.4,-0.26666 0.69333,-0.26666h6.30665c1.33333,0 2,0.50666 2,1.50666c0,0.53333 -0.22667,1.17333 -0.66667,1.92c-0.37333,0.62667 -0.8,1.18667 -1.29333,1.69333c1.54666,1.44 2.54666,2.50666 2.98666,3.22666c0.11997,0.21334 0.18667,0.38667 0.18667,0.54667c0,0.26666 -0.10667,0.49333 -0.30667,0.67999z"/><path d="M304.50652,178.70666c0,0.96 -0.33334,1.97332 -0.97333,3.03999c-0.54667,0.90667 -1.24,1.74667 -2.06667,2.49333c-1.50666,1.35999 -3.22665,2.22666 -5.17332,2.63999c-0.09333,0.01334 -0.17336,0.02667 -0.22666,0.02667c-0.26667,0 -0.49333,-0.10666 -0.66667,-0.29333c-0.18666,-0.18667 -0.26666,-0.42667 -0.26666,-0.69334c0,-0.46667 0.25333,-0.77333 0.77333,-0.93333c0.82666,-0.24 1.48,-0.48 1.97333,-0.70667c0.6,-0.26666 1.19999,-0.63999 1.78666,-1.10666c-0.32,-0.18667 -0.78667,-0.48 -1.41333,-0.88c-0.34667,-0.21334 -0.50667,-0.48 -0.50667,-0.82666c0,-0.25333 0.09334,-0.48 0.29334,-0.69333c0.18666,-0.2 0.4,-0.30667 0.66666,-0.30667c0.25333,0 0.66667,0.17333 1.24,0.52c0.41333,0.26666 0.8,0.53333 1.14666,0.81333c0.72,-0.84 1.18667,-1.65333 1.4,-2.44c0.0267,-0.09333 0.04,-0.16 0.04,-0.2c0,-0.10666 -0.09333,-0.17334 -0.28,-0.17334h-4.02666c-0.90666,1.38666 -1.79999,2.38666 -2.67999,3.02666c-0.21333,0.16 -0.41333,0.22666 -0.61333,0.22666c-0.26667,0 -0.49333,-0.09333 -0.68,-0.30666c-0.20003,-0.2 -0.29333,-0.42667 -0.29333,-0.69333c0,-0.24 0.12,-0.48 0.38666,-0.74667c0.21334,-0.18667 0.44,-0.38667 0.66667,-0.58667c0.84,-0.82666 1.71999,-2.09333 2.63999,-3.81332c0.18667,-0.36 0.46667,-0.54666 0.84,-0.54666c0.26666,0 0.49333,0.09333 0.70666,0.26666c0.2,0.18667 0.30667,0.41333 0.30667,0.66666c0,0.17334 -0.08,0.4 -0.22667,0.66667h3.36c1.23999,0 1.86666,0.52 1.86666,1.55999z"/><path d="M318.63981,181.91999c-0.18666,0.24 -0.42666,0.34666 -0.72,0.34666h-10.30664c-0.30666,0 -0.54666,-0.10667 -0.71999,-0.33333c-0.17334,-0.18667 -0.25334,-0.41333 -0.25334,-0.68c0,-0.26666 0.08,-0.50666 0.25334,-0.72c0.17333,-0.21333 0.41333,-0.33333 0.71999,-0.33333h10.30664c0.29334,0 0.53334,0.12 0.72,0.33333c0.16,0.18667 0.24,0.41334 0.24,0.68c0,0.28 -0.08,0.52 -0.24,0.70667z"/><path d="M330.66645,181.42665c0,0.26666 -0.08,0.49334 -0.23999,0.69334c-0.16,0.21334 -0.37334,0.32 -0.64,0.33333c-0.10667,0 -0.24,-0.02666 -0.37334,-0.05333l-4.14665,-1.25333v4.67999c0,0.30667 -0.10667,0.54666 -0.30667,0.71999c-0.21333,0.16 -0.44,0.24 -0.70666,0.24c-0.26667,-0.01334 -0.48,-0.10667 -0.65333,-0.26667c-0.18667,-0.17334 -0.26667,-0.39999 -0.26667,-0.69333v-9.11998c0,-0.30667 0.10667,-0.54666 0.32,-0.73333c0.21333,-0.13333 0.44,-0.21334 0.69333,-0.22666c0.24,0.01334 0.46667,0.10667 0.65333,0.26667c0.17337,0.17334 0.26667,0.4 0.26667,0.69333v2.41333l4.71999,1.42667c0.44,0.13333 0.66669,0.42667 0.67999,0.88z"/><path d="M340.81308,176.28v-0.22666c0,-0.33334 0.06667,-0.57333 0.21334,-0.70667c0.13333,-0.16 0.37333,-0.24 0.74666,-0.24c0.37333,0 0.61333,0.08 0.73333,0.22666c0.14667,0.14667 0.22667,0.38666 0.22667,0.72v0.22666h1.52c0.29333,0 0.51999,0.06667 0.66666,0.18667c0.11997,0.10666 0.18667,0.30667 0.18667,0.62667c0,0.25333 -0.05334,0.44 -0.16,0.54666c-0.16,0.17334 -0.38667,0.25333 -0.69333,0.25333h-1.52v0.88h2.14666c0.29333,0 0.52,0.06667 0.66667,0.18667c0.11996,0.10666 0.18666,0.32 0.18666,0.62667c0,0.25333 -0.05333,0.44 -0.16,0.54666c-0.16,0.18667 -0.38666,0.26667 -0.69333,0.26667h-0.86666v0.95999h0.69333c0.32,0 0.54666,0.06667 0.68,0.17334c0.11996,0.12 0.18666,0.33333 0.18666,0.65333c0,0.26666 -0.05333,0.45334 -0.16,0.56c-0.16,0.18667 -0.38666,0.28 -0.70666,0.28h-0.69333v2.86666c0,0.90667 -0.64,1.39999 -1.90667,1.45332c-0.24,0 -0.46666,-0.02666 -0.67999,-0.05333c-0.2,-0.02667 -0.37334,-0.09333 -0.52,-0.18667c-0.10667,-0.10666 -0.1867,-0.24 -0.24,-0.37333c-0.0533,-0.17334 -0.0933,-0.38666 -0.0933,-0.64c-0.13333,0.05334 -0.27999,0.09333 -0.42666,0.10666c-0.44,0 -0.72,-0.18667 -0.85333,-0.57333c-0.21334,-0.45333 -0.44,-0.86667 -0.68,-1.25333c-0.0534,-0.06667 -0.0667,-0.13334 -0.0667,-0.18667c0,-0.26666 0.12,-0.48 0.36,-0.66666c0.22667,-0.16 0.48,-0.24 0.76,-0.24c0.34667,0 0.57333,0.13333 0.70666,0.4c0.24,0.30667 0.49334,0.72 0.73334,1.24c0.0533,0.12 0.08,0.21333 0.0933,0.28c0,0.05333 -0.0133,0.09333 -0.0133,0.12h0.55999c0.25334,0 0.38667,-0.08 0.38667,-0.26666v-2.02667h-3.13332c-0.29334,0 -0.50667,-0.05333 -0.66667,-0.18666c-0.14663,-0.12 -0.21333,-0.33333 -0.21333,-0.65333c0,-0.32 0.06666,-0.53333 0.21333,-0.65333c0.13333,-0.10666 0.36,-0.17333 0.66667,-0.17333h3.13332v-0.96h-3.37332c-0.29334,0 -0.50667,-0.05333 -0.64,-0.18667c-0.09334,-0.08 -0.14664,-0.18667 -0.17334,-0.34667v5.78665c0,0.76 -0.38666,1.14666 -1.14666,1.14666h-2.13333c-0.77333,0 -1.14666,-0.38666 -1.14666,-1.14666v-8.74665c0,-0.76 0.37333,-1.14666 1.14666,-1.14666h2.13333c0.76,0 1.14666,0.38666 1.14666,1.14666v2.39999c0.02667,-0.14667 0.08004,-0.26666 0.17334,-0.34667c0.13333,-0.11999 0.34666,-0.18667 0.64,-0.18667h2.05332v-0.88h-1.53333c-0.29333,0 -0.50666,-0.05333 -0.63999,-0.18667c-0.1333,-0.10666 -0.2,-0.30666 -0.2,-0.61333c0,-0.30667 0.06666,-0.52 0.2,-0.62667c0.13333,-0.11999 0.34666,-0.18667 0.63999,-0.18667zM336.22644,184.77332v-2.70666h-0.98667v2.70666c0,0.13333 0.06667,0.2 0.2,0.2h0.57334c0.13333,0 0.21333,-0.06667 0.21333,-0.2zM336.22644,180.13333v-2.34666c0,-0.13333 -0.08,-0.2 -0.21333,-0.2h-0.57334c-0.1333,0 -0.2,0.06667 -0.2,0.2v2.34666z"/><path d="M354.31972,181.03999c0.8,0 1.2,0.39999 1.2,1.2v3.13333c0,0.78666 -0.4,1.18667 -1.2,1.18667h-3.27999c-0.8,0 -1.19999,-0.4 -1.19999,-1.18667v-3.13333c0,-0.8 0.39999,-1.2 1.19999,-1.2zM353.95973,184.85332v-0.54667h-2.56v0.54667c0,0.17334 0.08,0.25333 0.26667,0.25333h2.02666c0.17337,0 0.26667,-0.07999 0.26667,-0.25333zM353.95973,183.19999v-0.44c0,-0.16 -0.09334,-0.25333 -0.26667,-0.25333h-2.02666c-0.18667,0 -0.26667,0.09333 -0.26667,0.25333v0.44zM352.2664,176.18667v3.06666c0,0.74667 -0.29334,1.11999 -0.88,1.11999h-2.50666v6.37332c-0.04,0.46667 -0.34667,0.71999 -0.90667,0.74666c-0.58666,-0.02667 -0.89329,-0.28 -0.91999,-0.74666v-10.4533c0,-0.64 0.28,-0.96 0.86666,-0.96h3.43999c0.6,0 0.90667,0.29333 0.90667,0.85333zM350.5464,178.90666v-0.54666h-1.66666v0.54666zM350.5464,177.26667v-0.48h-1.66666v0.48zM357.37305,175.32c0.74666,0 1.13333,0.30667 1.13333,0.90667v9.77331c0,0.89333 -0.49333,1.34666 -1.46666,1.34666c-0.4,0 -0.72,-0.08 -0.94667,-0.22666c-0.26666,-0.13333 -0.40003,-0.35999 -0.41333,-0.67999c0,-0.4 0.04,-0.69333 0.14667,-0.86667c0.13333,-0.10667 0.26666,-0.16 0.38666,-0.16c0.0133,0 0.0267,0.01334 0.04,0.02667c0.08004,0.08 0.13334,0.13333 0.17334,0.13333c0.16003,0 0.25333,-0.06666 0.25333,-0.21333v-4.98666h-2.70666c-0.56,0 -0.82667,-0.29333 -0.82667,-0.89333v-3.25332c0,-0.6 0.32,-0.90667 0.97333,-0.90667h3.25333zM356.67972,178.36h-1.70666v0.54666h1.70666zM356.67972,177.26667v-0.49333h-1.70666v0.49333z"/><path d="M370.99971,175.10668c0.22667,0 0.41333,0.09333 0.54667,0.25333c0.14666,0.16 0.22666,0.36 0.22666,0.58667c0,0.4 -0.2,0.64 -0.6,0.73333c-0.29333,0.04 -0.58666,0.08 -0.87999,0.10667c0.21333,0.02667 0.41333,0.10666 0.61333,0.26666c0.29333,0.18667 0.45333,0.4 0.45333,0.66666c0,0.13333 -0.0267,0.25333 -0.08,0.33333c-0.08,0.14667 -0.18667,0.29334 -0.32,0.45334c-0.12,0.16 -0.24,0.30666 -0.36,0.41333c0.77333,0.05334 1.17333,0.49333 1.17333,1.33333v1.09333c0,0.32 -0.09333,0.54666 -0.26666,0.68c-0.16,0.14667 -0.38667,0.21334 -0.68,0.21334h-0.0533c0,0.04 0.0133,0.06666 0.0133,0.09333c0,0.64 -0.25334,1.22666 -0.73333,1.74666c-0.42667,0.4 -0.93333,0.77333 -1.53333,1.10666c0.90666,0.16 1.89333,0.26667 2.95999,0.32c0.44,0.04 0.67996,0.29333 0.70666,0.76c0,0.29334 -0.06666,0.52 -0.17333,0.66666c-0.09333,0.21334 -0.32,0.33333 -0.69333,0.36c-0.70667,0 -1.46666,-0.05333 -2.27999,-0.13333c-1.13334,-0.16 -2.21333,-0.41333 -3.25333,-0.77333c-0.88,0.29333 -1.76,0.52 -2.66666,0.70667c-0.8,0.16 -1.52,0.25333 -2.18666,0.25333c-0.26667,0 -0.49333,-0.10667 -0.68,-0.29333c-0.1333,-0.16 -0.2,-0.34667 -0.2,-0.57333c0.01333,-0.48 0.24,-0.76 0.69333,-0.85333c0.84,-0.16 1.6,-0.33334 2.28,-0.50667c-0.45333,-0.26666 -0.85333,-0.56 -1.18667,-0.88c-0.26666,-0.24 -0.38666,-0.51999 -0.38666,-0.85333c0,-0.18667 0.09333,-0.36 0.26666,-0.53333c-0.16,-0.04 -0.29333,-0.12 -0.4,-0.22666c-0.10669,-0.08 -0.15999,-0.21334 -0.15999,-0.4c-0.26667,-0.01334 -0.44,-0.08 -0.54667,-0.18667c-0.17333,-0.16 -0.25333,-0.4 -0.25333,-0.69333v-1.09333c0,-0.89333 0.42666,-1.34667 1.30666,-1.34667h0.21333c-0.21333,-0.21334 -0.49333,-0.50666 -0.86666,-0.85333c-0.0267,-0.02667 -0.0267,-0.05333 -0.0267,-0.08c0,-0.10666 0.0267,-0.24 0.08,-0.38666c0.05334,-0.08 0.10667,-0.16 0.18667,-0.24h-0.24c-0.53333,0 -0.8,-0.30666 -0.8,-0.93333c0.01333,-0.4 0.26667,-0.62667 0.76,-0.68c3.51999,-0.08 6.65332,-0.28 9.39998,-0.6c0.26666,-0.01334 0.46666,-0.02667 0.62666,-0.02667zM365.65303,184.38665c1.17333,-0.37333 1.94666,-0.74666 2.31999,-1.10666c0.09337,-0.08 0.14667,-0.2 0.14667,-0.33334c0,-0.05333 -0.03997,-0.08 -0.10667,-0.08h-4.91999c0.84,0.64 1.69333,1.14667 2.56,1.52zM369.22635,181.30665c0.26667,0 0.48,0.02667 0.66667,0.06667v-0.66666c0,-0.16 -0.09334,-0.24 -0.28,-0.24h-7.13332c-0.16,0 -0.24,0.08 -0.24,0.24v0.6zM365.65296,178.90667c-0.0134,-0.01333 -0.0267,-0.02666 -0.0267,-0.05333c-0.21333,-0.26666 -0.52,-0.61333 -0.92,-1.04c-0.0133,-0.02667 -0.0133,-0.06667 -0.0133,-0.10666c0,-0.10666 0.0134,-0.22666 0.0667,-0.38666c0.0267,-0.04 0.04,-0.08 0.0667,-0.10667c-0.76,0.05333 -1.43999,0.08 -2.02666,0.09333c0.04,0.04 0.0666,0.06666 0.0933,0.09333c0.16,0.10666 0.36,0.30667 0.58667,0.6c0.13333,0.2 0.21333,0.36 0.21333,0.48c0,0.18667 -0.04,0.33333 -0.0933,0.42666zM368.67966,178.90666c-0.13337,-0.16 -0.18667,-0.34666 -0.18667,-0.56c0,-0.09333 0.06667,-0.21333 0.2,-0.37333c0.05333,-0.05334 0.12,-0.12 0.2,-0.2c0.14667,-0.13333 0.29333,-0.28 0.42666,-0.41333c0.13334,-0.14667 0.2267,-0.25334 0.28,-0.30667c0.08,-0.10666 0.2,-0.17334 0.33334,-0.22666c-1.06667,0.12 -2.18666,0.21333 -3.37333,0.28c0,0.01334 0.0134,0.02667 0.0267,0.02667c0.18666,0.13333 0.38666,0.37333 0.62666,0.72c0.16,0.24 0.24,0.42667 0.24,0.57334c0,0.21334 -0.05333,0.37333 -0.13333,0.47999z"/><path d="M385.25295,179.29333c0,0.45334 -0.24,0.77334 -0.70667,0.93333c-0.2,0.06667 -0.62666,0.13333 -1.28,0.2c0,0.64 0.0133,1.14666 0.0133,1.50666c0,1.89333 -0.85333,3.34666 -2.53333,4.35999c-0.66666,0.4 -1.14666,0.6 -1.46666,0.6c-0.28,0 -0.52,-0.09333 -0.70667,-0.28c-0.1867,-0.18667 -0.28,-0.42667 -0.28,-0.72c0,-0.37333 0.18667,-0.65333 0.56,-0.82667c0.78667,-0.36 1.36,-0.73333 1.73333,-1.13333c0.50667,-0.53333 0.76,-1.19999 0.76,-1.99999c0,-0.21334 -0.0133,-0.66666 -0.0133,-1.35999c-1.08,0.05333 -2.12,0.08 -3.13333,0.08c-0.29333,0 -0.52,-0.08 -0.69333,-0.26666c-0.18667,-0.17334 -0.26667,-0.4 -0.26667,-0.69334c0,-0.28 0.08,-0.52 0.26667,-0.70666c0.17333,-0.17334 0.4,-0.26666 0.69333,-0.26666c0.98666,0 2.02666,-0.02667 3.10666,-0.08c-0.0267,-1.23999 -0.04,-1.91999 -0.04,-2.05333c0,-0.28 0.08,-0.50667 0.26667,-0.69333c0.18666,-0.17334 0.41333,-0.26667 0.70666,-0.26667c0.28,0 0.50667,0.09333 0.69333,0.26667c0.17337,0.18667 0.26667,0.41333 0.26667,0.69333c0,0.45333 0,1.09333 0.0267,1.90666c0.26667,-0.02667 0.53334,-0.06667 0.8,-0.13333c0.12,-0.02667 0.21333,-0.04 0.29333,-0.04c0.26667,0 0.48,0.10667 0.66667,0.29333c0.17337,0.18667 0.26667,0.41333 0.26667,0.68zM376.19974,178.50667c-0.17334,1.14667 -0.25334,2.11999 -0.25334,2.91999c0,1.51999 0.0266,2.83999 0.0933,3.95999c0,0.29334 -0.09334,0.53333 -0.26667,0.72c-0.18667,0.18667 -0.41333,0.28 -0.68,0.28c-0.6,0 -0.93333,-0.29333 -1.01333,-0.85333c-0.08,-0.56 -0.12,-1.33333 -0.12,-2.31999c0,-0.16 0,-0.4 0.0133,-0.73334c0,-0.32 0,-0.56 0,-0.72c0,-0.58667 0.02667,-1.36 0.10667,-2.30666c0.09333,-1.2 0.21333,-2.09333 0.36,-2.70666c0.13333,-0.53333 0.50667,-0.81333 1.13333,-0.81333c0.24,0 0.45333,0.09333 0.62667,0.28c0.15999,0.18667 0.23999,0.41334 0.23999,0.68z"/><path d="M395.14628,175.70668c0.32,0 0.56,0.06666 0.69333,0.2c0.1333,0.10666 0.2,0.33334 0.2,0.65333c0,0.28 -0.06666,0.48 -0.17333,0.58667c-0.16,0.18667 -0.4,0.28 -0.72,0.28h-2.27999v9.03997c0,0.30667 -0.08,0.52 -0.22667,0.65333c-0.13333,0.14667 -0.36,0.22667 -0.66666,0.22667c-0.29334,0 -0.50667,-0.08 -0.65333,-0.22667c-0.15997,-0.13333 -0.22667,-0.34667 -0.22667,-0.65333v-1l-3.66666,0.4c-0.29333,0 -0.50666,-0.08 -0.65333,-0.25333c-0.13333,-0.13333 -0.21333,-0.33333 -0.21333,-0.61333c0,-0.29334 0.05333,-0.50667 0.18666,-0.64c0.10667,-0.10666 0.29334,-0.17334 0.54667,-0.21334l0.25333,-0.02667v-6.69331h-0.04c-0.30666,0 -0.53333,-0.06667 -0.68,-0.2c-0.14663,-0.10666 -0.21333,-0.33333 -0.21333,-0.66666c0,-0.32 0.06667,-0.54667 0.21333,-0.65333c0.13334,-0.13333 0.36,-0.2 0.68,-0.2zM391.09296,182.81332h-1.77333v1.13333l1.77333,-0.17334zM391.09296,180.21333h-1.77333v0.93333h1.77333zM391.09296,177.42667h-1.77333v1.12h1.77333zM397.31958,177.92c0.48,0 0.85333,0.10666 1.12,0.32c0.24,0.26666 0.36,0.66666 0.36,1.18667c0,1.08 -0.24,2.25333 -0.72,3.50666c-0.26667,0.54666 -0.53333,1.04 -0.82667,1.48c0.37334,0.4 0.82667,0.81333 1.36,1.25333c0.22667,0.16 0.34667,0.37334 0.34667,0.64c0,0.18667 -0.08,0.37333 -0.24,0.53333c-0.18667,0.22666 -0.45334,0.34667 -0.8,0.34667c-0.29333,0 -0.53333,-0.08 -0.72,-0.24c-0.42667,-0.32 -0.81333,-0.66666 -1.16,-1.04c-0.25333,0.25333 -0.50666,0.48 -0.77333,0.69333c-0.49333,0.4 -0.92,0.61333 -1.29333,0.64c-0.38666,0 -0.65333,-0.08 -0.81333,-0.24c-0.16,-0.2 -0.24,-0.4 -0.24,-0.61333c0,-0.25333 0.09333,-0.46667 0.28,-0.65333c0.64,-0.45333 1.18666,-0.93333 1.65333,-1.41333c-0.0533,-0.05334 -0.0933,-0.11999 -0.12,-0.18666c-0.46667,-0.72 -0.86666,-1.58667 -1.2,-2.6c-0.04,-0.14667 -0.0666,-0.30667 -0.0933,-0.49333c0,-0.29334 0.12,-0.52 0.36,-0.68c0.21333,-0.13333 0.41333,-0.2 0.62666,-0.2c0.38667,0.02667 0.6133,0.2 0.68,0.52c0.32,0.84 0.65333,1.54666 0.97333,2.10666c0.58667,-0.97333 0.89333,-1.93332 0.89333,-2.86666c0,-0.10666 -0.09333,-0.17334 -0.27999,-0.17334h-2.30667c-0.29333,0 -0.50666,-0.08 -0.63999,-0.24c-0.15997,-0.10666 -0.22667,-0.33334 -0.22667,-0.68c0,-0.29334 0.08,-0.53333 0.24,-0.70667c0.13333,-0.13333 0.34666,-0.2 0.62666,-0.2z"/><path d="M410.31963,180.42666c0,3.35999 -1.56,5.42665 -4.67999,6.21332c-0.10666,0.02667 -0.2,0.04 -0.28,0.04c-0.29333,0 -0.52,-0.10667 -0.70666,-0.32c-0.18667,-0.21334 -0.26667,-0.45333 -0.26667,-0.74666c0,-0.37333 0.22667,-0.64 0.70667,-0.82667c0.29333,-0.09333 0.72,-0.26666 1.30666,-0.50666c1.32,-0.69333 1.98666,-1.97332 1.98666,-3.85332c0,-0.42667 -0.0267,-1.06667 -0.08,-1.91999c-0.0534,-0.84 -0.0667,-1.48 -0.0667,-1.90667c0,-0.29334 0.09333,-0.53333 0.28,-0.73333c0.18666,-0.18667 0.43999,-0.28 0.73333,-0.28c0.21333,0 0.41333,0.09333 0.6,0.25333c0.18666,0.16 0.27996,0.37333 0.30666,0.63999c0.1067,1.30667 0.16,2.62667 0.16,3.94666zM405.66627,180.96c-0.93333,1.54666 -1.73333,2.30666 -2.39999,2.30666c-0.58667,0 -1,-0.33333 -1.26667,-1.02666c-0.20003,-0.48 -0.29333,-1.08 -0.29333,-1.77333c0,-1.22666 0.09333,-2.54665 0.30666,-3.97332c0.08,-0.56 0.41334,-0.85333 1.02667,-0.85333c0.24,0 0.45333,0.09333 0.62666,0.28c0.16004,0.18667 0.25334,0.4 0.25334,0.64l-0.2,1.57333c-0.1333,1.08 -0.2,1.97333 -0.2,2.69333c0.13333,-0.18667 0.36,-0.49334 0.68,-0.92c0.21333,-0.29333 0.46666,-0.43999 0.74666,-0.43999c0.24,0 0.45333,0.09333 0.64,0.26666c0.1867,0.18667 0.28,0.4 0.28,0.64c0,0.17334 -0.06667,0.37333 -0.2,0.58666z"/><path d="M424.98625,180.78665c0,0.4 -0.22667,0.69333 -0.66667,0.86667c-0.58666,0.22666 -1.46666,0.56 -2.61332,1.01333c0.0266,0.34667 0.0533,0.65333 0.0533,0.90667c0,0.29333 -0.09333,0.51999 -0.28,0.69333c-0.18667,0.18667 -0.41333,0.26666 -0.69333,0.26666c-0.65333,0 -0.97333,-0.34666 -0.97333,-1.06666c-1.24,0.46667 -1.85333,0.86666 -1.85333,1.21333c0,0.32 0.53333,0.46667 1.61333,0.46667c0.66666,0 1.41333,-0.02666 2.26666,-0.09333l1.24,-0.09333c0.26666,0 0.50666,0.09333 0.69333,0.26667c0.1867,0.18667 0.28,0.41334 0.28,0.68c0,0.49333 -0.29334,0.77332 -0.85333,0.83999c-0.84,0.09333 -2.05333,0.14667 -3.62666,0.14667c-1.10667,0 -1.92,-0.12 -2.42666,-0.34667c-0.74667,-0.34667 -1.12,-0.95999 -1.12,-1.86666c0,-0.61333 0.45333,-1.24 1.37333,-1.86666c0.4,-0.26666 1.09333,-0.64 2.09333,-1.12c-0.24,-0.48 -0.58667,-0.73333 -1.04,-0.73333c-0.65333,0 -1.21333,0.18667 -1.69333,0.56c-0.48,0.38666 -0.94666,0.77333 -1.39999,1.14666c-0.24,0.16 -0.46667,0.24 -0.68,0.24c-0.24,0 -0.44,-0.08 -0.6,-0.24c-0.16,-0.16 -0.24,-0.37333 -0.24,-0.61333c0,-0.26666 0.12,-0.54667 0.38667,-0.81333c0.69333,-0.70666 1.38666,-1.57333 2.07999,-2.58666c-0.64,0.02667 -1.06666,0.04 -1.28,0.04c-0.28,0 -0.50666,-0.08 -0.69333,-0.24c-0.1867,-0.16 -0.28,-0.37333 -0.28,-0.65333c0,-0.25333 0.09334,-0.46667 0.28,-0.62667c0.18667,-0.14667 0.41333,-0.22666 0.69333,-0.22666c0.50667,0 1.29333,-0.02667 2.38666,-0.08c0.13334,-0.29334 0.28,-0.6 0.42667,-0.92c0.2,-0.33333 0.46667,-0.50666 0.78666,-0.50666c0.25334,0 0.48,0.09333 0.66667,0.25333c0.17337,0.17333 0.26667,0.38666 0.26667,0.64c0,0.09333 -0.0267,0.24 -0.08,0.42667l2.77332,-0.2c0.26667,0 0.48,0.09334 0.66667,0.25334c0.16003,0.17334 0.25333,0.38666 0.25333,0.63999c0,0.50666 -0.29333,0.77334 -0.86666,0.82666c-1.09334,0.08 -2.36,0.16 -3.8,0.26666c-0.21333,0.32 -0.42666,0.64 -0.63999,0.94667c0.02666,0 0.18666,-0.04 0.45333,-0.09333c0.17333,-0.02666 0.32,-0.05333 0.45333,-0.05333c1.14666,0 1.97333,0.51999 2.47999,1.55999c1.62667,-0.69333 2.57333,-1.04 2.86666,-1.04c0.25334,0 0.46667,0.09333 0.62667,0.26667c0.16,0.18667 0.24,0.39999 0.24,0.65333z"/><path d="M430.43954,175.52001c0.25333,0.21333 0.38666,0.44 0.38666,0.69333c0,0.22666 -0.06666,0.41333 -0.2,0.57333c-0.53333,0.92 -1.26666,1.76 -2.18666,2.51999c-0.18667,0.18667 -0.41333,0.28 -0.68,0.28c-0.32,0 -0.61333,-0.12 -0.85333,-0.38666c-0.20003,-0.22666 -0.29333,-0.49334 -0.29333,-0.78666c0,-0.10666 0.09333,-0.26666 0.28,-0.45333c0.22666,-0.18667 0.42666,-0.36001 0.61333,-0.54667c0.70666,-0.69333 1.28,-1.33333 1.72,-1.93332c0.10666,-0.13333 0.26666,-0.22667 0.46666,-0.26667c0.24,0.02667 0.48,0.12 0.74667,0.30667zM430.41291,178.27999c0.22667,0.02667 0.45333,0.12 0.69333,0.29334c0.16,0.13333 0.2667,0.26666 0.32,0.42666c0,-0.01333 0.0134,-0.02667 0.0267,-0.04c0.13333,-0.11999 0.34666,-0.18667 0.64,-0.18667h1.78666v-0.88h-1.52c-0.29333,0 -0.50666,-0.05333 -0.64,-0.18667c-0.14663,-0.10666 -0.21333,-0.30667 -0.21333,-0.61334c0,-0.30667 0.06667,-0.52 0.21333,-0.62667c0.13334,-0.11999 0.34667,-0.18666 0.64,-0.18666h1.52v-0.22667c0,-0.33334 0.06666,-0.57333 0.22666,-0.70666c0.12,-0.16 0.36,-0.24 0.73333,-0.24c0.37334,0 0.61334,0.08 0.74667,0.22666c0.14667,0.14667 0.22667,0.38666 0.22667,0.72v0.22667h1.93332c0.29334,0 0.52,0.06666 0.66667,0.18666c0.11997,0.10666 0.18667,0.30667 0.18667,0.62667c0,0.25333 -0.05334,0.44 -0.16,0.54667c-0.16,0.17334 -0.38667,0.25333 -0.69334,0.25333h-1.93332v0.88h2.19999c0.29333,0 0.52,0.06667 0.65333,0.18667c0.11997,0.10666 0.18667,0.32 0.18667,0.62667c0,0.25333 -0.05334,0.44 -0.16,0.54666c-0.14667,0.18667 -0.37333,0.26666 -0.68,0.26666h-0.52v0.96h0.69333c0.32,0 0.54667,0.06667 0.69333,0.17333c0.11997,0.12 0.18667,0.33333 0.18667,0.65333c0,0.26666 -0.05333,0.45334 -0.16,0.56c-0.16,0.18667 -0.4,0.28 -0.72,0.28h-0.69333v2.86666c0,0.90667 -0.64,1.4 -1.89333,1.45333c-0.32,0 -0.6,-0.02666 -0.86666,-0.05333c-0.25333,-0.02667 -0.48,-0.09333 -0.66667,-0.18667c-0.13333,-0.10666 -0.22666,-0.24 -0.30666,-0.37333c-0.08,-0.2 -0.12,-0.43999 -0.12,-0.73333c-0.21333,0.12 -0.42667,0.18667 -0.64,0.2c-0.46667,0 -0.77333,-0.20001 -0.90666,-0.61334c-0.10667,-0.45333 -0.22667,-0.88 -0.33334,-1.26666c-0.0267,-0.06667 -0.04,-0.13334 -0.04,-0.18667c0,-0.26666 0.12,-0.50666 0.38667,-0.70666c0.24,-0.16 0.50666,-0.24 0.8,-0.24c0.36,0 0.61333,0.14667 0.74666,0.41333c0.13333,0.32 0.28,0.73334 0.41333,1.26667c0.0266,0.10666 0.0533,0.2 0.0533,0.26666c0,0.09333 -0.0134,0.17333 -0.0267,0.24c0.12,-0.02666 0.24,-0.04 0.34667,-0.05333h0.79999c0.25334,0 0.38667,-0.08 0.38667,-0.26666v-2.02667h-3.70666c-0.29333,0 -0.52,-0.05333 -0.66666,-0.18666c-0.14664,-0.12 -0.21334,-0.33333 -0.21334,-0.65333c0,-0.32 0.06667,-0.53333 0.21334,-0.65333c0.13333,-0.10666 0.34666,-0.17333 0.66666,-0.17333h3.70666v-0.96h-3.53332c-0.29334,0 -0.50667,-0.05333 -0.64,-0.18667c-0.10667,-0.09333 -0.17337,-0.25333 -0.18667,-0.46667c-0.30667,0.50666 -0.65333,0.98667 -1.02666,1.42667v5.26665c0,0.32 -0.09334,0.54667 -0.25334,0.68c-0.13333,0.14667 -0.36,0.22666 -0.66666,0.22666c-0.29333,0 -0.52,-0.08 -0.65333,-0.22666c-0.17334,-0.13333 -0.25334,-0.36 -0.25334,-0.68v-3.46666c-0.21333,0.17334 -0.46666,0.25333 -0.75999,0.25333c-0.32,0 -0.58667,-0.12 -0.81333,-0.36c-0.1867,-0.21334 -0.28,-0.46667 -0.28,-0.76c0,-0.09333 0.08,-0.24 0.26666,-0.44c0.29333,-0.21334 0.54667,-0.44 0.78667,-0.68c0.90666,-0.84 1.63999,-1.62666 2.21332,-2.37333c0.14667,-0.17334 0.34667,-0.28 0.58667,-0.33333z"/><path d="M450.94615,182.11999c0,1.65333 -0.62667,2.89333 -1.88,3.70666c-1.06666,0.68 -2.46666,1.02666 -4.19999,1.02666c-0.26666,0 -0.47999,-0.07999 -0.63999,-0.23999c-0.16,-0.17334 -0.24,-0.38667 -0.24,-0.64c0,-0.25333 0.08,-0.46667 0.24,-0.62667c0.16,-0.16 0.37333,-0.24 0.63999,-0.24c2.88,0 4.31999,-0.98666 4.31999,-2.98666c0,-1.02667 -0.65333,-1.54666 -1.94666,-1.54666c-1.2,0 -2.81332,0.29333 -4.85332,0.85333c-0.13333,0.04 -0.22663,0.05333 -0.29333,0.05333c-0.24,0 -0.45333,-0.09333 -0.61333,-0.28c-0.16,-0.17334 -0.24,-0.38666 -0.24,-0.62667c0,-0.32 0.16,-0.57333 0.48,-0.74667c0.12,-0.05334 0.42666,-0.14667 0.90666,-0.28c1.64,-0.41333 3.17333,-0.62667 4.61332,-0.62667c1.05333,0 1.92,0.26666 2.59999,0.78666c0.73334,0.58667 1.10667,1.38666 1.10667,2.41333z"/><path d="M464.07945,178.13333c-0.78667,0.16 -1.24,0.25333 -1.36,0.28c-0.61333,0.17334 -1.10666,0.41333 -1.50666,0.72c-1.22667,0.94666 -1.82666,2.11999 -1.82666,3.50665c0,1.21333 1.13333,1.81333 3.41332,1.81333c0.64,0 0.96,0.33333 0.96,0.97333c0,0.28 -0.09334,0.50666 -0.28,0.68c-0.18667,0.18667 -0.41333,0.28 -0.68,0.28c-3.57332,0 -5.34665,-1.24 -5.34665,-3.74666c0,-1.44 0.66666,-2.81332 2.01333,-4.11999c-0.86667,0.10666 -1.92,0.24 -3.16,0.4c-1.11999,0.16 -1.67996,0.22666 -1.70666,0.22666c-0.29333,0 -0.53333,-0.08 -0.70666,-0.26666c-0.18667,-0.18667 -0.26667,-0.44 -0.26667,-0.76c0,-0.4 0.18667,-0.69333 0.58667,-0.85333c0.17333,-0.06667 0.54666,-0.13333 1.13333,-0.21333c4.46665,-0.53333 7.37331,-0.81333 8.73331,-0.81333c0.28,0 0.50666,0.09333 0.69333,0.26667c0.17336,0.18667 0.26666,0.41333 0.26666,0.69333c0,0.50666 -0.31999,0.81333 -0.95999,0.93333z"/><path d="M478.11938,184.14665c0,0.28 -0.09333,0.50666 -0.28,0.68c-0.18667,0.18667 -0.42667,0.26667 -0.69333,0.26667c-0.58667,0 -0.91997,-0.30667 -0.98667,-0.93333c-0.21333,-1.81333 -0.67999,-3.69332 -1.39999,-5.66665c-0.0666,-0.16 -0.0933,-0.30667 -0.0933,-0.41333c0,-0.26666 0.09333,-0.48 0.30666,-0.66666c0.21333,-0.17334 0.45333,-0.26666 0.72,-0.26666c0.37333,0 0.65333,0.2 0.86666,0.58666c0.26667,0.53333 0.6,1.57333 0.98667,3.14666c0.37333,1.58667 0.57333,2.67999 0.57333,3.26666zM473.39935,183.13332c0,0.66666 -0.37333,1.39999 -1.09333,2.21332c-0.73333,0.81333 -1.42666,1.22666 -2.06666,1.22666c-1.01333,0 -1.73333,-0.56 -2.17333,-1.70666c-0.26666,-0.66666 -0.44,-1.65333 -0.54666,-2.98666c-0.04,-0.45334 -0.0533,-0.97333 -0.0533,-1.57333c0,-1.11999 0.04004,-1.97333 0.13334,-2.54666c0.09333,-0.61333 0.48,-0.93333 1.15999,-0.93333c0.26667,0 0.49334,0.09333 0.66667,0.26667c0.16003,0.17334 0.25333,0.4 0.25333,0.66666c0,0.08 -0.0133,0.64 -0.04,1.68c-0.04,1.04 -0.0533,1.67999 -0.0533,1.89332c0,0.61333 0.04,1.2 0.14666,1.77333c0.13334,0.86667 0.36,1.29333 0.65334,1.29333c0.29333,0 0.67999,-0.43999 1.15999,-1.34666c0.24,-0.46667 0.52,-0.70667 0.82667,-0.70667c0.68,0 1.02666,0.26666 1.02666,0.78666z"/><path d="M490.9461,185.06666c0,0.25333 -0.09333,0.47999 -0.26666,0.69333c-0.17334,0.21334 -0.38667,0.30667 -0.62667,0.30667c-0.21333,0 -0.42666,-0.05333 -0.66666,-0.18667c-0.21334,-0.12 -0.41334,-0.23999 -0.61334,-0.37333c-0.45333,-0.25333 -0.94666,-0.50667 -1.50666,-0.76c-0.22666,0.56 -0.62666,1.01333 -1.18666,1.35999c-0.57333,0.33333 -1.17333,0.50666 -1.81333,0.50666c-0.8,0 -1.49333,-0.13333 -2.06666,-0.38666c-0.77333,-0.33333 -1.16,-0.85333 -1.16,-1.54666c0,-0.8 0.36,-1.38666 1.08,-1.77333c0.56,-0.29334 1.29333,-0.45334 2.17333,-0.45334c0.45333,0 0.90666,0.04 1.38666,0.09333l-0.0267,-1.02666c-0.44,0.01333 -0.77333,0.01333 -1.01333,0.01333h-1.25333c-0.56,0 -0.93333,-0.02667 -1.12,-0.08c-0.42666,-0.10666 -0.63999,-0.34667 -0.63999,-0.74667c0,-0.57333 0.29333,-0.86666 0.89333,-0.86666c0.26666,0 0.67999,0 1.23999,0c0.54667,0.01333 0.96,0.01333 1.24,0.01333c0.4,0 0.6,0 0.6,0l-0.0267,-1.13333c-0.53333,0.02667 -1.25333,0.02667 -2.15999,0.02667c-0.74667,0 -1.18667,-0.01333 -1.34667,-0.04c-0.55999,-0.10666 -0.82666,-0.37333 -0.82666,-0.81333c0,-0.56 0.32,-0.84 0.97333,-0.84c0.22667,0 0.57333,0 1.05333,0c0.46667,0.01333 0.81333,0.01333 1.05333,0.01333c0.24,0 0.64,0 1.2,-0.02667v-0.52c0,-0.28 0.09333,-0.50666 0.28,-0.69333c0.17333,-0.17334 0.4,-0.26667 0.69333,-0.26667c0.26667,0 0.50667,0.09333 0.69333,0.28c0.17337,0.18667 0.26667,0.41333 0.26667,0.68v0.41333c0.89333,-0.05334 1.66666,-0.13333 2.33325,-0.23999c0.10667,-0.01334 0.1867,-0.02667 0.24,-0.02667c0.24,0 0.46667,0.08 0.65334,0.21334c0.17336,0.14667 0.26666,0.33333 0.26666,0.57333c0,0.48 -0.26666,0.78666 -0.78666,0.90667c-0.4,0.10666 -1.28,0.18666 -2.66666,0.26666l0.0267,1.13333c0.69334,-0.04 1.44,-0.13333 2.25333,-0.26667c0.10667,-0.01334 0.21337,-0.02667 0.30667,-0.02667c0.56,0 0.85333,0.26666 0.85333,0.78666c0,0.28 -0.06667,0.48 -0.17333,0.6c-0.13334,0.13333 -0.33334,0.23999 -0.6,0.30666c-0.42667,0.10666 -1.29333,0.2 -2.57333,0.28c0.0134,0.4 0.0267,0.92 0.0267,1.53333c1.21333,0.38666 2.15999,0.81333 2.85332,1.29333c0.32,0.22666 0.48,0.49333 0.48,0.79999zM484.29273,184.01332c-0.88,0 -1.30667,0.17333 -1.30667,0.52c0,0.37333 0.41333,0.56 1.26667,0.56c0.58666,0 0.99999,-0.30667 1.25333,-0.94666c-0.41334,-0.08 -0.81334,-0.13333 -1.21333,-0.13333z"/><path d="M505.05264,177.94667c0,0.50666 -0.26666,0.74667 -0.78666,0.74667c-0.56,0 -1.46667,-0.02667 -2.72,-0.08c-0.0133,0.50666 -0.0266,1.26667 -0.0533,2.26667c0.28,0.48 0.42667,1 0.42667,1.54666c0,0.82666 -0.28,1.62667 -0.81334,2.39999c-0.50666,0.72 -1.14666,1.27999 -1.90666,1.70666c-0.61333,0.33334 -1.18666,0.50667 -1.71999,0.50667c-0.58667,0 -0.86667,-0.30667 -0.86667,-0.89334c0,-0.33333 0.24,-0.61333 0.74667,-0.82667c0.69333,-0.29334 1.29333,-0.67999 1.82666,-1.13333c-0.96,0 -1.70666,-0.17333 -2.25333,-0.51999c-0.64,-0.4 -0.96,-1.01334 -0.96,-1.84c0,-0.74667 0.29334,-1.31999 0.90667,-1.71999c0.50666,-0.33334 1.12,-0.50666 1.85333,-0.50666c0.24,0 0.52,0.01333 0.82666,0.04v-1.02667l-2.59999,0.09333c-0.21333,0.01333 -0.61333,0.04 -1.2,0.09333c-0.50666,0.05334 -0.89333,0.06667 -1.18666,0.06667c-0.21334,0 -0.4,-0.06667 -0.56,-0.22666c-0.15997,-0.16 -0.22667,-0.34667 -0.22667,-0.57333c0,-0.65333 0.46667,-0.98666 1.4,-0.98666c0.24,0 1.65333,-0.02667 4.23999,-0.08v-0.72c0,-0.22666 0.10667,-0.42666 0.34666,-0.6c0.21334,-0.17334 0.45334,-0.26667 0.69334,-0.26667c0.71999,0 1.07999,0.50667 1.07999,1.52c0.18667,0 0.49334,0 0.90667,-0.01333c0.4,0 0.69333,0 0.90666,0c0.53333,0 0.92,0.04 1.13333,0.12c0.37333,0.16 0.56,0.45334 0.56,0.90667zM499.31935,181.17333c-0.18666,-0.13333 -0.4,-0.21334 -0.65333,-0.21334c-0.22667,0 -0.41333,0.09333 -0.57333,0.26666c-0.16,0.18667 -0.24,0.4 -0.24,0.61334c0,0.53333 0.30667,0.79999 0.93333,0.79999c0.53333,0 0.81333,-0.29333 0.81333,-0.88c0,-0.25333 -0.09333,-0.45333 -0.28,-0.58666z"/></g><path d="M0,155h480.00001v50h-480.00001z" fill-opacity="0" fill="#a60000" fill-rule="evenodd" stroke="none" stroke-width="0.3175" stroke-linecap="round" stroke-linejoin="round"/><g fill="#000000" fill-rule="nonzero" stroke="none" stroke-width="0.26459" stroke-linecap="butt" stroke-linejoin="miter"><path d="M250.41335,175.49334c0.82666,0 1.25333,0.42667 1.25333,1.25333v9.17331c0,0.82666 -0.42667,1.23999 -1.25333,1.23999h-3.79999c-0.84,0 -1.25333,-0.41333 -1.25333,-1.23999v-2.82666c-0.17333,0.16 -0.38667,0.24 -0.65333,0.24c-0.18667,0 -0.42667,-0.17333 -0.69333,-0.53333v3.50665c0,0.24 -0.06667,0.45333 -0.2,0.64c-0.16,0.22666 -0.41334,0.34667 -0.78667,0.34667c-0.34666,0 -0.61333,-0.11999 -0.77333,-0.33333c-0.15997,-0.18667 -0.22667,-0.4 -0.22667,-0.65333v-3.15999c-0.26666,0.54666 -0.47999,0.90667 -0.66666,1.06667c-0.13333,0.18667 -0.33333,0.26666 -0.6,0.26666c-0.26666,0 -0.46666,-0.09333 -0.6,-0.28c-0.18666,-0.21334 -0.26666,-0.45333 -0.26666,-0.73333c0,-0.17334 0.05333,-0.37333 0.17333,-0.6c0.62666,-0.93333 1.22666,-2.06667 1.8,-3.38666h-0.8c-0.29334,0 -0.52,-0.06667 -0.69333,-0.21333c-0.18667,-0.13333 -0.26667,-0.4 -0.26667,-0.77333c0,-0.4 0.08,-0.66667 0.26667,-0.81333c0.13333,-0.10666 0.35999,-0.17333 0.69333,-0.17333h0.95999v-1.25333c0,-0.30667 0.09334,-0.54666 0.29334,-0.72c0.14666,-0.17334 0.38666,-0.26667 0.70666,-0.26667c0.29334,0 0.53333,0.09333 0.70667,0.26667c0.1867,0.17334 0.28,0.41333 0.28,0.72v1.25333h0.54666c0.32,0 0.54667,0.06667 0.70667,0.2c0.04,0.02666 0.0666,0.06666 0.0933,0.09333v-1.05334c0,-0.82666 0.41333,-1.25333 1.25333,-1.25333zM245.36,181.51999v-2.33333c-0.18667,0.20001 -0.45333,0.29334 -0.8,0.29334h-0.54666v0.76c0.37333,0.44 0.82666,0.86667 1.34666,1.28zM249.58666,185.02665v-1.37333h-2.13333v1.37333c0,0.28 0.13333,0.41333 0.41333,0.41333h1.29333c0.28,0 0.42667,-0.13333 0.42667,-0.41333zM249.58666,181.98666v-1.46667h-2.13333v1.46667zM249.58666,178.85333v-1.21333c0,-0.28 -0.14667,-0.42666 -0.42667,-0.42666h-1.29333c-0.28,0 -0.41333,0.14666 -0.41333,0.42666v1.21333z"/><path d="M264.63995,175.49334c0.16003,0.2 0.25333,0.42667 0.25333,0.68c0,0.46667 -0.24,0.76 -0.69333,0.88c-1.09333,0.22666 -2.30666,0.41333 -3.61332,0.55999c0.13333,0.48 0.24,0.94666 0.34666,1.37333h3.42666c0.32,0 0.56,0.06667 0.70667,0.2c0.1333,0.10666 0.2,0.33334 0.2,0.66667c0,0.26666 -0.06667,0.46667 -0.17334,0.57333c-0.16,0.18667 -0.41333,0.28 -0.73333,0.28h-3.07999c0.05337,0.4 0.10667,0.78666 0.14667,1.14666h3.19999c0.34666,0 0.58666,0.08 0.73333,0.21334c0.13333,0.10666 0.21333,0.34667 0.21333,0.69333c0,0.29334 -0.06666,0.50666 -0.17333,0.61333c-0.16,0.21334 -0.42667,0.30667 -0.77333,0.30667h-3.13333c-0.02666,1.39999 -0.25333,2.33333 -0.66666,2.81333c-0.46667,0.53333 -1.2,0.79999 -2.18666,0.79999c-1.30667,-0.02667 -2.29333,-0.21334 -2.94666,-0.54666c-0.34667,-0.16 -0.53333,-0.45333 -0.53333,-0.85333c0,-0.29334 0.06666,-0.53333 0.21333,-0.73333c0.14666,-0.18667 0.33333,-0.29333 0.54666,-0.30666c0.26667,0 0.61333,0.07999 1.05333,0.21333c0.64,0.17334 1.14667,0.25333 1.50667,0.25333c0.44,0 0.70666,-0.14666 0.81333,-0.44c0.0667,-0.12 0.1067,-0.51999 0.12,-1.2h-5.18666c-0.32,0 -0.55999,-0.06667 -0.71999,-0.21334c-0.15997,-0.13333 -0.22667,-0.36 -0.22667,-0.70666c0,-0.34667 0.06667,-0.57333 0.22667,-0.69333c0.14666,-0.13333 0.38666,-0.21334 0.71999,-0.21334h5.13332c-0.04,-0.37333 -0.0933,-0.74666 -0.16,-1.14666h-4.70665c-0.30667,0 -0.53333,-0.06666 -0.69333,-0.2c-0.14663,-0.10666 -0.21333,-0.33334 -0.21333,-0.65333c0,-0.33333 0.06666,-0.56 0.21333,-0.66667c0.14666,-0.13333 0.37333,-0.2 0.69333,-0.2h4.37332c-0.10666,-0.41333 -0.21333,-0.79999 -0.32,-1.17333c-1.59999,0.14667 -2.87999,0.21334 -3.81332,0.21334c-0.62667,0 -0.93333,-0.36 -0.93333,-1.09333c0.01333,-0.46667 0.30666,-0.73334 0.89333,-0.78666c3.26666,-0.10666 6.17332,-0.41333 8.71998,-0.89333c0.24,-0.02667 0.42666,-0.04 0.58666,-0.04c0.25334,0 0.46667,0.09333 0.64,0.28z"/><path d="M278.54655,181.29332c0,1.30667 -0.37333,2.41333 -1.10666,3.29333c-0.72,0.85333 -1.70666,1.45333 -2.98666,1.82666c-0.25333,0.06667 -0.41337,0.10666 -0.46667,0.10666c-0.29333,0 -0.53333,-0.10666 -0.71999,-0.30666c-0.1867,-0.18667 -0.28,-0.44 -0.28,-0.73333c0,-0.33334 0.21333,-0.61333 0.64,-0.82667c0.18666,-0.08 0.49333,-0.20001 0.89333,-0.37333c1.38666,-0.65333 2.09332,-1.65333 2.09332,-2.98666c0,-1.78666 -0.93333,-2.78665 -2.78666,-2.99999c0.0134,0.28 0.0267,0.45334 0.0267,0.50666c0,0.8 -0.12,1.62666 -0.34666,2.50666c-0.29334,1.11999 -0.73334,2.10666 -1.30667,2.94666c-0.77333,1.11999 -1.61333,1.66666 -2.54666,1.66666c-0.81333,0 -1.45333,-0.37333 -1.91999,-1.11999c-0.4,-0.64 -0.6,-1.38666 -0.6,-2.23999c0,-1.83999 0.53333,-3.31999 1.59999,-4.42666c1.05333,-1.09333 2.50666,-1.63999 4.34666,-1.63999c1.62666,0 2.91999,0.38667 3.89332,1.16c1.04,0.84 1.57333,2.05333 1.57333,3.63999zM271.9066,178.38667c-0.98666,0.24 -1.72,0.73333 -2.22666,1.50666c-0.48,0.72 -0.70667,1.6 -0.70667,2.63999c0,0.97333 0.22667,1.45333 0.68,1.45333c0.16,0 0.37333,-0.12 0.62667,-0.37333c0.54666,-0.54666 0.97333,-1.30666 1.26666,-2.29333c0.24,-0.82666 0.37333,-1.70666 0.37333,-2.61333z"/><path d="M291.09322,186.15998c-0.21333,0.18667 -0.44,0.29333 -0.70667,0.29333c-0.29333,0 -0.54666,-0.14666 -0.77333,-0.44c-0.78666,-0.98666 -1.71999,-1.98666 -2.81332,-2.98666c-1.28,1.16 -2.82666,2.25333 -4.61332,3.29333c-0.17334,0.09333 -0.34667,0.14667 -0.53334,0.14667c-0.26666,0 -0.48,-0.10667 -0.66666,-0.30667c-0.1867,-0.21334 -0.28,-0.44 -0.28,-0.70667c0,-0.32 0.16,-0.58666 0.49333,-0.79999c3.22666,-2.05333 5.35999,-3.78666 6.42665,-5.18666c0.26667,-0.36 0.41333,-0.61333 0.41333,-0.77333c0,-0.10666 -0.10666,-0.17334 -0.29333,-0.17334h-5.86665c-0.29333,0 -0.52,-0.08 -0.69333,-0.26666c-0.18667,-0.17334 -0.26667,-0.4 -0.26667,-0.69333c0,-0.28 0.08,-0.52 0.26667,-0.70667c0.17333,-0.17334 0.4,-0.26666 0.69333,-0.26666h6.30665c1.33333,0 2,0.50666 2,1.50666c0,0.53333 -0.22667,1.17333 -0.66667,1.92c-0.37333,0.62667 -0.8,1.18667 -1.29333,1.69333c1.54666,1.44 2.54666,2.50666 2.98666,3.22666c0.11997,0.21334 0.18667,0.38667 0.18667,0.54667c0,0.26666 -0.10667,0.49333 -0.30667,0.67999z"/><path d="M304.50652,178.70666c0,0.96 -0.33334,1.97332 -0.97333,3.03999c-0.54667,0.90667 -1.24,1.74667 -2.06667,2.49333c-1.50666,1.35999 -3.22665,2.22666 -5.17332,2.63999c-0.09333,0.01334 -0.17336,0.02667 -0.22666,0.02667c-0.26667,0 -0.49333,-0.10666 -0.66667,-0.29333c-0.18666,-0.18667 -0.26666,-0.42667 -0.26666,-0.69334c0,-0.46667 0.25333,-0.77333 0.77333,-0.93333c0.82666,-0.24 1.48,-0.48 1.97333,-0.70667c0.6,-0.26666 1.19999,-0.63999 1.78666,-1.10666c-0.32,-0.18667 -0.78667,-0.48 -1.41333,-0.88c-0.34667,-0.21334 -0.50667,-0.48 -0.50667,-0.82666c0,-0.25333 0.09334,-0.48 0.29334,-0.69333c0.18666,-0.2 0.4,-0.30667 0.66666,-0.30667c0.25333,0 0.66667,0.17333 1.24,0.52c0.41333,0.26666 0.8,0.53333 1.14666,0.81333c0.72,-0.84 1.18667,-1.65333 1.4,-2.44c0.0267,-0.09333 0.04,-0.16 0.04,-0.2c0,-0.10666 -0.09333,-0.17334 -0.28,-0.17334h-4.02666c-0.90666,1.38666 -1.79999,2.38666 -2.67999,3.02666c-0.21333,0.16 -0.41333,0.22666 -0.61333,0.22666c-0.26667,0 -0.49333,-0.09333 -0.68,-0.30666c-0.20003,-0.2 -0.29333,-0.42667 -0.29333,-0.69333c0,-0.24 0.12,-0.48 0.38666,-0.74667c0.21334,-0.18667 0.44,-0.38667 0.66667,-0.58667c0.84,-0.82666 1.71999,-2.09333 2.63999,-3.81332c0.18667,-0.36 0.46667,-0.54666 0.84,-0.54666c0.26666,0 0.49333,0.09333 0.70666,0.26666c0.2,0.18667 0.30667,0.41333 0.30667,0.66666c0,0.17334 -0.08,0.4 -0.22667,0.66667h3.36c1.23999,0 1.86666,0.52 1.86666,1.55999z"/><path d="M318.63981,181.91999c-0.18666,0.24 -0.42666,0.34666 -0.72,0.34666h-10.30664c-0.30666,0 -0.54666,-0.10667 -0.71999,-0.33333c-0.17334,-0.18667 -0.25334,-0.41333 -0.25334,-0.68c0,-0.26666 0.08,-0.50666 0.25334,-0.72c0.17333,-0.21333 0.41333,-0.33333 0.71999,-0.33333h10.30664c0.29334,0 0.53334,0.12 0.72,0.33333c0.16,0.18667 0.24,0.41334 0.24,0.68c0,0.28 -0.08,0.52 -0.24,0.70667z"/><path d="M330.66645,181.42665c0,0.26666 -0.08,0.49334 -0.23999,0.69334c-0.16,0.21334 -0.37334,0.32 -0.64,0.33333c-0.10667,0 -0.24,-0.02666 -0.37334,-0.05333l-4.14665,-1.25333v4.67999c0,0.30667 -0.10667,0.54666 -0.30667,0.71999c-0.21333,0.16 -0.44,0.24 -0.70666,0.24c-0.26667,-0.01334 -0.48,-0.10667 -0.65333,-0.26667c-0.18667,-0.17334 -0.26667,-0.39999 -0.26667,-0.69333v-9.11998c0,-0.30667 0.10667,-0.54666 0.32,-0.73333c0.21333,-0.13333 0.44,-0.21334 0.69333,-0.22666c0.24,0.01334 0.46667,0.10667 0.65333,0.26667c0.17337,0.17334 0.26667,0.4 0.26667,0.69333v2.41333l4.71999,1.42667c0.44,0.13333 0.66669,0.42667 0.67999,0.88z"/><path d="M340.81308,176.28v-0.22666c0,-0.33334 0.06667,-0.57333 0.21334,-0.70667c0.13333,-0.16 0.37333,-0.24 0.74666,-0.24c0.37333,0 0.61333,0.08 0.73333,0.22666c0.14667,0.14667 0.22667,0.38666 0.22667,0.72v0.22666h1.52c0.29333,0 0.51999,0.06667 0.66666,0.18667c0.11997,0.10666 0.18667,0.30667 0.18667,0.62667c0,0.25333 -0.05334,0.44 -0.16,0.54666c-0.16,0.17334 -0.38667,0.25333 -0.69333,0.25333h-1.52v0.88h2.14666c0.29333,0 0.52,0.06667 0.66667,0.18667c0.11996,0.10666 0.18666,0.32 0.18666,0.62667c0,0.25333 -0.05333,0.44 -0.16,0.54666c-0.16,0.18667 -0.38666,0.26667 -0.69333,0.26667h-0.86666v0.95999h0.69333c0.32,0 0.54666,0.06667 0.68,0.17334c0.11996,0.12 0.18666,0.33333 0.18666,0.65333c0,0.26666 -0.05333,0.45334 -0.16,0.56c-0.16,0.18667 -0.38666,0.28 -0.70666,0.28h-0.69333v2.86666c0,0.90667 -0.64,1.39999 -1.90667,1.45332c-0.24,0 -0.46666,-0.02666 -0.67999,-0.05333c-0.2,-0.02667 -0.37334,-0.09333 -0.52,-0.18667c-0.10667,-0.10666 -0.1867,-0.24 -0.24,-0.37333c-0.0533,-0.17334 -0.0933,-0.38666 -0.0933,-0.64c-0.13333,0.05334 -0.27999,0.09333 -0.42666,0.10666c-0.44,0 -0.72,-0.18667 -0.85333,-0.57333c-0.21334,-0.45333 -0.44,-0.86667 -0.68,-1.25333c-0.0534,-0.06667 -0.0667,-0.13334 -0.0667,-0.18667c0,-0.26666 0.12,-0.48 0.36,-0.66666c0.22667,-0.16 0.48,-0.24 0.76,-0.24c0.34667,0 0.57333,0.13333 0.70666,0.4c0.24,0.30667 0.49334,0.72 0.73334,1.24c0.0533,0.12 0.08,0.21333 0.0933,0.28c0,0.05333 -0.0133,0.09333 -0.0133,0.12h0.55999c0.25334,0 0.38667,-0.08 0.38667,-0.26666v-2.02667h-3.13332c-0.29334,0 -0.50667,-0.05333 -0.66667,-0.18666c-0.14663,-0.12 -0.21333,-0.33333 -0.21333,-0.65333c0,-0.32 0.06666,-0.53333 0.21333,-0.65333c0.13333,-0.10666 0.36,-0.17333 0.66667,-0.17333h3.13332v-0.96h-3.37332c-0.29334,0 -0.50667,-0.05333 -0.64,-0.18667c-0.09334,-0.08 -0.14664,-0.18667 -0.17334,-0.34667v5.78665c0,0.76 -0.38666,1.14666 -1.14666,1.14666h-2.13333c-0.77333,0 -1.14666,-0.38666 -1.14666,-1.14666v-8.74665c0,-0.76 0.37333,-1.14666 1.14666,-1.14666h2.13333c0.76,0 1.14666,0.38666 1.14666,1.14666v2.39999c0.02667,-0.14667 0.08004,-0.26666 0.17334,-0.34667c0.13333,-0.11999 0.34666,-0.18667 0.64,-0.18667h2.05332v-0.88h-1.53333c-0.29333,0 -0.50666,-0.05333 -0.63999,-0.18667c-0.1333,-0.10666 -0.2,-0.30666 -0.2,-0.61333c0,-0.30667 0.06666,-0.52 0.2,-0.62667c0.13333,-0.11999 0.34666,-0.18667 0.63999,-0.18667zM336.22644,184.77332v-2.70666h-0.98667v2.70666c0,0.13333 0.06667,0.2 0.2,0.2h0.57334c0.13333,0 0.21333,-0.06667 0.21333,-0.2zM336.22644,180.13333v-2.34666c0,-0.13333 -0.08,-0.2 -0.21333,-0.2h-0.57334c-0.1333,0 -0.2,0.06667 -0.2,0.2v2.34666z"/><path d="M354.31972,181.03999c0.8,0 1.2,0.39999 1.2,1.2v3.13333c0,0.78666 -0.4,1.18667 -1.2,1.18667h-3.27999c-0.8,0 -1.19999,-0.4 -1.19999,-1.18667v-3.13333c0,-0.8 0.39999,-1.2 1.19999,-1.2zM353.95973,184.85332v-0.54667h-2.56v0.54667c0,0.17334 0.08,0.25333 0.26667,0.25333h2.02666c0.17337,0 0.26667,-0.07999 0.26667,-0.25333zM353.95973,183.19999v-0.44c0,-0.16 -0.09334,-0.25333 -0.26667,-0.25333h-2.02666c-0.18667,0 -0.26667,0.09333 -0.26667,0.25333v0.44zM352.2664,176.18667v3.06666c0,0.74667 -0.29334,1.11999 -0.88,1.11999h-2.50666v6.37332c-0.04,0.46667 -0.34667,0.71999 -0.90667,0.74666c-0.58666,-0.02667 -0.89329,-0.28 -0.91999,-0.74666v-10.4533c0,-0.64 0.28,-0.96 0.86666,-0.96h3.43999c0.6,0 0.90667,0.29333 0.90667,0.85333zM350.5464,178.90666v-0.54666h-1.66666v0.54666zM350.5464,177.26667v-0.48h-1.66666v0.48zM357.37305,175.32c0.74666,0 1.13333,0.30667 1.13333,0.90667v9.77331c0,0.89333 -0.49333,1.34666 -1.46666,1.34666c-0.4,0 -0.72,-0.08 -0.94667,-0.22666c-0.26666,-0.13333 -0.40003,-0.35999 -0.41333,-0.67999c0,-0.4 0.04,-0.69333 0.14667,-0.86667c0.13333,-0.10667 0.26666,-0.16 0.38666,-0.16c0.0133,0 0.0267,0.01334 0.04,0.02667c0.08004,0.08 0.13334,0.13333 0.17334,0.13333c0.16003,0 0.25333,-0.06666 0.25333,-0.21333v-4.98666h-2.70666c-0.56,0 -0.82667,-0.29333 -0.82667,-0.89333v-3.25332c0,-0.6 0.32,-0.90667 0.97333,-0.90667h3.25333zM356.67972,178.36h-1.70666v0.54666h1.70666zM356.67972,177.26667v-0.49333h-1.70666v0.49333z"/><path d="M370.99971,175.10668c0.22667,0 0.41333,0.09333 0.54667,0.25333c0.14666,0.16 0.22666,0.36 0.22666,0.58667c0,0.4 -0.2,0.64 -0.6,0.73333c-0.29333,0.04 -0.58666,0.08 -0.87999,0.10667c0.21333,0.02667 0.41333,0.10666 0.61333,0.26666c0.29333,0.18667 0.45333,0.4 0.45333,0.66666c0,0.13333 -0.0267,0.25333 -0.08,0.33333c-0.08,0.14667 -0.18667,0.29334 -0.32,0.45334c-0.12,0.16 -0.24,0.30666 -0.36,0.41333c0.77333,0.05334 1.17333,0.49333 1.17333,1.33333v1.09333c0,0.32 -0.09333,0.54666 -0.26666,0.68c-0.16,0.14667 -0.38667,0.21334 -0.68,0.21334h-0.0533c0,0.04 0.0133,0.06666 0.0133,0.09333c0,0.64 -0.25334,1.22666 -0.73333,1.74666c-0.42667,0.4 -0.93333,0.77333 -1.53333,1.10666c0.90666,0.16 1.89333,0.26667 2.95999,0.32c0.44,0.04 0.67996,0.29333 0.70666,0.76c0,0.29334 -0.06666,0.52 -0.17333,0.66666c-0.09333,0.21334 -0.32,0.33333 -0.69333,0.36c-0.70667,0 -1.46666,-0.05333 -2.27999,-0.13333c-1.13334,-0.16 -2.21333,-0.41333 -3.25333,-0.77333c-0.88,0.29333 -1.76,0.52 -2.66666,0.70667c-0.8,0.16 -1.52,0.25333 -2.18666,0.25333c-0.26667,0 -0.49333,-0.10667 -0.68,-0.29333c-0.1333,-0.16 -0.2,-0.34667 -0.2,-0.57333c0.01333,-0.48 0.24,-0.76 0.69333,-0.85333c0.84,-0.16 1.6,-0.33334 2.28,-0.50667c-0.45333,-0.26666 -0.85333,-0.56 -1.18667,-0.88c-0.26666,-0.24 -0.38666,-0.51999 -0.38666,-0.85333c0,-0.18667 0.09333,-0.36 0.26666,-0.53333c-0.16,-0.04 -0.29333,-0.12 -0.4,-0.22666c-0.10669,-0.08 -0.15999,-0.21334 -0.15999,-0.4c-0.26667,-0.01334 -0.44,-0.08 -0.54667,-0.18667c-0.17333,-0.16 -0.25333,-0.4 -0.25333,-0.69333v-1.09333c0,-0.89333 0.42666,-1.34667 1.30666,-1.34667h0.21333c-0.21333,-0.21334 -0.49333,-0.50666 -0.86666,-0.85333c-0.0267,-0.02667 -0.0267,-0.05333 -0.0267,-0.08c0,-0.10666 0.0267,-0.24 0.08,-0.38666c0.05334,-0.08 0.10667,-0.16 0.18667,-0.24h-0.24c-0.53333,0 -0.8,-0.30666 -0.8,-0.93333c0.01333,-0.4 0.26667,-0.62667 0.76,-0.68c3.51999,-0.08 6.65332,-0.28 9.39998,-0.6c0.26666,-0.01334 0.46666,-0.02667 0.62666,-0.02667zM365.65303,184.38665c1.17333,-0.37333 1.94666,-0.74666 2.31999,-1.10666c0.09337,-0.08 0.14667,-0.2 0.14667,-0.33334c0,-0.05333 -0.03997,-0.08 -0.10667,-0.08h-4.91999c0.84,0.64 1.69333,1.14667 2.56,1.52zM369.22635,181.30665c0.26667,0 0.48,0.02667 0.66667,0.06667v-0.66666c0,-0.16 -0.09334,-0.24 -0.28,-0.24h-7.13332c-0.16,0 -0.24,0.08 -0.24,0.24v0.6zM365.65296,178.90667c-0.0134,-0.01333 -0.0267,-0.02666 -0.0267,-0.05333c-0.21333,-0.26666 -0.52,-0.61333 -0.92,-1.04c-0.0133,-0.02667 -0.0133,-0.06667 -0.0133,-0.10666c0,-0.10666 0.0134,-0.22666 0.0667,-0.38666c0.0267,-0.04 0.04,-0.08 0.0667,-0.10667c-0.76,0.05333 -1.43999,0.08 -2.02666,0.09333c0.04,0.04 0.0666,0.06666 0.0933,0.09333c0.16,0.10666 0.36,0.30667 0.58667,0.6c0.13333,0.2 0.21333,0.36 0.21333,0.48c0,0.18667 -0.04,0.33333 -0.0933,0.42666zM368.67966,178.90666c-0.13337,-0.16 -0.18667,-0.34666 -0.18667,-0.56c0,-0.09333 0.06667,-0.21333 0.2,-0.37333c0.05333,-0.05334 0.12,-0.12 0.2,-0.2c0.14667,-0.13333 0.29333,-0.28 0.42666,-0.41333c0.13334,-0.14667 0.2267,-0.25334 0.28,-0.30667c0.08,-0.10666 0.2,-0.17334 0.33334,-0.22666c-1.06667,0.12 -2.18666,0.21333 -3.37333,0.28c0,0.01334 0.0134,0.02667 0.0267,0.02667c0.18666,0.13333 0.38666,0.37333 0.62666,0.72c0.16,0.24 0.24,0.42667 0.24,0.57334c0,0.21334 -0.05333,0.37333 -0.13333,0.47999z"/><path d="M385.25295,179.29333c0,0.45334 -0.24,0.77334 -0.70667,0.93333c-0.2,0.06667 -0.62666,0.13333 -1.28,0.2c0,0.64 0.0133,1.14666 0.0133,1.50666c0,1.89333 -0.85333,3.34666 -2.53333,4.35999c-0.66666,0.4 -1.14666,0.6 -1.46666,0.6c-0.28,0 -0.52,-0.09333 -0.70667,-0.28c-0.1867,-0.18667 -0.28,-0.42667 -0.28,-0.72c0,-0.37333 0.18667,-0.65333 0.56,-0.82667c0.78667,-0.36 1.36,-0.73333 1.73333,-1.13333c0.50667,-0.53333 0.76,-1.19999 0.76,-1.99999c0,-0.21334 -0.0133,-0.66666 -0.0133,-1.35999c-1.08,0.05333 -2.12,0.08 -3.13333,0.08c-0.29333,0 -0.52,-0.08 -0.69333,-0.26666c-0.18667,-0.17334 -0.26667,-0.4 -0.26667,-0.69334c0,-0.28 0.08,-0.52 0.26667,-0.70666c0.17333,-0.17334 0.4,-0.26666 0.69333,-0.26666c0.98666,0 2.02666,-0.02667 3.10666,-0.08c-0.0267,-1.23999 -0.04,-1.91999 -0.04,-2.05333c0,-0.28 0.08,-0.50667 0.26667,-0.69333c0.18666,-0.17334 0.41333,-0.26667 0.70666,-0.26667c0.28,0 0.50667,0.09333 0.69333,0.26667c0.17337,0.18667 0.26667,0.41333 0.26667,0.69333c0,0.45333 0,1.09333 0.0267,1.90666c0.26667,-0.02667 0.53334,-0.06667 0.8,-0.13333c0.12,-0.02667 0.21333,-0.04 0.29333,-0.04c0.26667,0 0.48,0.10667 0.66667,0.29333c0.17337,0.18667 0.26667,0.41333 0.26667,0.68zM376.19974,178.50667c-0.17334,1.14667 -0.25334,2.11999 -0.25334,2.91999c0,1.51999 0.0266,2.83999 0.0933,3.95999c0,0.29334 -0.09334,0.53333 -0.26667,0.72c-0.18667,0.18667 -0.41333,0.28 -0.68,0.28c-0.6,0 -0.93333,-0.29333 -1.01333,-0.85333c-0.08,-0.56 -0.12,-1.33333 -0.12,-2.31999c0,-0.16 0,-0.4 0.0133,-0.73334c0,-0.32 0,-0.56 0,-0.72c0,-0.58667 0.02667,-1.36 0.10667,-2.30666c0.09333,-1.2 0.21333,-2.09333 0.36,-2.70666c0.13333,-0.53333 0.50667,-0.81333 1.13333,-0.81333c0.24,0 0.45333,0.09333 0.62667,0.28c0.15999,0.18667 0.23999,0.41334 0.23999,0.68z"/><path d="M395.14628,175.70668c0.32,0 0.56,0.06666 0.69333,0.2c0.1333,0.10666 0.2,0.33334 0.2,0.65333c0,0.28 -0.06666,0.48 -0.17333,0.58667c-0.16,0.18667 -0.4,0.28 -0.72,0.28h-2.27999v9.03997c0,0.30667 -0.08,0.52 -0.22667,0.65333c-0.13333,0.14667 -0.36,0.22667 -0.66666,0.22667c-0.29334,0 -0.50667,-0.08 -0.65333,-0.22667c-0.15997,-0.13333 -0.22667,-0.34667 -0.22667,-0.65333v-1l-3.66666,0.4c-0.29333,0 -0.50666,-0.08 -0.65333,-0.25333c-0.13333,-0.13333 -0.21333,-0.33333 -0.21333,-0.61333c0,-0.29334 0.05333,-0.50667 0.18666,-0.64c0.10667,-0.10666 0.29334,-0.17334 0.54667,-0.21334l0.25333,-0.02667v-6.69331h-0.04c-0.30666,0 -0.53333,-0.06667 -0.68,-0.2c-0.14663,-0.10666 -0.21333,-0.33333 -0.21333,-0.66666c0,-0.32 0.06667,-0.54667 0.21333,-0.65333c0.13334,-0.13333 0.36,-0.2 0.68,-0.2zM391.09296,182.81332h-1.77333v1.13333l1.77333,-0.17334zM391.09296,180.21333h-1.77333v0.93333h1.77333zM391.09296,177.42667h-1.77333v1.12h1.77333zM397.31958,177.92c0.48,0 0.85333,0.10666 1.12,0.32c0.24,0.26666 0.36,0.66666 0.36,1.18667c0,1.08 -0.24,2.25333 -0.72,3.50666c-0.26667,0.54666 -0.53333,1.04 -0.82667,1.48c0.37334,0.4 0.82667,0.81333 1.36,1.25333c0.22667,0.16 0.34667,0.37334 0.34667,0.64c0,0.18667 -0.08,0.37333 -0.24,0.53333c-0.18667,0.22666 -0.45334,0.34667 -0.8,0.34667c-0.29333,0 -0.53333,-0.08 -0.72,-0.24c-0.42667,-0.32 -0.81333,-0.66666 -1.16,-1.04c-0.25333,0.25333 -0.50666,0.48 -0.77333,0.69333c-0.49333,0.4 -0.92,0.61333 -1.29333,0.64c-0.38666,0 -0.65333,-0.08 -0.81333,-0.24c-0.16,-0.2 -0.24,-0.4 -0.24,-0.61333c0,-0.25333 0.09333,-0.46667 0.28,-0.65333c0.64,-0.45333 1.18666,-0.93333 1.65333,-1.41333c-0.0533,-0.05334 -0.0933,-0.11999 -0.12,-0.18666c-0.46667,-0.72 -0.86666,-1.58667 -1.2,-2.6c-0.04,-0.14667 -0.0666,-0.30667 -0.0933,-0.49333c0,-0.29334 0.12,-0.52 0.36,-0.68c0.21333,-0.13333 0.41333,-0.2 0.62666,-0.2c0.38667,0.02667 0.6133,0.2 0.68,0.52c0.32,0.84 0.65333,1.54666 0.97333,2.10666c0.58667,-0.97333 0.89333,-1.93332 0.89333,-2.86666c0,-0.10666 -0.09333,-0.17334 -0.27999,-0.17334h-2.30667c-0.29333,0 -0.50666,-0.08 -0.63999,-0.24c-0.15997,-0.10666 -0.22667,-0.33334 -0.22667,-0.68c0,-0.29334 0.08,-0.53333 0.24,-0.70667c0.13333,-0.13333 0.34666,-0.2 0.62666,-0.2z"/><path d="M410.31963,180.42666c0,3.35999 -1.56,5.42665 -4.67999,6.21332c-0.10666,0.02667 -0.2,0.04 -0.28,0.04c-0.29333,0 -0.52,-0.10667 -0.70666,-0.32c-0.18667,-0.21334 -0.26667,-0.45333 -0.26667,-0.74666c0,-0.37333 0.22667,-0.64 0.70667,-0.82667c0.29333,-0.09333 0.72,-0.26666 1.30666,-0.50666c1.32,-0.69333 1.98666,-1.97332 1.98666,-3.85332c0,-0.42667 -0.0267,-1.06667 -0.08,-1.91999c-0.0534,-0.84 -0.0667,-1.48 -0.0667,-1.90667c0,-0.29334 0.09333,-0.53333 0.28,-0.73333c0.18666,-0.18667 0.43999,-0.28 0.73333,-0.28c0.21333,0 0.41333,0.09333 0.6,0.25333c0.18666,0.16 0.27996,0.37333 0.30666,0.63999c0.1067,1.30667 0.16,2.62667 0.16,3.94666zM405.66627,180.96c-0.93333,1.54666 -1.73333,2.30666 -2.39999,2.30666c-0.58667,0 -1,-0.33333 -1.26667,-1.02666c-0.20003,-0.48 -0.29333,-1.08 -0.29333,-1.77333c0,-1.22666 0.09333,-2.54665 0.30666,-3.97332c0.08,-0.56 0.41334,-0.85333 1.02667,-0.85333c0.24,0 0.45333,0.09333 0.62666,0.28c0.16004,0.18667 0.25334,0.4 0.25334,0.64l-0.2,1.57333c-0.1333,1.08 -0.2,1.97333 -0.2,2.69333c0.13333,-0.18667 0.36,-0.49334 0.68,-0.92c0.21333,-0.29333 0.46666,-0.43999 0.74666,-0.43999c0.24,0 0.45333,0.09333 0.64,0.26666c0.1867,0.18667 0.28,0.4 0.28,0.64c0,0.17334 -0.06667,0.37333 -0.2,0.58666z"/><path d="M424.98625,180.78665c0,0.4 -0.22667,0.69333 -0.66667,0.86667c-0.58666,0.22666 -1.46666,0.56 -2.61332,1.01333c0.0266,0.34667 0.0533,0.65333 0.0533,0.90667c0,0.29333 -0.09333,0.51999 -0.28,0.69333c-0.18667,0.18667 -0.41333,0.26666 -0.69333,0.26666c-0.65333,0 -0.97333,-0.34666 -0.97333,-1.06666c-1.24,0.46667 -1.85333,0.86666 -1.85333,1.21333c0,0.32 0.53333,0.46667 1.61333,0.46667c0.66666,0 1.41333,-0.02666 2.26666,-0.09333l1.24,-0.09333c0.26666,0 0.50666,0.09333 0.69333,0.26667c0.1867,0.18667 0.28,0.41334 0.28,0.68c0,0.49333 -0.29334,0.77332 -0.85333,0.83999c-0.84,0.09333 -2.05333,0.14667 -3.62666,0.14667c-1.10667,0 -1.92,-0.12 -2.42666,-0.34667c-0.74667,-0.34667 -1.12,-0.95999 -1.12,-1.86666c0,-0.61333 0.45333,-1.24 1.37333,-1.86666c0.4,-0.26666 1.09333,-0.64 2.09333,-1.12c-0.24,-0.48 -0.58667,-0.73333 -1.04,-0.73333c-0.65333,0 -1.21333,0.18667 -1.69333,0.56c-0.48,0.38666 -0.94666,0.77333 -1.39999,1.14666c-0.24,0.16 -0.46667,0.24 -0.68,0.24c-0.24,0 -0.44,-0.08 -0.6,-0.24c-0.16,-0.16 -0.24,-0.37333 -0.24,-0.61333c0,-0.26666 0.12,-0.54667 0.38667,-0.81333c0.69333,-0.70666 1.38666,-1.57333 2.07999,-2.58666c-0.64,0.02667 -1.06666,0.04 -1.28,0.04c-0.28,0 -0.50666,-0.08 -0.69333,-0.24c-0.1867,-0.16 -0.28,-0.37333 -0.28,-0.65333c0,-0.25333 0.09334,-0.46667 0.28,-0.62667c0.18667,-0.14667 0.41333,-0.22666 0.69333,-0.22666c0.50667,0 1.29333,-0.02667 2.38666,-0.08c0.13334,-0.29334 0.28,-0.6 0.42667,-0.92c0.2,-0.33333 0.46667,-0.50666 0.78666,-0.50666c0.25334,0 0.48,0.09333 0.66667,0.25333c0.17337,0.17333 0.26667,0.38666 0.26667,0.64c0,0.09333 -0.0267,0.24 -0.08,0.42667l2.77332,-0.2c0.26667,0 0.48,0.09334 0.66667,0.25334c0.16003,0.17334 0.25333,0.38666 0.25333,0.63999c0,0.50666 -0.29333,0.77334 -0.86666,0.82666c-1.09334,0.08 -2.36,0.16 -3.8,0.26666c-0.21333,0.32 -0.42666,0.64 -0.63999,0.94667c0.02666,0 0.18666,-0.04 0.45333,-0.09333c0.17333,-0.02666 0.32,-0.05333 0.45333,-0.05333c1.14666,0 1.97333,0.51999 2.47999,1.55999c1.62667,-0.69333 2.57333,-1.04 2.86666,-1.04c0.25334,0 0.46667,0.09333 0.62667,0.26667c0.16,0.18667 0.24,0.39999 0.24,0.65333z"/><path d="M430.43954,175.52001c0.25333,0.21333 0.38666,0.44 0.38666,0.69333c0,0.22666 -0.06666,0.41333 -0.2,0.57333c-0.53333,0.92 -1.26666,1.76 -2.18666,2.51999c-0.18667,0.18667 -0.41333,0.28 -0.68,0.28c-0.32,0 -0.61333,-0.12 -0.85333,-0.38666c-0.20003,-0.22666 -0.29333,-0.49334 -0.29333,-0.78666c0,-0.10666 0.09333,-0.26666 0.28,-0.45333c0.22666,-0.18667 0.42666,-0.36001 0.61333,-0.54667c0.70666,-0.69333 1.28,-1.33333 1.72,-1.93332c0.10666,-0.13333 0.26666,-0.22667 0.46666,-0.26667c0.24,0.02667 0.48,0.12 0.74667,0.30667zM430.41291,178.27999c0.22667,0.02667 0.45333,0.12 0.69333,0.29334c0.16,0.13333 0.2667,0.26666 0.32,0.42666c0,-0.01333 0.0134,-0.02667 0.0267,-0.04c0.13333,-0.11999 0.34666,-0.18667 0.64,-0.18667h1.78666v-0.88h-1.52c-0.29333,0 -0.50666,-0.05333 -0.64,-0.18667c-0.14663,-0.10666 -0.21333,-0.30667 -0.21333,-0.61334c0,-0.30667 0.06667,-0.52 0.21333,-0.62667c0.13334,-0.11999 0.34667,-0.18666 0.64,-0.18666h1.52v-0.22667c0,-0.33334 0.06666,-0.57333 0.22666,-0.70666c0.12,-0.16 0.36,-0.24 0.73333,-0.24c0.37334,0 0.61334,0.08 0.74667,0.22666c0.14667,0.14667 0.22667,0.38666 0.22667,0.72v0.22667h1.93332c0.29334,0 0.52,0.06666 0.66667,0.18666c0.11997,0.10666 0.18667,0.30667 0.18667,0.62667c0,0.25333 -0.05334,0.44 -0.16,0.54667c-0.16,0.17334 -0.38667,0.25333 -0.69334,0.25333h-1.93332v0.88h2.19999c0.29333,0 0.52,0.06667 0.65333,0.18667c0.11997,0.10666 0.18667,0.32 0.18667,0.62667c0,0.25333 -0.05334,0.44 -0.16,0.54666c-0.14667,0.18667 -0.37333,0.26666 -0.68,0.26666h-0.52v0.96h0.69333c0.32,0 0.54667,0.06667 0.69333,0.17333c0.11997,0.12 0.18667,0.33333 0.18667,0.65333c0,0.26666 -0.05333,0.45334 -0.16,0.56c-0.16,0.18667 -0.4,0.28 -0.72,0.28h-0.69333v2.86666c0,0.90667 -0.64,1.4 -1.89333,1.45333c-0.32,0 -0.6,-0.02666 -0.86666,-0.05333c-0.25333,-0.02667 -0.48,-0.09333 -0.66667,-0.18667c-0.13333,-0.10666 -0.22666,-0.24 -0.30666,-0.37333c-0.08,-0.2 -0.12,-0.43999 -0.12,-0.73333c-0.21333,0.12 -0.42667,0.18667 -0.64,0.2c-0.46667,0 -0.77333,-0.20001 -0.90666,-0.61334c-0.10667,-0.45333 -0.22667,-0.88 -0.33334,-1.26666c-0.0267,-0.06667 -0.04,-0.13334 -0.04,-0.18667c0,-0.26666 0.12,-0.50666 0.38667,-0.70666c0.24,-0.16 0.50666,-0.24 0.8,-0.24c0.36,0 0.61333,0.14667 0.74666,0.41333c0.13333,0.32 0.28,0.73334 0.41333,1.26667c0.0266,0.10666 0.0533,0.2 0.0533,0.26666c0,0.09333 -0.0134,0.17333 -0.0267,0.24c0.12,-0.02666 0.24,-0.04 0.34667,-0.05333h0.79999c0.25334,0 0.38667,-0.08 0.38667,-0.26666v-2.02667h-3.70666c-0.29333,0 -0.52,-0.05333 -0.66666,-0.18666c-0.14664,-0.12 -0.21334,-0.33333 -0.21334,-0.65333c0,-0.32 0.06667,-0.53333 0.21334,-0.65333c0.13333,-0.10666 0.34666,-0.17333 0.66666,-0.17333h3.70666v-0.96h-3.53332c-0.29334,0 -0.50667,-0.05333 -0.64,-0.18667c-0.10667,-0.09333 -0.17337,-0.25333 -0.18667,-0.46667c-0.30667,0.50666 -0.65333,0.98667 -1.02666,1.42667v5.26665c0,0.32 -0.09334,0.54667 -0.25334,0.68c-0.13333,0.14667 -0.36,0.22666 -0.66666,0.22666c-0.29333,0 -0.52,-0.08 -0.65333,-0.22666c-0.17334,-0.13333 -0.25334,-0.36 -0.25334,-0.68v-3.46666c-0.21333,0.17334 -0.46666,0.25333 -0.75999,0.25333c-0.32,0 -0.58667,-0.12 -0.81333,-0.36c-0.1867,-0.21334 -0.28,-0.46667 -0.28,-0.76c0,-0.09333 0.08,-0.24 0.26666,-0.44c0.29333,-0.21334 0.54667,-0.44 0.78667,-0.68c0.90666,-0.84 1.63999,-1.62666 2.21332,-2.37333c0.14667,-0.17334 0.34667,-0.28 0.58667,-0.33333z"/><path d="M450.94615,182.11999c0,1.65333 -0.62667,2.89333 -1.88,3.70666c-1.06666,0.68 -2.46666,1.02666 -4.19999,1.02666c-0.26666,0 -0.47999,-0.07999 -0.63999,-0.23999c-0.16,-0.17334 -0.24,-0.38667 -0.24,-0.64c0,-0.25333 0.08,-0.46667 0.24,-0.62667c0.16,-0.16 0.37333,-0.24 0.63999,-0.24c2.88,0 4.31999,-0.98666 4.31999,-2.98666c0,-1.02667 -0.65333,-1.54666 -1.94666,-1.54666c-1.2,0 -2.81332,0.29333 -4.85332,0.85333c-0.13333,0.04 -0.22663,0.05333 -0.29333,0.05333c-0.24,0 -0.45333,-0.09333 -0.61333,-0.28c-0.16,-0.17334 -0.24,-0.38666 -0.24,-0.62667c0,-0.32 0.16,-0.57333 0.48,-0.74667c0.12,-0.05334 0.42666,-0.14667 0.90666,-0.28c1.64,-0.41333 3.17333,-0.62667 4.61332,-0.62667c1.05333,0 1.92,0.26666 2.59999,0.78666c0.73334,0.58667 1.10667,1.38666 1.10667,2.41333z"/><path d="M464.07945,178.13333c-0.78667,0.16 -1.24,0.25333 -1.36,0.28c-0.61333,0.17334 -1.10666,0.41333 -1.50666,0.72c-1.22667,0.94666 -1.82666,2.11999 -1.82666,3.50665c0,1.21333 1.13333,1.81333 3.41332,1.81333c0.64,0 0.96,0.33333 0.96,0.97333c0,0.28 -0.09334,0.50666 -0.28,0.68c-0.18667,0.18667 -0.41333,0.28 -0.68,0.28c-3.57332,0 -5.34665,-1.24 -5.34665,-3.74666c0,-1.44 0.66666,-2.81332 2.01333,-4.11999c-0.86667,0.10666 -1.92,0.24 -3.16,0.4c-1.11999,0.16 -1.67996,0.22666 -1.70666,0.22666c-0.29333,0 -0.53333,-0.08 -0.70666,-0.26666c-0.18667,-0.18667 -0.26667,-0.44 -0.26667,-0.76c0,-0.4 0.18667,-0.69333 0.58667,-0.85333c0.17333,-0.06667 0.54666,-0.13333 1.13333,-0.21333c4.46665,-0.53333 7.37331,-0.81333 8.73331,-0.81333c0.28,0 0.50666,0.09333 0.69333,0.26667c0.17336,0.18667 0.26666,0.41333 0.26666,0.69333c0,0.50666 -0.31999,0.81333 -0.95999,0.93333z"/><path d="M478.11938,184.14665c0,0.28 -0.09333,0.50666 -0.28,0.68c-0.18667,0.18667 -0.42667,0.26667 -0.69333,0.26667c-0.58667,0 -0.91997,-0.30667 -0.98667,-0.93333c-0.21333,-1.81333 -0.67999,-3.69332 -1.39999,-5.66665c-0.0666,-0.16 -0.0933,-0.30667 -0.0933,-0.41333c0,-0.26666 0.09333,-0.48 0.30666,-0.66666c0.21333,-0.17334 0.45333,-0.26666 0.72,-0.26666c0.37333,0 0.65333,0.2 0.86666,0.58666c0.26667,0.53333 0.6,1.57333 0.98667,3.14666c0.37333,1.58667 0.57333,2.67999 0.57333,3.26666zM473.39935,183.13332c0,0.66666 -0.37333,1.39999 -1.09333,2.21332c-0.73333,0.81333 -1.42666,1.22666 -2.06666,1.22666c-1.01333,0 -1.73333,-0.56 -2.17333,-1.70666c-0.26666,-0.66666 -0.44,-1.65333 -0.54666,-2.98666c-0.04,-0.45334 -0.0533,-0.97333 -0.0533,-1.57333c0,-1.11999 0.04004,-1.97333 0.13334,-2.54666c0.09333,-0.61333 0.48,-0.93333 1.15999,-0.93333c0.26667,0 0.49334,0.09333 0.66667,0.26667c0.16003,0.17334 0.25333,0.4 0.25333,0.66666c0,0.08 -0.0133,0.64 -0.04,1.68c-0.04,1.04 -0.0533,1.67999 -0.0533,1.89332c0,0.61333 0.04,1.2 0.14666,1.77333c0.13334,0.86667 0.36,1.29333 0.65334,1.29333c0.29333,0 0.67999,-0.43999 1.15999,-1.34666c0.24,-0.46667 0.52,-0.70667 0.82667,-0.70667c0.68,0 1.02666,0.26666 1.02666,0.78666z"/><path d="M490.9461,185.06666c0,0.25333 -0.09333,0.47999 -0.26666,0.69333c-0.17334,0.21334 -0.38667,0.30667 -0.62667,0.30667c-0.21333,0 -0.42666,-0.05333 -0.66666,-0.18667c-0.21334,-0.12 -0.41334,-0.23999 -0.61334,-0.37333c-0.45333,-0.25333 -0.94666,-0.50667 -1.50666,-0.76c-0.22666,0.56 -0.62666,1.01333 -1.18666,1.35999c-0.57333,0.33333 -1.17333,0.50666 -1.81333,0.50666c-0.8,0 -1.49333,-0.13333 -2.06666,-0.38666c-0.77333,-0.33333 -1.16,-0.85333 -1.16,-1.54666c0,-0.8 0.36,-1.38666 1.08,-1.77333c0.56,-0.29334 1.29333,-0.45334 2.17333,-0.45334c0.45333,0 0.90666,0.04 1.38666,0.09333l-0.0267,-1.02666c-0.44,0.01333 -0.77333,0.01333 -1.01333,0.01333h-1.25333c-0.56,0 -0.93333,-0.02667 -1.12,-0.08c-0.42666,-0.10666 -0.63999,-0.34667 -0.63999,-0.74667c0,-0.57333 0.29333,-0.86666 0.89333,-0.86666c0.26666,0 0.67999,0 1.23999,0c0.54667,0.01333 0.96,0.01333 1.24,0.01333c0.4,0 0.6,0 0.6,0l-0.0267,-1.13333c-0.53333,0.02667 -1.25333,0.02667 -2.15999,0.02667c-0.74667,0 -1.18667,-0.01333 -1.34667,-0.04c-0.55999,-0.10666 -0.82666,-0.37333 -0.82666,-0.81333c0,-0.56 0.32,-0.84 0.97333,-0.84c0.22667,0 0.57333,0 1.05333,0c0.46667,0.01333 0.81333,0.01333 1.05333,0.01333c0.24,0 0.64,0 1.2,-0.02667v-0.52c0,-0.28 0.09333,-0.50666 0.28,-0.69333c0.17333,-0.17334 0.4,-0.26667 0.69333,-0.26667c0.26667,0 0.50667,0.09333 0.69333,0.28c0.17337,0.18667 0.26667,0.41333 0.26667,0.68v0.41333c0.89333,-0.05334 1.66666,-0.13333 2.33325,-0.23999c0.10667,-0.01334 0.1867,-0.02667 0.24,-0.02667c0.24,0 0.46667,0.08 0.65334,0.21334c0.17336,0.14667 0.26666,0.33333 0.26666,0.57333c0,0.48 -0.26666,0.78666 -0.78666,0.90667c-0.4,0.10666 -1.28,0.18666 -2.66666,0.26666l0.0267,1.13333c0.69334,-0.04 1.44,-0.13333 2.25333,-0.26667c0.10667,-0.01334 0.21337,-0.02667 0.30667,-0.02667c0.56,0 0.85333,0.26666 0.85333,0.78666c0,0.28 -0.06667,0.48 -0.17333,0.6c-0.13334,0.13333 -0.33334,0.23999 -0.6,0.30666c-0.42667,0.10666 -1.29333,0.2 -2.57333,0.28c0.0134,0.4 0.0267,0.92 0.0267,1.53333c1.21333,0.38666 2.15999,0.81333 2.85332,1.29333c0.32,0.22666 0.48,0.49333 0.48,0.79999zM484.29273,184.01332c-0.88,0 -1.30667,0.17333 -1.30667,0.52c0,0.37333 0.41333,0.56 1.26667,0.56c0.58666,0 0.99999,-0.30667 1.25333,-0.94666c-0.41334,-0.08 -0.81334,-0.13333 -1.21333,-0.13333z"/><path d="M505.05264,177.94667c0,0.50666 -0.26666,0.74667 -0.78666,0.74667c-0.56,0 -1.46667,-0.02667 -2.72,-0.08c-0.0133,0.50666 -0.0266,1.26667 -0.0533,2.26667c0.28,0.48 0.42667,1 0.42667,1.54666c0,0.82666 -0.28,1.62667 -0.81334,2.39999c-0.50666,0.72 -1.14666,1.27999 -1.90666,1.70666c-0.61333,0.33334 -1.18666,0.50667 -1.71999,0.50667c-0.58667,0 -0.86667,-0.30667 -0.86667,-0.89334c0,-0.33333 0.24,-0.61333 0.74667,-0.82667c0.69333,-0.29334 1.29333,-0.67999 1.82666,-1.13333c-0.96,0 -1.70666,-0.17333 -2.25333,-0.51999c-0.64,-0.4 -0.96,-1.01334 -0.96,-1.84c0,-0.74667 0.29334,-1.31999 0.90667,-1.71999c0.50666,-0.33334 1.12,-0.50666 1.85333,-0.50666c0.24,0 0.52,0.01333 0.82666,0.04v-1.02667l-2.59999,0.09333c-0.21333,0.01333 -0.61333,0.04 -1.2,0.09333c-0.50666,0.05334 -0.89333,0.06667 -1.18666,0.06667c-0.21334,0 -0.4,-0.06667 -0.56,-0.22666c-0.15997,-0.16 -0.22667,-0.34667 -0.22667,-0.57333c0,-0.65333 0.46667,-0.98666 1.4,-0.98666c0.24,0 1.65333,-0.02667 4.23999,-0.08v-0.72c0,-0.22666 0.10667,-0.42666 0.34666,-0.6c0.21334,-0.17334 0.45334,-0.26667 0.69334,-0.26667c0.71999,0 1.07999,0.50667 1.07999,1.52c0.18667,0 0.49334,0 0.90667,-0.01333c0.4,0 0.69333,0 0.90666,0c0.53333,0 0.92,0.04 1.13333,0.12c0.37333,0.16 0.56,0.45334 0.56,0.90667zM499.31935,181.17333c-0.18666,-0.13333 -0.4,-0.21334 -0.65333,-0.21334c-0.22667,0 -0.41333,0.09333 -0.57333,0.26666c-0.16,0.18667 -0.24,0.4 -0.24,0.61334c0,0.53333 0.30667,0.79999 0.93333,0.79999c0.53333,0 0.81333,-0.29333 0.81333,-0.88c0,-0.25333 -0.09333,-0.45333 -0.28,-0.58666z"/></g></g></g></svg>