<svg xmlns="http://www.w3.org/2000/svg" xmlns:xlink="http://www.w3.org/1999/xlink" version="1.1" width="12.8585" height="26.42681" viewBox="0,0,12.8585,26.42681"><g><g data-paper-data="{&quot;isPaintingLayer&quot;:true}" fill-rule="nonzero" stroke-linecap="butt" stroke-linejoin="miter" stroke-dasharray="" stroke-dashoffset="0" style="mix-blend-mode: normal"><path d="M 8.4586 0.002 C 9.4393 -0.0252 10.4492 0.2208 11.2337 0.8294 C 12.3045 1.6577 12.8436 3.0401 12.8366 4.3712 C 12.8661 10.171 12.853 15.971 12.8516 21.7709 C 12.937 23.2653 12.2263 24.7811 11.007 25.6537 C 9.655 26.6191 7.7677 26.6544 6.3102 25.9046 C 5.0717 25.2748 4.3317 23.9117 4.2359 22.5542 C 4.1963 18.6412 4.2157 14.7272 4.2119 10.8138 C 4.0113 10.8206 3.81 10.8155 3.6104 10.7939 C 2.2418 10.694 0.9944 9.7887 0.4065 8.5597 C -0.4165 6.8034 0.0387 4.5206 1.5134 3.2475 C 2.4971 2.5216 3.5937 1.9676 4.6409 1.341 C 5.7777 0.5982 7.0786 0.0137 8.4586 0.002 Z " fill="#12484c" stroke-width="0.99999" stroke-miterlimit="10" stroke="none"/><path d="M 10.6364 21.9696 C 10.6364 22.626 10.4275 23.1631 10.0098 23.5808 C 9.6518 23.9985 9.1595 24.2074 8.5478 24.2074 C 7.1305 24.2074 6.4294 23.4689 6.4294 21.9994 L 6.4294 7.6478 C 5.5343 8.2893 4.7436 8.6026 4.0722 8.6026 C 3.5128 8.6026 3.0652 8.4236 2.7296 8.0655 C 2.3864 7.7075 2.2223 7.2748 2.2223 6.7527 C 2.2223 5.7606 2.6102 5.052 3.386 4.6343 L 6.6681 2.7247 C 7.2797 2.389 7.9287 2.2175 8.6075 2.2175 C 9.9576 2.2175 10.6364 3.0231 10.6364 4.6343 Z M 10.6364 21.9696 " fill="#ffffff" stroke-width="0.99975" stroke-miterlimit="4" stroke="none"/></g></g></svg>