<?xml version="1.0" encoding="UTF-8" standalone="no"?>
<svg
   xmlns:dc="http://purl.org/dc/elements/1.1/"
   xmlns:cc="http://creativecommons.org/ns#"
   xmlns:rdf="http://www.w3.org/1999/02/22-rdf-syntax-ns#"
   xmlns:svg="http://www.w3.org/2000/svg"
   xmlns="http://www.w3.org/2000/svg"
   xmlns:xlink="http://www.w3.org/1999/xlink"
   xmlns:sodipodi="http://sodipodi.sourceforge.net/DTD/sodipodi-0.dtd"
   xmlns:inkscape="http://www.inkscape.org/namespaces/inkscape"
   width="256"
   height="256"
   viewBox="0 0 256 256"
   version="1.1"
   id="svg8"
   inkscape:version="1.0 (4035a4fb49, 2020-05-01)"
   sodipodi:docname="h52.svg">
  <defs
     id="defs2">
    <linearGradient
       inkscape:collect="always"
       id="linearGradient994">
      <stop
         style="stop-color:#ffffff;stop-opacity:0.94117647"
         offset="0"
         id="stop990" />
      <stop
         id="stop998"
         offset="0.64729315"
         style="stop-color:#ffffff;stop-opacity:0.94117647" />
      <stop
         style="stop-color:#ffff00;stop-opacity:1"
         offset="1"
         id="stop992" />
    </linearGradient>
    <radialGradient
       gradientTransform="matrix(0.5,0,0,0.5,63.999999,63.999999)"
       inkscape:collect="always"
       xlink:href="#linearGradient994"
       id="radialGradient996"
       cx="128"
       cy="128"
       fx="128"
       fy="128"
       r="122.41724"
       gradientUnits="userSpaceOnUse" />
    <radialGradient
       inkscape:collect="always"
       xlink:href="#linearGradient994"
       id="radialGradient1018"
       gradientUnits="userSpaceOnUse"
       cx="128"
       cy="128"
       fx="128"
       fy="128"
       r="122.41724"
       gradientTransform="matrix(0.13546802,0,0,0.13546802,110.66007,110.66009)" />
  </defs>
  <sodipodi:namedview
     borderlayer="true"
     id="base"
     pagecolor="#ffffff"
     bordercolor="#666666"
     borderopacity="1.0"
     inkscape:pageopacity="0.0"
     inkscape:pageshadow="2"
     inkscape:zoom="2.1293661"
     inkscape:cx="128.01639"
     inkscape:cy="107.10093"
     inkscape:document-units="px"
     inkscape:current-layer="layer1"
     inkscape:document-rotation="0"
     showgrid="true"
     units="px"
     inkscape:pagecheckerboard="true"
     inkscape:showpageshadow="false"
     showborder="true"
     inkscape:window-width="1920"
     inkscape:window-height="1017"
     inkscape:window-x="-8"
     inkscape:window-y="-8"
     inkscape:window-maximized="1">
    <inkscape:grid
       type="xygrid"
       id="grid878"
       originx="128"
       originy="128"
       enabled="false"
       snapvisiblegridlinesonly="false"
       visible="true" />
  </sodipodi:namedview>
  <metadata
     id="metadata5">
    <rdf:RDF>
      <cc:Work
         rdf:about="">
        <dc:format>image/svg+xml</dc:format>
        <dc:type
           rdf:resource="http://purl.org/dc/dcmitype/StillImage" />
        <dc:title />
        <cc:license
           rdf:resource="" />
      </cc:Work>
    </rdf:RDF>
  </metadata>
  <g
     inkscape:label="レイヤー 1"
     inkscape:groupmode="layer"
     id="layer1"
     style="display:inline">
    <path
       id="path882"
       style="opacity:0.667;fill:url(#radialGradient996);fill-opacity:1;stroke:none;stroke-width:1;stroke-linecap:butt;stroke-linejoin:miter;stroke-miterlimit:4;stroke-dasharray:none;stroke-opacity:1;paint-order:markers stroke fill"
       d="m 121.97168,66.795897 c -0.74639,0.07351 -1.03323,0.981254 -1.12793,1.932618 -0.0947,0.951363 0.003,1.946516 0.0273,2.195312 0.58984,5.988788 2.69481,18.008854 3.33398,20.418945 0.0358,0.13491 0.11846,0.34279 0.21777,0.333008 0.0993,-0.0098 0.1387,-0.22984 0.14746,-0.36914 0.15671,-2.488478 -0.12402,-14.68797 -0.71386,-20.676758 -0.0245,-0.248794 -0.1219,-1.243596 -0.40039,-2.158203 -0.27849,-0.914607 -0.73799,-1.749294 -1.48438,-1.675782 z m 12.05664,0 c -0.74639,-0.07351 -1.20589,0.761174 -1.48438,1.675782 -0.27849,0.914607 -0.37588,1.909407 -0.40039,2.158203 -0.58984,5.988788 -0.87057,18.18828 -0.71386,20.676758 0.009,0.1393 0.0481,0.359358 0.14746,0.36914 0.0993,0.0098 0.18199,-0.198094 0.21777,-0.333008 0.63917,-2.410091 2.74414,-14.430157 3.33398,-20.418945 0.0245,-0.248796 0.12207,-1.243949 0.0274,-2.195312 -0.0947,-0.951364 -0.38154,-1.859105 -1.12793,-1.932618 z m -23.61719,2.313477 c -0.0863,-7.5e-4 -0.17396,0.01185 -0.26367,0.03906 -0.7177,0.217713 -0.82221,1.163675 -0.72949,2.115235 0.0927,0.95156 0.38251,1.908225 0.45508,2.147461 1.74686,5.758641 6.15683,17.137867 7.2539,19.376953 0.0614,0.125341 0.18184,0.312172 0.27734,0.283203 0.0955,-0.02897 0.0918,-0.252291 0.0733,-0.390625 -0.33179,-2.471233 -2.98654,-14.381984 -4.7334,-20.140625 -0.0726,-0.239236 -0.36288,-1.195383 -0.81445,-2.038086 -0.39513,-0.737365 -0.91427,-1.387475 -1.51856,-1.392579 z m 35.17773,0 c -0.60428,0.0051 -1.12343,0.655213 -1.51855,1.392578 -0.45157,0.842704 -0.74188,1.798851 -0.81445,2.038086 -1.74687,5.758642 -4.40161,17.669393 -4.7334,20.140625 -0.0187,0.138327 -0.0222,0.361654 0.0732,0.390625 0.0955,0.02897 0.21594,-0.157862 0.27734,-0.283203 1.09708,-2.239086 5.50705,-13.618311 7.25391,-19.376953 0.0726,-0.239233 0.36236,-1.195901 0.45508,-2.147461 0.0927,-0.95156 -0.0118,-1.897521 -0.72949,-2.115234 -0.0897,-0.02721 -0.17735,-0.03979 -0.26368,-0.03907 z m -46.071283,4.552735 c -0.172178,-0.0176 -0.343429,0.01122 -0.508789,0.09961 -0.66144,0.353547 -0.579309,1.302585 -0.302735,2.217773 0.276575,0.915188 0.748363,1.797098 0.866212,2.017579 2.836755,5.307194 9.380735,15.606832 10.893555,17.588867 0.0847,0.110952 0.24011,0.270676 0.32812,0.223633 0.088,-0.04704 0.0413,-0.26541 -0.004,-0.397461 -0.80752,-2.359021 -5.73551,-13.522883 -8.57226,-18.830079 -0.11785,-0.22048 -0.589,-1.102406 -1.19629,-1.84082 -0.45547,-0.55381 -0.98737,-1.026323 -1.503907,-1.079101 z m 56.964843,0 c -0.51654,0.05278 -1.04844,0.525289 -1.50391,1.079101 -0.60729,0.738414 -1.07843,1.620341 -1.19629,1.84082 -2.83675,5.307196 -7.76474,16.471059 -8.57226,18.830079 -0.0452,0.132032 -0.0917,0.350414 -0.004,0.397461 0.088,0.04705 0.24345,-0.112681 0.32812,-0.223633 1.51282,-1.982035 8.0568,-12.281672 10.89356,-17.588867 0.11787,-0.220473 0.58963,-1.102391 0.86621,-2.017579 0.27657,-0.915188 0.35773,-1.864225 -0.30371,-2.217773 -0.16536,-0.08839 -0.33564,-0.117202 -0.50782,-0.09961 z m -67.018554,6.600586 c -0.172302,0.01634 -0.334553,0.07832 -0.479492,0.197265 -0.579757,0.475795 -0.314063,1.389753 0.135742,2.233399 0.449804,0.843646 1.084566,1.617293 1.243164,1.810546 3.817631,4.651795 12.24579,13.476186 14.11621,15.125 0.1047,0.0923 0.28809,0.219559 0.36524,0.15625 0.0771,-0.06331 -0.0119,-0.267976 -0.082,-0.388671 C 103.51046,97.240332 96.499269,87.25238 92.68164,82.600585 92.523041,82.407332 91.889097,81.634068 91.149413,81.02832 90.594651,80.574008 89.980773,80.213688 89.463866,80.262695 Z m 77.072264,0 c -0.51691,-0.04901 -1.13078,0.311312 -1.68555,0.765625 -0.73968,0.605748 -1.37363,1.379012 -1.53222,1.572265 -3.81764,4.651796 -10.82883,14.639747 -12.08106,16.795899 -0.0701,0.120695 -0.15918,0.325362 -0.082,0.388671 0.0771,0.06331 0.26054,-0.06395 0.36524,-0.15625 1.87042,-1.648814 10.29858,-10.473206 14.11621,-15.125 0.15859,-0.193252 0.79335,-0.966901 1.24316,-1.810546 0.4498,-0.843646 0.7155,-1.757604 0.13574,-2.233399 -0.14494,-0.118949 -0.30719,-0.18093 -0.47949,-0.197265 z m -85.38281,8.391601 c -0.2749,0.01458 -0.514937,0.112669 -0.69336,0.330078 -0.475795,0.579758 -0.03739,1.425356 0.56836,2.165039 0.605748,0.739684 1.379012,1.373628 1.572265,1.532227 4.651795,3.817629 14.639747,10.82882 16.795899,12.08105 0.120694,0.0701 0.325362,0.15918 0.388671,0.082 0.06331,-0.0772 -0.06395,-0.26054 -0.15625,-0.36524 -1.648814,-1.87042 -10.473206,-10.29858 -15.125,-14.11621 -0.193253,-0.158598 -0.9669,-0.79336 -1.810546,-1.243164 -0.52728,-0.281128 -1.081874,-0.490129 -1.540039,-0.46582 z m 93.69336,0 c -0.45817,-0.02431 -1.01276,0.184692 -1.54004,0.46582 -0.84365,0.449804 -1.6173,1.084566 -1.81055,1.243164 -4.65179,3.817629 -13.47619,12.24579 -15.125,14.11621 -0.0923,0.1047 -0.21956,0.28809 -0.15625,0.36524 0.0633,0.0771 0.26798,-0.0119 0.38867,-0.082 2.15615,-1.25223 12.14411,-8.263421 16.7959,-12.08105 0.19325,-0.158599 0.96652,-0.792543 1.57227,-1.532227 0.60574,-0.739683 1.04415,-1.585281 0.56836,-2.165039 -0.17843,-0.217409 -0.41846,-0.315493 -0.69336,-0.330078 z M 74.660155,98.505859 c -0.395706,0.02767 -0.721664,0.172208 -0.898437,0.502929 -0.353548,0.661442 0.241077,1.405402 0.979492,2.012692 0.738415,0.6073 1.620333,1.07847 1.84082,1.19629 5.307196,2.83676 16.471059,7.76476 18.830079,8.57227 0.132052,0.0452 0.350415,0.0919 0.397461,0.004 0.04705,-0.088 -0.112673,-0.24347 -0.223633,-0.32813 C 93.603902,108.953 83.304265,102.40902 77.99707,99.572265 77.77659,99.454413 76.894679,98.982628 75.979491,98.706053 75.521897,98.567767 75.055861,98.478188 74.660155,98.505859 Z m 106.371095,0 c -0.31943,0.02 -0.66755,0.09648 -1.01074,0.200194 -0.91519,0.276575 -1.7971,0.748361 -2.01758,0.866212 -5.3072,2.836755 -15.60684,9.380735 -17.58887,10.893555 -0.11096,0.0847 -0.27068,0.24011 -0.22363,0.32812 0.0471,0.088 0.26541,0.0413 0.39746,-0.004 2.35902,-0.80752 13.52288,-5.73551 18.83008,-8.57226 0.22048,-0.11785 1.1024,-0.589 1.84082,-1.19629 0.73841,-0.60729 1.33303,-1.351255 0.97949,-2.012696 -0.22097,-0.413401 -0.67466,-0.536269 -1.20703,-0.502929 z M 70.562499,109.3916 c -0.677757,0.024 -1.250777,0.21758 -1.414062,0.75586 -0.217714,0.71771 0.510812,1.33066 1.353515,1.78223 0.842704,0.45157 1.798849,0.7419 2.038086,0.81445 5.758642,1.74686 17.669393,4.40161 20.140625,4.7334 0.138334,0.0185 0.361655,0.0222 0.390625,-0.0733 0.02897,-0.0955 -0.157859,-0.21596 -0.283203,-0.27734 -2.239086,-1.09707 -13.618311,-5.50704 -19.376953,-7.2539 -0.239235,-0.0726 -1.195901,-0.36237 -2.147461,-0.45508 -0.23789,-0.0232 -0.475253,-0.0344 -0.701172,-0.0264 z m 114.875001,0 c -0.22592,-0.008 -0.46328,0.003 -0.70117,0.0264 -0.95156,0.0927 -1.90823,0.3825 -2.14747,0.45507 -5.75865,1.74687 -17.13787,6.15683 -19.37695,7.25391 -0.12534,0.0614 -0.31218,0.18184 -0.2832,0.27734 0.029,0.0955 0.25229,0.0918 0.39062,0.0733 2.47123,-0.33179 14.38198,-2.98654 20.14063,-4.7334 0.23923,-0.0726 1.19538,-0.36289 2.03808,-0.81446 0.84271,-0.45156 1.57123,-1.06452 1.35352,-1.78222 -0.16329,-0.53828 -0.73631,-0.73184 -1.41406,-0.75586 z M 69.437499,120.80469 c -0.230971,0.004 -0.471143,0.0154 -0.708984,0.0391 -0.951364,0.0947 -1.859105,0.38154 -1.932618,1.12793 -0.07351,0.74639 0.761174,1.20589 1.675782,1.48437 0.914607,0.27849 1.909407,0.37589 2.158203,0.40039 5.988788,0.58985 18.18828,0.87057 20.676758,0.71387 0.1393,-0.009 0.35936,-0.0482 0.36914,-0.14746 0.0098,-0.0993 -0.198094,-0.18197 -0.333008,-0.21777 -2.410091,-0.63917 -14.430157,-2.74414 -20.418945,-3.33399 -0.186597,-0.0182 -0.793413,-0.0776 -1.486328,-0.0664 z m 117.125001,0 c -0.69292,-0.0112 -1.29973,0.0482 -1.48633,0.0664 -5.98879,0.58984 -18.00886,2.69482 -20.41895,3.33399 -0.13491,0.0358 -0.34279,0.11845 -0.333,0.21777 0.01,0.0993 0.22984,0.13869 0.36914,0.14746 2.48847,0.1567 14.68796,-0.12402 20.67675,-0.71387 0.24879,-0.0245 1.2436,-0.1219 2.15821,-0.40039 0.91461,-0.27848 1.74929,-0.73798 1.67578,-1.48437 -0.0735,-0.74639 -0.98125,-1.03323 -1.93262,-1.12793 -0.23784,-0.0237 -0.47801,-0.0353 -0.70898,-0.0391 z m -96.613282,10.58593 c -4.084082,-0.0432 -14.079147,0.23682 -19.319336,0.75293 -0.248797,0.0245 -1.243596,0.1219 -2.158203,0.40039 -0.914607,0.27849 -1.749294,0.73799 -1.675782,1.48438 0.07351,0.74639 0.981254,1.03322 1.932618,1.12793 0.951363,0.0947 1.946513,-0.003 2.195312,-0.0274 5.988788,-0.58984 18.008854,-2.69482 20.418945,-3.33399 0.134913,-0.0358 0.342788,-0.11845 0.333008,-0.21777 -0.0098,-0.0993 -0.229833,-0.13876 -0.36914,-0.14746 -0.31106,-0.0196 -0.773982,-0.0329 -1.357422,-0.0391 z m 76.101562,0 c -0.58344,0.006 -1.04636,0.0194 -1.35742,0.039 -0.1393,0.009 -0.35936,0.0482 -0.36914,0.14746 -0.01,0.0993 0.19809,0.182 0.333,0.21777 2.41009,0.63917 14.43016,2.74414 20.41895,3.33399 0.24879,0.0245 1.24395,0.12206 2.19531,0.0273 0.95137,-0.0947 1.85911,-0.38154 1.93262,-1.12793 0.0735,-0.74639 -0.76117,-1.20589 -1.67578,-1.48438 -0.91461,-0.27849 -1.90941,-0.37588 -2.15821,-0.40039 -5.24018,-0.51611 -15.23525,-0.79613 -19.31933,-0.75293 z m -73.133789,7.125 c -0.07675,-0.009 -0.16716,-0.003 -0.236328,0.007 -2.471232,0.33179 -14.381981,2.98653 -20.140625,4.7334 -0.239234,0.0726 -1.195383,0.36289 -2.038086,0.81445 -0.842703,0.45158 -1.57123,1.06453 -1.353515,1.78223 0.217712,0.7177 1.163674,0.82221 2.115234,0.72949 0.951561,-0.0927 1.908227,-0.38251 2.147461,-0.45507 5.758641,-1.74687 17.137867,-6.15684 19.376953,-7.25391 0.125339,-0.0614 0.312173,-0.18184 0.283203,-0.27734 -0.01448,-0.0478 -0.07755,-0.0714 -0.154297,-0.0801 z m 70.166019,0 c -0.0768,0.009 -0.13982,0.0323 -0.1543,0.0801 -0.029,0.0955 0.15786,0.21594 0.2832,0.27734 2.23909,1.09707 13.61831,5.50705 19.37695,7.25391 0.23923,0.0726 1.19591,0.36236 2.14747,0.45508 0.95156,0.0927 1.89752,-0.0118 2.11523,-0.72949 0.21771,-0.71771 -0.51081,-1.33066 -1.35352,-1.78223 -0.8427,-0.45157 -1.79885,-0.74188 -2.03808,-0.81445 -5.75864,-1.74687 -17.66939,-4.40161 -20.14063,-4.7334 -0.0692,-0.009 -0.15957,-0.0155 -0.23632,-0.007 z m -67.440433,6.64258 c -0.07698,0.006 -0.164442,0.0292 -0.230468,0.0518 -2.35902,0.80752 -13.522882,5.73551 -18.830079,8.57226 -0.22048,0.11785 -1.102406,0.589 -1.84082,1.19629 -0.738414,0.6073 -1.333041,1.35028 -0.979492,2.01172 0.353546,0.66145 1.302585,0.58029 2.217773,0.30371 0.915189,-0.27657 1.797098,-0.74836 2.017579,-0.86621 5.307193,-2.83675 15.606832,-9.38074 17.588867,-10.89355 0.11095,-0.0847 0.270678,-0.24012 0.223633,-0.32813 -0.02352,-0.0439 -0.09002,-0.0543 -0.166993,-0.0479 z m 64.714843,0 c -0.077,-0.006 -0.14347,0.004 -0.16699,0.0479 -0.047,0.088 0.11267,0.24345 0.22363,0.32813 1.98203,1.51281 12.28167,8.0568 17.58887,10.89355 0.22047,0.11788 1.10239,0.58964 2.01758,0.86621 0.91519,0.27658 1.86422,0.35773 2.21777,-0.30371 0.35354,-0.66144 -0.24108,-1.40443 -0.97949,-2.01172 -0.73842,-0.60729 -1.62035,-1.07844 -1.84082,-1.19629 -5.3072,-2.83676 -16.47106,-7.76474 -18.83008,-8.57226 -0.066,-0.0226 -0.15349,-0.0453 -0.23047,-0.0518 z m -60.642577,5.96777 c -0.09002,-0.005 -0.227838,0.0588 -0.318359,0.11133 -2.156152,1.25223 -12.144104,8.26342 -16.795899,12.08106 -0.193253,0.15859 -0.966517,0.79254 -1.572265,1.53222 -0.60575,0.73969 -1.044155,1.58528 -0.56836,2.16504 0.475795,0.57976 1.389753,0.31407 2.233399,-0.13574 0.843646,-0.4498 1.617294,-1.08457 1.810546,-1.24316 4.651794,-3.81763 13.476186,-12.24579 15.125,-14.11621 0.0923,-0.1047 0.21956,-0.28809 0.15625,-0.36524 -0.01583,-0.0193 -0.04031,-0.0279 -0.07031,-0.0293 z m 56.570307,0 c -0.03,0.001 -0.0545,0.01 -0.0703,0.0293 -0.0633,0.0771 0.064,0.26054 0.15625,0.36524 1.64882,1.87042 10.4732,10.29858 15.125,14.11621 0.19325,0.1586 0.9669,0.79335 1.81055,1.24316 0.84364,0.4498 1.7576,0.7155 2.2334,0.13574 0.47579,-0.57976 0.0374,-1.42535 -0.56836,-2.16504 -0.60575,-0.73968 -1.37902,-1.37363 -1.57227,-1.53222 -4.6518,-3.81764 -14.63975,-10.82883 -16.7959,-12.08106 -0.0905,-0.0526 -0.22834,-0.11563 -0.31836,-0.11133 z m -51.51562,5.07325 c -0.0891,0.0134 -0.21151,0.10265 -0.29004,0.17187 -1.87042,1.64881 -10.298579,10.4732 -14.11621,15.125 -0.158598,0.19325 -0.79336,0.9669 -1.243164,1.81055 -0.449804,0.84364 -0.7155,1.7576 -0.135742,2.2334 0.579758,0.47579 1.425355,0.0374 2.165039,-0.56836 0.739684,-0.60575 1.373628,-1.37902 1.532227,-1.57227 3.81763,-4.6518 10.82882,-14.63975 12.08105,-16.7959 0.0701,-0.12069 0.15918,-0.32536 0.082,-0.38867 -0.0193,-0.0159 -0.0455,-0.02 -0.0752,-0.0156 z m 46.46094,0 c -0.0297,-0.005 -0.0559,-2.1e-4 -0.0752,0.0156 -0.0771,0.0633 0.0119,0.26797 0.082,0.38867 1.25223,2.15615 8.26342,12.14411 12.08106,16.7959 0.15859,0.19325 0.79254,0.96651 1.53222,1.57226 0.73968,0.60574 1.58528,1.04416 2.16504,0.56836 0.57976,-0.47579 0.31407,-1.38975 -0.13574,-2.2334 -0.4498,-0.84364 -1.08457,-1.61729 -1.24316,-1.81054 -3.81763,-4.6518 -12.24579,-13.47619 -14.11621,-15.125 -0.0785,-0.0692 -0.20092,-0.15853 -0.29004,-0.17188 z m -40.5127,3.99023 c -0.0848,0.0305 -0.18846,0.14139 -0.25195,0.22461 -1.51281,1.98203 -8.0568,12.28167 -10.893555,17.58887 h -0.001 c -0.117851,0.22048 -0.588661,1.10239 -0.865235,2.01758 -0.276573,0.91518 -0.358706,1.86422 0.302735,2.21777 0.661443,0.35354 1.404425,-0.24108 2.011715,-0.97949 0.6073,-0.73842 1.07944,-1.62034 1.19727,-1.84082 2.83675,-5.3072 7.76473,-16.47106 8.57226,-18.83008 0.0452,-0.13206 0.0919,-0.35046 0.004,-0.39746 -0.022,-0.0117 -0.0479,-0.0111 -0.0762,-0.001 z m 34.56445,0 c -0.0282,-0.0101 -0.0542,-0.0108 -0.0762,0.001 -0.0878,0.0471 -0.0413,0.26541 0.004,0.39746 0.80753,2.35902 5.73551,13.52289 8.57227,18.83008 0.11785,0.22048 0.589,1.10241 1.19629,1.84082 0.6073,0.73842 1.35027,1.33304 2.01172,0.97949 0.66144,-0.35355 0.58028,-1.30258 0.30371,-2.21777 -0.27658,-0.91519 -0.74836,-1.7971 -0.86621,-2.01758 -2.83675,-5.3072 -9.38074,-15.60683 -10.89356,-17.58887 -0.0635,-0.0832 -0.16714,-0.19413 -0.25195,-0.2246 z m -27.87793,2.73926 c -0.0955,-0.029 -0.21596,0.15786 -0.27734,0.2832 -1.09707,2.23909 -5.50704,13.61831 -7.2539,19.37695 -0.0726,0.23924 -0.36237,1.19591 -0.45508,2.14747 -0.0927,0.95156 0.0118,1.89752 0.72949,2.11523 0.71771,0.21771 1.33066,-0.51081 1.78223,-1.35352 0.45157,-0.8427 0.7419,-1.79884 0.81445,-2.03808 1.74686,-5.75864 4.40161,-17.66939 4.7334,-20.14063 0.0185,-0.13833 0.0222,-0.36167 -0.0733,-0.39062 z m 21.19141,0 c -0.0955,0.029 -0.0918,0.25229 -0.0732,0.39062 0.33179,2.47123 2.98653,14.38198 4.7334,20.14063 0.0726,0.23923 0.36288,1.19538 0.81445,2.03808 0.45157,0.84271 1.06452,1.57123 1.78223,1.35352 0.71769,-0.21772 0.82221,-1.16368 0.72949,-2.11523 -0.0927,-0.95157 -0.38251,-1.90823 -0.45508,-2.14747 -1.74687,-5.75865 -6.15684,-17.13786 -7.25391,-19.37695 -0.0614,-0.12534 -0.18184,-0.3122 -0.27734,-0.2832 z m -14.17285,1.39551 c -0.0993,-0.01 -0.18197,0.19809 -0.21777,0.333 -0.63917,2.41009 -2.74414,14.43016 -3.33399,20.41895 -0.0243,0.24879 -0.12205,1.24395 -0.0273,2.19531 0.0947,0.95137 0.38154,1.85911 1.12793,1.93262 0.74639,0.0735 1.20589,-0.76117 1.48438,-1.67578 0.27849,-0.91461 0.37589,-1.90941 0.40039,-2.15821 0.58984,-5.98878 0.87057,-18.18828 0.71386,-20.67675 -0.009,-0.1393 -0.0482,-0.35934 -0.14746,-0.36914 z m 7.1543,0 c -0.0993,0.01 -0.13876,0.22983 -0.14746,0.36914 -0.15671,2.48847 0.12402,14.68796 0.71386,20.67675 0.0245,0.2488 0.1219,1.2436 0.40039,2.15821 0.27849,0.91461 0.73799,1.74929 1.48438,1.67578 0.74639,-0.0735 1.03322,-0.98125 1.12793,-1.93262 0.0947,-0.95136 -0.003,-1.94652 -0.0274,-2.19531 -0.58984,-5.98879 -2.69482,-18.00886 -3.33399,-20.41895 -0.0358,-0.13491 -0.11845,-0.34275 -0.21777,-0.333 z" />
    <path
       d="m 126.36669,111.4176 c -0.20223,0.0199 -0.27994,0.26586 -0.3056,0.52361 -0.0256,0.25776 0.001,0.52739 0.008,0.59479 0.1598,1.62258 0.73012,4.87924 0.90329,5.53223 0.009,0.0366 0.032,0.0928 0.0589,0.0902 0.0269,-0.003 0.0375,-0.0623 0.04,-0.1 0.0424,-0.67421 -0.0336,-3.9795 -0.19341,-5.60208 -0.006,-0.0674 -0.0329,-0.33693 -0.10846,-0.58473 -0.0755,-0.2478 -0.19995,-0.47394 -0.40216,-0.45403 z m 3.26657,0 c -0.20222,-0.0199 -0.32672,0.20622 -0.40217,0.45402 -0.0755,0.2478 -0.10177,0.51734 -0.10846,0.58474 -0.1598,1.62258 -0.23586,4.92787 -0.1934,5.60207 0.003,0.0378 0.0137,0.0974 0.04,0.0999 0.0269,0.003 0.0494,-0.0536 0.0589,-0.0902 0.17317,-0.65298 0.74349,-3.90965 0.90329,-5.53223 0.006,-0.0674 0.0331,-0.33703 0.008,-0.59479 -0.0256,-0.25775 -0.10329,-0.50369 -0.3056,-0.52361 z m -6.39875,0.62679 c -0.0234,-1.9e-4 -0.0471,0.003 -0.0714,0.0106 -0.19445,0.0589 -0.22276,0.31529 -0.19764,0.5731 0.0251,0.25781 0.1036,0.517 0.12335,0.58182 0.47328,1.56022 1.66811,4.64326 1.96535,5.24992 0.0165,0.034 0.0492,0.0846 0.0752,0.0767 0.0258,-0.008 0.0249,-0.0684 0.0199,-0.10588 -0.0899,-0.66956 -0.80917,-3.8966 -1.28246,-5.45682 -0.0196,-0.0649 -0.0983,-0.32388 -0.22066,-0.55219 -0.1071,-0.19978 -0.24771,-0.37593 -0.41143,-0.37731 z m 9.53091,0 c -0.16372,10e-4 -0.30437,0.17753 -0.41143,0.37732 -0.12228,0.22831 -0.201,0.48736 -0.22065,0.55218 -0.4733,1.56022 -1.19256,4.78727 -1.28246,5.45683 -0.004,0.0375 -0.006,0.098 0.0199,0.10587 0.0258,0.008 0.0585,-0.0429 0.0752,-0.0767 0.29725,-0.60665 1.49207,-3.68969 1.96535,-5.24992 0.0198,-0.0649 0.0981,-0.32401 0.12335,-0.58182 0.025,-0.25781 -0.003,-0.51411 -0.19766,-0.5731 -0.0243,-0.008 -0.048,-0.0106 -0.0714,-0.0106 z m -12.48236,1.23352 c -0.0466,-0.005 -0.0931,0.003 -0.13777,0.027 -0.17922,0.0958 -0.15697,0.35291 -0.082,0.60088 0.0749,0.24795 0.20276,0.48689 0.23469,0.54662 0.76858,1.43792 2.54158,4.22847 2.95146,4.76546 0.023,0.0301 0.065,0.0734 0.0889,0.0606 0.0239,-0.0122 0.0107,-0.0718 -0.001,-0.1077 -0.21878,-0.63915 -1.55396,-3.66384 -2.32253,-5.10174 -0.0319,-0.0597 -0.15959,-0.29869 -0.32412,-0.49876 -0.12334,-0.15008 -0.26751,-0.27806 -0.40746,-0.29235 z m 15.43382,0 c -0.1399,0.0137 -0.28406,0.14233 -0.40746,0.29235 -0.16453,0.20007 -0.29219,0.43901 -0.32412,0.49876 -0.76857,1.4379 -2.10375,4.46259 -2.32253,5.10174 -0.0121,0.0358 -0.0247,0.0949 -0.001,0.1077 0.0239,0.0122 0.0659,-0.0305 0.0889,-0.0606 0.40988,-0.537 2.18288,-3.32755 2.95146,-4.76546 0.0319,-0.0597 0.15976,-0.29867 0.23469,-0.54662 0.0749,-0.24797 0.0969,-0.50509 -0.0823,-0.60088 -0.0448,-0.024 -0.091,-0.0318 -0.13762,-0.027 z m -18.15774,1.78832 c -0.0466,0.004 -0.0907,0.0212 -0.12988,0.0535 -0.15707,0.12897 -0.0851,0.37654 0.0367,0.60511 0.12182,0.22856 0.29385,0.43818 0.33683,0.49054 1.03432,1.26034 3.31782,3.65118 3.82458,4.0979 0.0284,0.0251 0.0781,0.0596 0.0989,0.0424 0.0209,-0.0172 -0.003,-0.0726 -0.0222,-0.10527 -0.33928,-0.58419 -2.23886,-3.29028 -3.2732,-4.55062 -0.043,-0.0524 -0.21473,-0.26186 -0.41513,-0.42598 -0.15039,-0.12304 -0.31663,-0.22071 -0.45668,-0.20744 z m 20.88165,0 c -0.14005,-0.0136 -0.30636,0.0843 -0.45666,0.20744 -0.20041,0.16412 -0.37217,0.37362 -0.41514,0.42598 -1.03434,1.26034 -2.93392,3.96643 -3.27319,4.55062 -0.019,0.0327 -0.0432,0.0881 -0.0222,0.10527 0.0209,0.0172 0.0706,-0.0173 0.0989,-0.0424 0.50676,-0.44671 2.79026,-2.83756 3.82458,-4.0979 0.043,-0.0524 0.21496,-0.26197 0.33683,-0.49054 0.12183,-0.22857 0.19384,-0.4762 0.0368,-0.60511 -0.0394,-0.0322 -0.0832,-0.0491 -0.12988,-0.0535 z m -23.13327,2.27359 c -0.0744,0.004 -0.13944,0.0305 -0.18785,0.0895 -0.12897,0.15708 -0.0106,0.38618 0.15398,0.58658 0.16412,0.20041 0.37362,0.37217 0.42598,0.41514 1.26034,1.03434 3.96643,2.93392 4.55062,3.27319 0.0327,0.019 0.0881,0.0431 0.10527,0.0222 0.0172,-0.0209 -0.0173,-0.0706 -0.0424,-0.0989 -0.44671,-0.50677 -2.83756,-2.79027 -4.0979,-3.82459 -0.0524,-0.043 -0.26197,-0.21496 -0.49054,-0.33683 -0.14279,-0.0761 -0.29313,-0.13276 -0.41725,-0.12623 z m 25.3849,0 c -0.1241,-0.006 -0.27438,0.05 -0.41725,0.12624 -0.22856,0.12182 -0.43818,0.29385 -0.49054,0.33683 -1.26034,1.03432 -3.65118,3.31782 -4.0979,3.82458 -0.0251,0.0284 -0.0596,0.0781 -0.0424,0.0989 0.0172,0.0209 0.0726,-0.003 0.10527,-0.0221 0.58417,-0.33928 3.29028,-2.23886 4.55062,-3.2732 0.0524,-0.043 0.26186,-0.21473 0.42598,-0.41513 0.16412,-0.20041 0.28289,-0.42951 0.15398,-0.58659 -0.0483,-0.0589 -0.11332,-0.0855 -0.18785,-0.0895 z m -27.14413,2.66915 c -0.10724,0.008 -0.19553,0.0466 -0.24342,0.13626 -0.0959,0.1792 0.0653,0.38078 0.26537,0.5453 0.20007,0.16454 0.43901,0.2922 0.49876,0.32413 1.4379,0.76857 4.46259,2.10375 5.10174,2.32254 0.0359,0.0122 0.0949,0.0249 0.1077,0.001 0.0121,-0.0238 -0.0306,-0.0659 -0.0606,-0.0889 -0.537,-0.40988 -3.32755,-2.18287 -4.76546,-2.95146 -0.0597,-0.0319 -0.29867,-0.15975 -0.54662,-0.23469 -0.12395,-0.0375 -0.25025,-0.0617 -0.35746,-0.0542 z m 28.81976,0 c -0.0866,0.006 -0.18087,0.0262 -0.27385,0.0542 -0.24795,0.0749 -0.4869,0.20276 -0.54664,0.23469 -1.4379,0.76859 -4.22845,2.54158 -4.76546,2.95146 -0.0301,0.0229 -0.0734,0.065 -0.0606,0.0889 0.0122,0.0238 0.0719,0.0106 0.1077,-0.001 0.63915,-0.21879 3.66384,-1.55397 5.10174,-2.32254 0.0597,-0.0319 0.29869,-0.15959 0.49875,-0.32411 0.20007,-0.16454 0.36118,-0.36612 0.26539,-0.54532 -0.0598,-0.11195 -0.1828,-0.14522 -0.32704,-0.13626 z m -29.92996,2.94934 c -0.18363,0.006 -0.33889,0.0589 -0.38313,0.20478 -0.0589,0.19446 0.13839,0.36052 0.36673,0.48287 0.22831,0.12243 0.48736,0.20101 0.55218,0.22067 1.56022,0.47328 4.78727,1.19256 5.45683,1.28245 0.0375,0.005 0.098,0.006 0.10587,-0.0199 0.008,-0.0258 -0.0429,-0.0585 -0.0767,-0.0752 -0.60665,-0.29724 -3.68969,-1.49207 -5.24992,-1.96535 -0.0649,-0.0196 -0.32401,-0.0981 -0.58182,-0.12334 -0.0644,-0.006 -0.12881,-0.009 -0.18997,-0.008 z m 31.12376,0 c -0.0612,-10e-4 -0.12547,0.001 -0.18997,0.008 -0.25781,0.0251 -0.517,0.1036 -0.58181,0.12334 -1.56023,0.47329 -4.64327,1.66811 -5.24993,1.96536 -0.0339,0.0166 -0.0846,0.0492 -0.0767,0.0752 0.008,0.0258 0.0684,0.0249 0.10588,0.0199 0.66954,-0.0899 3.8966,-0.80918 5.45683,-1.28246 0.0649,-0.0196 0.32387,-0.0983 0.55218,-0.22067 0.22833,-0.12228 0.42571,-0.28842 0.36673,-0.48287 -0.0442,-0.14583 -0.1995,-0.19828 -0.38313,-0.20478 z m -31.42857,3.09221 c -0.0626,10e-4 -0.1276,0.004 -0.19209,0.0106 -0.25775,0.0256 -0.5037,0.10329 -0.52361,0.30558 -0.0199,0.20223 0.20622,0.32673 0.45402,0.40218 0.2478,0.0755 0.51734,0.10178 0.58474,0.10846 1.62258,0.15982 4.92787,0.23588 5.60207,0.19342 0.0379,-0.003 0.0974,-0.0136 0.1,-0.0399 0.003,-0.0269 -0.0536,-0.0494 -0.0902,-0.0589 -0.65298,-0.17318 -3.90965,-0.74349 -5.53223,-0.90331 -0.0506,-0.005 -0.21496,-0.021 -0.40269,-0.018 z m 31.73338,0 c -0.18773,-0.003 -0.35214,0.0136 -0.40269,0.0179 -1.62258,0.15982 -4.87925,0.73012 -5.53223,0.90331 -0.0366,0.009 -0.0928,0.0321 -0.0902,0.0589 0.003,0.0269 0.0623,0.0375 0.1,0.04 0.67422,0.0424 3.97951,-0.0336 5.60208,-0.19342 0.0674,-0.006 0.33693,-0.0329 0.58473,-0.10846 0.24782,-0.0755 0.47395,-0.19995 0.45404,-0.40216 -0.0199,-0.20223 -0.26586,-0.27995 -0.52361,-0.3056 -0.0644,-0.006 -0.12957,-0.009 -0.1921,-0.0106 z m -26.17602,2.86811 c -1.10652,-0.0122 -3.81454,0.0641 -5.2343,0.20399 -0.0674,0.006 -0.33694,0.0329 -0.58474,0.10846 -0.2478,0.0755 -0.47394,0.19995 -0.45402,0.40217 0.0199,0.20222 0.26586,0.27994 0.52361,0.30559 0.25776,0.0257 0.52739,-0.001 0.59479,-0.008 1.62258,-0.1598 4.87924,-0.73012 5.53223,-0.90329 0.0366,-0.009 0.0928,-0.032 0.0902,-0.0589 -0.003,-0.0269 -0.0623,-0.0377 -0.0999,-0.04 -0.0843,-0.006 -0.20969,-0.009 -0.36777,-0.0106 z m 20.61867,0 c -0.15809,0.001 -0.2835,0.004 -0.36779,0.0106 -0.0376,0.003 -0.0974,0.0136 -0.1,0.04 -0.003,0.0269 0.0536,0.0493 0.0902,0.0589 0.65298,0.17317 3.90965,0.74349 5.53223,0.90329 0.0674,0.006 0.33703,0.0331 0.59479,0.008 0.25775,-0.0257 0.5037,-0.10329 0.52361,-0.3056 0.0199,-0.20222 -0.20622,-0.32671 -0.45404,-0.40216 -0.2478,-0.0755 -0.51732,-0.10177 -0.58473,-0.10846 -1.41975,-0.1399 -4.12777,-0.2157 -5.23429,-0.20399 z m -19.81459,1.93042 c -0.0208,-0.003 -0.0452,-5e-4 -0.064,0.001 -0.66956,0.0899 -3.8966,0.80915 -5.45682,1.28244 -0.0649,0.0196 -0.32388,0.0983 -0.55219,0.22067 -0.22832,0.12228 -0.42571,0.28842 -0.36672,0.48287 0.0589,0.19445 0.31529,0.22276 0.5731,0.19764 0.25781,-0.025 0.517,-0.1036 0.58182,-0.12335 1.56022,-0.47328 4.64326,-1.6681 5.24992,-1.96533 0.034,-0.0167 0.0846,-0.0492 0.0767,-0.0752 -0.005,-0.0137 -0.0209,-0.0193 -0.0418,-0.0217 z m 19.0105,0 c -0.0208,0.003 -0.0378,0.009 -0.0418,0.0217 -0.008,0.0258 0.0428,0.0585 0.0767,0.0752 0.60666,0.29724 3.6897,1.49206 5.24993,1.96535 0.0649,0.0197 0.32401,0.0981 0.58181,0.12334 0.25781,0.025 0.51412,-0.003 0.5731,-0.19765 0.0589,-0.19445 -0.13838,-0.36051 -0.36672,-0.48287 -0.22831,-0.12228 -0.48737,-0.201 -0.55218,-0.22066 -1.56023,-0.4733 -4.78729,-1.19256 -5.45683,-1.28245 -0.0187,-0.003 -0.0433,-0.005 -0.064,-0.001 z m -18.27204,1.79971 c -0.0208,10e-4 -0.0445,0.008 -0.0624,0.0137 -0.63914,0.21879 -3.66384,1.55395 -5.10174,2.32254 -0.0597,0.0319 -0.29868,0.15959 -0.49875,0.32411 -0.20006,0.16454 -0.36117,0.36585 -0.26538,0.54506 0.0958,0.1792 0.35292,0.15722 0.60088,0.0823 0.24795,-0.0749 0.4869,-0.20276 0.54663,-0.23469 1.43791,-0.76858 4.22846,-2.54158 4.76545,-2.95146 0.0301,-0.023 0.0734,-0.065 0.0606,-0.0889 -0.006,-0.0121 -0.0245,-0.0152 -0.0453,-0.0136 z m 17.53358,0 c -0.0208,-0.002 -0.0389,10e-4 -0.0453,0.0137 -0.0121,0.0238 0.0306,0.0659 0.0606,0.0889 0.53701,0.40988 3.32756,2.18288 4.76546,2.95147 0.0597,0.0319 0.29869,0.15975 0.54664,0.23469 0.24796,0.0749 0.50509,0.0969 0.60088,-0.0823 0.0959,-0.17921 -0.0653,-0.38051 -0.26539,-0.54505 -0.20006,-0.16453 -0.439,-0.29219 -0.49874,-0.32412 -1.4379,-0.76858 -4.46259,-2.10375 -5.10174,-2.32254 -0.0179,-0.006 -0.0416,-0.0121 -0.0624,-0.0137 z m -16.43026,1.61689 c -0.0245,-0.001 -0.0617,0.016 -0.0863,0.0302 -0.58419,0.33928 -3.29028,2.23885 -4.55062,3.27319 -0.0524,0.043 -0.26187,0.21473 -0.42598,0.41514 -0.16412,0.2004 -0.28291,0.4295 -0.15399,0.58659 0.12897,0.15706 0.37654,0.0851 0.60511,-0.0367 0.22857,-0.12183 0.43818,-0.29386 0.49054,-0.33683 1.26034,-1.03433 3.65119,-3.31782 4.0979,-3.82459 0.025,-0.0284 0.0596,-0.0781 0.0424,-0.0989 -0.005,-0.005 -0.0106,-0.008 -0.019,-0.008 z m 15.32694,0 c -0.008,4.1e-4 -0.0152,0.003 -0.019,0.008 -0.0172,0.0209 0.0173,0.0706 0.0424,0.0989 0.44672,0.50676 2.83757,2.79026 4.0979,3.82458 0.0524,0.043 0.26196,0.21496 0.49055,0.33683 0.22856,0.12183 0.4762,0.19385 0.6051,0.0368 0.12897,-0.15708 0.0106,-0.38618 -0.15398,-0.58659 -0.16412,-0.2004 -0.37364,-0.37216 -0.42598,-0.41513 -1.26034,-1.03434 -3.96645,-2.93392 -4.55062,-3.2732 -0.0245,-0.0136 -0.0618,-0.0313 -0.0863,-0.0302 z m -13.95744,1.37453 c -0.0242,0.003 -0.0573,0.0278 -0.0785,0.0466 -0.50677,0.44671 -2.79027,2.83756 -3.82459,4.0979 -0.043,0.0524 -0.21496,0.26196 -0.33683,0.49054 -0.12183,0.22857 -0.19384,0.4762 -0.0367,0.60511 0.15708,0.12896 0.38618,0.0106 0.58659,-0.15399 0.2004,-0.16411 0.37216,-0.37363 0.41513,-0.42598 1.03434,-1.26034 2.93392,-3.96645 3.2732,-4.55062 0.019,-0.0326 0.0431,-0.0881 0.0221,-0.10527 -0.005,-0.005 -0.0122,-0.006 -0.0204,-0.005 z m 12.58795,0 c -0.008,-10e-4 -0.0152,-6e-5 -0.0204,0.005 -0.0209,0.0172 0.003,0.0726 0.0222,0.10527 0.33927,0.58417 2.23885,3.29026 3.27319,4.5506 0.043,0.0524 0.21473,0.26187 0.41514,0.42598 0.2004,0.16412 0.4295,0.28291 0.58659,0.154 0.15706,-0.12896 0.0851,-0.37653 -0.0367,-0.60512 -0.12183,-0.22857 -0.29386,-0.43818 -0.33683,-0.49054 -1.03432,-1.26034 -3.31782,-3.65117 -3.82458,-4.0979 -0.0212,-0.0187 -0.0544,-0.043 -0.0785,-0.0466 z m -10.97635,1.08109 c -0.0229,0.008 -0.051,0.0383 -0.0682,0.0609 -0.40988,0.53701 -2.18287,3.32756 -2.95146,4.76546 h -2.7e-4 c -0.0319,0.0597 -0.15948,0.29869 -0.23442,0.54664 -0.0749,0.24797 -0.0972,0.50509 0.082,0.60088 0.17922,0.0959 0.38052,-0.0653 0.54506,-0.26539 0.16453,-0.20005 0.29246,-0.439 0.32437,-0.49874 0.76859,-1.4379 2.10375,-4.46259 2.32254,-5.10174 0.0122,-0.0358 0.0249,-0.0949 0.001,-0.1077 -0.006,-0.003 -0.0136,-0.003 -0.0207,-2.7e-4 z m 9.36475,0 c -0.008,-0.003 -0.0152,-0.003 -0.0207,2.7e-4 -0.0239,0.0121 -0.0106,0.0718 0.001,0.1077 0.21878,0.63915 1.55395,3.66384 2.32253,5.10176 0.0319,0.0597 0.15958,0.29867 0.32412,0.49874 0.16454,0.20006 0.36584,0.36117 0.54504,0.26538 0.17922,-0.0959 0.15722,-0.35292 0.0823,-0.60087 -0.0749,-0.24797 -0.20276,-0.48691 -0.23469,-0.54664 -0.76857,-1.43791 -2.54156,-4.22845 -2.95144,-4.76546 -0.0171,-0.0225 -0.0452,-0.0526 -0.0682,-0.0609 z m -7.55314,0.74217 c -0.0259,-0.008 -0.0585,0.0429 -0.0752,0.0767 -0.29725,0.60665 -1.49207,3.68969 -1.96535,5.24992 -0.0196,0.0649 -0.0981,0.32401 -0.12335,0.58182 -0.0251,0.25781 0.003,0.51412 0.19764,0.5731 0.19447,0.0589 0.36053,-0.13838 0.48287,-0.36673 0.12244,-0.22831 0.20101,-0.48736 0.22067,-0.55218 0.47329,-1.56022 1.19256,-4.78728 1.28246,-5.45683 0.004,-0.0375 0.006,-0.098 -0.0199,-0.10587 z m 5.74152,0 c -0.0258,0.008 -0.0249,0.0684 -0.0199,0.10587 0.0899,0.66955 0.80916,3.89661 1.28246,5.45683 0.0196,0.0649 0.0983,0.32388 0.22065,0.55219 0.12228,0.22832 0.28842,0.4257 0.48287,0.36672 0.19445,-0.0589 0.22277,-0.31529 0.19766,-0.5731 -0.025,-0.25781 -0.1036,-0.517 -0.12335,-0.58182 -0.47328,-1.56023 -1.66811,-4.64326 -1.96535,-5.24992 -0.0167,-0.0339 -0.0492,-0.0846 -0.0752,-0.0767 z m -3.83994,0.37808 c -0.0269,-0.003 -0.0493,0.0536 -0.0589,0.0902 -0.17318,0.65298 -0.74348,3.90965 -0.9033,5.53223 -0.006,0.0674 -0.0331,0.33703 -0.008,0.59479 0.0256,0.25775 0.10329,0.5037 0.3056,0.52361 0.20221,0.0199 0.32671,-0.20622 0.40216,-0.45404 0.0755,-0.2478 0.10177,-0.51732 0.10846,-0.58473 0.15982,-1.62257 0.23587,-4.92786 0.19342,-5.60208 -0.003,-0.0377 -0.0136,-0.0974 -0.0399,-0.1 z m 1.93836,0 c -0.0269,0.003 -0.0377,0.0623 -0.04,0.1 -0.0426,0.67422 0.0335,3.97951 0.1934,5.60208 0.006,0.0674 0.0329,0.33693 0.10846,0.58473 0.0755,0.24782 0.19995,0.47395 0.40217,0.45404 0.20222,-0.0199 0.27994,-0.26586 0.30559,-0.52361 0.0257,-0.25777 -0.001,-0.52739 -0.008,-0.59479 -0.1598,-1.62259 -0.73012,-4.87925 -0.90329,-5.53224 -0.009,-0.0366 -0.032,-0.0928 -0.0589,-0.0902 z"
       style="fill:url(#radialGradient1018);fill-opacity:1;stroke:none;stroke-width:1;stroke-linecap:butt;stroke-linejoin:miter;stroke-miterlimit:4;stroke-dasharray:none;stroke-opacity:1;paint-order:markers stroke fill"
       id="path1014" />
  </g>
</svg>
