<svg xmlns="http://www.w3.org/2000/svg" xmlns:xlink="http://www.w3.org/1999/xlink" version="1.1" width="35.2044" height="26.45382" viewBox="0,0,35.2044,26.45382"><g><g data-paper-data="{&quot;isPaintingLayer&quot;:true}" fill-rule="nonzero" stroke-linecap="butt" stroke-linejoin="miter" stroke-dasharray="" stroke-dashoffset="0" style="mix-blend-mode: normal"><path d="M 8.4516 0.002 C 9.3612 -0.0229 10.2979 0.1824 11.0559 0.7022 C 12.1696 1.4484 12.7594 2.7892 12.834 4.099 C 12.8695 9.9762 12.8517 15.854 12.8517 21.7315 C 12.9454 23.2223 12.2534 24.7412 11.0457 25.6258 C 9.6841 26.623 7.7595 26.6643 6.2849 25.8913 C 5.0596 25.2565 4.333 23.9024 4.2356 22.5547 C 4.196 18.6415 4.2145 14.7274 4.2117 10.8138 C 4.0243 10.8203 3.8364 10.8143 3.6496 10.7976 C 2.3127 10.7105 1.0808 9.8607 0.4665 8.6796 C -0.4379 6.9091 0.0048 4.5462 1.5164 3.2455 C 2.4998 2.5195 3.5972 1.9677 4.6428 1.3388 C 5.7778 0.5993 7.0747 0.015 8.4516 0.002 Z " fill="#12484c" stroke-width="0.99999" stroke-miterlimit="10" stroke="none"/><path d="M 25.6168 0.1218 C 27.8802 0.3972 30.0365 1.4617 31.6296 3.093 C 33.2791 4.7629 34.3014 6.9678 34.7943 9.2441 C 35.2283 11.3974 35.3158 13.6207 35.0664 15.8027 C 34.815 18.1103 34.0802 20.4086 32.6807 22.2825 C 31.4528 23.9731 29.6704 25.2373 27.6874 25.8847 C 25.6788 26.5006 23.5216 26.6087 21.4544 26.2473 C 19.1861 25.8847 17.0486 24.7277 15.5333 22.9974 C 13.9871 21.2501 13.1284 18.992 12.7633 16.7104 C 12.3904 14.1527 12.4048 11.5196 12.9701 8.9905 C 13.4962 6.5599 14.6751 4.214 16.5628 2.5595 C 18.4647 0.8645 21.0293 0.0315 23.5543 0.003 C 24.2436 -0.0064 24.9334 0.0295 25.6167 0.1218 Z M 22.6505 8.6087 C 22.0272 8.9245 21.7281 9.6102 21.5256 10.2416 C 21.1682 11.5234 21.1151 12.871 21.1798 14.1937 C 21.2206 14.7969 21.2677 15.3656 21.4146 15.9501 C 21.5909 16.6654 21.8796 17.4462 22.5601 17.824 C 23.271 18.1479 24.1016 18.1468 24.846 17.9411 C 25.5293 17.7382 25.9687 17.097 26.1733 16.4454 C 26.5442 15.343 26.6061 14.1624 26.5813 13.0078 C 26.5746 12.655 26.5476 12.2674 26.52 11.9383 C 26.4355 11.0331 26.275 10.1014 25.7882 9.3171 C 25.4666 8.7035 24.7621 8.4145 24.1 8.3765 C 23.6127 8.3648 23.0933 8.3824 22.6505 8.6087 Z " fill="#12484c" stroke-width="0.99999" stroke-miterlimit="10" stroke="none"/><path d="M 10.6363 21.9696 C 10.6363 22.626 10.4275 23.1631 10.0098 23.5808 C 9.6517 23.9985 9.1594 24.2074 8.5478 24.2074 C 7.1305 24.2074 6.4293 23.4689 6.4293 21.9994 L 6.4293 7.6478 C 5.5342 8.2893 4.7435 8.6026 4.0722 8.6026 C 3.5127 8.6026 3.0652 8.4236 2.7295 8.0655 C 2.3864 7.7075 2.2223 7.2748 2.2223 6.7527 C 2.2223 5.7606 2.6102 5.052 3.3859 4.6343 L 6.668 2.7247 C 7.2797 2.389 7.9286 2.2175 8.6074 2.2175 C 9.9575 2.2175 10.6363 3.0231 10.6363 4.6343 Z M 10.6363 21.9696 " fill="#ffffff" stroke-width="0.99975" stroke-miterlimit="4" stroke="none"/><path d="M 32.987 13.3765 C 32.987 17.0017 32.0994 19.7542 30.3315 21.6414 C 28.7576 23.3719 26.587 24.2372 23.827 24.2372 C 21.0597 24.2372 18.8815 23.3719 17.2927 21.6414 C 15.5771 19.7542 14.7267 17.0017 14.7267 13.3765 C 14.7267 9.7961 15.5622 7.0138 17.233 5.0222 C 18.8592 3.1573 21.0597 2.2175 23.827 2.2175 C 26.587 2.2175 28.78 3.1573 30.3912 5.0222 C 32.1217 7.0138 32.987 9.7961 32.987 13.3765 Z M 28.8098 13.3765 C 28.8098 8.5653 27.1464 6.156 23.827 6.156 C 20.5599 6.156 18.9338 8.5653 18.9338 13.3765 C 18.9338 17.9938 20.5599 20.2987 23.827 20.2987 C 27.1464 20.2987 28.8098 17.9938 28.8098 13.3765 Z M 28.8098 13.3765 " fill="#ffffff" stroke-width="0.99975" stroke-miterlimit="4" stroke="none"/></g></g></svg>