<svg version="1.1" xmlns="http://www.w3.org/2000/svg" xmlns:xlink="http://www.w3.org/1999/xlink" width="71.48827" height="91.71277" viewBox="0,0,71.48827,91.71277"><g transform="translate(-204.4464,-91.27733)"><g data-paper-data="{&quot;isPaintingLayer&quot;:true}" fill="#ffffff" fill-rule="nonzero" stroke="#000000" stroke-width="4" stroke-linecap="butt" stroke-linejoin="miter" stroke-miterlimit="4" stroke-dasharray="" stroke-dashoffset="0" style="mix-blend-mode: normal"><path d="M218.08628,93.27834c2.39547,0 4.86495,0.63877 7.47674,1.75835l0.11066,0.0478l0.10679,0.0562c2.61226,1.37428 4.44642,2.46921 5.81093,3.90433c0.55196,0.03744 1.60866,0.02069 3.00545,-0.088c3.53792,-0.48991 6.32349,-0.98077 8.22034,-1.43814l0.0262,-0.007l0.0262,-0.006c3.32888,-0.74093 5.47033,-1.27891 5.91674,-1.41848c1.69661,-0.99166 3.45678,-1.67689 5.32749,-1.67689c1.90176,-0.00001 3.85734,0.49186 6.1371,1.31642l0.0311,0.0112l0.0301,0.0112c2.88912,1.11463 5.244,2.48951 6.97292,4.3238c1.72891,1.83428 2.73364,4.20868 2.73364,6.65608c0,2.44741 -1.10934,4.88202 -3.07729,6.40049l-0.0369,0.0281l-0.0369,0.0271c-1.52139,1.10054 -3.41215,1.70873 -5.3139,1.70873c-1.05289,0 -2.09932,-0.17401 -3.14039,-0.37826h-3.51703c-3.08797,0 -6.64,0.46231 -10.63266,1.42503c-2.04889,0.5559 -4.126,0.84173 -6.20506,0.84173c-1.0856,0 -2.22332,-0.08188 -3.40928,-0.22845c-0.05678,1.92254 -0.09073,3.49822 -0.26599,7.22348v5.28255c3.81368,-1.41787 7.79697,-2.16751 11.89852,-2.16751c7.70835,0 14.58656,2.58492 20.0577,7.58114c4.97934,4.52055 7.59517,10.47976 7.59517,17.20154c0,8.9775 -3.41541,16.6383 -10.03273,22.18821l-0.0126,0.0103l-0.0126,0.0112c-5.76323,4.72483 -12.96613,7.10551 -21.1197,7.10551c-5.66861,0 -11.53897,-1.23226 -17.57549,-3.61409l-0.01,-0.003l-0.009,-0.004c-3.35538,-1.34843 -6.5635,-3.10014 -9.61337,-5.23947l-0.0184,-0.0122l-0.0175,-0.0131c-2.13623,-1.54529 -4.14474,-3.09387 -6.02546,-4.64868l-0.0864,-0.0721l-0.0815,-0.0786c-1.40909,-1.35907 -2.48498,-2.80081 -2.9375,-4.54663c-0.44802,-1.72848 -0.02487,-3.70818 1.02609,-5.15522c0.97426,-1.38297 2.85601,-2.3838 4.60816,-2.3838c1.69215,0 3.16601,0.5869 4.66641,1.4344c2.72787,1.19069 5.99179,2.40262 9.78616,3.62251c3.61419,1.16196 7.33028,1.7415 11.19667,1.7415c4.20212,0 7.39876,-0.97188 9.95896,-2.82385l0.0174,-0.0131l0.0175,-0.0122c2.10689,-1.47789 3.07923,-3.3689 3.07923,-6.73849c0,-2.70335 -0.96738,-4.5498 -3.50636,-6.38644c-1.46823,-1.06208 -3.49912,-1.69094 -6.43416,-1.69094c-1.40142,0 -3.1931,0.30127 -5.32263,0.98591c-0.89613,0.28811 -1.61364,0.79809 -2.35214,1.8548c-1.60007,2.68224 -4.16302,4.71328 -7.2059,4.71328c-3.57959,0 -6.57344,-2.12677 -9.94051,-5.37431l-0.0699,-0.0684l-0.066,-0.0721c-2.15185,-2.37194 -3.47822,-5.08365 -3.47822,-7.93694c0,-1.83036 0.07962,-3.53452 1.65611,-5.05503l0.498,-0.48031l0.22133,-0.0712c0.0028,-0.04309 -0.0161,-0.01332 0.032,-0.24531c0.21607,-1.04202 0.33296,-2.2397 0.33296,-3.59067c0,-7.17311 0.13756,-14.60768 0.37181,-22.22755c-0.0401,-0.0165 -0.0195,-0.0122 -0.0631,-0.029l0.0631,0.0225c0.00009,-0.003 -0.0001,-0.006 0,-0.009c-1.51036,-0.50072 -2.89494,-1.27466 -3.90729,-2.46805c-1.03612,-1.22142 -1.55514,-2.82412 -1.55514,-4.37061c0,-1.96594 1.20664,-3.821 2.75985,-4.94455c1.5214,-1.10054 3.41119,-1.70873 5.31293,-1.70873z"/></g></g></svg>