<svg version="1.1" xmlns="http://www.w3.org/2000/svg" xmlns:xlink="http://www.w3.org/1999/xlink" width="73.01175" height="92.0907" viewBox="0,0,73.01175,92.0907"><g transform="translate(-203.63172,-90.52174)"><g data-paper-data="{&quot;isPaintingLayer&quot;:true}" fill="#ffffff" fill-rule="nonzero" stroke="#000000" stroke-width="4" stroke-linecap="butt" stroke-linejoin="miter" stroke-miterlimit="4" stroke-dasharray="" stroke-dashoffset="0" style="mix-blend-mode: normal"><path d="M255.21384,92.52215c3.62979,0 6.96005,0.91669 9.62113,2.84165c3.50388,2.53462 6.30042,5.80917 8.31839,9.70184c0.93137,1.79662 1.49011,3.60655 1.49011,5.44079c0,3.00472 -1.88484,5.68362 -4.61302,7.51935c-0.96212,0.83796 -3.14836,4.12718 -5.03776,8.6231c-1.88939,4.49593 -3.42726,8.69887 -4.97077,13.41188c-2.85259,9.25551 -5.18315,17.25146 -6.99428,23.98589c-0.49962,2.17375 -0.87401,4.21492 -1.12025,6.11491l-0.01,0.0796l-0.0146,0.0777c-0.6146,3.26027 -2.11328,6.10257 -4.51788,8.09049l-0.0388,0.0318l-0.0388,0.03c-1.68397,1.29935 -3.67833,2.14129 -5.7789,2.14129c-2.83405,0 -5.55631,-1.14573 -7.59128,-3.10848c-2.79142,-2.69231 -4.0063,-6.59067 -4.0063,-11.09879c0,-2.70971 0.2565,-4.9864 0.9358,-6.95196c0.56833,-1.64446 1.64203,-2.62642 2.98701,-3.73018c2.02519,-6.08425 4.15606,-12.2703 6.4225,-18.58537l0.002,-0.005l0.002,-0.005c1.8526,-5.10521 4.47572,-11.68135 7.87766,-19.75854c0.00052,-0.00104 0.00069,-0.00104 0.001,-0.002c0.002,-0.0042 0.003,-0.0082 0.005,-0.0122c0.97398,-2.3479 1.82423,-4.20506 2.62589,-5.83871c-0.86998,0.21503 -1.90437,0.49998 -3.15107,0.93723l-0.0806,0.0281l-0.0825,0.0244c-2.55823,0.74023 -4.84636,1.47632 -6.85837,2.20403c-2.73806,1.05374 -4.8363,1.69375 -6.9205,1.69375c-1.05302,0 -2.07749,-0.21244 -3.08409,-0.51496c0.0614,1.60513 0.19221,3.21015 0.19221,4.81535c0,2.35629 -0.13733,4.59724 -0.41159,6.73006c-0.28211,2.96863 -0.67757,5.19607 -2.14342,7.08116l-0.0272,0.0365l-0.0291,0.0347c-1.57436,1.89808 -4.09955,2.96804 -6.63703,2.96804c-3.56454,-0.00001 -6.69805,-2.07609 -9.35612,-5.20952l-0.0398,-0.0468l-0.0379,-0.0487c-1.81689,-2.33652 -2.94624,-4.80672 -2.94624,-7.39108c0,-1.29772 0.44309,-2.5484 1.12995,-3.62157c0.35574,-0.70757 0.43684,-1.17605 0.5655,-3.14633c0.12857,-1.97027 0.13073,-6.01161 0.001,-8.42301c-0.12974,-2.4114 -0.12474,-2.4165 -0.12174,-2.4657c-1.30977,-0.50408 -2.52677,-1.17513 -3.42869,-2.21901c-1.12212,-1.29874 -1.67067,-3.00917 -1.67067,-4.6749c0,-1.72625 0.7965,-3.47035 2.04829,-4.67771c1.36894,-1.32034 3.34032,-1.97557 5.24207,-1.97557c1.88877,0 3.78569,0.50938 5.83325,1.352c1.7429,0.67657 3.55697,1.79473 5.74589,3.37814l0.16988,0.12265l0.0553,0.0534c0.80661,-0.00265 2.43108,-0.11208 4.70524,-0.35579l0.008,-0.00096l0.009,-0.00096c4.5591,-0.46286 12.1919,-1.92685 22.45934,-4.3266c0.82982,-0.72051 1.75409,-1.35481 3.30638,-1.35481z"/></g></g></svg>