<svg xmlns="http://www.w3.org/2000/svg" xmlns:xlink="http://www.w3.org/1999/xlink" version="1.1" width="23.25958" height="26.42214" viewBox="0,0,23.25958,26.42214"><g><g data-paper-data="{&quot;isPaintingLayer&quot;:true}" fill-rule="nonzero" stroke-linecap="butt" stroke-linejoin="miter" stroke-dasharray="" stroke-dashoffset="0" style="mix-blend-mode: normal"><path d="M 11.5896 0.0147 C 12.3796 -0.0161 13.1719 0.0025 13.9602 0.0608 C 16.2992 0.2303 18.6627 0.8621 20.5961 2.2299 C 22.005 3.1401 22.8338 4.8727 22.6362 6.5409 C 22.4897 7.9682 21.4456 9.1982 20.1449 9.7461 C 20.6803 10.1665 21.1666 10.6507 21.5811 11.191 C 22.8164 12.7847 23.3147 14.8485 23.2548 16.8401 C 23.2307 18.8464 22.5873 20.8609 21.3386 22.4427 C 19.8581 24.3163 17.6532 25.5163 15.3502 26.0513 C 13.264 26.5081 11.0864 26.5383 8.9843 26.1672 C 6.6946 25.7968 4.478 24.7354 2.9096 23.0027 C 1.4099 21.3564 0.5857 19.1977 0.2372 17.0221 C -0.1468 14.3546 -0.0829 11.6057 0.5634 8.9833 C 1.2101 6.2495 2.7787 3.6896 5.0958 2.0647 C 6.9832 0.728 9.3005 0.1195 11.5896 0.0147 Z M 12.4134 15.7723 C 12.0048 15.7655 11.5971 15.8171 11.1993 15.9085 C 10.5203 16.0961 9.8318 16.3147 9.2081 16.6678 C 9.5679 17.3087 10.2164 17.7514 10.9184 17.9395 C 11.7068 18.1343 12.5412 18.1088 13.3345 17.9537 C 13.7789 17.8505 14.2985 17.7158 14.5408 17.29 C 14.653 16.9479 14.6799 16.5166 14.4393 16.2208 C 13.8514 15.8084 13.1017 15.8106 12.4134 15.7723 Z " fill="#12484c" stroke-width="0.99999" stroke-miterlimit="10" stroke="none"/><path d="M 21.0438 16.5664 C 21.0438 19.0354 20.1188 20.9674 18.2689 22.3548 C 16.5757 23.5856 14.4796 24.2047 11.9733 24.2047 C 5.4688 24.2047 2.2166 20.766 2.2166 13.8811 C 2.2166 10.323 3.0073 7.5481 4.6036 5.5565 C 6.349 3.3336 8.9374 2.2148 12.3612 2.2148 C 15.2852 2.2148 17.5976 2.8264 19.3132 4.0348 C 20.0666 4.5346 20.4471 5.2283 20.4471 6.1234 C 20.4471 6.5859 20.2457 6.9887 19.8503 7.3467 C 19.4475 7.7048 18.9552 7.8838 18.3585 7.8838 C 18.1794 7.8838 17.4484 7.6004 16.1804 7.0185 C 14.8825 6.4442 13.5398 6.1533 12.1524 6.1533 C 10.4815 6.1533 9.0866 6.7649 7.9752 7.9733 C 6.9383 9.0475 6.4236 10.3454 6.4236 11.8521 C 6.9607 11.2554 7.826 10.7482 9.0195 10.3304 C 10.1682 9.9351 11.3617 9.7337 12.5999 9.7337 C 15.1062 9.7337 17.1128 10.2857 18.627 11.3747 C 20.2382 12.5533 21.0438 14.2839 21.0438 16.5664 Z M 16.8368 16.8648 C 16.8368 14.6568 15.3151 13.5528 12.2717 13.5528 C 11.3318 13.5528 10.3024 13.7841 9.1686 14.2391 C 7.8931 14.7389 7.0502 15.358 6.6325 16.089 C 6.9309 17.3869 7.5425 18.4088 8.4824 19.1622 C 9.4521 19.9231 10.6456 20.296 12.0628 20.296 C 13.3757 20.296 14.4498 20.0573 15.2852 19.5799 C 16.3146 18.9683 16.8368 18.0582 16.8368 16.8648 Z M 16.8368 16.8648 " fill="#ffffff" stroke-width="0.99975" stroke-miterlimit="4" stroke="none"/></g></g></svg>