<svg version="1.1" xmlns="http://www.w3.org/2000/svg" xmlns:xlink="http://www.w3.org/1999/xlink" width="71.05379" height="92.46814" viewBox="0,0,71.05379,92.46814"><g transform="translate(-204.59408,-91.55951)"><g data-paper-data="{&quot;isPaintingLayer&quot;:true}" fill="#ffffff" fill-rule="nonzero" stroke="#000000" stroke-width="4" stroke-linecap="butt" stroke-linejoin="miter" stroke-miterlimit="4" stroke-dasharray="" stroke-dashoffset="0" style="mix-blend-mode: normal"><path d="M243.2536,93.56034c7.87783,0 14.54728,2.26355 19.33934,6.88549c4.40799,4.2515 6.74673,9.65789 6.74673,15.63043c0,5.4844 -2.17658,10.64774 -6.20796,15.09769c-0.7359,0.82728 -1.61391,1.59152 -2.51619,2.34541c2.00963,1.06194 3.86437,2.36114 5.50125,3.93991c4.89291,4.71921 7.53111,10.48391 7.53111,16.76429c0,8.35285 -3.81476,15.65604 -10.90933,21.13021c-5.71352,4.40855 -12.47678,6.67388 -19.87618,6.67388c-6.10488,0 -11.76437,-1.07853 -16.87557,-3.26953l-0.0116,-0.005l-0.0107,-0.006c-3.11625,-1.3662 -6.51899,-3.34602 -10.27833,-5.93515c-2.71362,-1.83289 -4.81354,-3.49557 -6.35844,-5.13462c-1.54737,-1.64169 -2.73364,-3.31754 -2.73364,-5.52318c0,-1.72625 0.79651,-3.47036 2.04829,-4.67771c1.04931,-1.01205 2.62059,-1.59731 4.06649,-1.59731c1.77725,0 3.13642,0.65705 4.66738,1.54301l0.034,0.0187l0.033,0.0206c2.78612,1.71004 5.03401,2.90098 6.60888,3.55322c4.16043,1.64932 7.8272,2.41843 10.97825,2.41843c4.48935,0 7.82179,-0.99582 10.35017,-2.82478l0.0214,-0.015l0.0214,-0.015c4.14012,-2.88394 5.81288,-5.87939 5.81288,-9.75521c0,-2.2468 -0.55445,-3.4972 -1.47651,-4.38653c-1.32538,-1.27832 -2.63318,-1.80141 -4.54798,-1.80141c-0.54723,0 -1.80474,0.18126 -3.48791,0.6451l-0.0486,0.0131l-0.0476,0.0112c-0.58747,0.14166 -1.27031,0.44821 -2.05509,1.014c-1.77718,1.4167 -3.47539,2.47088 -5.71676,2.47088c-3.10346,0 -5.72382,-1.78462 -8.09802,-4.35937c-2.67567,-2.87026 -4.28297,-6.09201 -4.28297,-9.46965c0,-1.45073 0.00111,-2.56942 0.70671,-3.93055c0.87777,-1.69321 2.97854,-3.10006 5.01685,-3.10006c1.4303,0 2.80541,0.48271 3.96262,1.21812c0.27505,0.04024 1.19645,0.0507 2.65792,-0.35205l0.11649,-0.0328l0.11844,-0.0225c3.09765,-0.59754 6.50418,-2.57201 10.1366,-6.30311c2.20871,-2.34784 3.12971,-4.58638 3.12971,-7.11768c0,-1.5132 -0.43313,-2.42411 -1.68717,-3.46615c-0.99914,-0.79711 -2.15909,-1.21156 -3.94611,-1.21156c-2.94486,0 -5.37776,0.92043 -7.7835,3.02984l-0.0126,0.0103l-0.0116,0.0103c-1.9899,1.706 -3.70971,3.9962 -5.13334,6.96319c-0.5066,1.22153 -1.01361,2.44312 -1.5202,3.66464l-0.0136,0.0318l-0.0136,0.0328c-1.114,2.50707 -3.83592,4.38653 -6.65742,4.38653c-4.13686,0 -7.57155,-2.9205 -9.39787,-7.03061c-1.08699,-2.44629 -1.41632,-5.4738 -1.41632,-9.44249c0,-3.6421 0.73749,-7.09592 2.22593,-10.25426l0.0223,-0.0487l0.0252,-0.0477c1.07957,-2.08247 3.3011,-3.85658 5.79928,-3.85658c1.26767,0 2.52622,0.52926 3.40929,1.25931c0.27005,0.22326 0.47358,0.48553 0.697,0.73592c2.36612,-1.46554 4.51383,-2.71422 6.30795,-3.57944l0.0369,-0.0178l0.0359,-0.0159c4.37622,-1.96973 9.39788,-2.91374 14.96707,-2.91374z"/></g></g></svg>