<svg version="1.1" xmlns="http://www.w3.org/2000/svg" xmlns:xlink="http://www.w3.org/1999/xlink" width="51.0826" height="93.60025" viewBox="0,0,51.0826,93.60025"><g transform="translate(-214.59112,-90.1443)"><g data-paper-data="{&quot;isPaintingLayer&quot;:true}" fill="#ffffff" fill-rule="nonzero" stroke="#000000" stroke-width="4" stroke-linecap="butt" stroke-linejoin="miter" stroke-miterlimit="4" stroke-dasharray="" stroke-dashoffset="0" style="mix-blend-mode: normal"><path d="M248.55229,92.1443c2.93961,0 5.76331,1.22168 8.43585,3.21522c4.0098,2.77395 6.68558,6.01481 6.68558,9.85914c0,2.17347 -0.44505,4.2643 -2.04829,5.81062c-0.30548,0.35599 -0.87589,0.81603 -1.12513,1.46062c-0.23718,1.37254 -0.49397,3.46029 -0.74942,6.16079c-0.51116,7.91051 -0.64553,19.81505 -0.38539,35.62212c0.25952,5.03602 0.39218,9.71329 0.39218,14.02001c0,3.20556 -0.78045,6.18415 -2.41135,8.70095l-0.0233,0.0356l-0.0243,0.0356c-1.99053,2.87981 -5.24119,4.67958 -8.74649,4.67958c-3.95612,0 -7.455,-2.37059 -9.62501,-5.95855l-0.0155,-0.0262l-0.0155,-0.0262c-1.60136,-2.78011 -2.33369,-6.06443 -2.33369,-9.70653c0,-1.89954 0.12115,-3.46168 0.48149,-4.85186l0.12522,-0.48406l0.28638,-0.41384c0.40468,-0.58546 0.94349,-1.29186 1.47166,-1.98868c0.00948,-7.57821 0.12568,-15.56522 0.37762,-24.07017l0.002,-0.0384l0.002,-0.0393c0.26123,-4.53527 0.52213,-8.94408 0.7834,-13.22792l0.00099,-0.0112l0.00099,-0.0112c0.09866,-1.4281 0.08696,-2.40997 0.14756,-3.68618c-2.01229,1.54352 -3.80239,3.01664 -5.19547,4.35469c-2.58439,2.99878 -5.42482,5.04286 -8.81541,5.04286c-1.89272,0 -3.78077,-0.75959 -5.1615,-1.99617c-1.38072,-1.23659 -2.3442,-2.85172 -3.10446,-4.75823l-0.004,-0.0112l-0.005,-0.0112c-1.0127,-2.60464 -1.36488,-5.86598 -1.36488,-10.07448c0,-1.24688 0.1584,-2.5597 0.44946,-3.96332l0.007,-0.03l0.007,-0.03c0.32955,-1.43039 0.84303,-2.73572 1.85705,-3.83599c1.01401,-1.10027 2.65812,-1.81547 4.18685,-1.81547c1.28022,0 2.7759,0.35348 3.8704,1.40912c0.31264,0.30154 0.55203,0.63879 0.75427,0.98966c0.37846,-0.05878 0.74376,-0.0979 1.37653,-0.32676l0.0524,-0.0187l0.0524,-0.0169c1.62625,-0.52284 5.73788,-2.7215 11.39955,-6.44449c1.34918,-1.0279 2.61955,-1.85969 3.87331,-2.46432c1.31099,-0.63222 2.62933,-1.05894 4.07522,-1.05894z"/></g></g></svg>