<svg xmlns="http://www.w3.org/2000/svg" xmlns:xlink="http://www.w3.org/1999/xlink" version="1.1" width="22.69447" height="26.45269" viewBox="0,0,22.69447,26.45269"><g><g data-paper-data="{&quot;isPaintingLayer&quot;:true}" fill-rule="nonzero" stroke-linecap="butt" stroke-linejoin="miter" stroke-dasharray="" stroke-dashoffset="0" style="mix-blend-mode: normal"><path d="M 13.1361 0.125 C 15.3667 0.4014 17.4912 1.4458 19.0717 3.0437 C 20.7554 4.7248 21.7958 6.9611 22.2898 9.2691 C 22.7222 11.4288 22.8054 13.658 22.5524 15.8454 C 22.2944 18.1568 21.5491 20.4579 20.1356 22.3273 C 18.8831 24.0359 17.0589 25.2992 15.0398 25.9261 C 13.1167 26.4898 11.0637 26.5947 9.0878 26.2707 C 6.7957 25.9294 4.6209 24.7911 3.078 23.0556 C 1.5338 21.3422 0.6615 19.1191 0.2796 16.8665 C -0.1206 14.2851 -0.1123 11.6241 0.4424 9.0657 C 0.9618 6.6199 2.1329 4.2531 4.0256 2.5823 C 5.9303 0.8724 8.5069 0.0301 11.0437 0.0015 C 11.743 -0.0081 12.4434 0.0274 13.1361 0.125 Z M 10.7141 8.4239 C 10.153 8.4869 9.6729 8.8611 9.395 9.341 C 8.953 10.1543 8.7838 11.0858 8.6989 11.9989 C 8.6586 12.4592 8.6464 12.9622 8.6491 13.4579 C 8.6612 14.3205 8.7027 15.2229 8.9365 16.0768 C 9.1136 16.6583 9.3195 17.2928 9.8282 17.6707 C 10.2625 18.0228 10.8389 18.074 11.3763 18.0777 C 12.0799 18.086 12.8618 17.869 13.2631 17.2462 C 13.7728 16.506 13.9133 15.589 14.0189 14.7158 C 14.0398 14.525 14.052 14.2839 14.0633 14.122 C 14.0914 13.5248 14.0793 12.9101 14.0426 12.3321 C 13.9668 11.3102 13.8352 10.2458 13.3016 9.349 C 12.9836 8.7249 12.2768 8.4133 11.6043 8.3764 C 11.3076 8.3674 11.0075 8.3754 10.7141 8.4239 Z " fill="#12484c" stroke-width="0.99999" stroke-miterlimit="10" stroke="none"/><path d="M 20.4772 13.3751 C 20.4772 17.0003 19.5896 19.7527 17.8217 21.6399 C 16.2478 23.3705 14.0772 24.2358 11.3173 24.2358 C 8.5499 24.2358 6.3718 23.3705 4.7829 21.6399 C 3.0673 19.7527 2.2169 17.0003 2.2169 13.3751 C 2.2169 9.7946 3.0524 7.0123 4.7233 5.0207 C 6.3494 3.1559 8.5499 2.216 11.3172 2.216 C 14.0772 2.216 16.2702 3.1559 17.8814 5.0207 C 19.6119 7.0123 20.4772 9.7946 20.4772 13.3751 Z M 16.3 13.3751 C 16.3 8.5638 14.6366 6.1545 11.3173 6.1545 C 8.0501 6.1545 6.424 8.5638 6.424 13.3751 C 6.424 17.9924 8.0501 20.2973 11.3173 20.2973 C 14.6366 20.2973 16.3 17.9924 16.3 13.3751 Z M 16.3 13.3751 " fill="#ffffff" stroke-width="0.99975" stroke-miterlimit="4" stroke="none"/></g></g></svg>