<?xml version="1.0" encoding="UTF-8" standalone="no"?>
<svg
   xmlns:dc="http://purl.org/dc/elements/1.1/"
   xmlns:cc="http://creativecommons.org/ns#"
   xmlns:rdf="http://www.w3.org/1999/02/22-rdf-syntax-ns#"
   xmlns:svg="http://www.w3.org/2000/svg"
   xmlns="http://www.w3.org/2000/svg"
   xmlns:xlink="http://www.w3.org/1999/xlink"
   xmlns:sodipodi="http://sodipodi.sourceforge.net/DTD/sodipodi-0.dtd"
   xmlns:inkscape="http://www.inkscape.org/namespaces/inkscape"
   width="256"
   height="256"
   viewBox="0 0 256 256"
   version="1.1"
   id="svg8"
   inkscape:version="1.0 (4035a4fb49, 2020-05-01)"
   sodipodi:docname="h51.svg">
  <defs
     id="defs2">
    <linearGradient
       inkscape:collect="always"
       id="linearGradient994">
      <stop
         style="stop-color:#ffffff;stop-opacity:0.94117647"
         offset="0"
         id="stop990" />
      <stop
         id="stop998"
         offset="0.64729315"
         style="stop-color:#ffffff;stop-opacity:0.94117647" />
      <stop
         style="stop-color:#ffff00;stop-opacity:1"
         offset="1"
         id="stop992" />
    </linearGradient>
    <radialGradient
       gradientTransform="matrix(0.5,0,0,0.5,63.999999,63.999999)"
       inkscape:collect="always"
       xlink:href="#linearGradient994"
       id="radialGradient996"
       cx="128"
       cy="128"
       fx="128"
       fy="128"
       r="122.41724"
       gradientUnits="userSpaceOnUse" />
    <radialGradient
       inkscape:collect="always"
       xlink:href="#linearGradient994"
       id="radialGradient1018"
       gradientUnits="userSpaceOnUse"
       cx="128"
       cy="128"
       fx="128"
       fy="128"
       r="122.41724"
       gradientTransform="matrix(0.04459029,0,0,0.04459029,122.29244,122.29244)" />
  </defs>
  <sodipodi:namedview
     borderlayer="true"
     id="base"
     pagecolor="#ffffff"
     bordercolor="#666666"
     borderopacity="1.0"
     inkscape:pageopacity="0.0"
     inkscape:pageshadow="2"
     inkscape:zoom="1.5056893"
     inkscape:cx="81.026241"
     inkscape:cy="162.4379"
     inkscape:document-units="px"
     inkscape:current-layer="layer1"
     inkscape:document-rotation="0"
     showgrid="true"
     units="px"
     inkscape:pagecheckerboard="true"
     inkscape:showpageshadow="false"
     showborder="true"
     inkscape:window-width="1920"
     inkscape:window-height="1017"
     inkscape:window-x="-8"
     inkscape:window-y="-8"
     inkscape:window-maximized="1">
    <inkscape:grid
       type="xygrid"
       id="grid878"
       originx="128"
       originy="128"
       enabled="false"
       snapvisiblegridlinesonly="false"
       visible="true" />
  </sodipodi:namedview>
  <metadata
     id="metadata5">
    <rdf:RDF>
      <cc:Work
         rdf:about="">
        <dc:format>image/svg+xml</dc:format>
        <dc:type
           rdf:resource="http://purl.org/dc/dcmitype/StillImage" />
        <dc:title />
        <cc:license
           rdf:resource="" />
      </cc:Work>
    </rdf:RDF>
  </metadata>
  <g
     inkscape:label="レイヤー 1"
     inkscape:groupmode="layer"
     id="layer1"
     style="display:inline">
    <path
       id="path882"
       style="fill:url(#radialGradient996);fill-opacity:1;stroke:none;stroke-width:1;stroke-linecap:butt;stroke-linejoin:miter;stroke-miterlimit:4;stroke-dasharray:none;stroke-opacity:1;paint-order:markers stroke fill"
       d="m 121.97168,66.795897 c -0.74639,0.07351 -1.03323,0.981254 -1.12793,1.932618 -0.0947,0.951363 0.003,1.946516 0.0273,2.195312 0.58984,5.988788 2.69481,18.008854 3.33398,20.418945 0.0358,0.13491 0.11846,0.34279 0.21777,0.333008 0.0993,-0.0098 0.1387,-0.22984 0.14746,-0.36914 0.15671,-2.488478 -0.12402,-14.68797 -0.71386,-20.676758 -0.0245,-0.248794 -0.1219,-1.243596 -0.40039,-2.158203 -0.27849,-0.914607 -0.73799,-1.749294 -1.48438,-1.675782 z m 12.05664,0 c -0.74639,-0.07351 -1.20589,0.761174 -1.48438,1.675782 -0.27849,0.914607 -0.37588,1.909407 -0.40039,2.158203 -0.58984,5.988788 -0.87057,18.18828 -0.71386,20.676758 0.009,0.1393 0.0481,0.359358 0.14746,0.36914 0.0993,0.0098 0.18199,-0.198094 0.21777,-0.333008 0.63917,-2.410091 2.74414,-14.430157 3.33398,-20.418945 0.0245,-0.248796 0.12207,-1.243949 0.0274,-2.195312 -0.0947,-0.951364 -0.38154,-1.859105 -1.12793,-1.932618 z m -23.61719,2.313477 c -0.0863,-7.5e-4 -0.17396,0.01185 -0.26367,0.03906 -0.7177,0.217713 -0.82221,1.163675 -0.72949,2.115235 0.0927,0.95156 0.38251,1.908225 0.45508,2.147461 1.74686,5.758641 6.15683,17.137867 7.2539,19.376953 0.0614,0.125341 0.18184,0.312172 0.27734,0.283203 0.0955,-0.02897 0.0918,-0.252291 0.0733,-0.390625 -0.33179,-2.471233 -2.98654,-14.381984 -4.7334,-20.140625 -0.0726,-0.239236 -0.36288,-1.195383 -0.81445,-2.038086 -0.39513,-0.737365 -0.91427,-1.387475 -1.51856,-1.392579 z m 35.17773,0 c -0.60428,0.0051 -1.12343,0.655213 -1.51855,1.392578 -0.45157,0.842704 -0.74188,1.798851 -0.81445,2.038086 -1.74687,5.758642 -4.40161,17.669393 -4.7334,20.140625 -0.0187,0.138327 -0.0222,0.361654 0.0732,0.390625 0.0955,0.02897 0.21594,-0.157862 0.27734,-0.283203 1.09708,-2.239086 5.50705,-13.618311 7.25391,-19.376953 0.0726,-0.239233 0.36236,-1.195901 0.45508,-2.147461 0.0927,-0.95156 -0.0118,-1.897521 -0.72949,-2.115234 -0.0897,-0.02721 -0.17735,-0.03979 -0.26368,-0.03907 z m -46.071283,4.552735 c -0.172178,-0.0176 -0.343429,0.01122 -0.508789,0.09961 -0.66144,0.353547 -0.579309,1.302585 -0.302735,2.217773 0.276575,0.915188 0.748363,1.797098 0.866212,2.017579 2.836755,5.307194 9.380735,15.606832 10.893555,17.588867 0.0847,0.110952 0.24011,0.270676 0.32812,0.223633 0.088,-0.04704 0.0413,-0.26541 -0.004,-0.397461 -0.80752,-2.359021 -5.73551,-13.522883 -8.57226,-18.830079 -0.11785,-0.22048 -0.589,-1.102406 -1.19629,-1.84082 -0.45547,-0.55381 -0.98737,-1.026323 -1.503907,-1.079101 z m 56.964843,0 c -0.51654,0.05278 -1.04844,0.525289 -1.50391,1.079101 -0.60729,0.738414 -1.07843,1.620341 -1.19629,1.84082 -2.83675,5.307196 -7.76474,16.471059 -8.57226,18.830079 -0.0452,0.132032 -0.0917,0.350414 -0.004,0.397461 0.088,0.04705 0.24345,-0.112681 0.32812,-0.223633 1.51282,-1.982035 8.0568,-12.281672 10.89356,-17.588867 0.11787,-0.220473 0.58963,-1.102391 0.86621,-2.017579 0.27657,-0.915188 0.35773,-1.864225 -0.30371,-2.217773 -0.16536,-0.08839 -0.33564,-0.117202 -0.50782,-0.09961 z m -67.018554,6.600586 c -0.172302,0.01634 -0.334553,0.07832 -0.479492,0.197265 -0.579757,0.475795 -0.314063,1.389753 0.135742,2.233399 0.449804,0.843646 1.084566,1.617293 1.243164,1.810546 3.817631,4.651795 12.24579,13.476186 14.11621,15.125 0.1047,0.0923 0.28809,0.219559 0.36524,0.15625 0.0771,-0.06331 -0.0119,-0.267976 -0.082,-0.388671 C 103.51046,97.240332 96.499269,87.25238 92.68164,82.600585 92.523041,82.407332 91.889097,81.634068 91.149413,81.02832 90.594651,80.574008 89.980773,80.213688 89.463866,80.262695 Z m 77.072264,0 c -0.51691,-0.04901 -1.13078,0.311312 -1.68555,0.765625 -0.73968,0.605748 -1.37363,1.379012 -1.53222,1.572265 -3.81764,4.651796 -10.82883,14.639747 -12.08106,16.795899 -0.0701,0.120695 -0.15918,0.325362 -0.082,0.388671 0.0771,0.06331 0.26054,-0.06395 0.36524,-0.15625 1.87042,-1.648814 10.29858,-10.473206 14.11621,-15.125 0.15859,-0.193252 0.79335,-0.966901 1.24316,-1.810546 0.4498,-0.843646 0.7155,-1.757604 0.13574,-2.233399 -0.14494,-0.118949 -0.30719,-0.18093 -0.47949,-0.197265 z m -85.38281,8.391601 c -0.2749,0.01458 -0.514937,0.112669 -0.69336,0.330078 -0.475795,0.579758 -0.03739,1.425356 0.56836,2.165039 0.605748,0.739684 1.379012,1.373628 1.572265,1.532227 4.651795,3.817629 14.639747,10.82882 16.795899,12.08105 0.120694,0.0701 0.325362,0.15918 0.388671,0.082 0.06331,-0.0772 -0.06395,-0.26054 -0.15625,-0.36524 -1.648814,-1.87042 -10.473206,-10.29858 -15.125,-14.11621 -0.193253,-0.158598 -0.9669,-0.79336 -1.810546,-1.243164 -0.52728,-0.281128 -1.081874,-0.490129 -1.540039,-0.46582 z m 93.69336,0 c -0.45817,-0.02431 -1.01276,0.184692 -1.54004,0.46582 -0.84365,0.449804 -1.6173,1.084566 -1.81055,1.243164 -4.65179,3.817629 -13.47619,12.24579 -15.125,14.11621 -0.0923,0.1047 -0.21956,0.28809 -0.15625,0.36524 0.0633,0.0771 0.26798,-0.0119 0.38867,-0.082 2.15615,-1.25223 12.14411,-8.263421 16.7959,-12.08105 0.19325,-0.158599 0.96652,-0.792543 1.57227,-1.532227 0.60574,-0.739683 1.04415,-1.585281 0.56836,-2.165039 -0.17843,-0.217409 -0.41846,-0.315493 -0.69336,-0.330078 z M 74.660155,98.505859 c -0.395706,0.02767 -0.721664,0.172208 -0.898437,0.502929 -0.353548,0.661442 0.241077,1.405402 0.979492,2.012692 0.738415,0.6073 1.620333,1.07847 1.84082,1.19629 5.307196,2.83676 16.471059,7.76476 18.830079,8.57227 0.132052,0.0452 0.350415,0.0919 0.397461,0.004 0.04705,-0.088 -0.112673,-0.24347 -0.223633,-0.32813 C 93.603902,108.953 83.304265,102.40902 77.99707,99.572265 77.77659,99.454413 76.894679,98.982628 75.979491,98.706053 75.521897,98.567767 75.055861,98.478188 74.660155,98.505859 Z m 106.371095,0 c -0.31943,0.02 -0.66755,0.09648 -1.01074,0.200194 -0.91519,0.276575 -1.7971,0.748361 -2.01758,0.866212 -5.3072,2.836755 -15.60684,9.380735 -17.58887,10.893555 -0.11096,0.0847 -0.27068,0.24011 -0.22363,0.32812 0.0471,0.088 0.26541,0.0413 0.39746,-0.004 2.35902,-0.80752 13.52288,-5.73551 18.83008,-8.57226 0.22048,-0.11785 1.1024,-0.589 1.84082,-1.19629 0.73841,-0.60729 1.33303,-1.351255 0.97949,-2.012696 -0.22097,-0.413401 -0.67466,-0.536269 -1.20703,-0.502929 z M 70.562499,109.3916 c -0.677757,0.024 -1.250777,0.21758 -1.414062,0.75586 -0.217714,0.71771 0.510812,1.33066 1.353515,1.78223 0.842704,0.45157 1.798849,0.7419 2.038086,0.81445 5.758642,1.74686 17.669393,4.40161 20.140625,4.7334 0.138334,0.0185 0.361655,0.0222 0.390625,-0.0733 0.02897,-0.0955 -0.157859,-0.21596 -0.283203,-0.27734 -2.239086,-1.09707 -13.618311,-5.50704 -19.376953,-7.2539 -0.239235,-0.0726 -1.195901,-0.36237 -2.147461,-0.45508 -0.23789,-0.0232 -0.475253,-0.0344 -0.701172,-0.0264 z m 114.875001,0 c -0.22592,-0.008 -0.46328,0.003 -0.70117,0.0264 -0.95156,0.0927 -1.90823,0.3825 -2.14747,0.45507 -5.75865,1.74687 -17.13787,6.15683 -19.37695,7.25391 -0.12534,0.0614 -0.31218,0.18184 -0.2832,0.27734 0.029,0.0955 0.25229,0.0918 0.39062,0.0733 2.47123,-0.33179 14.38198,-2.98654 20.14063,-4.7334 0.23923,-0.0726 1.19538,-0.36289 2.03808,-0.81446 0.84271,-0.45156 1.57123,-1.06452 1.35352,-1.78222 -0.16329,-0.53828 -0.73631,-0.73184 -1.41406,-0.75586 z M 69.437499,120.80469 c -0.230971,0.004 -0.471143,0.0154 -0.708984,0.0391 -0.951364,0.0947 -1.859105,0.38154 -1.932618,1.12793 -0.07351,0.74639 0.761174,1.20589 1.675782,1.48437 0.914607,0.27849 1.909407,0.37589 2.158203,0.40039 5.988788,0.58985 18.18828,0.87057 20.676758,0.71387 0.1393,-0.009 0.35936,-0.0482 0.36914,-0.14746 0.0098,-0.0993 -0.198094,-0.18197 -0.333008,-0.21777 -2.410091,-0.63917 -14.430157,-2.74414 -20.418945,-3.33399 -0.186597,-0.0182 -0.793413,-0.0776 -1.486328,-0.0664 z m 117.125001,0 c -0.69292,-0.0112 -1.29973,0.0482 -1.48633,0.0664 -5.98879,0.58984 -18.00886,2.69482 -20.41895,3.33399 -0.13491,0.0358 -0.34279,0.11845 -0.333,0.21777 0.01,0.0993 0.22984,0.13869 0.36914,0.14746 2.48847,0.1567 14.68796,-0.12402 20.67675,-0.71387 0.24879,-0.0245 1.2436,-0.1219 2.15821,-0.40039 0.91461,-0.27848 1.74929,-0.73798 1.67578,-1.48437 -0.0735,-0.74639 -0.98125,-1.03323 -1.93262,-1.12793 -0.23784,-0.0237 -0.47801,-0.0353 -0.70898,-0.0391 z m -96.613282,10.58593 c -4.084082,-0.0432 -14.079147,0.23682 -19.319336,0.75293 -0.248797,0.0245 -1.243596,0.1219 -2.158203,0.40039 -0.914607,0.27849 -1.749294,0.73799 -1.675782,1.48438 0.07351,0.74639 0.981254,1.03322 1.932618,1.12793 0.951363,0.0947 1.946513,-0.003 2.195312,-0.0274 5.988788,-0.58984 18.008854,-2.69482 20.418945,-3.33399 0.134913,-0.0358 0.342788,-0.11845 0.333008,-0.21777 -0.0098,-0.0993 -0.229833,-0.13876 -0.36914,-0.14746 -0.31106,-0.0196 -0.773982,-0.0329 -1.357422,-0.0391 z m 76.101562,0 c -0.58344,0.006 -1.04636,0.0194 -1.35742,0.039 -0.1393,0.009 -0.35936,0.0482 -0.36914,0.14746 -0.01,0.0993 0.19809,0.182 0.333,0.21777 2.41009,0.63917 14.43016,2.74414 20.41895,3.33399 0.24879,0.0245 1.24395,0.12206 2.19531,0.0273 0.95137,-0.0947 1.85911,-0.38154 1.93262,-1.12793 0.0735,-0.74639 -0.76117,-1.20589 -1.67578,-1.48438 -0.91461,-0.27849 -1.90941,-0.37588 -2.15821,-0.40039 -5.24018,-0.51611 -15.23525,-0.79613 -19.31933,-0.75293 z m -73.133789,7.125 c -0.07675,-0.009 -0.16716,-0.003 -0.236328,0.007 -2.471232,0.33179 -14.381981,2.98653 -20.140625,4.7334 -0.239234,0.0726 -1.195383,0.36289 -2.038086,0.81445 -0.842703,0.45158 -1.57123,1.06453 -1.353515,1.78223 0.217712,0.7177 1.163674,0.82221 2.115234,0.72949 0.951561,-0.0927 1.908227,-0.38251 2.147461,-0.45507 5.758641,-1.74687 17.137867,-6.15684 19.376953,-7.25391 0.125339,-0.0614 0.312173,-0.18184 0.283203,-0.27734 -0.01448,-0.0478 -0.07755,-0.0714 -0.154297,-0.0801 z m 70.166019,0 c -0.0768,0.009 -0.13982,0.0323 -0.1543,0.0801 -0.029,0.0955 0.15786,0.21594 0.2832,0.27734 2.23909,1.09707 13.61831,5.50705 19.37695,7.25391 0.23923,0.0726 1.19591,0.36236 2.14747,0.45508 0.95156,0.0927 1.89752,-0.0118 2.11523,-0.72949 0.21771,-0.71771 -0.51081,-1.33066 -1.35352,-1.78223 -0.8427,-0.45157 -1.79885,-0.74188 -2.03808,-0.81445 -5.75864,-1.74687 -17.66939,-4.40161 -20.14063,-4.7334 -0.0692,-0.009 -0.15957,-0.0155 -0.23632,-0.007 z m -67.440433,6.64258 c -0.07698,0.006 -0.164442,0.0292 -0.230468,0.0518 -2.35902,0.80752 -13.522882,5.73551 -18.830079,8.57226 -0.22048,0.11785 -1.102406,0.589 -1.84082,1.19629 -0.738414,0.6073 -1.333041,1.35028 -0.979492,2.01172 0.353546,0.66145 1.302585,0.58029 2.217773,0.30371 0.915189,-0.27657 1.797098,-0.74836 2.017579,-0.86621 5.307193,-2.83675 15.606832,-9.38074 17.588867,-10.89355 0.11095,-0.0847 0.270678,-0.24012 0.223633,-0.32813 -0.02352,-0.0439 -0.09002,-0.0543 -0.166993,-0.0479 z m 64.714843,0 c -0.077,-0.006 -0.14347,0.004 -0.16699,0.0479 -0.047,0.088 0.11267,0.24345 0.22363,0.32813 1.98203,1.51281 12.28167,8.0568 17.58887,10.89355 0.22047,0.11788 1.10239,0.58964 2.01758,0.86621 0.91519,0.27658 1.86422,0.35773 2.21777,-0.30371 0.35354,-0.66144 -0.24108,-1.40443 -0.97949,-2.01172 -0.73842,-0.60729 -1.62035,-1.07844 -1.84082,-1.19629 -5.3072,-2.83676 -16.47106,-7.76474 -18.83008,-8.57226 -0.066,-0.0226 -0.15349,-0.0453 -0.23047,-0.0518 z m -60.642577,5.96777 c -0.09002,-0.005 -0.227838,0.0588 -0.318359,0.11133 -2.156152,1.25223 -12.144104,8.26342 -16.795899,12.08106 -0.193253,0.15859 -0.966517,0.79254 -1.572265,1.53222 -0.60575,0.73969 -1.044155,1.58528 -0.56836,2.16504 0.475795,0.57976 1.389753,0.31407 2.233399,-0.13574 0.843646,-0.4498 1.617294,-1.08457 1.810546,-1.24316 4.651794,-3.81763 13.476186,-12.24579 15.125,-14.11621 0.0923,-0.1047 0.21956,-0.28809 0.15625,-0.36524 -0.01583,-0.0193 -0.04031,-0.0279 -0.07031,-0.0293 z m 56.570307,0 c -0.03,0.001 -0.0545,0.01 -0.0703,0.0293 -0.0633,0.0771 0.064,0.26054 0.15625,0.36524 1.64882,1.87042 10.4732,10.29858 15.125,14.11621 0.19325,0.1586 0.9669,0.79335 1.81055,1.24316 0.84364,0.4498 1.7576,0.7155 2.2334,0.13574 0.47579,-0.57976 0.0374,-1.42535 -0.56836,-2.16504 -0.60575,-0.73968 -1.37902,-1.37363 -1.57227,-1.53222 -4.6518,-3.81764 -14.63975,-10.82883 -16.7959,-12.08106 -0.0905,-0.0526 -0.22834,-0.11563 -0.31836,-0.11133 z m -51.51562,5.07325 c -0.0891,0.0134 -0.21151,0.10265 -0.29004,0.17187 -1.87042,1.64881 -10.298579,10.4732 -14.11621,15.125 -0.158598,0.19325 -0.79336,0.9669 -1.243164,1.81055 -0.449804,0.84364 -0.7155,1.7576 -0.135742,2.2334 0.579758,0.47579 1.425355,0.0374 2.165039,-0.56836 0.739684,-0.60575 1.373628,-1.37902 1.532227,-1.57227 3.81763,-4.6518 10.82882,-14.63975 12.08105,-16.7959 0.0701,-0.12069 0.15918,-0.32536 0.082,-0.38867 -0.0193,-0.0159 -0.0455,-0.02 -0.0752,-0.0156 z m 46.46094,0 c -0.0297,-0.005 -0.0559,-2.1e-4 -0.0752,0.0156 -0.0771,0.0633 0.0119,0.26797 0.082,0.38867 1.25223,2.15615 8.26342,12.14411 12.08106,16.7959 0.15859,0.19325 0.79254,0.96651 1.53222,1.57226 0.73968,0.60574 1.58528,1.04416 2.16504,0.56836 0.57976,-0.47579 0.31407,-1.38975 -0.13574,-2.2334 -0.4498,-0.84364 -1.08457,-1.61729 -1.24316,-1.81054 -3.81763,-4.6518 -12.24579,-13.47619 -14.11621,-15.125 -0.0785,-0.0692 -0.20092,-0.15853 -0.29004,-0.17188 z m -40.5127,3.99023 c -0.0848,0.0305 -0.18846,0.14139 -0.25195,0.22461 -1.51281,1.98203 -8.0568,12.28167 -10.893555,17.58887 h -0.001 c -0.117851,0.22048 -0.588661,1.10239 -0.865235,2.01758 -0.276573,0.91518 -0.358706,1.86422 0.302735,2.21777 0.661443,0.35354 1.404425,-0.24108 2.011715,-0.97949 0.6073,-0.73842 1.07944,-1.62034 1.19727,-1.84082 2.83675,-5.3072 7.76473,-16.47106 8.57226,-18.83008 0.0452,-0.13206 0.0919,-0.35046 0.004,-0.39746 -0.022,-0.0117 -0.0479,-0.0111 -0.0762,-0.001 z m 34.56445,0 c -0.0282,-0.0101 -0.0542,-0.0108 -0.0762,0.001 -0.0878,0.0471 -0.0413,0.26541 0.004,0.39746 0.80753,2.35902 5.73551,13.52289 8.57227,18.83008 0.11785,0.22048 0.589,1.10241 1.19629,1.84082 0.6073,0.73842 1.35027,1.33304 2.01172,0.97949 0.66144,-0.35355 0.58028,-1.30258 0.30371,-2.21777 -0.27658,-0.91519 -0.74836,-1.7971 -0.86621,-2.01758 -2.83675,-5.3072 -9.38074,-15.60683 -10.89356,-17.58887 -0.0635,-0.0832 -0.16714,-0.19413 -0.25195,-0.2246 z m -27.87793,2.73926 c -0.0955,-0.029 -0.21596,0.15786 -0.27734,0.2832 -1.09707,2.23909 -5.50704,13.61831 -7.2539,19.37695 -0.0726,0.23924 -0.36237,1.19591 -0.45508,2.14747 -0.0927,0.95156 0.0118,1.89752 0.72949,2.11523 0.71771,0.21771 1.33066,-0.51081 1.78223,-1.35352 0.45157,-0.8427 0.7419,-1.79884 0.81445,-2.03808 1.74686,-5.75864 4.40161,-17.66939 4.7334,-20.14063 0.0185,-0.13833 0.0222,-0.36167 -0.0733,-0.39062 z m 21.19141,0 c -0.0955,0.029 -0.0918,0.25229 -0.0732,0.39062 0.33179,2.47123 2.98653,14.38198 4.7334,20.14063 0.0726,0.23923 0.36288,1.19538 0.81445,2.03808 0.45157,0.84271 1.06452,1.57123 1.78223,1.35352 0.71769,-0.21772 0.82221,-1.16368 0.72949,-2.11523 -0.0927,-0.95157 -0.38251,-1.90823 -0.45508,-2.14747 -1.74687,-5.75865 -6.15684,-17.13786 -7.25391,-19.37695 -0.0614,-0.12534 -0.18184,-0.3122 -0.27734,-0.2832 z m -14.17285,1.39551 c -0.0993,-0.01 -0.18197,0.19809 -0.21777,0.333 -0.63917,2.41009 -2.74414,14.43016 -3.33399,20.41895 -0.0243,0.24879 -0.12205,1.24395 -0.0273,2.19531 0.0947,0.95137 0.38154,1.85911 1.12793,1.93262 0.74639,0.0735 1.20589,-0.76117 1.48438,-1.67578 0.27849,-0.91461 0.37589,-1.90941 0.40039,-2.15821 0.58984,-5.98878 0.87057,-18.18828 0.71386,-20.67675 -0.009,-0.1393 -0.0482,-0.35934 -0.14746,-0.36914 z m 7.1543,0 c -0.0993,0.01 -0.13876,0.22983 -0.14746,0.36914 -0.15671,2.48847 0.12402,14.68796 0.71386,20.67675 0.0245,0.2488 0.1219,1.2436 0.40039,2.15821 0.27849,0.91461 0.73799,1.74929 1.48438,1.67578 0.74639,-0.0735 1.03322,-0.98125 1.12793,-1.93262 0.0947,-0.95136 -0.003,-1.94652 -0.0274,-2.19531 -0.58984,-5.98879 -2.69482,-18.00886 -3.33399,-20.41895 -0.0358,-0.13491 -0.11845,-0.34275 -0.21777,-0.333 z" />
    <path
       d="m 127.46239,122.54178 c -0.0666,0.007 -0.0922,0.0875 -0.10059,0.17235 -0.008,0.0848 2.6e-4,0.17359 0.002,0.19578 0.0526,0.53408 0.24032,1.60604 0.29732,1.82097 0.003,0.0121 0.0105,0.0306 0.0194,0.0297 0.009,-0.001 0.0123,-0.0205 0.0131,-0.0329 0.0139,-0.22192 -0.011,-1.30988 -0.0637,-1.84396 -0.002,-0.0222 -0.0109,-0.11091 -0.0357,-0.19247 -0.0249,-0.0816 -0.0658,-0.156 -0.13237,-0.14945 z m 1.07521,0 c -0.0666,-0.007 -0.10754,0.0679 -0.13237,0.14944 -0.0248,0.0816 -0.0335,0.17029 -0.0357,0.19247 -0.0526,0.53409 -0.0776,1.62205 -0.0637,1.84397 0.001,0.0125 0.005,0.032 0.0131,0.0329 0.009,0.001 0.0163,-0.0177 0.0194,-0.0297 0.057,-0.21494 0.24472,-1.28689 0.29732,-1.82098 0.002,-0.0222 0.0109,-0.11093 0.002,-0.19578 -0.008,-0.0848 -0.034,-0.16579 -0.10059,-0.17235 z m -2.10619,0.20631 c -0.008,-6e-5 -0.0155,10e-4 -0.0235,0.003 -0.064,0.0194 -0.0733,0.10378 -0.0651,0.18864 0.008,0.0849 0.0341,0.17018 0.0406,0.19151 0.15579,0.51356 0.54907,1.52837 0.64691,1.72805 0.005,0.0112 0.0162,0.0279 0.0247,0.0252 0.008,-0.002 0.008,-0.0225 0.007,-0.0349 -0.0296,-0.22039 -0.26634,-1.28259 -0.42213,-1.79615 -0.006,-0.0213 -0.0323,-0.10661 -0.0726,-0.18176 -0.0353,-0.0658 -0.0815,-0.12374 -0.13543,-0.12419 z m 3.13717,0 c -0.0539,4.6e-4 -0.10019,0.0584 -0.13543,0.1242 -0.0403,0.0751 -0.0662,0.16042 -0.0726,0.18175 -0.15579,0.51356 -0.39254,1.57577 -0.42213,1.79616 -0.001,0.0123 -0.002,0.0323 0.007,0.0349 0.008,0.002 0.0192,-0.0141 0.0248,-0.0252 0.0978,-0.19969 0.49113,-1.21449 0.64691,-1.72805 0.006,-0.0213 0.0323,-0.10665 0.0406,-0.19151 0.008,-0.0849 -10e-4,-0.16923 -0.0651,-0.18864 -0.008,-0.002 -0.0158,-0.004 -0.0235,-0.004 z m -4.10866,0.40602 c -0.0153,-0.002 -0.0306,10e-4 -0.0453,0.009 -0.059,0.0315 -0.0517,0.11617 -0.027,0.19779 0.0247,0.0816 0.0667,0.16026 0.0773,0.17992 0.25298,0.4733 0.83658,1.39183 0.97149,1.56859 0.008,0.01 0.0214,0.0242 0.0292,0.02 0.008,-0.004 0.004,-0.0237 -3.4e-4,-0.0354 -0.072,-0.21038 -0.5115,-1.20598 -0.76448,-1.67928 -0.0105,-0.0196 -0.0525,-0.0983 -0.10669,-0.16417 -0.0406,-0.0494 -0.088,-0.0915 -0.13412,-0.0962 z m 5.08015,0 c -0.046,0.004 -0.0935,0.0468 -0.13412,0.0962 -0.0541,0.0659 -0.0962,0.14451 -0.10668,0.16417 -0.25298,0.4733 -0.69247,1.4689 -0.76448,1.67928 -0.004,0.0118 -0.008,0.0312 -3.6e-4,0.0354 0.008,0.004 0.0217,-0.01 0.0293,-0.0199 0.13492,-0.17676 0.71851,-1.09529 0.9715,-1.56859 0.0105,-0.0196 0.0526,-0.0983 0.0772,-0.17992 0.0247,-0.0816 0.0319,-0.16626 -0.0271,-0.19779 -0.0147,-0.008 -0.0299,-0.0104 -0.0453,-0.009 z m -5.97675,0.58864 c -0.0153,0.001 -0.0299,0.007 -0.0427,0.0176 -0.0517,0.0425 -0.028,0.12394 0.0121,0.19918 0.0401,0.0752 0.0967,0.14423 0.11087,0.16146 0.34045,0.41485 1.09208,1.20182 1.25889,1.34886 0.009,0.008 0.0257,0.0196 0.0326,0.014 0.007,-0.006 -0.001,-0.0239 -0.007,-0.0346 -0.11168,-0.19229 -0.73694,-1.08302 -1.0774,-1.49787 -0.0142,-0.0172 -0.0707,-0.0862 -0.13664,-0.14022 -0.0495,-0.0405 -0.10422,-0.0726 -0.15032,-0.0683 z m 6.87335,0 c -0.0461,-0.005 -0.10084,0.0277 -0.15032,0.0683 -0.066,0.054 -0.1225,0.12298 -0.13664,0.14022 -0.34046,0.41485 -0.96572,1.30558 -1.0774,1.49787 -0.006,0.0108 -0.0142,0.029 -0.007,0.0347 0.007,0.006 0.0232,-0.006 0.0325,-0.014 0.16681,-0.14704 0.91844,-0.93401 1.25889,-1.34886 0.0142,-0.0172 0.0708,-0.0862 0.11087,-0.16146 0.0401,-0.0752 0.0638,-0.15675 0.0121,-0.19918 -0.013,-0.0106 -0.0274,-0.0161 -0.0428,-0.0176 z m -7.61449,0.74837 c -0.0245,0.002 -0.0459,0.0101 -0.0618,0.0295 -0.0425,0.0517 -0.004,0.12712 0.0507,0.19308 0.054,0.066 0.12298,0.1225 0.14022,0.13665 0.41485,0.34046 1.30558,0.96572 1.49787,1.07739 0.0108,0.006 0.029,0.0142 0.0347,0.007 0.006,-0.007 -0.006,-0.0233 -0.014,-0.0326 -0.14704,-0.1668 -0.93401,-0.91843 -1.34886,-1.25889 -0.0172,-0.0142 -0.0862,-0.0708 -0.16146,-0.11087 -0.047,-0.025 -0.0965,-0.0437 -0.13734,-0.0416 z m 8.35563,0 c -0.0409,-0.002 -0.0903,0.0165 -0.13734,0.0416 -0.0752,0.0401 -0.14423,0.0967 -0.16147,0.11087 -0.41485,0.34046 -1.20181,1.09209 -1.34885,1.25889 -0.008,0.009 -0.0196,0.0257 -0.0139,0.0326 0.006,0.007 0.0239,-0.001 0.0346,-0.007 0.19228,-0.11167 1.08302,-0.73693 1.49787,-1.07739 0.0172,-0.0142 0.0862,-0.0707 0.14021,-0.13665 0.054,-0.066 0.0931,-0.14137 0.0507,-0.19308 -0.0159,-0.0194 -0.0373,-0.0281 -0.0618,-0.0294 z m -8.93469,0.87857 c -0.0353,0.002 -0.0644,0.0153 -0.0801,0.0448 -0.0315,0.059 0.0215,0.12534 0.0874,0.17949 0.0659,0.0542 0.14451,0.0962 0.16417,0.10669 0.4733,0.25298 1.4689,0.69247 1.67928,0.76448 0.0118,0.004 0.0312,0.008 0.0354,3.5e-4 0.004,-0.008 -0.01,-0.0217 -0.0199,-0.0292 -0.17676,-0.13492 -1.09529,-0.71851 -1.56859,-0.9715 -0.0196,-0.0105 -0.0983,-0.0526 -0.17992,-0.0772 -0.0408,-0.0123 -0.0824,-0.0203 -0.11766,-0.0179 z m 9.48623,0 c -0.0285,0.002 -0.0595,0.009 -0.0901,0.0178 -0.0816,0.0246 -0.16026,0.0667 -0.17993,0.0772 -0.47329,0.25299 -1.39182,0.83658 -1.56858,0.9715 -0.01,0.008 -0.0242,0.0214 -0.02,0.0293 0.004,0.008 0.0237,0.004 0.0355,-3.5e-4 0.21038,-0.072 1.20598,-0.5115 1.67927,-0.76448 0.0197,-0.0105 0.0983,-0.0525 0.16417,-0.10668 0.0659,-0.0542 0.11888,-0.12051 0.0873,-0.1795 -0.0197,-0.0369 -0.0602,-0.0478 -0.10764,-0.0448 z m -9.85166,0.9708 c -0.0605,0.002 -0.11155,0.0194 -0.12611,0.0674 -0.0194,0.064 0.0455,0.11867 0.12071,0.15894 0.0751,0.0403 0.16042,0.0662 0.18175,0.0726 0.51356,0.15578 1.57577,0.39254 1.79616,0.42213 0.0123,0.002 0.0323,0.002 0.0349,-0.007 0.002,-0.008 -0.0141,-0.0192 -0.0252,-0.0247 -0.19969,-0.0978 -1.21449,-0.49113 -1.72805,-0.64691 -0.0213,-0.006 -0.10665,-0.0323 -0.19151,-0.0406 -0.0212,-0.002 -0.0424,-0.003 -0.0625,-0.002 z m 10.24461,0 c -0.0202,-5e-4 -0.0413,2.8e-4 -0.0625,0.002 -0.0849,0.008 -0.17017,0.0341 -0.19151,0.0406 -0.51356,0.15578 -1.52836,0.54907 -1.72805,0.64691 -0.0111,0.005 -0.0279,0.0162 -0.0252,0.0247 0.002,0.008 0.0225,0.008 0.0349,0.007 0.22039,-0.0296 1.2826,-0.26635 1.79616,-0.42213 0.0214,-0.006 0.1066,-0.0323 0.18175,-0.0726 0.0752,-0.0403 0.14013,-0.0949 0.12071,-0.15894 -0.0146,-0.048 -0.0657,-0.0653 -0.12611,-0.0674 z m -10.34494,1.01782 c -0.0206,3.1e-4 -0.042,10e-4 -0.0632,0.004 -0.0848,0.008 -0.1658,0.034 -0.17235,0.10059 -0.007,0.0666 0.0679,0.10754 0.14944,0.13238 0.0816,0.0249 0.17029,0.0335 0.19247,0.0357 0.53409,0.0526 1.62205,0.0776 1.84397,0.0637 0.0125,-0.001 0.032,-0.005 0.0329,-0.0132 0.001,-0.009 -0.0177,-0.0162 -0.0297,-0.0194 -0.21494,-0.057 -1.28689,-0.24472 -1.82098,-0.29733 -0.0166,-0.002 -0.0708,-0.007 -0.13255,-0.006 z m 10.44527,0 c -0.0618,-0.001 -0.11591,0.004 -0.13255,0.006 -0.53408,0.0526 -1.60604,0.24033 -1.82097,0.29733 -0.0121,0.003 -0.0306,0.0105 -0.0297,0.0194 0.001,0.009 0.0205,0.0123 0.0329,0.0131 0.22192,0.0139 1.30988,-0.011 1.84396,-0.0637 0.0222,-0.002 0.11091,-0.0109 0.19247,-0.0357 0.0816,-0.0249 0.15601,-0.0658 0.14945,-0.13238 -0.007,-0.0666 -0.0875,-0.0921 -0.17235,-0.10059 -0.0212,-0.002 -0.0427,-0.003 -0.0632,-0.004 z m -8.61603,0.94406 c -0.36422,-0.004 -1.25558,0.0211 -1.72291,0.0671 -0.0222,0.002 -0.1109,0.0109 -0.19247,0.0357 -0.0816,0.0248 -0.156,0.0658 -0.14944,0.13237 0.007,0.0666 0.0875,0.0922 0.17235,0.10059 0.0848,0.008 0.17359,-2.6e-4 0.19578,-0.002 0.53408,-0.0526 1.60604,-0.24032 1.82097,-0.29732 0.0121,-0.003 0.0306,-0.0105 0.0297,-0.0194 -0.001,-0.009 -0.0205,-0.0124 -0.0329,-0.0131 -0.0278,-0.002 -0.069,-0.003 -0.12105,-0.004 z m 6.78679,0 c -0.052,5e-4 -0.0933,0.001 -0.12106,0.004 -0.0124,0.001 -0.032,0.005 -0.0329,0.0131 -0.001,0.009 0.0177,0.0163 0.0297,0.0194 0.21493,0.057 1.28689,0.24473 1.82097,0.29733 0.0222,0.002 0.11094,0.0109 0.19578,0.002 0.0848,-0.008 0.1658,-0.034 0.17235,-0.10059 0.007,-0.0666 -0.0679,-0.10754 -0.14945,-0.13238 -0.0816,-0.0249 -0.17028,-0.0335 -0.19247,-0.0357 -0.46732,-0.0461 -1.35868,-0.071 -1.7229,-0.0671 z m -6.52212,0.63541 c -0.007,-0.001 -0.0149,-2.2e-4 -0.0211,5e-4 -0.22039,0.0296 -1.28259,0.26634 -1.79615,0.42213 -0.0213,0.006 -0.10661,0.0324 -0.18176,0.0726 -0.0751,0.0402 -0.14012,0.0949 -0.12071,0.15894 0.0194,0.064 0.10378,0.0733 0.18864,0.0651 0.0849,-0.008 0.17018,-0.0341 0.19151,-0.0406 0.51356,-0.15579 1.52837,-0.54907 1.72805,-0.64691 0.0112,-0.005 0.0278,-0.0162 0.0252,-0.0247 -0.002,-0.005 -0.007,-0.006 -0.0138,-0.007 z m 6.25745,0 c -0.007,0.001 -0.0125,0.003 -0.0137,0.007 -0.002,0.008 0.0141,0.0192 0.0252,0.0248 0.19968,0.0978 1.21449,0.49113 1.72805,0.64691 0.0214,0.006 0.10665,0.0323 0.19151,0.0406 0.0849,0.008 0.16922,-0.001 0.18864,-0.0651 0.0194,-0.064 -0.0456,-0.11866 -0.12071,-0.15894 -0.0752,-0.0402 -0.16042,-0.0662 -0.18176,-0.0726 -0.51356,-0.15579 -1.57577,-0.39254 -1.79615,-0.42213 -0.006,-0.001 -0.0143,-0.002 -0.0211,-5e-4 z m -6.01438,0.59239 c -0.007,5e-4 -0.0147,0.002 -0.0206,0.005 -0.21038,0.072 -1.20598,0.5115 -1.67927,0.76448 -0.0196,0.0105 -0.0983,0.0525 -0.16417,0.10669 -0.0658,0.0542 -0.11888,0.12042 -0.0874,0.17941 0.0316,0.059 0.11616,0.0517 0.19778,0.0271 0.0816,-0.0246 0.16027,-0.0667 0.17993,-0.0772 0.4733,-0.25299 1.39183,-0.83658 1.56858,-0.9715 0.01,-0.008 0.0241,-0.0214 0.0199,-0.0293 -0.002,-0.004 -0.008,-0.005 -0.0149,-0.004 z m 5.77131,0 c -0.007,-5e-4 -0.0128,3.6e-4 -0.0149,0.005 -0.004,0.008 0.0101,0.0217 0.02,0.0292 0.17676,0.13492 1.09529,0.71851 1.56858,0.9715 0.0196,0.0105 0.0983,0.0526 0.17993,0.0773 0.0816,0.0246 0.16626,0.0319 0.19779,-0.0271 0.0316,-0.059 -0.0215,-0.12525 -0.0874,-0.17941 -0.0659,-0.0542 -0.1445,-0.0962 -0.16416,-0.10669 -0.4733,-0.25298 -1.4689,-0.69246 -1.67928,-0.76448 -0.006,-0.002 -0.0137,-0.004 -0.0206,-0.005 z m -5.40814,0.53221 c -0.008,-4e-4 -0.0203,0.005 -0.0284,0.01 -0.19229,0.11168 -1.08302,0.73694 -1.49787,1.0774 -0.0173,0.0142 -0.0862,0.0707 -0.14022,0.13664 -0.054,0.066 -0.0931,0.14138 -0.0507,0.19308 0.0425,0.0517 0.12394,0.028 0.19917,-0.0121 0.0752,-0.0401 0.14423,-0.0967 0.16147,-0.11087 0.41485,-0.34045 1.20181,-1.09208 1.34885,-1.25889 0.008,-0.009 0.0196,-0.0257 0.0139,-0.0325 -0.001,-0.002 -0.004,-0.002 -0.006,-0.002 z m 5.04497,0 c -0.002,1.4e-4 -0.005,0.001 -0.006,0.002 -0.006,0.007 0.006,0.0233 0.0139,0.0326 0.14704,0.16681 0.93401,0.91844 1.34886,1.25889 0.0172,0.0142 0.0862,0.0708 0.16146,0.11087 0.0752,0.0401 0.15675,0.0638 0.19918,0.0121 0.0425,-0.0517 0.004,-0.12711 -0.0507,-0.19308 -0.054,-0.066 -0.12298,-0.1225 -0.14021,-0.13664 -0.41485,-0.34046 -1.30559,-0.96572 -1.49787,-1.0774 -0.008,-0.005 -0.0203,-0.0103 -0.0284,-0.01 z m -4.59419,0.45244 c -0.008,0.001 -0.0189,0.009 -0.0259,0.0154 -0.16681,0.14704 -0.91844,0.934 -1.25889,1.34885 -0.0142,0.0172 -0.0708,0.0862 -0.11087,0.16147 -0.0401,0.0752 -0.0638,0.15674 -0.0121,0.19917 0.0517,0.0425 0.12711,0.004 0.19308,-0.0507 0.066,-0.054 0.1225,-0.12299 0.13664,-0.14022 0.34046,-0.41485 0.96572,-1.30558 1.0774,-1.49787 0.006,-0.0108 0.0142,-0.029 0.007,-0.0346 -0.002,-0.002 -0.004,-0.002 -0.007,-0.002 z m 4.14341,0 c -0.002,-4e-4 -0.005,-2e-5 -0.007,0.002 -0.007,0.006 0.001,0.0239 0.007,0.0346 0.11168,0.19228 0.73694,1.08301 1.0774,1.49786 0.0142,0.0172 0.0707,0.0862 0.13664,0.14022 0.066,0.054 0.14138,0.0931 0.19308,0.0507 0.0517,-0.0425 0.028,-0.12394 -0.0121,-0.19918 -0.0401,-0.0752 -0.0967,-0.14423 -0.11087,-0.16147 -0.34045,-0.41485 -1.09208,-1.20181 -1.25889,-1.34885 -0.007,-0.006 -0.0179,-0.0142 -0.0258,-0.0153 z m -3.61294,0.35585 c -0.008,0.002 -0.0168,0.0126 -0.0224,0.02 -0.13492,0.17676 -0.71851,1.09529 -0.9715,1.56858 h -9e-5 c -0.0105,0.0196 -0.0525,0.0983 -0.0772,0.17993 -0.0246,0.0816 -0.032,0.16626 0.027,0.19779 0.059,0.0316 0.12525,-0.0215 0.17941,-0.0874 0.0542,-0.0659 0.0963,-0.1445 0.10677,-0.16416 0.25299,-0.4733 0.69247,-1.4689 0.76448,-1.67928 0.004,-0.0118 0.008,-0.0312 3.5e-4,-0.0354 -0.002,-0.001 -0.004,-0.001 -0.007,-9e-5 z m 3.08247,0 c -0.003,-10e-4 -0.005,-10e-4 -0.007,9e-5 -0.008,0.004 -0.003,0.0237 3.6e-4,0.0354 0.072,0.21038 0.51149,1.20598 0.76448,1.67928 0.0105,0.0197 0.0525,0.0983 0.10668,0.16416 0.0542,0.0658 0.12042,0.11888 0.17941,0.0873 0.059,-0.0315 0.0517,-0.11616 0.0271,-0.19778 -0.0247,-0.0816 -0.0667,-0.16027 -0.0772,-0.17993 -0.25298,-0.4733 -0.83658,-1.39182 -0.97149,-1.56858 -0.006,-0.007 -0.0149,-0.0173 -0.0224,-0.0201 z m -2.48617,0.24429 c -0.008,-0.002 -0.0192,0.0141 -0.0247,0.0252 -0.0978,0.19968 -0.49112,1.21449 -0.64691,1.72805 -0.006,0.0214 -0.0323,0.10665 -0.0406,0.19151 -0.008,0.0849 0.001,0.16922 0.0651,0.18864 0.064,0.0194 0.11867,-0.0456 0.15894,-0.12071 0.0403,-0.0752 0.0662,-0.16042 0.0726,-0.18176 0.15579,-0.51356 0.39254,-1.57577 0.42213,-1.79615 10e-4,-0.0123 0.002,-0.0323 -0.007,-0.0349 z m 1.88987,0 c -0.008,0.002 -0.008,0.0225 -0.007,0.0349 0.0296,0.22038 0.26634,1.28259 0.42213,1.79615 0.006,0.0213 0.0324,0.10661 0.0726,0.18176 0.0402,0.0751 0.0949,0.14012 0.15894,0.12071 0.064,-0.0194 0.0733,-0.10378 0.0651,-0.18864 -0.008,-0.0849 -0.0341,-0.17018 -0.0406,-0.19151 -0.15579,-0.51356 -0.54907,-1.52837 -0.64691,-1.72805 -0.005,-0.0112 -0.0162,-0.0279 -0.0247,-0.0252 z m -1.26395,0.12445 c -0.009,-0.001 -0.0162,0.0177 -0.0194,0.0297 -0.057,0.21493 -0.24472,1.28689 -0.29733,1.82097 -0.002,0.0222 -0.0109,0.11094 -0.002,0.19578 0.008,0.0848 0.034,0.1658 0.10059,0.17235 0.0666,0.007 0.10754,-0.0679 0.13238,-0.14945 0.0249,-0.0816 0.0335,-0.17028 0.0357,-0.19247 0.0526,-0.53408 0.0776,-1.62204 0.0637,-1.84396 -0.001,-0.0124 -0.004,-0.032 -0.0131,-0.0329 z m 0.63803,0 c -0.009,0.001 -0.0124,0.0205 -0.0131,0.0329 -0.014,0.22192 0.0111,1.30988 0.0637,1.84396 0.002,0.0222 0.0109,0.11091 0.0357,0.19247 0.0248,0.0816 0.0658,0.15601 0.13237,0.14945 0.0666,-0.007 0.0922,-0.0875 0.10059,-0.17235 0.008,-0.0848 -2.6e-4,-0.17359 -0.002,-0.19578 -0.0526,-0.53408 -0.24032,-1.60604 -0.29732,-1.82097 -0.003,-0.0121 -0.0105,-0.0306 -0.0194,-0.0297 z"
       style="fill:url(#radialGradient1018);fill-opacity:1;stroke:none;stroke-width:1;stroke-linecap:butt;stroke-linejoin:miter;stroke-miterlimit:4;stroke-dasharray:none;stroke-opacity:1;paint-order:markers stroke fill"
       id="path1014" />
  </g>
</svg>
