<?xml version="1.0" encoding="UTF-8" standalone="no"?>
<svg
   xmlns:dc="http://purl.org/dc/elements/1.1/"
   xmlns:cc="http://creativecommons.org/ns#"
   xmlns:rdf="http://www.w3.org/1999/02/22-rdf-syntax-ns#"
   xmlns:svg="http://www.w3.org/2000/svg"
   xmlns="http://www.w3.org/2000/svg"
   xmlns:xlink="http://www.w3.org/1999/xlink"
   xmlns:sodipodi="http://sodipodi.sourceforge.net/DTD/sodipodi-0.dtd"
   xmlns:inkscape="http://www.inkscape.org/namespaces/inkscape"
   width="256"
   height="256"
   viewBox="0 0 256 256"
   version="1.1"
   id="svg8"
   inkscape:version="1.0 (4035a4fb49, 2020-05-01)"
   sodipodi:docname="h53.svg">
  <defs
     id="defs2">
    <linearGradient
       inkscape:collect="always"
       id="linearGradient994">
      <stop
         style="stop-color:#ffffff;stop-opacity:0.94117647"
         offset="0"
         id="stop990" />
      <stop
         id="stop998"
         offset="0.64729315"
         style="stop-color:#ffffff;stop-opacity:0.94117647" />
      <stop
         style="stop-color:#ffff00;stop-opacity:1"
         offset="1"
         id="stop992" />
    </linearGradient>
    <radialGradient
       gradientTransform="matrix(0.5,0,0,0.5,63.999999,63.999999)"
       inkscape:collect="always"
       xlink:href="#linearGradient994"
       id="radialGradient996"
       cx="128"
       cy="128"
       fx="128"
       fy="128"
       r="122.41724"
       gradientUnits="userSpaceOnUse" />
    <radialGradient
       inkscape:collect="always"
       xlink:href="#linearGradient994"
       id="radialGradient1018"
       gradientUnits="userSpaceOnUse"
       cx="128"
       cy="128"
       fx="128"
       fy="128"
       r="122.41724"
       gradientTransform="matrix(0.19611815,0,0,0.19611815,102.89684,102.89687)" />
  </defs>
  <sodipodi:namedview
     borderlayer="true"
     id="base"
     pagecolor="#ffffff"
     bordercolor="#666666"
     borderopacity="1.0"
     inkscape:pageopacity="0.0"
     inkscape:pageshadow="2"
     inkscape:zoom="3.0113784"
     inkscape:cx="124.35042"
     inkscape:cy="100.18837"
     inkscape:document-units="px"
     inkscape:current-layer="layer1"
     inkscape:document-rotation="0"
     showgrid="true"
     units="px"
     inkscape:pagecheckerboard="true"
     inkscape:showpageshadow="false"
     showborder="true"
     inkscape:window-width="1920"
     inkscape:window-height="1017"
     inkscape:window-x="-8"
     inkscape:window-y="-8"
     inkscape:window-maximized="1">
    <inkscape:grid
       type="xygrid"
       id="grid878"
       originx="128"
       originy="128"
       enabled="false"
       snapvisiblegridlinesonly="false"
       visible="true" />
  </sodipodi:namedview>
  <metadata
     id="metadata5">
    <rdf:RDF>
      <cc:Work
         rdf:about="">
        <dc:format>image/svg+xml</dc:format>
        <dc:type
           rdf:resource="http://purl.org/dc/dcmitype/StillImage" />
        <dc:title />
        <cc:license
           rdf:resource="" />
      </cc:Work>
    </rdf:RDF>
  </metadata>
  <g
     inkscape:label="レイヤー 1"
     inkscape:groupmode="layer"
     id="layer1"
     style="display:inline">
    <path
       id="path882"
       style="opacity:0.333;fill:url(#radialGradient996);fill-opacity:1;stroke:none;stroke-width:1;stroke-linecap:butt;stroke-linejoin:miter;stroke-miterlimit:4;stroke-dasharray:none;stroke-opacity:1;paint-order:markers stroke fill"
       d="m 121.97168,66.795897 c -0.74639,0.07351 -1.03323,0.981254 -1.12793,1.932618 -0.0947,0.951363 0.003,1.946516 0.0273,2.195312 0.58984,5.988788 2.69481,18.008854 3.33398,20.418945 0.0358,0.13491 0.11846,0.34279 0.21777,0.333008 0.0993,-0.0098 0.1387,-0.22984 0.14746,-0.36914 0.15671,-2.488478 -0.12402,-14.68797 -0.71386,-20.676758 -0.0245,-0.248794 -0.1219,-1.243596 -0.40039,-2.158203 -0.27849,-0.914607 -0.73799,-1.749294 -1.48438,-1.675782 z m 12.05664,0 c -0.74639,-0.07351 -1.20589,0.761174 -1.48438,1.675782 -0.27849,0.914607 -0.37588,1.909407 -0.40039,2.158203 -0.58984,5.988788 -0.87057,18.18828 -0.71386,20.676758 0.009,0.1393 0.0481,0.359358 0.14746,0.36914 0.0993,0.0098 0.18199,-0.198094 0.21777,-0.333008 0.63917,-2.410091 2.74414,-14.430157 3.33398,-20.418945 0.0245,-0.248796 0.12207,-1.243949 0.0274,-2.195312 -0.0947,-0.951364 -0.38154,-1.859105 -1.12793,-1.932618 z m -23.61719,2.313477 c -0.0863,-7.5e-4 -0.17396,0.01185 -0.26367,0.03906 -0.7177,0.217713 -0.82221,1.163675 -0.72949,2.115235 0.0927,0.95156 0.38251,1.908225 0.45508,2.147461 1.74686,5.758641 6.15683,17.137867 7.2539,19.376953 0.0614,0.125341 0.18184,0.312172 0.27734,0.283203 0.0955,-0.02897 0.0918,-0.252291 0.0733,-0.390625 -0.33179,-2.471233 -2.98654,-14.381984 -4.7334,-20.140625 -0.0726,-0.239236 -0.36288,-1.195383 -0.81445,-2.038086 -0.39513,-0.737365 -0.91427,-1.387475 -1.51856,-1.392579 z m 35.17773,0 c -0.60428,0.0051 -1.12343,0.655213 -1.51855,1.392578 -0.45157,0.842704 -0.74188,1.798851 -0.81445,2.038086 -1.74687,5.758642 -4.40161,17.669393 -4.7334,20.140625 -0.0187,0.138327 -0.0222,0.361654 0.0732,0.390625 0.0955,0.02897 0.21594,-0.157862 0.27734,-0.283203 1.09708,-2.239086 5.50705,-13.618311 7.25391,-19.376953 0.0726,-0.239233 0.36236,-1.195901 0.45508,-2.147461 0.0927,-0.95156 -0.0118,-1.897521 -0.72949,-2.115234 -0.0897,-0.02721 -0.17735,-0.03979 -0.26368,-0.03907 z m -46.071283,4.552735 c -0.172178,-0.0176 -0.343429,0.01122 -0.508789,0.09961 -0.66144,0.353547 -0.579309,1.302585 -0.302735,2.217773 0.276575,0.915188 0.748363,1.797098 0.866212,2.017579 2.836755,5.307194 9.380735,15.606832 10.893555,17.588867 0.0847,0.110952 0.24011,0.270676 0.32812,0.223633 0.088,-0.04704 0.0413,-0.26541 -0.004,-0.397461 -0.80752,-2.359021 -5.73551,-13.522883 -8.57226,-18.830079 -0.11785,-0.22048 -0.589,-1.102406 -1.19629,-1.84082 -0.45547,-0.55381 -0.98737,-1.026323 -1.503907,-1.079101 z m 56.964843,0 c -0.51654,0.05278 -1.04844,0.525289 -1.50391,1.079101 -0.60729,0.738414 -1.07843,1.620341 -1.19629,1.84082 -2.83675,5.307196 -7.76474,16.471059 -8.57226,18.830079 -0.0452,0.132032 -0.0917,0.350414 -0.004,0.397461 0.088,0.04705 0.24345,-0.112681 0.32812,-0.223633 1.51282,-1.982035 8.0568,-12.281672 10.89356,-17.588867 0.11787,-0.220473 0.58963,-1.102391 0.86621,-2.017579 0.27657,-0.915188 0.35773,-1.864225 -0.30371,-2.217773 -0.16536,-0.08839 -0.33564,-0.117202 -0.50782,-0.09961 z m -67.018554,6.600586 c -0.172302,0.01634 -0.334553,0.07832 -0.479492,0.197265 -0.579757,0.475795 -0.314063,1.389753 0.135742,2.233399 0.449804,0.843646 1.084566,1.617293 1.243164,1.810546 3.817631,4.651795 12.24579,13.476186 14.11621,15.125 0.1047,0.0923 0.28809,0.219559 0.36524,0.15625 0.0771,-0.06331 -0.0119,-0.267976 -0.082,-0.388671 C 103.51046,97.240332 96.499269,87.25238 92.68164,82.600585 92.523041,82.407332 91.889097,81.634068 91.149413,81.02832 90.594651,80.574008 89.980773,80.213688 89.463866,80.262695 Z m 77.072264,0 c -0.51691,-0.04901 -1.13078,0.311312 -1.68555,0.765625 -0.73968,0.605748 -1.37363,1.379012 -1.53222,1.572265 -3.81764,4.651796 -10.82883,14.639747 -12.08106,16.795899 -0.0701,0.120695 -0.15918,0.325362 -0.082,0.388671 0.0771,0.06331 0.26054,-0.06395 0.36524,-0.15625 1.87042,-1.648814 10.29858,-10.473206 14.11621,-15.125 0.15859,-0.193252 0.79335,-0.966901 1.24316,-1.810546 0.4498,-0.843646 0.7155,-1.757604 0.13574,-2.233399 -0.14494,-0.118949 -0.30719,-0.18093 -0.47949,-0.197265 z m -85.38281,8.391601 c -0.2749,0.01458 -0.514937,0.112669 -0.69336,0.330078 -0.475795,0.579758 -0.03739,1.425356 0.56836,2.165039 0.605748,0.739684 1.379012,1.373628 1.572265,1.532227 4.651795,3.817629 14.639747,10.82882 16.795899,12.08105 0.120694,0.0701 0.325362,0.15918 0.388671,0.082 0.06331,-0.0772 -0.06395,-0.26054 -0.15625,-0.36524 -1.648814,-1.87042 -10.473206,-10.29858 -15.125,-14.11621 -0.193253,-0.158598 -0.9669,-0.79336 -1.810546,-1.243164 -0.52728,-0.281128 -1.081874,-0.490129 -1.540039,-0.46582 z m 93.69336,0 c -0.45817,-0.02431 -1.01276,0.184692 -1.54004,0.46582 -0.84365,0.449804 -1.6173,1.084566 -1.81055,1.243164 -4.65179,3.817629 -13.47619,12.24579 -15.125,14.11621 -0.0923,0.1047 -0.21956,0.28809 -0.15625,0.36524 0.0633,0.0771 0.26798,-0.0119 0.38867,-0.082 2.15615,-1.25223 12.14411,-8.263421 16.7959,-12.08105 0.19325,-0.158599 0.96652,-0.792543 1.57227,-1.532227 0.60574,-0.739683 1.04415,-1.585281 0.56836,-2.165039 -0.17843,-0.217409 -0.41846,-0.315493 -0.69336,-0.330078 z M 74.660155,98.505859 c -0.395706,0.02767 -0.721664,0.172208 -0.898437,0.502929 -0.353548,0.661442 0.241077,1.405402 0.979492,2.012692 0.738415,0.6073 1.620333,1.07847 1.84082,1.19629 5.307196,2.83676 16.471059,7.76476 18.830079,8.57227 0.132052,0.0452 0.350415,0.0919 0.397461,0.004 0.04705,-0.088 -0.112673,-0.24347 -0.223633,-0.32813 C 93.603902,108.953 83.304265,102.40902 77.99707,99.572265 77.77659,99.454413 76.894679,98.982628 75.979491,98.706053 75.521897,98.567767 75.055861,98.478188 74.660155,98.505859 Z m 106.371095,0 c -0.31943,0.02 -0.66755,0.09648 -1.01074,0.200194 -0.91519,0.276575 -1.7971,0.748361 -2.01758,0.866212 -5.3072,2.836755 -15.60684,9.380735 -17.58887,10.893555 -0.11096,0.0847 -0.27068,0.24011 -0.22363,0.32812 0.0471,0.088 0.26541,0.0413 0.39746,-0.004 2.35902,-0.80752 13.52288,-5.73551 18.83008,-8.57226 0.22048,-0.11785 1.1024,-0.589 1.84082,-1.19629 0.73841,-0.60729 1.33303,-1.351255 0.97949,-2.012696 -0.22097,-0.413401 -0.67466,-0.536269 -1.20703,-0.502929 z M 70.562499,109.3916 c -0.677757,0.024 -1.250777,0.21758 -1.414062,0.75586 -0.217714,0.71771 0.510812,1.33066 1.353515,1.78223 0.842704,0.45157 1.798849,0.7419 2.038086,0.81445 5.758642,1.74686 17.669393,4.40161 20.140625,4.7334 0.138334,0.0185 0.361655,0.0222 0.390625,-0.0733 0.02897,-0.0955 -0.157859,-0.21596 -0.283203,-0.27734 -2.239086,-1.09707 -13.618311,-5.50704 -19.376953,-7.2539 -0.239235,-0.0726 -1.195901,-0.36237 -2.147461,-0.45508 -0.23789,-0.0232 -0.475253,-0.0344 -0.701172,-0.0264 z m 114.875001,0 c -0.22592,-0.008 -0.46328,0.003 -0.70117,0.0264 -0.95156,0.0927 -1.90823,0.3825 -2.14747,0.45507 -5.75865,1.74687 -17.13787,6.15683 -19.37695,7.25391 -0.12534,0.0614 -0.31218,0.18184 -0.2832,0.27734 0.029,0.0955 0.25229,0.0918 0.39062,0.0733 2.47123,-0.33179 14.38198,-2.98654 20.14063,-4.7334 0.23923,-0.0726 1.19538,-0.36289 2.03808,-0.81446 0.84271,-0.45156 1.57123,-1.06452 1.35352,-1.78222 -0.16329,-0.53828 -0.73631,-0.73184 -1.41406,-0.75586 z M 69.437499,120.80469 c -0.230971,0.004 -0.471143,0.0154 -0.708984,0.0391 -0.951364,0.0947 -1.859105,0.38154 -1.932618,1.12793 -0.07351,0.74639 0.761174,1.20589 1.675782,1.48437 0.914607,0.27849 1.909407,0.37589 2.158203,0.40039 5.988788,0.58985 18.18828,0.87057 20.676758,0.71387 0.1393,-0.009 0.35936,-0.0482 0.36914,-0.14746 0.0098,-0.0993 -0.198094,-0.18197 -0.333008,-0.21777 -2.410091,-0.63917 -14.430157,-2.74414 -20.418945,-3.33399 -0.186597,-0.0182 -0.793413,-0.0776 -1.486328,-0.0664 z m 117.125001,0 c -0.69292,-0.0112 -1.29973,0.0482 -1.48633,0.0664 -5.98879,0.58984 -18.00886,2.69482 -20.41895,3.33399 -0.13491,0.0358 -0.34279,0.11845 -0.333,0.21777 0.01,0.0993 0.22984,0.13869 0.36914,0.14746 2.48847,0.1567 14.68796,-0.12402 20.67675,-0.71387 0.24879,-0.0245 1.2436,-0.1219 2.15821,-0.40039 0.91461,-0.27848 1.74929,-0.73798 1.67578,-1.48437 -0.0735,-0.74639 -0.98125,-1.03323 -1.93262,-1.12793 -0.23784,-0.0237 -0.47801,-0.0353 -0.70898,-0.0391 z m -96.613282,10.58593 c -4.084082,-0.0432 -14.079147,0.23682 -19.319336,0.75293 -0.248797,0.0245 -1.243596,0.1219 -2.158203,0.40039 -0.914607,0.27849 -1.749294,0.73799 -1.675782,1.48438 0.07351,0.74639 0.981254,1.03322 1.932618,1.12793 0.951363,0.0947 1.946513,-0.003 2.195312,-0.0274 5.988788,-0.58984 18.008854,-2.69482 20.418945,-3.33399 0.134913,-0.0358 0.342788,-0.11845 0.333008,-0.21777 -0.0098,-0.0993 -0.229833,-0.13876 -0.36914,-0.14746 -0.31106,-0.0196 -0.773982,-0.0329 -1.357422,-0.0391 z m 76.101562,0 c -0.58344,0.006 -1.04636,0.0194 -1.35742,0.039 -0.1393,0.009 -0.35936,0.0482 -0.36914,0.14746 -0.01,0.0993 0.19809,0.182 0.333,0.21777 2.41009,0.63917 14.43016,2.74414 20.41895,3.33399 0.24879,0.0245 1.24395,0.12206 2.19531,0.0273 0.95137,-0.0947 1.85911,-0.38154 1.93262,-1.12793 0.0735,-0.74639 -0.76117,-1.20589 -1.67578,-1.48438 -0.91461,-0.27849 -1.90941,-0.37588 -2.15821,-0.40039 -5.24018,-0.51611 -15.23525,-0.79613 -19.31933,-0.75293 z m -73.133789,7.125 c -0.07675,-0.009 -0.16716,-0.003 -0.236328,0.007 -2.471232,0.33179 -14.381981,2.98653 -20.140625,4.7334 -0.239234,0.0726 -1.195383,0.36289 -2.038086,0.81445 -0.842703,0.45158 -1.57123,1.06453 -1.353515,1.78223 0.217712,0.7177 1.163674,0.82221 2.115234,0.72949 0.951561,-0.0927 1.908227,-0.38251 2.147461,-0.45507 5.758641,-1.74687 17.137867,-6.15684 19.376953,-7.25391 0.125339,-0.0614 0.312173,-0.18184 0.283203,-0.27734 -0.01448,-0.0478 -0.07755,-0.0714 -0.154297,-0.0801 z m 70.166019,0 c -0.0768,0.009 -0.13982,0.0323 -0.1543,0.0801 -0.029,0.0955 0.15786,0.21594 0.2832,0.27734 2.23909,1.09707 13.61831,5.50705 19.37695,7.25391 0.23923,0.0726 1.19591,0.36236 2.14747,0.45508 0.95156,0.0927 1.89752,-0.0118 2.11523,-0.72949 0.21771,-0.71771 -0.51081,-1.33066 -1.35352,-1.78223 -0.8427,-0.45157 -1.79885,-0.74188 -2.03808,-0.81445 -5.75864,-1.74687 -17.66939,-4.40161 -20.14063,-4.7334 -0.0692,-0.009 -0.15957,-0.0155 -0.23632,-0.007 z m -67.440433,6.64258 c -0.07698,0.006 -0.164442,0.0292 -0.230468,0.0518 -2.35902,0.80752 -13.522882,5.73551 -18.830079,8.57226 -0.22048,0.11785 -1.102406,0.589 -1.84082,1.19629 -0.738414,0.6073 -1.333041,1.35028 -0.979492,2.01172 0.353546,0.66145 1.302585,0.58029 2.217773,0.30371 0.915189,-0.27657 1.797098,-0.74836 2.017579,-0.86621 5.307193,-2.83675 15.606832,-9.38074 17.588867,-10.89355 0.11095,-0.0847 0.270678,-0.24012 0.223633,-0.32813 -0.02352,-0.0439 -0.09002,-0.0543 -0.166993,-0.0479 z m 64.714843,0 c -0.077,-0.006 -0.14347,0.004 -0.16699,0.0479 -0.047,0.088 0.11267,0.24345 0.22363,0.32813 1.98203,1.51281 12.28167,8.0568 17.58887,10.89355 0.22047,0.11788 1.10239,0.58964 2.01758,0.86621 0.91519,0.27658 1.86422,0.35773 2.21777,-0.30371 0.35354,-0.66144 -0.24108,-1.40443 -0.97949,-2.01172 -0.73842,-0.60729 -1.62035,-1.07844 -1.84082,-1.19629 -5.3072,-2.83676 -16.47106,-7.76474 -18.83008,-8.57226 -0.066,-0.0226 -0.15349,-0.0453 -0.23047,-0.0518 z m -60.642577,5.96777 c -0.09002,-0.005 -0.227838,0.0588 -0.318359,0.11133 -2.156152,1.25223 -12.144104,8.26342 -16.795899,12.08106 -0.193253,0.15859 -0.966517,0.79254 -1.572265,1.53222 -0.60575,0.73969 -1.044155,1.58528 -0.56836,2.16504 0.475795,0.57976 1.389753,0.31407 2.233399,-0.13574 0.843646,-0.4498 1.617294,-1.08457 1.810546,-1.24316 4.651794,-3.81763 13.476186,-12.24579 15.125,-14.11621 0.0923,-0.1047 0.21956,-0.28809 0.15625,-0.36524 -0.01583,-0.0193 -0.04031,-0.0279 -0.07031,-0.0293 z m 56.570307,0 c -0.03,0.001 -0.0545,0.01 -0.0703,0.0293 -0.0633,0.0771 0.064,0.26054 0.15625,0.36524 1.64882,1.87042 10.4732,10.29858 15.125,14.11621 0.19325,0.1586 0.9669,0.79335 1.81055,1.24316 0.84364,0.4498 1.7576,0.7155 2.2334,0.13574 0.47579,-0.57976 0.0374,-1.42535 -0.56836,-2.16504 -0.60575,-0.73968 -1.37902,-1.37363 -1.57227,-1.53222 -4.6518,-3.81764 -14.63975,-10.82883 -16.7959,-12.08106 -0.0905,-0.0526 -0.22834,-0.11563 -0.31836,-0.11133 z m -51.51562,5.07325 c -0.0891,0.0134 -0.21151,0.10265 -0.29004,0.17187 -1.87042,1.64881 -10.298579,10.4732 -14.11621,15.125 -0.158598,0.19325 -0.79336,0.9669 -1.243164,1.81055 -0.449804,0.84364 -0.7155,1.7576 -0.135742,2.2334 0.579758,0.47579 1.425355,0.0374 2.165039,-0.56836 0.739684,-0.60575 1.373628,-1.37902 1.532227,-1.57227 3.81763,-4.6518 10.82882,-14.63975 12.08105,-16.7959 0.0701,-0.12069 0.15918,-0.32536 0.082,-0.38867 -0.0193,-0.0159 -0.0455,-0.02 -0.0752,-0.0156 z m 46.46094,0 c -0.0297,-0.005 -0.0559,-2.1e-4 -0.0752,0.0156 -0.0771,0.0633 0.0119,0.26797 0.082,0.38867 1.25223,2.15615 8.26342,12.14411 12.08106,16.7959 0.15859,0.19325 0.79254,0.96651 1.53222,1.57226 0.73968,0.60574 1.58528,1.04416 2.16504,0.56836 0.57976,-0.47579 0.31407,-1.38975 -0.13574,-2.2334 -0.4498,-0.84364 -1.08457,-1.61729 -1.24316,-1.81054 -3.81763,-4.6518 -12.24579,-13.47619 -14.11621,-15.125 -0.0785,-0.0692 -0.20092,-0.15853 -0.29004,-0.17188 z m -40.5127,3.99023 c -0.0848,0.0305 -0.18846,0.14139 -0.25195,0.22461 -1.51281,1.98203 -8.0568,12.28167 -10.893555,17.58887 h -0.001 c -0.117851,0.22048 -0.588661,1.10239 -0.865235,2.01758 -0.276573,0.91518 -0.358706,1.86422 0.302735,2.21777 0.661443,0.35354 1.404425,-0.24108 2.011715,-0.97949 0.6073,-0.73842 1.07944,-1.62034 1.19727,-1.84082 2.83675,-5.3072 7.76473,-16.47106 8.57226,-18.83008 0.0452,-0.13206 0.0919,-0.35046 0.004,-0.39746 -0.022,-0.0117 -0.0479,-0.0111 -0.0762,-0.001 z m 34.56445,0 c -0.0282,-0.0101 -0.0542,-0.0108 -0.0762,0.001 -0.0878,0.0471 -0.0413,0.26541 0.004,0.39746 0.80753,2.35902 5.73551,13.52289 8.57227,18.83008 0.11785,0.22048 0.589,1.10241 1.19629,1.84082 0.6073,0.73842 1.35027,1.33304 2.01172,0.97949 0.66144,-0.35355 0.58028,-1.30258 0.30371,-2.21777 -0.27658,-0.91519 -0.74836,-1.7971 -0.86621,-2.01758 -2.83675,-5.3072 -9.38074,-15.60683 -10.89356,-17.58887 -0.0635,-0.0832 -0.16714,-0.19413 -0.25195,-0.2246 z m -27.87793,2.73926 c -0.0955,-0.029 -0.21596,0.15786 -0.27734,0.2832 -1.09707,2.23909 -5.50704,13.61831 -7.2539,19.37695 -0.0726,0.23924 -0.36237,1.19591 -0.45508,2.14747 -0.0927,0.95156 0.0118,1.89752 0.72949,2.11523 0.71771,0.21771 1.33066,-0.51081 1.78223,-1.35352 0.45157,-0.8427 0.7419,-1.79884 0.81445,-2.03808 1.74686,-5.75864 4.40161,-17.66939 4.7334,-20.14063 0.0185,-0.13833 0.0222,-0.36167 -0.0733,-0.39062 z m 21.19141,0 c -0.0955,0.029 -0.0918,0.25229 -0.0732,0.39062 0.33179,2.47123 2.98653,14.38198 4.7334,20.14063 0.0726,0.23923 0.36288,1.19538 0.81445,2.03808 0.45157,0.84271 1.06452,1.57123 1.78223,1.35352 0.71769,-0.21772 0.82221,-1.16368 0.72949,-2.11523 -0.0927,-0.95157 -0.38251,-1.90823 -0.45508,-2.14747 -1.74687,-5.75865 -6.15684,-17.13786 -7.25391,-19.37695 -0.0614,-0.12534 -0.18184,-0.3122 -0.27734,-0.2832 z m -14.17285,1.39551 c -0.0993,-0.01 -0.18197,0.19809 -0.21777,0.333 -0.63917,2.41009 -2.74414,14.43016 -3.33399,20.41895 -0.0243,0.24879 -0.12205,1.24395 -0.0273,2.19531 0.0947,0.95137 0.38154,1.85911 1.12793,1.93262 0.74639,0.0735 1.20589,-0.76117 1.48438,-1.67578 0.27849,-0.91461 0.37589,-1.90941 0.40039,-2.15821 0.58984,-5.98878 0.87057,-18.18828 0.71386,-20.67675 -0.009,-0.1393 -0.0482,-0.35934 -0.14746,-0.36914 z m 7.1543,0 c -0.0993,0.01 -0.13876,0.22983 -0.14746,0.36914 -0.15671,2.48847 0.12402,14.68796 0.71386,20.67675 0.0245,0.2488 0.1219,1.2436 0.40039,2.15821 0.27849,0.91461 0.73799,1.74929 1.48438,1.67578 0.74639,-0.0735 1.03322,-0.98125 1.12793,-1.93262 0.0947,-0.95136 -0.003,-1.94652 -0.0274,-2.19531 -0.58984,-5.98879 -2.69482,-18.00886 -3.33399,-20.41895 -0.0358,-0.13491 -0.11845,-0.34275 -0.21777,-0.333 z" />
    <path
       d="m 125.63544,103.99353 c -0.29277,0.0288 -0.40527,0.38488 -0.44242,0.75803 -0.0372,0.37317 10e-4,0.76351 0.011,0.86108 0.23136,2.34903 1.05701,7.06373 1.30771,8.00906 0.0131,0.053 0.0464,0.13437 0.0853,0.13063 0.0389,-0.004 0.0543,-0.0902 0.0578,-0.1447 0.0614,-0.97605 -0.0485,-5.76115 -0.27999,-8.11018 -0.009,-0.0976 -0.0477,-0.48778 -0.15702,-0.84652 -0.1093,-0.35874 -0.28947,-0.68612 -0.58221,-0.65729 z m 4.72904,0 c -0.29275,-0.0288 -0.47299,0.29855 -0.58222,0.65729 -0.10929,0.35874 -0.14734,0.74895 -0.15701,0.84652 -0.23135,2.34903 -0.34146,7.13413 -0.27999,8.11018 0.005,0.0547 0.0198,0.14096 0.0578,0.1447 0.0389,0.004 0.0714,-0.0776 0.0853,-0.13063 0.2507,-0.94533 1.07636,-5.66003 1.3077,-8.00906 0.009,-0.0976 0.0479,-0.48791 0.011,-0.86108 -0.0371,-0.37315 -0.14954,-0.7292 -0.44242,-0.75803 z m -9.26352,0.90742 c -0.0339,-2.9e-4 -0.0682,0.004 -0.10336,0.0154 -0.28151,0.0853 -0.3225,0.45645 -0.28612,0.82968 0.0363,0.37324 0.14998,0.74847 0.17856,0.84231 0.68518,2.25875 2.41494,6.72209 2.84526,7.60035 0.0239,0.0492 0.0712,0.12249 0.10886,0.11105 0.0374,-0.011 0.0361,-0.099 0.0288,-0.15327 -0.1302,-0.96933 -1.17145,-5.64115 -1.85663,-7.8999 -0.0284,-0.0939 -0.14228,-0.46887 -0.31946,-0.7994 -0.15504,-0.28922 -0.35861,-0.54423 -0.59563,-0.54623 z m 13.79798,0 c -0.23702,0.002 -0.44064,0.25701 -0.59563,0.54623 -0.17702,0.33053 -0.29099,0.70557 -0.31944,0.7994 -0.6852,2.25875 -1.72648,6.93057 -1.85662,7.8999 -0.007,0.0543 -0.009,0.14184 0.0288,0.15327 0.0374,0.011 0.0847,-0.062 0.10885,-0.11105 0.43032,-0.87826 2.16008,-5.3416 2.84525,-7.60035 0.0286,-0.0939 0.14207,-0.46907 0.17857,-0.84231 0.0362,-0.37323 -0.005,-0.74429 -0.28615,-0.82968 -0.0351,-0.011 -0.0695,-0.0154 -0.10335,-0.0154 z m -18.07081,1.78576 c -0.0675,-0.007 -0.13481,0.004 -0.19946,0.0391 -0.25945,0.13876 -0.22724,0.51092 -0.11876,0.8699 0.10842,0.35896 0.29354,0.70488 0.33977,0.79135 1.11268,2.08168 3.67946,6.12158 4.27285,6.89899 0.0332,0.0435 0.0941,0.10622 0.12865,0.0877 0.0345,-0.0176 0.0154,-0.10402 -0.002,-0.15592 -0.31673,-0.9253 -2.24968,-5.30417 -3.36235,-7.38583 -0.0462,-0.0864 -0.23104,-0.43241 -0.46922,-0.72206 -0.17857,-0.21727 -0.38729,-0.40255 -0.58989,-0.42324 z m 22.34367,0 c -0.20255,0.0198 -0.41124,0.20606 -0.58989,0.42324 -0.23819,0.28965 -0.423,0.63557 -0.46923,0.72206 -1.11266,2.08166 -3.04561,6.46053 -3.36235,7.38583 -0.0176,0.0519 -0.0358,0.13745 -0.001,0.15592 0.0345,0.0176 0.0954,-0.0442 0.12865,-0.0877 0.59338,-0.77741 3.16016,-4.81731 4.27285,-6.89898 0.0462,-0.0864 0.23128,-0.4324 0.33976,-0.79136 0.10841,-0.35898 0.14031,-0.73122 -0.11919,-0.8699 -0.0649,-0.0348 -0.13172,-0.046 -0.19924,-0.0391 z m -26.28712,2.58898 c -0.0675,0.007 -0.13128,0.0308 -0.18803,0.0774 -0.22738,0.1867 -0.12315,0.54511 0.0532,0.87601 0.17636,0.3309 0.42541,0.63436 0.48763,0.71016 1.49739,1.82461 4.80323,5.28585 5.53687,5.93257 0.0411,0.0362 0.11304,0.0862 0.14317,0.0614 0.0303,-0.0249 -0.004,-0.10512 -0.0322,-0.1524 -0.49117,-0.84573 -3.24121,-4.76336 -4.73863,-6.58797 -0.0623,-0.0759 -0.31087,-0.3791 -0.601,-0.61669 -0.21771,-0.17813 -0.45838,-0.31953 -0.66114,-0.30031 z m 30.23054,0 c -0.20276,-0.0198 -0.44352,0.12205 -0.66111,0.3003 -0.29013,0.2376 -0.53879,0.5409 -0.601,0.6167 -1.49742,1.82461 -4.24746,5.74224 -4.73863,6.58797 -0.0275,0.0473 -0.0625,0.12755 -0.0321,0.1524 0.0303,0.0249 0.10225,-0.025 0.14316,-0.0614 0.73364,-0.64671 4.03948,-4.10796 5.53688,-5.93256 0.0623,-0.0759 0.31119,-0.37926 0.48763,-0.71016 0.17637,-0.3309 0.28063,-0.68941 0.0532,-0.87602 -0.057,-0.0466 -0.12051,-0.071 -0.18803,-0.0774 z m -33.49022,3.29149 c -0.10775,0.007 -0.20188,0.0442 -0.27196,0.12954 -0.18671,0.2274 -0.0154,0.55907 0.22292,0.8492 0.2376,0.29013 0.5409,0.53878 0.6167,0.60099 1.82461,1.49742 5.74223,4.24746 6.58797,4.73863 0.0472,0.0275 0.12755,0.0625 0.1524,0.0321 0.0249,-0.0303 -0.0251,-0.10226 -0.0614,-0.14315 -0.64672,-0.73365 -4.10796,-4.03949 -5.93257,-5.53689 -0.0759,-0.0623 -0.37926,-0.31119 -0.71015,-0.48763 -0.20672,-0.11017 -0.42437,-0.1922 -0.60406,-0.18275 z m 36.74993,0 c -0.17967,-0.009 -0.39723,0.0724 -0.60406,0.18275 -0.3309,0.17637 -0.63436,0.42542 -0.71016,0.48764 -1.8246,1.49739 -5.28585,4.80323 -5.93257,5.53687 -0.0362,0.0411 -0.0862,0.11304 -0.0614,0.14316 0.0249,0.0304 0.10512,-0.004 0.1524,-0.032 0.84571,-0.49117 4.76336,-3.24121 6.58797,-4.73863 0.0759,-0.0622 0.3791,-0.31086 0.61669,-0.60099 0.2376,-0.29013 0.40954,-0.6218 0.22293,-0.84921 -0.0699,-0.0853 -0.16406,-0.12381 -0.27196,-0.12953 z m -39.29679,3.86415 c -0.15525,0.011 -0.28307,0.0675 -0.3524,0.19727 -0.13877,0.25942 0.0946,0.55125 0.38418,0.78943 0.28965,0.23821 0.63556,0.42302 0.72206,0.46925 2.08166,1.11266 6.46052,3.04561 7.38583,3.36235 0.0519,0.0176 0.13744,0.0361 0.15591,0.002 0.0176,-0.0346 -0.0442,-0.0954 -0.0877,-0.12865 -0.77741,-0.59339 -4.81731,-3.16017 -6.89899,-4.27286 -0.0864,-0.0462 -0.43239,-0.23127 -0.79135,-0.33976 -0.17945,-0.0543 -0.36228,-0.0893 -0.5175,-0.0785 z m 41.7226,0 c -0.12535,0.009 -0.26184,0.0378 -0.39645,0.0785 -0.35896,0.10842 -0.70488,0.29354 -0.79138,0.33976 -2.08165,1.11269 -6.12155,3.67947 -6.89899,4.27286 -0.0435,0.0332 -0.10621,0.0941 -0.0877,0.12865 0.0176,0.0345 0.10402,0.0154 0.15592,-10e-4 0.92529,-0.31674 5.30417,-2.24969 7.38583,-3.36235 0.0864,-0.0462 0.43241,-0.23104 0.72203,-0.46923 0.28965,-0.2382 0.52289,-0.53003 0.38421,-0.78946 -0.0866,-0.16207 -0.26464,-0.21023 -0.47345,-0.19726 z m -43.32984,4.26978 c -0.26585,0.009 -0.49062,0.0853 -0.55466,0.29646 -0.0853,0.28153 0.20034,0.52193 0.53091,0.69905 0.33053,0.17725 0.70556,0.29101 0.7994,0.31947 2.25875,0.68518 6.93057,1.72648 7.89989,1.85662 0.0543,0.007 0.14184,0.009 0.15328,-0.0288 0.011,-0.0373 -0.062,-0.0847 -0.11105,-0.10885 -0.87826,-0.43033 -5.3416,-2.16008 -7.60036,-2.84526 -0.0939,-0.0283 -0.46907,-0.14206 -0.8423,-0.17856 -0.0932,-0.009 -0.18649,-0.0132 -0.27502,-0.011 z m 45.05812,0 c -0.0886,-0.002 -0.18164,0.002 -0.27502,0.011 -0.37323,0.0363 -0.74846,0.14998 -0.8423,0.17857 -2.25875,0.68518 -6.7221,2.41493 -7.60036,2.84526 -0.049,0.0239 -0.12249,0.0712 -0.11105,0.10885 0.011,0.0374 0.099,0.0361 0.15328,0.0288 0.9693,-0.13019 5.64114,-1.17145 7.89989,-1.85663 0.0939,-0.0284 0.46888,-0.14228 0.79941,-0.31946 0.33055,-0.17703 0.61629,-0.41754 0.53091,-0.69905 -0.064,-0.21112 -0.28881,-0.28705 -0.55466,-0.29646 z m -45.49939,4.47662 c -0.0906,0.002 -0.18473,0.007 -0.2781,0.0154 -0.37315,0.0371 -0.72921,0.14953 -0.75804,0.44239 -0.0288,0.29277 0.29855,0.47301 0.65729,0.58224 0.35875,0.1093 0.74896,0.14734 0.84653,0.15702 2.34903,0.23136 7.13412,0.34148 8.11018,0.28001 0.0548,-0.005 0.14096,-0.0198 0.14469,-0.0578 0.004,-0.0389 -0.0776,-0.0714 -0.13062,-0.0853 -0.94533,-0.25072 -5.66004,-1.07636 -8.00906,-1.30773 -0.0732,-0.007 -0.3112,-0.0303 -0.58298,-0.026 z m 45.94067,0 c -0.27179,-0.004 -0.5098,0.0198 -0.58299,0.0259 -2.34902,0.23137 -7.06372,1.057 -8.00905,1.30772 -0.053,0.0132 -0.13437,0.0464 -0.13063,0.0853 0.005,0.0389 0.0902,0.0543 0.1447,0.0578 0.97608,0.0614 5.76117,-0.0486 8.11018,-0.28002 0.0976,-0.009 0.48778,-0.0477 0.84652,-0.15701 0.35877,-0.1093 0.68615,-0.28947 0.65731,-0.58222 -0.0288,-0.29277 -0.38488,-0.40528 -0.75803,-0.44242 -0.0932,-0.009 -0.18758,-0.0132 -0.2781,-0.0154 z m -37.89524,4.15219 c -1.60192,-0.0176 -5.52235,0.0928 -7.57775,0.29532 -0.0976,0.009 -0.48778,0.0477 -0.84653,0.15702 -0.35874,0.10929 -0.68612,0.28946 -0.65729,0.58221 0.0288,0.29277 0.38489,0.40527 0.75804,0.44242 0.37316,0.0371 0.76351,-0.002 0.86108,-0.011 2.34902,-0.23135 7.06372,-1.057 8.00906,-1.3077 0.053,-0.0132 0.13437,-0.0464 0.13063,-0.0853 -0.004,-0.0389 -0.0902,-0.0546 -0.14471,-0.0578 -0.12204,-0.009 -0.30356,-0.0131 -0.53242,-0.0154 z m 29.84981,0 c -0.22886,0.002 -0.41042,0.007 -0.53245,0.0154 -0.0545,0.005 -0.14097,0.0198 -0.1447,0.0578 -0.004,0.0389 0.0776,0.0714 0.13063,0.0853 0.94533,0.2507 5.66003,1.07636 8.00905,1.3077 0.0976,0.009 0.48792,0.0479 0.86109,0.011 0.37314,-0.0371 0.7292,-0.14954 0.75804,-0.44242 0.0288,-0.29276 -0.29856,-0.47298 -0.65732,-0.58221 -0.35874,-0.1093 -0.74893,-0.14734 -0.84653,-0.15701 -2.05537,-0.20255 -5.9758,-0.31228 -7.57772,-0.29532 z m -28.68574,2.79468 c -0.0301,-0.004 -0.0655,-5e-4 -0.0926,0.002 -0.96932,0.13018 -5.64114,1.17142 -7.89989,1.8566 -0.0939,0.0284 -0.46887,0.14228 -0.7994,0.31946 -0.33055,0.17704 -0.6163,0.41755 -0.53091,0.69906 0.0853,0.2815 0.45645,0.3225 0.82968,0.28612 0.37323,-0.0362 0.74847,-0.14997 0.8423,-0.17857 2.25876,-0.68517 6.7221,-2.41492 7.60036,-2.84523 0.0492,-0.0241 0.12249,-0.0712 0.11105,-0.10886 -0.007,-0.0197 -0.0303,-0.028 -0.0604,-0.0314 z m 27.52166,0 c -0.0301,0.005 -0.0547,0.0132 -0.0605,0.0314 -0.011,0.0374 0.062,0.0847 0.11105,0.10885 0.87826,0.43032 5.3416,2.16007 7.60036,2.84525 0.0939,0.0286 0.46907,0.14207 0.8423,0.17857 0.37323,0.0362 0.74429,-0.005 0.82968,-0.28615 0.0853,-0.2815 -0.20033,-0.52191 -0.5309,-0.69905 -0.33053,-0.17703 -0.70557,-0.29098 -0.79941,-0.31945 -2.25875,-0.6852 -6.93059,-1.72647 -7.89989,-1.85662 -0.027,-0.005 -0.0627,-0.006 -0.0926,-0.002 z m -26.45258,2.60546 c -0.0301,0.002 -0.0644,0.011 -0.0904,0.0198 -0.9253,0.31673 -5.30417,2.24966 -7.38583,3.36235 -0.0864,0.0462 -0.43241,0.23104 -0.72206,0.46922 -0.28962,0.23821 -0.52286,0.52964 -0.38418,0.78909 0.13876,0.25943 0.51092,0.22761 0.8699,0.11919 0.35896,-0.10841 0.70488,-0.29354 0.79135,-0.33976 2.08168,-1.11269 6.12158,-3.67947 6.89899,-4.27285 0.0435,-0.0333 0.10622,-0.0941 0.0877,-0.12865 -0.009,-0.0176 -0.0354,-0.022 -0.0655,-0.0198 z m 25.38351,0 c -0.0301,-0.002 -0.0563,0.001 -0.0655,0.0198 -0.0176,0.0345 0.0442,0.0954 0.0877,0.12864 0.77744,0.59339 4.81734,3.16017 6.89899,4.27286 0.0864,0.0462 0.43242,0.23128 0.79138,0.33976 0.35898,0.10841 0.73123,0.1403 0.8699,-0.11919 0.13877,-0.25945 -0.0946,-0.55088 -0.3842,-0.78908 -0.28963,-0.2382 -0.63555,-0.423 -0.72204,-0.46923 -2.08166,-1.11269 -6.46053,-3.04562 -7.38583,-3.36236 -0.026,-0.009 -0.0602,-0.0176 -0.0904,-0.0197 z m -23.78623,2.34078 c -0.0354,-0.001 -0.0893,0.0231 -0.1249,0.0438 -0.84574,0.49117 -4.76337,3.2412 -6.58797,4.73863 -0.0759,0.0622 -0.37911,0.31086 -0.6167,0.60099 -0.2376,0.29013 -0.40957,0.6218 -0.22293,0.84921 0.18671,0.22739 0.54512,0.12315 0.87602,-0.0532 0.3309,-0.17638 0.63436,-0.42543 0.71016,-0.48763 1.82461,-1.4974 5.28585,-4.80324 5.93256,-5.53689 0.0362,-0.0411 0.0862,-0.11303 0.0614,-0.14316 -0.007,-0.007 -0.0154,-0.011 -0.0275,-0.011 z m 22.18894,0 c -0.011,5e-4 -0.022,0.005 -0.0275,0.011 -0.0248,0.0303 0.025,0.10226 0.0614,0.14316 0.64671,0.73365 4.10796,4.03949 5.93256,5.53688 0.0759,0.0623 0.37924,0.3112 0.71017,0.48763 0.33089,0.17638 0.68939,0.28063 0.87601,0.0532 0.18671,-0.22742 0.0154,-0.55909 -0.22292,-0.84922 -0.23759,-0.29012 -0.54092,-0.53878 -0.6167,-0.60099 -1.8246,-1.49742 -5.74226,-4.24746 -6.58797,-4.73863 -0.0354,-0.0197 -0.0895,-0.0453 -0.12491,-0.0438 z m -20.20631,1.98991 c -0.0349,0.004 -0.0829,0.0402 -0.11369,0.0675 -0.73364,0.64671 -4.03949,4.10796 -5.53688,5.93256 -0.0623,0.0759 -0.3112,0.37925 -0.48763,0.71016 -0.17637,0.3309 -0.28063,0.68941 -0.0532,0.87603 0.2274,0.1867 0.55907,0.0154 0.8492,-0.22293 0.29013,-0.23759 0.53879,-0.54091 0.60099,-0.6167 1.49743,-1.8246 4.24746,-5.74226 4.73864,-6.58797 0.0275,-0.0472 0.0625,-0.12755 0.032,-0.1524 -0.006,-0.006 -0.0176,-0.009 -0.0294,-0.006 z m 18.22368,0 c -0.011,-0.002 -0.022,-8e-5 -0.0294,0.006 -0.0303,0.0248 0.005,0.10512 0.0322,0.1524 0.49118,0.84572 3.24121,4.76335 4.73864,6.58795 0.0623,0.0759 0.31086,0.37911 0.60099,0.6167 0.29013,0.2376 0.6218,0.40956 0.84921,0.22294 0.22739,-0.1867 0.12315,-0.54511 -0.0532,-0.87603 -0.17637,-0.33091 -0.42542,-0.63436 -0.48763,-0.71016 -1.4974,-1.82461 -4.80324,-5.28584 -5.53688,-5.93257 -0.0307,-0.0271 -0.0787,-0.0623 -0.1137,-0.0675 z m -15.89055,1.56511 c -0.0332,0.011 -0.0739,0.0554 -0.0987,0.0882 -0.59339,0.77744 -3.16017,4.81734 -4.27285,6.899 h -4e-4 c -0.0462,0.0864 -0.23088,0.43241 -0.33937,0.79137 -0.10841,0.35899 -0.14074,0.73123 0.11876,0.8699 0.25945,0.13877 0.55087,-0.0946 0.78908,-0.3842 0.23819,-0.28962 0.4234,-0.63555 0.4696,-0.72204 1.11269,-2.08166 3.04562,-6.46053 3.36236,-7.38583 0.0176,-0.0519 0.0361,-0.13745 0.001,-0.15592 -0.009,-0.004 -0.0197,-0.004 -0.0299,-3.9e-4 z m 13.55742,0 c -0.011,-0.004 -0.022,-0.004 -0.0299,4e-4 -0.0345,0.0176 -0.0154,0.10401 0.001,0.15591 0.31674,0.92531 2.24967,5.30417 3.36236,7.38586 0.0462,0.0864 0.23101,0.43238 0.46922,0.72203 0.23821,0.28962 0.52964,0.52286 0.78907,0.38419 0.25945,-0.13876 0.2276,-0.51093 0.11919,-0.86989 -0.10842,-0.35898 -0.29354,-0.7049 -0.33977,-0.79137 -1.11266,-2.08167 -3.67944,-6.12156 -4.27283,-6.89899 -0.0249,-0.0325 -0.0655,-0.0761 -0.0987,-0.0882 z m -10.93473,1.07444 c -0.0374,-0.011 -0.0847,0.062 -0.10886,0.11106 -0.43033,0.87826 -2.16008,5.3416 -2.84525,7.60036 -0.0284,0.0939 -0.14207,0.46906 -0.17857,0.84229 -0.0362,0.37324 0.005,0.7443 0.28612,0.82969 0.28153,0.0853 0.52194,-0.20034 0.69906,-0.53091 0.17725,-0.33053 0.291,-0.70557 0.31946,-0.7994 0.68518,-2.25875 1.72648,-6.93059 1.85662,-7.8999 0.007,-0.0543 0.009,-0.14184 -0.0288,-0.15327 z m 8.31204,0 c -0.0374,0.011 -0.036,0.099 -0.0288,0.15328 0.13019,0.9693 1.17142,5.64115 1.85662,7.8999 0.0283,0.0939 0.14228,0.46887 0.31945,0.7994 0.17702,0.33055 0.41754,0.6163 0.69905,0.53091 0.28151,-0.0853 0.3225,-0.45645 0.28615,-0.82968 -0.0363,-0.37324 -0.14999,-0.74847 -0.17857,-0.84231 -0.68518,-2.25875 -2.41494,-6.72209 -2.84525,-7.60035 -0.0242,-0.0491 -0.0712,-0.12249 -0.10886,-0.11106 z m -5.55911,0.54736 c -0.0389,-0.005 -0.0714,0.0776 -0.0853,0.13063 -0.25071,0.94534 -1.07634,5.66004 -1.30772,8.00906 -0.009,0.0976 -0.0479,0.48792 -0.011,0.86108 0.0371,0.37315 0.14955,0.72921 0.44242,0.75804 0.29275,0.0288 0.47299,-0.29855 0.58221,-0.65731 0.10931,-0.35875 0.14735,-0.74893 0.15702,-0.84653 0.23138,-2.34901 0.34148,-7.1341 0.28002,-8.11018 -0.004,-0.0545 -0.0198,-0.14096 -0.0578,-0.1447 z m 2.80618,0 c -0.0389,0.005 -0.0546,0.0902 -0.0578,0.14471 -0.0616,0.97607 0.0485,5.76116 0.27998,8.11017 0.009,0.0976 0.0477,0.48779 0.15702,0.84653 0.1093,0.35876 0.28947,0.68614 0.58222,0.65731 0.29276,-0.0288 0.40527,-0.38489 0.44241,-0.75804 0.0372,-0.37316 -0.001,-0.7635 -0.011,-0.86108 -0.23134,-2.34903 -1.057,-7.06372 -1.3077,-8.00906 -0.0132,-0.053 -0.0464,-0.13436 -0.0853,-0.13063 z"
       style="fill:url(#radialGradient1018);fill-opacity:1;stroke:none;stroke-width:1;stroke-linecap:butt;stroke-linejoin:miter;stroke-miterlimit:4;stroke-dasharray:none;stroke-opacity:1;paint-order:markers stroke fill"
       id="path1014" />
  </g>
</svg>
