<svg version="1.1" xmlns="http://www.w3.org/2000/svg" xmlns:xlink="http://www.w3.org/1999/xlink" width="69.87845" height="96.24515" viewBox="0,0,69.87845,96.24515"><g transform="translate(-205.14339,-87.50064)"><g data-paper-data="{&quot;isPaintingLayer&quot;:true}" fill="#ffffff" fill-rule="nonzero" stroke="#000000" stroke-width="4" stroke-linecap="butt" stroke-linejoin="miter" stroke-miterlimit="4" stroke-dasharray="" stroke-dashoffset="0" style="mix-blend-mode: normal"><path d="M246.49556,89.50064c2.27515,0.00031 5.23161,0.99146 7.96076,2.74458l0.008,0.005c4.55645,2.84615 7.66792,5.27124 9.4532,7.99873c1.74792,2.2914 2.83945,4.70841 2.83945,7.23659c0,2.34083 -0.41291,4.45129 -1.72406,6.18139c-1.56114,2.21063 -4.32315,3.4933 -7.13212,3.4933c-3.14091,0 -6.08785,-1.51813 -8.08346,-3.9577c-0.59547,-0.55436 -1.30091,-1.15737 -2.257,-1.63387c-0.42188,-0.20345 -1.42998,-0.45129 -2.97342,-0.45129c-2.7231,0 -5.85409,1.59278 -9.45708,5.76287l-0.0233,0.0271l-0.0233,0.0262c-1.41616,1.56101 -3.02863,4.42224 -4.52273,8.50526l-0.005,0.0131l-0.005,0.0122c-0.75957,2.01465 -1.11942,3.99035 -1.2581,5.95949c0.47577,-0.12537 0.61838,-0.12503 1.52214,-0.4953c5.25457,-2.6436 10.52766,-4.03541 15.73009,-4.03541c7.08326,0 13.26281,1.98573 18.01911,5.99975l0.0116,0.0103l0.0126,0.0103c5.58819,4.82246 8.4339,11.58768 8.4339,19.51792c0,9.78373 -4.04366,17.93433 -11.78009,23.46157l-0.003,0.003l-0.003,0.002c-5.46307,3.88251 -11.91631,5.84807 -18.99957,5.84807c-13.68329,0 -24.42849,-6.33867 -30.83598,-18.15843c0,-0.002 -0.00151,-0.003 -0.002,-0.004c-2.97947,-5.46443 -4.25481,-12.9117 -4.25481,-22.48315c0,-7.35847 1.22694,-13.9265 3.76555,-19.63963l0.004,-0.0103l0.005,-0.0103c3.78488,-8.34402 8.3169,-14.67552 13.80702,-18.85596l0.009,-0.007l0.008,-0.007c4.10945,-3.08278 8.89615,-5.22964 14.21086,-6.52876c-0.0279,-0.2155 -0.0893,-0.41163 -0.0893,-0.64323c0,-1.72626 0.95593,-3.66448 2.5026,-4.65898c1.29218,-0.83088 2.85429,-1.23872 5.12944,-1.23841zM245.45611,142.8431c-0.98815,0.00043 -2.36866,0.30731 -4.23489,1.2073c-0.58227,0.2808 -1.53157,0.94945 -2.6521,2.01583c-1.94091,2.38133 -4.69773,3.95303 -7.68836,3.95303c-0.57705,0 -1.12776,-0.11613 -1.67553,-0.2397c0.0971,0.70926 0.16718,1.41789 0.30094,2.12819c0.98483,4.97766 2.56311,8.70423 4.5305,11.24205c3.32987,4.12101 6.26562,5.66736 8.98335,5.66736c2.05588,0 3.77559,-0.88973 5.7721,-3.6712l0.004,-0.006l0.005,-0.007c1.1847,-1.63235 2.20167,-5.42895 2.20167,-11.19242c0,-4.96813 -1.02773,-7.98289 -2.00364,-9.05861c-1.41036,-1.55463 -2.55489,-2.03925 -3.54304,-2.03883z"/></g></g></svg>