<svg xmlns="http://www.w3.org/2000/svg" xmlns:xlink="http://www.w3.org/1999/xlink" version="1.1" width="23.76286" height="26.41786" viewBox="0,0,23.76286,26.41786"><g><g data-paper-data="{&quot;isPaintingLayer&quot;:true}" fill-rule="nonzero" stroke-linecap="butt" stroke-linejoin="miter" stroke-dasharray="" stroke-dashoffset="0" style="mix-blend-mode: normal"><path d="M 11.3508 0.0015 C 12.7959 -0.0112 14.2481 0.0514 15.6711 0.3189 C 17.5357 0.6621 19.3977 1.3725 20.7883 2.6992 C 22.1658 3.9911 22.913 5.8612 23.0003 7.7307 C 23.1446 9.3567 22.6038 11.0044 21.6155 12.292 C 21.9805 12.6713 22.3138 13.0819 22.6011 13.5233 C 23.3175 14.5817 23.7048 15.8442 23.7568 17.118 C 23.8192 18.9798 23.4035 20.9026 22.3442 22.457 C 21.3791 23.9109 19.8598 24.9171 18.236 25.5007 C 16.2453 26.195 14.1201 26.4033 12.0226 26.4179 C 9.681 26.4163 7.2847 26.2136 5.1011 25.3081 C 3.6359 24.7252 2.3182 23.7447 1.4106 22.4479 C 0.363 20.9524 -0.0708 19.0829 0.0093 17.2731 C 0.0609 15.506 0.8591 13.8302 1.9931 12.5005 C 2.0949 12.4213 2.1209 12.3366 2.0174 12.2512 C 0.8943 10.6611 0.562 8.5887 0.9653 6.7001 C 1.3551 4.5784 2.7983 2.7384 4.6437 1.6642 C 6.6688 0.4911 9.0349 0.0583 11.3509 0.0016 Z M 11.7108 8.3722 C 11.4053 8.3797 11.0991 8.3826 10.7946 8.4107 C 11.5106 8.4892 12.2335 8.47 12.9504 8.4145 C 12.5328 8.3858 12.1346 8.3726 11.7108 8.3721 Z M 8.8625 17.2745 C 9.4879 17.6642 10.1919 17.9333 10.9247 18.0257 C 11.8847 18.1267 12.8662 18.0687 13.805 17.8412 C 14.2408 17.7185 14.6687 17.5898 15.0557 17.3462 C 14.1132 16.7207 12.9566 16.5283 11.8441 16.5151 C 10.8082 16.5157 9.7668 16.7633 8.8625 17.2745 Z " fill="#12484c" stroke-width="0.99999" stroke-miterlimit="10" stroke="none"/><path d="M 21.5471 17.3709 C 21.5471 19.8996 20.6296 21.7122 18.8021 22.8012 C 17.2505 23.7336 14.9232 24.2036 11.8202 24.2036 C 5.4127 24.2036 2.2126 21.9956 2.2126 17.5797 C 2.2126 15.7522 3.2122 14.0515 5.2262 12.4776 C 3.7492 11.2692 3.0182 9.8967 3.0182 8.3601 C 3.0182 6.2715 3.9432 4.6752 5.7931 3.5563 C 7.3595 2.6612 9.3735 2.2136 11.8202 2.2136 C 17.8025 2.2136 20.8011 4.2426 20.8011 8.3004 C 20.8011 9.1358 20.5401 9.9414 20.0254 10.7172 C 19.5256 11.4184 18.9214 11.9853 18.2053 12.4179 C 20.4282 13.7755 21.5471 15.424 21.5471 17.3709 Z M 16.624 8.3899 C 16.624 6.8981 15.0202 6.1521 11.8202 6.1521 C 8.732 6.1521 7.1954 6.8906 7.1954 8.3601 C 7.1954 9.0762 7.6579 9.6654 8.5978 10.1205 C 9.4929 10.5009 10.567 10.6874 11.8202 10.6874 C 13.2076 10.6874 14.3265 10.5083 15.1619 10.1503 C 16.1316 9.7326 16.6239 9.1508 16.6239 8.3899 Z M 17.4296 17.2515 C 17.4296 16.4012 16.8179 15.6851 15.6095 15.1033 C 14.513 14.5662 13.2524 14.2977 11.8202 14.2977 C 10.5819 14.2977 9.4332 14.5513 8.3591 15.0436 C 7.0463 15.603 6.3898 16.3564 6.3898 17.3112 C 6.3898 18.1466 6.9866 18.8553 8.1801 19.4296 C 9.2318 20.0114 10.4029 20.2949 11.7008 20.2949 C 13.1927 20.2949 14.4831 20.0562 15.5797 19.5788 C 16.8104 19.0268 17.4296 18.2511 17.4296 17.2515 Z M 17.4296 17.2515 " fill="#ffffff" stroke-width="0.99975" stroke-miterlimit="4" stroke="none"/></g></g></svg>