<svg version="1.1" xmlns="http://www.w3.org/2000/svg" xmlns:xlink="http://www.w3.org/1999/xlink" width="70.66208" height="93.22204" viewBox="0,0,70.66208,93.22204"><g transform="translate(-204.67682,-91.27733)"><g data-paper-data="{&quot;isPaintingLayer&quot;:true}" fill="#ffffff" fill-rule="nonzero" stroke="#000000" stroke-width="4" stroke-linecap="butt" stroke-linejoin="miter" stroke-miterlimit="4" stroke-dasharray="" stroke-dashoffset="0" style="mix-blend-mode: normal"><path d="M237.07157,93.27744c4.74257,0 9.52921,1.0646 14.31181,3.05418c0.25395,-0.38491 0.50373,-0.78359 0.80961,-1.07861c1.22501,-1.18153 2.91642,-1.59825 4.45769,-1.59825c1.5413,0 3.07251,0.35976 4.63244,0.96158l0.0194,0.007l0.0204,0.008c3.43682,1.38117 6.39705,3.21969 8.79308,5.53067c2.03498,1.96274 3.2229,4.58835 3.2229,7.32179c0,1.57564 -0.31535,3.19053 -0.87077,4.85373c-0.50235,2.18981 -1.27798,6.05239 -2.30942,11.52387c-1.29907,7.51909 -2.59882,15.41434 -3.89854,23.68721c-0.77926,5.26119 -1.55934,10.90284 -2.33952,16.92159c-0.25656,2.22851 -0.51483,4.84165 -0.77368,7.83768l-0.0194,0.23314l-0.0592,0.22565c-0.60013,2.31529 -1.53674,4.34841 -2.9142,6.00911l-0.0311,0.0384l-0.033,0.0374c-1.99259,2.24216 -4.7883,3.64779 -7.74661,3.64779c-3.34362,0 -6.42884,-1.69759 -8.88628,-4.36405l-0.008,-0.008l-0.008,-0.008c-2.35459,-2.59544 -3.47821,-6.03677 -3.47821,-9.82637c0,-1.45074 0.14855,-2.81553 0.48052,-4.09628l0.0272,-0.10767l0.0369,-0.10486c0.52567,-1.52102 1.46634,-2.63417 2.75888,-4.09441c0.70692,-3.77696 1.41501,-8.03845 2.12304,-12.286c-3.22335,1.0569 -6.3952,1.6591 -9.493,1.6591c-7.56385,0 -14.18252,-1.94031 -19.45195,-5.89301h-0.00099c-6.47742,-4.83122 -9.76675,-12.21035 -9.76675,-21.15549c0,-7.06296 2.0288,-13.32198 6.11089,-18.38407l0.0126,-0.0159l0.0126,-0.015c5.76652,-6.95226 14.16953,-10.52203 24.25815,-10.52203zM240.5976,109.22804c-3.20055,0.00007 -5.73678,1.17507 -7.82019,3.78736l-0.0175,0.0215l-0.0175,0.0215c-1.63414,1.97015 -2.47931,4.38015 -2.47931,7.64575c0,3.23142 0.60749,5.26952 1.05715,5.93421c2.13434,2.85367 4.50591,4.03073 8.09997,4.03073c2.21302,0 3.88167,-0.41752 6.08201,-1.58131c2.20034,-1.16379 3.45725,-2.66152 3.55375,-2.80714c0.67342,-4.57851 1.22431,-8.91674 1.69882,-13.10526c-0.96965,-0.80535 -2.08944,-1.63558 -3.51705,-2.49615c-1.56756,-0.94497 -3.4396,-1.45125 -6.64015,-1.45119z"/></g></g></svg>