<svg xmlns="http://www.w3.org/2000/svg" xmlns:xlink="http://www.w3.org/1999/xlink" version="1.1" width="23.53345" height="25.92595" viewBox="0,0,23.53345,25.92595"><g><g data-paper-data="{&quot;isPaintingLayer&quot;:true}" fill-rule="nonzero" stroke-linecap="butt" stroke-linejoin="miter" stroke-dasharray="" stroke-dashoffset="0" style="mix-blend-mode: normal"><path d="M 17.4487 0.0023 C 18.5923 -0.0209 19.7692 0.1244 20.8058 0.6349 C 22.2222 1.2869 23.1926 2.7125 23.4403 4.2333 C 23.7155 5.7491 23.343 7.2911 22.8182 8.7111 C 21.3704 12.34 19.8659 15.9462 18.3803 19.56 C 17.8636 20.7961 17.3671 22.0405 16.8427 23.2732 C 16.3779 24.5083 15.2742 25.4672 13.9955 25.7797 C 12.2268 26.2537 10.1698 25.5526 9.1551 24.0054 C 8.4049 22.869 8.3622 21.3912 8.7608 20.1202 C 10.3655 16.1877 12.0097 12.2708 13.6386 8.3479 C 12.0299 8.3423 10.4211 8.3449 8.8124 8.3447 C 8.6162 8.2976 8.5478 8.3817 8.585 8.5739 C 8.608 9.8368 8.1628 11.1574 7.1859 11.9957 C 6.0574 12.9384 4.432 13.1251 3.0569 12.6833 C 1.6166 12.2621 0.4275 11.0377 0.1128 9.5621 C -0.0391 8.623 0.0177 7.6659 0.0073 6.7181 C 0.045 5.6981 -0.0781 4.6681 0.0974 3.6563 C 0.4537 1.6952 2.2735 0.1629 4.2416 0.0187 C 8.6436 -0.0101 13.0464 0.0053 17.4487 0.0025 Z " fill="#12484c" stroke-width="0.99999" stroke-miterlimit="10" stroke="none"/><path d="M 21.3202 5.4115 C 21.3202 6.2097 20.992 7.4032 20.3356 8.992 L 14.8158 22.3888 C 14.4726 23.2615 13.8088 23.7017 12.8167 23.7017 C 12.2572 23.7017 11.7798 23.5301 11.3845 23.1944 C 10.9444 22.8513 10.7281 22.3888 10.7281 21.7921 C 10.7281 21.3744 10.7878 21.0089 10.9071 20.6881 L 16.2181 7.9178 C 16.3971 7.4628 16.4866 7.0824 16.4866 6.784 C 16.4866 6.3514 16.1137 6.1276 15.3827 6.1276 L 7.2073 6.1276 C 6.8866 6.1276 6.6777 6.1873 6.5807 6.3066 C 6.439 6.426 6.3719 6.6647 6.3719 7.0227 L 6.3719 8.5146 C 6.3719 9.9691 5.7528 10.6927 4.522 10.6927 C 3.9029 10.6927 3.3658 10.5062 2.9108 10.1258 C 2.4483 9.7528 2.2245 9.2158 2.2245 8.5146 L 2.2245 4.5761 C 2.2245 3.9048 2.4483 3.3528 2.9108 2.9351 C 3.3882 2.4577 3.97 2.219 4.6712 2.219 L 17.7398 2.219 C 20.1268 2.219 21.3203 3.2856 21.3203 5.4115 Z M 21.3202 5.4115 " fill="#ffffff" stroke-width="0.99975" stroke-miterlimit="4" stroke="none"/></g></g></svg>