<svg xmlns="http://www.w3.org/2000/svg" xmlns:xlink="http://www.w3.org/1999/xlink" version="1.1" width="23.16756" height="26.41786" viewBox="0,0,23.16756,26.41786"><g><g data-paper-data="{&quot;isPaintingLayer&quot;:true}" fill-rule="nonzero" stroke-linecap="butt" stroke-linejoin="miter" stroke-dasharray="" stroke-dashoffset="0" style="mix-blend-mode: normal"><path d="M 13.2027 0.0989 C 15.1619 0.2929 17.1175 0.8667 18.7481 1.9958 C 19.953 2.8114 20.9327 3.9393 21.6084 5.2252 C 22.7006 7.277 23.0695 9.6257 23.1543 11.9242 C 23.2226 14.2398 23.0386 16.5922 22.3243 18.8072 C 21.6845 20.8132 20.5302 22.6913 18.8611 24.0001 C 17.1194 25.3992 14.9157 26.114 12.7134 26.3315 C 10.1242 26.5701 7.4398 26.3409 5.0316 25.3077 C 3.7464 24.7252 2.4587 24.0128 1.5681 22.8887 C 0.572 21.7103 0.4038 19.9652 1.0108 18.5681 C 1.3742 17.6715 2.1035 16.9422 2.9908 16.5613 C 2.2542 15.9591 1.6179 15.2306 1.1384 14.4078 C 0.1156 12.6377 -0.1562 10.5143 0.079 8.5053 C 0.3131 5.9091 1.7656 3.455 3.9297 2.002 C 5.8719 0.6679 8.2425 0.0873 10.5746 0.0068 C 11.4513 -0.0124 12.3303 0.0061 13.2027 0.0989 Z M 9.1535 8.769 C 8.869 8.8851 8.6669 9.1756 8.6989 9.488 C 8.7473 9.87 9.1346 10.0808 9.4508 10.2282 C 10.2219 10.5493 11.0799 10.6336 11.9081 10.567 C 12.6752 10.4903 13.4884 10.2893 14.0564 9.7359 C 14.1531 9.61 14.37 9.4629 14.2443 9.2854 C 13.5044 8.5961 12.4619 8.3565 11.4769 8.3177 C 10.6877 8.3025 9.8535 8.3706 9.1535 8.769 Z " fill="#12484c" stroke-width="0.99999" stroke-miterlimit="10" stroke="none"/><path d="M 20.9539 12.7755 C 20.9539 20.3988 17.6122 24.2031 10.9286 24.2031 C 8.7356 24.2031 6.8783 23.8003 5.3491 23.0096 C 3.6932 22.1742 2.8726 21.3089 2.8726 20.4138 C 2.8726 19.7797 3.0367 19.28 3.3799 18.9219 C 3.7155 18.5863 4.2004 18.4147 4.8419 18.4147 C 5.2745 18.4147 6.11 18.7354 7.3482 19.3695 C 8.6983 20.0259 9.9291 20.3541 11.048 20.3541 C 12.7338 20.3541 14.1212 19.8767 15.1954 18.9219 C 16.2471 17.9895 16.7767 16.6692 16.7767 14.9536 C 15.4042 16.0874 13.4424 16.6543 10.8988 16.6543 C 8.3701 16.6543 6.3636 16.1695 4.8717 15.1923 C 3.0964 14.0212 2.2162 12.231 2.2162 9.8216 C 2.2162 7.3377 3.1113 5.4057 4.9016 4.0332 C 6.5128 2.8248 8.6088 2.2132 11.1972 2.2132 C 14.6135 2.2132 17.1124 3.1008 18.6863 4.8687 C 20.1931 6.5395 20.9539 9.1801 20.9539 12.7755 Z M 16.5082 9.4039 C 16.5082 8.4491 15.9786 7.6584 14.9268 7.0169 C 13.8676 6.4053 12.6368 6.092 11.227 6.092 C 10.0112 6.092 8.9445 6.3456 8.0344 6.8379 C 6.9976 7.457 6.4829 8.3223 6.4829 9.4337 C 6.4829 10.5526 7.0349 11.4253 8.1538 12.0594 C 9.0489 12.5591 10.1305 12.8053 11.406 12.8053 C 12.8531 12.8053 14.069 12.4696 15.0462 11.7908 C 16.0159 11.0971 16.5082 10.299 16.5082 9.4039 Z M 16.5082 9.4039 " fill="#ffffff" stroke-width="0.99975" stroke-miterlimit="4" stroke="none"/></g></g></svg>