<?xml version="1.0" encoding="UTF-8" standalone="no"?>
<svg
   xmlns:dc="http://purl.org/dc/elements/1.1/"
   xmlns:cc="http://creativecommons.org/ns#"
   xmlns:rdf="http://www.w3.org/1999/02/22-rdf-syntax-ns#"
   xmlns:svg="http://www.w3.org/2000/svg"
   xmlns="http://www.w3.org/2000/svg"
   xmlns:xlink="http://www.w3.org/1999/xlink"
   xmlns:sodipodi="http://sodipodi.sourceforge.net/DTD/sodipodi-0.dtd"
   xmlns:inkscape="http://www.inkscape.org/namespaces/inkscape"
   sodipodi:docname="e51.svg"
   inkscape:version="1.0 (4035a4fb49, 2020-05-01)"
   id="svg8"
   version="1.1"
   viewBox="0 0 172 172"
   height="172"
   width="172">
  <defs
     id="defs2">
    <linearGradient
       id="linearGradient1001"
       inkscape:collect="always">
      <stop
         id="stop997"
         offset="0"
         style="stop-color:#ff0000;stop-opacity:1" />
      <stop
         style="stop-color:#ff5a00;stop-opacity:1"
         offset="0.1"
         id="stop1150" />
      <stop
         style="stop-color:#ffb400;stop-opacity:1"
         offset="0.25"
         id="stop1146" />
      <stop
         style="stop-color:#ffff00;stop-opacity:1"
         offset="0.40000001"
         id="stop1142" />
      <stop
         id="stop1144"
         offset="0.55000001"
         style="stop-color:#ffb400;stop-opacity:0.98884755" />
      <stop
         style="stop-color:#ff5000;stop-opacity:1"
         offset="0.69999999"
         id="stop1148" />
      <stop
         id="stop999"
         offset="1"
         style="stop-color:#ff2400;stop-opacity:1" />
    </linearGradient>
    <radialGradient
       inkscape:collect="always"
       xlink:href="#linearGradient1001"
       id="radialGradient1021"
       gradientUnits="userSpaceOnUse"
       gradientTransform="matrix(0.78366455,0,0,0.77331245,18.506893,19.495129)"
       cx="86.125"
       cy="86"
       fx="86.125"
       fy="86"
       r="86.125" />
  </defs>
  <sodipodi:namedview
     inkscape:window-maximized="0"
     inkscape:window-y="34"
     inkscape:window-x="234"
     inkscape:window-height="967"
     inkscape:window-width="1638"
     showborder="true"
     inkscape:showpageshadow="false"
     inkscape:pagecheckerboard="true"
     units="px"
     showgrid="false"
     inkscape:document-rotation="0"
     inkscape:current-layer="layer1"
     inkscape:document-units="px"
     inkscape:cy="61.122435"
     inkscape:cx="104.74073"
     inkscape:zoom="2.3575582"
     inkscape:pageshadow="2"
     inkscape:pageopacity="0.0"
     borderopacity="1.0"
     bordercolor="#666666"
     pagecolor="#ffffff"
     id="base"
     borderlayer="true" />
  <metadata
     id="metadata5">
    <rdf:RDF>
      <cc:Work
         rdf:about="">
        <dc:format>image/svg+xml</dc:format>
        <dc:type
           rdf:resource="http://purl.org/dc/dcmitype/StillImage" />
        <dc:title />
        <cc:license
           rdf:resource="" />
      </cc:Work>
    </rdf:RDF>
  </metadata>
  <g
     style="display:inline"
     id="layer1"
     inkscape:groupmode="layer"
     inkscape:label="レイヤー 1">
    <path
       id="path987"
       style="mix-blend-mode:normal;fill:url(#radialGradient1021);fill-opacity:1;fill-rule:evenodd;stroke:none;stroke-width:0.999995;stroke-linejoin:round;stop-color:#000000"
       d="m 86,35.6875 a 3,3 0 0 0 -3,3 3,3 0 0 0 3,3 3,3 0 0 0 3,-3 3,3 0 0 0 -3,-3 z m -9.196289,0.889648 a 3,3 0 0 0 -0.511719,0.05566 3,3 0 0 0 -2.364258,3.522461 3,3 0 0 0 3.522462,2.365235 3,3 0 0 0 2.364257,-3.522461 3,3 0 0 0 -3.010742,-2.420899 z m 18.422849,0.01953 a 3,3 0 0 0 -2.938474,2.41504 3,3 0 0 0 2.356444,3.527344 3,3 0 0 0 3.52832,-2.357422 3,3 0 0 0 -2.35742,-3.527344 3,3 0 0 0 -0.58887,-0.05762 z m -27.173826,2.614259 a 3,3 0 0 0 -1.103515,0.222656 3,3 0 0 0 -1.640625,3.913086 3,3 0 0 0 3.912109,1.640625 3,3 0 0 0 1.640625,-3.913086 3,3 0 0 0 -2.808594,-1.863281 z m 36.223636,0.157226 a 3,3 0 0 0 -2.74708,1.839844 3,3 0 0 0 1.60645,3.926758 3,3 0 0 0 3.92676,-1.606446 3,3 0 0 0 -1.60645,-3.926757 3,3 0 0 0 -1.17968,-0.233399 z M 86,42.9375 a 2.625,2.625 0 0 0 -2.625,2.625 2.625,2.625 0 0 0 2.625,2.625 2.625,2.625 0 0 0 2.625,-2.625 A 2.625,2.625 0 0 0 86,42.9375 Z m -26.301758,0.723633 a 3,3 0 0 0 -1.650391,0.505859 3,3 0 0 0 -0.828125,4.161133 3,3 0 0 0 4.161133,0.827148 3,3 0 0 0 0.828125,-4.161132 3,3 0 0 0 -2.510742,-1.333008 z m 34.224608,0.05273 a 2.625,2.625 0 0 0 -0.09668,9.75e-4 2.625,2.625 0 0 0 -2.511717,2.112305 2.625,2.625 0 0 0 2.062502,3.086914 2.625,2.625 0 0 0 3.08691,-2.0625 2.625,2.625 0 0 0 -2.0625,-3.086914 2.625,2.625 0 0 0 -0.478515,-0.05078 z m -15.864256,9.75e-4 a 2.625,2.625 0 0 0 -0.459961,0.0498 2.625,2.625 0 0 0 -2.0625,3.086914 2.625,2.625 0 0 0 3.086914,2.0625 2.625,2.625 0 0 0 2.0625,-3.086914 2.625,2.625 0 0 0 -2.626953,-2.112305 z m 34.257816,0.0039 a 3,3 0 0 0 -2.43555,1.327148 3,3 0 0 0 0.81836,4.163086 3,3 0 0 0 4.16308,-0.818359 3,3 0 0 0 -0.81933,-4.163086 3,3 0 0 0 -1.72656,-0.508789 z m -41.781254,2.296875 a 2.625,2.625 0 0 0 -1.014648,0.200195 2.625,2.625 0 0 0 -1.420899,3.429688 2.625,2.625 0 0 0 3.429688,1.419921 2.625,2.625 0 0 0 1.420899,-3.429687 2.625,2.625 0 0 0 -2.41504,-1.620117 z m 30.911134,0 a 2.625,2.625 0 0 0 -2.396485,1.620117 2.625,2.625 0 0 0 1.420905,3.429687 2.625,2.625 0 0 0 3.42968,-1.419921 2.625,2.625 0 0 0 -1.4209,-3.429688 2.625,2.625 0 0 0 -1.0332,-0.200195 z M 86,49.46289 a 2.4500001,2.4500001 0 0 0 -2.450196,2.449219 2.4500001,2.4500001 0 0 0 0,0.03321 2.4500001,2.4500001 0 0 0 0.02636,0.323242 2.4500001,2.4500001 0 0 0 0.0068,0.04687 l 2.120118,14.491211 h 9.99e-4 A 0.30000001,0.30000001 0 0 0 86,67.0625 0.30000001,0.30000001 0 0 0 86.295898,66.80664 h 0.001 l 2.124024,-14.515625 a 2.4500001,2.4500001 0 0 0 10e-4,-0.0078 l 0.002,-0.01465 a 2.4500001,2.4500001 0 0 0 0.02631,-0.35646 A 2.4500001,2.4500001 0 0 0 86,49.46289 Z m -33.442383,0.08203 a 3,3 0 0 0 -2.133789,0.878906 3,3 0 0 0 0,4.242187 3,3 0 0 0 4.242187,0 3,3 0 0 0 0,-4.242187 3,3 0 0 0 -2.108398,-0.878906 z m 66.910153,0 a 3,3 0 0 0 -2.13379,0.878906 3,3 0 0 0 0,4.242187 3,3 0 0 0 4.24219,0 3,3 0 0 0 0,-4.242187 3,3 0 0 0 -2.1084,-0.878906 z m -55.958005,0.208007 a 2.625,2.625 0 0 0 -1.433593,0.442383 2.625,2.625 0 0 0 -0.72461,3.640625 2.625,2.625 0 0 0 3.640625,0.723633 2.625,2.625 0 0 0 0.72461,-3.640625 2.625,2.625 0 0 0 -2.207032,-1.166016 z m 44.960945,0 a 2.625,2.625 0 0 0 -2.1875,1.166016 2.625,2.625 0 0 0 0.7246,3.640625 2.625,2.625 0 0 0 3.64063,-0.723633 2.625,2.625 0 0 0 -0.72461,-3.640625 2.625,2.625 0 0 0 -1.45312,-0.442383 z m -29.104499,0.365235 a 2.4500001,2.4500001 0 0 0 -0.49414,0.04687 2.4500001,2.4500001 0 0 0 -1.925782,2.879883 2.4500001,2.4500001 0 0 0 0.0068,0.03321 2.4500001,2.4500001 0 0 0 0.08887,0.311524 2.4500001,2.4500001 0 0 0 0.01563,0.04492 l 4.907227,13.798828 h 0.001 a 0.30000001,0.30000001 0 0 0 0.339844,0.19336 0.30000001,0.30000001 0 0 0 0.240234,-0.308594 l 10e-4,-10e-4 -0.749023,-14.65039 a 2.4500001,2.4500001 0 0 0 0,-0.0078 l -0.001,-0.01563 a 2.4500001,2.4500001 0 0 0 -0.04394,-0.354492 2.4500001,2.4500001 0 0 0 -2.386719,-1.970703 z m 13.299805,0 a 2.4500001,2.4500001 0 0 0 -2.418945,1.970703 2.4500001,2.4500001 0 0 0 -0.0059,0.03321 h -10e-4 a 2.4500001,2.4500001 0 0 0 -0.03711,0.321289 2.4500001,2.4500001 0 0 0 -0.002,0.04785 l -0.748047,14.625976 0.001,0.001 a 0.30000001,0.30000001 0 0 0 0.240234,0.308594 0.30000001,0.30000001 0 0 0 0.339844,-0.19336 h 0.0019 L 94.95117,53.411157 a 2.4500001,2.4500001 0 0 0 0.002,-0.0078 l 0.005,-0.01367 a 2.4500001,2.4500001 0 0 0 0.0957,-0.344726 2.4500001,2.4500001 0 0 0 -1.92578,-2.879883 2.4500001,2.4500001 0 0 0 -0.461916,-0.04687 z m -19.709961,1.939453 a 2.4500001,2.4500001 0 0 0 -0.938477,0.186523 2.4500001,2.4500001 0 0 0 -1.326172,3.200196 2.4500001,2.4500001 0 0 0 0.01269,0.03125 2.4500001,2.4500001 0 0 0 0.148438,0.288086 2.4500001,2.4500001 0 0 0 0.02344,0.04102 l 7.504883,12.576172 h 9.99e-4 a 0.30000001,0.30000001 0 0 0 0.371094,0.123047 0.30000001,0.30000001 0 0 0 0.175781,-0.34961 h 0.001 L 75.336914,53.930664 a 2.4500001,2.4500001 0 0 0 -0.0019,-0.0078 l -0.0039,-0.01465 A 2.4500001,2.4500001 0 0 0 75.21875,53.569336 2.4500001,2.4500001 0 0 0 72.956055,52.057617 Z m 26.120115,0 a 2.4500001,2.4500001 0 0 0 -2.29492,1.511719 2.4500001,2.4500001 0 0 0 -0.0127,0.03028 2.4500001,2.4500001 0 0 0 -0.09961,0.308593 2.4500001,2.4500001 0 0 0 -0.0117,0.0459 L 93.070325,68.1543 h 0.001 a 0.30000001,0.30000001 0 0 0 0.17578,0.349609 0.30000001,0.30000001 0 0 0 0.371095,-0.123046 h 0.001 l 7.51758,-12.597657 a 2.4500001,2.4500001 0 0 0 0.004,-0.0068 l 0.008,-0.0127 a 2.4500001,2.4500001 0 0 0 0.16016,-0.319336 2.4500001,2.4500001 0 0 0 -1.32618,-3.200196 2.4500001,2.4500001 0 0 0 -0.90625,-0.186523 z M 57.348633,54.78125 a 2.625,2.625 0 0 0 -1.798829,0.768554 2.625,2.625 0 0 0 0,3.712891 2.625,2.625 0 0 0 3.712891,0 2.625,2.625 0 0 0 0,-3.712891 2.625,2.625 0 0 0 -1.817383,-0.768554 2.625,2.625 0 0 0 -0.09668,0 z m 57.186527,0 a 2.625,2.625 0 0 0 -1.79785,0.768554 2.625,2.625 0 0 0 0,3.712891 2.625,2.625 0 0 0 3.71289,0 2.625,2.625 0 0 0 0,-3.712891 2.625,2.625 0 0 0 -1.81836,-0.768554 2.625,2.625 0 0 0 -0.0967,0 z m -47.488285,0.426758 a 2.4500001,2.4500001 0 0 0 -1.345703,0.412109 2.4500001,2.4500001 0 0 0 -0.676758,3.398437 2.4500001,2.4500001 0 0 0 0.01856,0.02735 2.4500001,2.4500001 0 0 0 0.201171,0.253906 2.4500001,2.4500001 0 0 0 0.03222,0.03515 l 9.813478,10.871094 h 0.001 a 0.30000001,0.30000001 0 0 0 0.387695,0.04785 0.30000001,0.30000001 0 0 0 0.104492,-0.376953 l 0.001,-0.001 -6.298829,-13.249024 a 2.4500001,2.4500001 0 0 0 -0.0039,-0.0068 l -0.0059,-0.01367 a 2.4500001,2.4500001 0 0 0 -0.176808,-0.310524 2.4500001,2.4500001 0 0 0 -2.051758,-1.08789 z m 37.844725,0 a 2.4500001,2.4500001 0 0 0 -1.99121,1.08789 2.4500001,2.4500001 0 0 0 -0.0186,0.02735 h 0.001 a 2.4500001,2.4500001 0 0 0 -0.1582,0.283203 2.4500001,2.4500001 0 0 0 -0.0205,0.04297 l -6.288085,13.226562 0.001,10e-4 a 0.30000001,0.30000001 0 0 0 0.10352,0.376953 0.30000001,0.30000001 0 0 0 0.38867,-0.04785 L 106.7403,59.317411 a 2.4500001,2.4500001 0 0 0 0.005,-0.0059 l 0.01,-0.01172 a 2.4500001,2.4500001 0 0 0 0.21972,-0.28125 2.4500001,2.4500001 0 0 0 -0.67578,-3.398438 2.4500001,2.4500001 0 0 0 -1.40723,-0.412108 z m -58.228514,1.420898 a 3,3 0 0 0 -2.435547,1.328125 3,3 0 0 0 0.818359,4.162109 3,3 0 0 0 4.163086,-0.818359 3,3 0 0 0 -0.818359,-4.163086 3,3 0 0 0 -1.727539,-0.508789 z m 78.659184,0.08594 a 3,3 0 0 0 -1.65039,0.504882 3,3 0 0 0 -0.82716,4.161133 3,3 0 0 0 4.16114,0.828125 3,3 0 0 0 0.82715,-4.161133 3,3 0 0 0 -2.51074,-1.333007 z m -63.456059,2.732421 a 2.4500001,2.4500001 0 0 0 -1.702149,0.716797 2.4500001,2.4500001 0 0 0 0,3.464844 2.4500001,2.4500001 0 0 0 0.02343,0.02344 2.4500001,2.4500001 0 0 0 0.247071,0.209961 2.4500001,2.4500001 0 0 0 0.03809,0.02832 l 11.746097,8.747069 a 0.30000001,0.30000001 0 0 0 0.390625,-0.02832 0.30000001,0.30000001 0 0 0 0.02832,-0.390625 L 63.875976,60.452148 a 2.4500001,2.4500001 0 0 0 -0.0049,-0.0059 l -0.0088,-0.01172 a 2.4500001,2.4500001 0 0 0 -0.233398,-0.270507 2.4500001,2.4500001 0 0 0 -1.762695,-0.716797 z m 48.207029,0 a 2.4500001,2.4500001 0 0 0 -1.70215,0.716797 2.4500001,2.4500001 0 0 0 -0.0234,0.02343 2.4500001,2.4500001 0 0 0 -0.20996,0.247071 2.4500001,2.4500001 0 0 0 -0.0283,0.03809 L 99.362305,72.21875 a 0.30000001,0.30000001 0 0 0 0.0283,0.390625 0.30000001,0.30000001 0 0 0 0.390625,0.02832 l 11.76562,-8.761719 a 2.4500001,2.4500001 0 0 0 0.007,-0.0049 l 0.0117,-0.0088 a 2.4500001,2.4500001 0 0 0 0.27052,-0.233398 2.4500001,2.4500001 0 0 0 0,-3.464844 2.4500001,2.4500001 0 0 0 -1.7627,-0.716797 z m -57.691404,1.461914 a 2.625,2.625 0 0 0 -2.186524,1.166993 2.625,2.625 0 0 0 0.723633,3.640625 2.625,2.625 0 0 0 3.640625,-0.72461 2.625,2.625 0 0 0 -0.723633,-3.640625 2.625,2.625 0 0 0 -1.454101,-0.442383 z m 67.216804,0 a 2.625,2.625 0 0 0 -1.43458,0.442383 2.625,2.625 0 0 0 -0.72363,3.640625 2.625,2.625 0 0 0 3.64063,0.72461 2.625,2.625 0 0 0 0.72363,-3.640625 2.625,2.625 0 0 0 -2.20605,-1.166993 z m -61.987312,3.703125 a 2.4500001,2.4500001 0 0 0 -1.991211,1.088868 2.4500001,2.4500001 0 0 0 0.675781,3.397461 2.4500001,2.4500001 0 0 0 0.02735,0.01855 2.4500001,2.4500001 0 0 0 0.283203,0.158203 2.4500001,2.4500001 0 0 0 0.04297,0.02051 l 13.226562,6.288086 10e-4,-0.001 a 0.30000001,0.30000001 0 0 0 0.376953,-0.104492 0.30000001,0.30000001 0 0 0 -0.04785,-0.387695 v -10e-4 l -10.8887,-9.830034 a 2.4500001,2.4500001 0 0 0 -0.0059,-0.0059 l -0.01172,-0.0098 a 2.4500001,2.4500001 0 0 0 -0.28125,-0.219726 2.4500001,2.4500001 0 0 0 -1.407226,-0.41211 z m 56.716802,0 a 2.4500001,2.4500001 0 0 0 -1.34669,0.41211 2.4500001,2.4500001 0 0 0 -0.0274,0.01856 2.4500001,2.4500001 0 0 0 -0.2539,0.201171 2.4500001,2.4500001 0 0 0 -0.0352,0.03222 l -10.8711,9.813478 v 0.001 a 0.30000001,0.30000001 0 0 0 -0.0479,0.387695 0.30000001,0.30000001 0 0 0 0.37695,0.104492 v 10e-4 l 13.25,-6.298829 a 2.4500001,2.4500001 0 0 0 0.007,-0.0039 l 0.0127,-0.0059 a 2.4500001,2.4500001 0 0 0 0.31152,-0.176757 2.4500001,2.4500001 0 0 0 0.67481,-3.397461 2.4500001,2.4500001 0 0 0 -2.05078,-1.088867 z m -71.979497,0.0918 a 3,3 0 0 0 -2.747071,1.839844 3,3 0 0 0 1.606446,3.926757 3,3 0 0 0 3.926758,-1.606445 A 3,3 0 0 0 43.52832,64.9375 3,3 0 0 0 42.348633,64.704102 Z m 87.409177,0.380859 a 3,3 0 0 0 -1.10449,0.223633 3,3 0 0 0 -1.64062,3.912109 3,3 0 0 0 3.91308,1.640625 3,3 0 0 0 1.64062,-3.912109 3,3 0 0 0 -2.80859,-1.864258 z M 48.611328,67.90039 a 2.625,2.625 0 0 0 -2.395508,1.620118 2.625,2.625 0 0 0 1.419922,3.429688 2.625,2.625 0 0 0 3.429687,-1.420899 2.625,2.625 0 0 0 -1.419921,-3.429688 2.625,2.625 0 0 0 -1.03418,-0.199219 z m 74.757812,0 a 2.625,2.625 0 0 0 -1.01465,0.199219 2.625,2.625 0 0 0 -1.41992,3.429688 2.625,2.625 0 0 0 3.42969,1.420899 2.625,2.625 0 0 0 1.41992,-3.429688 2.625,2.625 0 0 0 -2.41504,-1.620118 z m -68.863281,2.604493 a 2.4500001,2.4500001 0 0 0 -2.261719,1.512695 2.4500001,2.4500001 0 0 0 1.325196,3.201172 2.4500001,2.4500001 0 0 0 0.338867,0.112304 l 0.01465,0.0039 a 2.4500001,2.4500001 0 0 0 0.0078,0.002 l 14.223633,3.592773 v -0.001 a 0.30000001,0.30000001 0 0 0 0.349609,-0.175781 0.30000001,0.30000001 0 0 0 -0.123046,-0.371094 v -10e-4 l -12.576177,-7.50385 a 2.4500001,2.4500001 0 0 0 -0.04102,-0.02442 2.4500001,2.4500001 0 0 0 -0.288086,-0.148437 2.4500001,2.4500001 0 0 0 -0.03125,-0.01269 2.4500001,2.4500001 0 0 0 -0.02929,-0.01269 2.4500001,2.4500001 0 0 0 -0.909179,-0.173828 z m 62.987311,0 a 2.4500001,2.4500001 0 0 0 -0.9375,0.186523 2.4500001,2.4500001 0 0 0 -0.0312,0.01269 2.4500001,2.4500001 0 0 0 -0.28809,0.148438 2.4500001,2.4500001 0 0 0 -0.041,0.02343 l -12.57617,7.504883 v 10e-4 a 0.30000001,0.30000001 0 0 0 -0.12304,0.371094 0.30000001,0.30000001 0 0 0 0.34961,0.175781 l 14.22363,-3.591797 a 2.4500001,2.4500001 0 0 0 0.008,-0.0019 l 0.0136,-0.0039 a 2.4500001,2.4500001 0 0 0 0.33984,-0.112305 2.4500001,2.4500001 0 0 0 1.3252,-3.201172 2.4500001,2.4500001 0 0 0 -2.2627,-1.512695 z m -77.925787,3.264648 a 3,3 0 0 0 -2.913086,2.41504 3,3 0 0 0 2.357422,3.527343 3,3 0 0 0 3.527343,-2.356445 3,3 0 0 0 -2.357421,-3.528321 3,3 0 0 0 -0.614258,-0.05762 z m 92.891597,0.101563 a 3,3 0 0 0 -0.61426,0.05664 3,3 0 0 0 -2.36523,3.522462 3,3 0 0 0 3.52246,2.364257 3,3 0 0 0 2.36524,-3.522461 3,3 0 0 0 -2.90821,-2.420898 z m -86.085933,1.614258 a 2.625,2.625 0 0 0 -0.0957,9.99e-4 2.625,2.625 0 0 0 -2.512696,2.112306 2.625,2.625 0 0 0 2.0625,3.086913 2.625,2.625 0 0 0 3.086914,-2.0625 2.625,2.625 0 0 0 -2.0625,-3.086913 2.625,2.625 0 0 0 -0.478515,-0.05078 z m 79.234373,9.99e-4 a 2.625,2.625 0 0 0 -0.45898,0.04981 2.625,2.625 0 0 0 -2.0625,3.086913 2.625,2.625 0 0 0 3.08691,2.0625 2.625,2.625 0 0 0 2.0625,-3.086913 2.625,2.625 0 0 0 -2.62793,-2.112306 z m -73.056639,1.413063 a 2.4500001,2.4500001 0 0 0 -2.385742,1.972657 2.4500001,2.4500001 0 0 0 1.923828,2.880858 2.4500001,2.4500001 0 0 0 0.354492,0.04395 l 0.01563,10e-4 a 2.4500001,2.4500001 0 0 0 0.0078,0 l 14.650391,0.749023 10e-4,-0.001 a 0.30000001,0.30000001 0 0 0 0.308594,-0.240234 0.30000001,0.30000001 0 0 0 -0.19336,-0.339844 v -0.0019 L 53.434596,77.05762 a 2.4500001,2.4500001 0 0 0 -0.04492,-0.01563 2.4500001,2.4500001 0 0 0 -0.311523,-0.08887 2.4500001,2.4500001 0 0 0 -0.03321,-0.0068 2.4500001,2.4500001 0 0 0 -0.03125,-0.0059 2.4500001,2.4500001 0 0 0 -0.462891,-0.04102 z m 66.898439,0 a 2.4500001,2.4500001 0 0 0 -0.49414,0.04687 2.4500001,2.4500001 0 0 0 -0.0332,0.0068 2.4500001,2.4500001 0 0 0 -0.31152,0.08887 2.4500001,2.4500001 0 0 0 -0.0449,0.01563 l -13.79883,4.907227 v 0.001 a 0.30000001,0.30000001 0 0 0 -0.19337,0.339844 0.30000001,0.30000001 0 0 0 0.3086,0.240234 l 10e-4,10e-4 14.65039,-0.749023 a 2.4500001,2.4500001 0 0 0 0.008,0 l 0.0156,-0.001 a 2.4500001,2.4500001 0 0 0 0.35449,-0.04395 2.4500001,2.4500001 0 0 0 1.92383,-2.880858 2.4500001,2.4500001 0 0 0 -2.38574,-1.972657 z M 38.6875,83 a 3,3 0 0 0 -3,3 3,3 0 0 0 3,3 3,3 0 0 0 3,-3 3,3 0 0 0 -3,-3 z m 94.625,0 a 3,3 0 0 0 -3,3 3,3 0 0 0 3,3 3,3 0 0 0 3,-3 3,3 0 0 0 -3,-3 z m -87.75,0.375 a 2.625,2.625 0 0 0 -2.625,2.625 2.625,2.625 0 0 0 2.625,2.625 2.625,2.625 0 0 0 2.625,-2.625 2.625,2.625 0 0 0 -2.625,-2.625 z m 80.875,0 a 2.625,2.625 0 0 0 -2.625,2.625 2.625,2.625 0 0 0 2.625,2.625 2.625,2.625 0 0 0 2.625,-2.625 2.625,2.625 0 0 0 -2.625,-2.625 z M 51.879883,83.549804 A 2.4500001,2.4500001 0 0 0 49.46289,86 a 2.4500001,2.4500001 0 0 0 2.449219,2.450196 2.4500001,2.4500001 0 0 0 0.356445,-0.02636 l 0.01465,-0.002 a 2.4500001,2.4500001 0 0 0 0.0078,-9.99e-4 l 14.515625,-2.124024 v -0.001 A 0.30000001,0.30000001 0 0 0 67.0625,86 0.30000001,0.30000001 0 0 0 66.80664,85.704102 v -0.001 L 52.315429,83.583008 a 2.4500001,2.4500001 0 0 0 -0.04687,-0.0068 2.4500001,2.4500001 0 0 0 -0.323242,-0.02636 2.4500001,2.4500001 0 0 0 -0.03321,0 2.4500001,2.4500001 0 0 0 -0.03222,0 z m 68.174807,0 a 2.4500001,2.4500001 0 0 0 -0.32325,0.02636 2.4500001,2.4500001 0 0 0 -0.0469,0.0068 l -14.49121,2.120118 v 9.99e-4 A 0.30000001,0.30000001 0 0 0 104.9375,86 a 0.30000001,0.30000001 0 0 0 0.25586,0.295898 v 0.001 l 14.51563,2.124024 a 2.4500001,2.4500001 0 0 0 0.008,10e-4 l 0.0147,0.002 a 2.4500001,2.4500001 0 0 0 0.35644,0.02636 A 2.4500001,2.4500001 0 0 0 122.53711,86 a 2.4500001,2.4500001 0 0 0 -2.44922,-2.450196 2.4500001,2.4500001 0 0 0 -0.0332,0 z m -52.937503,5.903321 -14.625976,0.748047 a 2.4500001,2.4500001 0 0 0 -0.04785,0.0019 2.4500001,2.4500001 0 0 0 -0.321289,0.03711 2.4500001,2.4500001 0 0 0 -0.03321,0.0068 2.4500001,2.4500001 0 0 0 -0.03125,0.0059 2.4500001,2.4500001 0 0 0 -1.892578,2.874998 2.4500001,2.4500001 0 0 0 2.879883,1.925785 2.4500001,2.4500001 0 0 0 0.344726,-0.0957 l 0.01367,-0.005 a 2.4500001,2.4500001 0 0 0 0.0078,-0.003 l 13.822266,-4.915037 v -9.99e-4 a 0.30000001,0.30000001 0 0 0 0.19336,-0.339844 0.30000001,0.30000001 0 0 0 -0.308594,-0.240235 z m 37.765623,0 -0.001,0.001 a 0.30000001,0.30000001 0 0 0 -0.30859,0.240234 0.30000001,0.30000001 0 0 0 0.19336,0.339844 v 0.0019 l 13.82226,4.915037 a 2.4500001,2.4500001 0 0 0 0.008,0.002 l 0.0137,0.005 a 2.4500001,2.4500001 0 0 0 0.34473,0.0957 2.4500001,2.4500001 0 0 0 2.87988,-1.92578 2.4500001,2.4500001 0 0 0 -1.92382,-2.880859 2.4500001,2.4500001 0 0 0 -0.0332,-0.0059 v -9.99e-4 a 2.4500001,2.4500001 0 0 0 -0.32129,-0.03711 2.4500001,2.4500001 0 0 0 -0.0478,-0.002 z m 20.81152,1.810547 a 2.625,2.625 0 0 0 -0.0967,0.001 2.625,2.625 0 0 0 -2.51171,2.112308 2.625,2.625 0 0 0 2.0625,3.08691 2.625,2.625 0 0 0 3.08691,-2.0625 2.625,2.625 0 0 0 -2.0625,-3.086914 2.625,2.625 0 0 0 -0.47852,-0.05078 z m -79.407221,0.001 a 2.625,2.625 0 0 0 -0.459961,0.0498 2.625,2.625 0 0 0 -2.0625,3.086913 2.625,2.625 0 0 0 3.086914,2.0625 2.625,2.625 0 0 0 2.0625,-3.08691 2.625,2.625 0 0 0 -2.626953,-2.112308 z m -6.700195,0.864257 a 3,3 0 0 0 -0.588867,0.05664 3,3 0 0 0 -2.365235,3.522465 3,3 0 0 0 3.522461,2.364255 3,3 0 0 0 2.365235,-3.52246 3,3 0 0 0 -2.933594,-2.4209 z m 92.812496,0.10154 a 3,3 0 0 0 -2.93847,2.414061 3,3 0 0 0 2.35742,3.52832 3,3 0 0 0 3.52734,-2.35742 3,3 0 0 0 -2.35742,-3.527344 3,3 0 0 0 -0.58887,-0.05762 z M 68.221679,93.0625 a 0.30000001,0.30000001 0 0 0 -0.06738,0.0097 v -10e-4 l -14.200196,3.586915 a 2.4500001,2.4500001 0 0 0 -0.0459,0.0117 2.4500001,2.4500001 0 0 0 -0.308594,0.09961 2.4500001,2.4500001 0 0 0 -0.03028,0.0127 2.4500001,2.4500001 0 0 0 -0.03028,0.0117 2.4500001,2.4500001 0 0 0 -1.294922,3.188475 2.4500001,2.4500001 0 0 0 3.200196,1.32617 2.4500001,2.4500001 0 0 0 0.319335,-0.16113 l 0.0127,-0.007 a 2.4500001,2.4500001 0 0 0 0.0068,-0.005 l 12.597657,-7.5166 v -0.001 a 0.30000001,0.30000001 0 0 0 0.123046,-0.371095 0.30000001,0.30000001 0 0 0 -0.282226,-0.18457 z m 35.559571,0 a 0.30000001,0.30000001 0 0 0 -0.28516,0.18457 0.30000001,0.30000001 0 0 0 0.12305,0.371095 v 10e-4 l 12.59765,7.517575 a 2.4500001,2.4500001 0 0 0 0.007,0.004 l 0.0127,0.008 a 2.4500001,2.4500001 0 0 0 0.31934,0.16015 2.4500001,2.4500001 0 0 0 3.20019,-1.326175 2.4500001,2.4500001 0 0 0 -1.32519,-3.20117 2.4500001,2.4500001 0 0 0 -0.0303,-0.0127 2.4500001,2.4500001 0 0 0 -0.3086,-0.09961 2.4500001,2.4500001 0 0 0 -0.0459,-0.0117 L 103.84569,93.07043 v 0.001 a 0.30000001,0.30000001 0 0 0 -0.0645,-0.0088 z m -1.78418,3.325195 a 0.30000001,0.30000001 0 0 0 -0.25098,0.132815 0.30000001,0.30000001 0 0 0 0.0479,0.38867 l 10.87109,9.81348 a 2.4500001,2.4500001 0 0 0 0.0352,0.0322 2.4500001,2.4500001 0 0 0 0.25391,0.20117 2.4500001,2.4500001 0 0 0 0.0273,0.0186 2.4500001,2.4500001 0 0 0 0.0273,0.0176 v 10e-4 a 2.4500001,2.4500001 0 0 0 3.37109,-0.69433 2.4500001,2.4500001 0 0 0 -0.67578,-3.39747 2.4500001,2.4500001 0 0 0 -0.31055,-0.17675 l -0.0136,-0.006 a 2.4500001,2.4500001 0 0 0 -0.007,-0.004 l -13.25,-6.29883 v 10e-4 a 0.30000001,0.30000001 0 0 0 -0.12597,-0.0293 z m -31.991211,0.001 a 0.30000001,0.30000001 0 0 0 -0.128906,0.0283 h -0.001 L 56.64939,102.70508 a 2.4500001,2.4500001 0 0 0 -0.04297,0.0205 2.4500001,2.4500001 0 0 0 -0.283203,0.15723 2.4500001,2.4500001 0 0 0 -0.02734,0.0185 2.4500001,2.4500001 0 0 0 -0.02735,0.0176 2.4500001,2.4500001 0 0 0 -0.648438,3.37989 2.4500001,2.4500001 0 0 0 3.398438,0.67675 2.4500001,2.4500001 0 0 0 0.28125,-0.2207 l 0.01172,-0.01 a 2.4500001,2.4500001 0 0 0 0.0059,-0.005 l 10.888672,-9.83008 v -10e-4 a 0.30000001,0.30000001 0 0 0 0.04785,-0.387695 0.30000001,0.30000001 0 0 0 -0.248046,-0.132815 z m -21.355469,2.46094 a 2.625,2.625 0 0 0 -1.014648,0.200195 2.625,2.625 0 0 0 -1.419922,3.42968 2.625,2.625 0 0 0 3.429688,1.42091 2.625,2.625 0 0 0 1.419921,-3.42969 2.625,2.625 0 0 0 -2.415039,-1.621095 z m 74.67969,0 a 2.625,2.625 0 0 0 -2.39551,1.621095 2.625,2.625 0 0 0 1.41992,3.42968 2.625,2.625 0 0 0 3.42969,-1.4209 2.625,2.625 0 0 0 -1.41992,-3.42968 2.625,2.625 0 0 0 -1.03418,-0.200195 z M 99.598635,99.30276 a 0.30000001,0.30000001 0 0 0 -0.20801,0.08789 0.30000001,0.30000001 0 0 0 -0.0283,0.38965 v 0.001 l 8.747065,11.7461 a 2.4500001,2.4500001 0 0 0 0.0283,0.0381 2.4500001,2.4500001 0 0 0 0.20996,0.24706 2.4500001,2.4500001 0 0 0 0.0234,0.0234 2.4500001,2.4500001 0 0 0 0.0234,0.0224 l -0.001,10e-4 a 2.4500001,2.4500001 0 0 0 3.44239,-0.0234 2.4500001,2.4500001 0 0 0 0,-3.46485 2.4500001,2.4500001 0 0 0 -0.27051,-0.2334 l -0.0117,-0.009 a 2.4500001,2.4500001 0 0 0 -0.006,-0.005 l -11.7666,-8.762695 v 0.001 a 0.30000001,0.30000001 0 0 0 -0.182615,-0.05957 z m -27.194338,10e-4 a 0.30000001,0.30000001 0 0 0 -0.185547,0.05859 l -11.746094,8.74707 a 2.4500001,2.4500001 0 0 0 -0.03809,0.0283 2.4500001,2.4500001 0 0 0 -0.247071,0.20996 2.4500001,2.4500001 0 0 0 -0.02343,0.0234 2.4500001,2.4500001 0 0 0 -0.02343,0.0235 2.4500001,2.4500001 0 0 0 0.02343,3.44141 2.4500001,2.4500001 0 0 0 3.464844,0 2.4500001,2.4500001 0 0 0 0.233398,-0.27051 l 0.0088,-0.0117 a 2.4500001,2.4500001 0 0 0 0.0049,-0.006 l 8.761719,-11.7666 a 0.30000001,0.30000001 0 0 0 -0.02832,-0.390625 0.30000001,0.30000001 0 0 0 -0.205078,-0.08692 z m -30.250977,1.61133 a 3,3 0 0 0 -1.079101,0.22363 3,3 0 0 0 -1.640625,3.91211 3,3 0 0 0 3.913086,1.64062 3,3 0 0 0 1.640625,-3.9121 3,3 0 0 0 -2.833985,-1.86426 z m 87.43359,0.38184 a 3,3 0 0 0 -2.72167,1.83886 3,3 0 0 0 1.60644,3.92676 3,3 0 0 0 3.92676,-1.60644 3,3 0 0 0 -1.60645,-3.92676 3,3 0 0 0 -1.20508,-0.23242 z m -32.91015,0.39843 a 0.30000001,0.30000001 0 0 0 -0.155275,0.0498 0.30000001,0.30000001 0 0 0 -0.104495,0.37793 l 6.28809,13.22657 a 2.4500001,2.4500001 0 0 0 0.0205,0.043 2.4500001,2.4500001 0 0 0 0.15722,0.28319 2.4500001,2.4500001 0 0 0 0.0185,0.0283 2.4500001,2.4500001 0 0 0 0.0176,0.0263 v 10e-4 a 2.4500001,2.4500001 0 0 0 3.37989,0.64844 2.4500001,2.4500001 0 0 0 0.67676,-3.39844 2.4500001,2.4500001 0 0 0 -0.22071,-0.28125 l -0.01,-0.0117 a 2.4500001,2.4500001 0 0 0 -0.005,-0.006 l -9.830075,-10.88867 h -10e-4 a 0.30000001,0.30000001 0 0 0 -0.23242,-0.0986 z m -21.383791,0.001 a 0.30000001,0.30000001 0 0 0 -0.202148,0.0977 h -0.001 l -9.813478,10.87109 a 2.4500001,2.4500001 0 0 0 -0.03222,0.0352 2.4500001,2.4500001 0 0 0 -0.201171,0.25391 2.4500001,2.4500001 0 0 0 -0.01855,0.0283 2.4500001,2.4500001 0 0 0 -0.01758,0.0263 2.4500001,2.4500001 0 0 0 0.694336,3.37109 2.4500001,2.4500001 0 0 0 3.397461,-0.67579 2.4500001,2.4500001 0 0 0 0.176758,-0.31054 l 0.0059,-0.0136 a 2.4500001,2.4500001 0 0 0 0.0039,-0.007 l 6.298828,-13.25 h -0.001 a 0.30000001,0.30000001 0 0 0 -0.104492,-0.37695 0.30000001,0.30000001 0 0 0 -0.185547,-0.0498 z m 3.333008,1.77734 a 0.30000001,0.30000001 0 0 0 -0.244141,0.14551 h -0.001 l -7.503906,12.57617 a 2.4500001,2.4500001 0 0 0 -0.02442,0.041 2.4500001,2.4500001 0 0 0 -0.148437,0.28808 2.4500001,2.4500001 0 0 0 -0.01269,0.0312 2.4500001,2.4500001 0 0 0 -0.0127,0.0293 2.4500001,2.4500001 0 0 0 1.338867,3.1709 2.4500001,2.4500001 0 0 0 3.201172,-1.3252 2.4500001,2.4500001 0 0 0 0.112304,-0.33887 l 0.0039,-0.0146 a 2.4500001,2.4500001 0 0 0 0.002,-0.008 l 3.592773,-14.22363 h -0.001 a 0.30000001,0.30000001 0 0 0 -0.175781,-0.34961 0.30000001,0.30000001 0 0 0 -0.126953,-0.0225 z m 14.718748,0 a 0.30000001,0.30000001 0 0 0 -0.09766,0.0215 0.30000001,0.30000001 0 0 0 -0.174805,0.35058 h -0.001 l 3.586915,14.19922 a 2.4500001,2.4500001 0 0 0 0.0117,0.0459 2.4500001,2.4500001 0 0 0 0.09961,0.30859 2.4500001,2.4500001 0 0 0 0.0127,0.0312 2.4500001,2.4500001 0 0 0 0.0117,0.0293 v 10e-4 a 2.4500001,2.4500001 0 0 0 3.188475,1.29492 2.4500001,2.4500001 0 0 0 1.32617,-3.2002 2.4500001,2.4500001 0 0 0 -0.16114,-0.31933 l -0.007,-0.0127 a 2.4500001,2.4500001 0 0 0 -0.005,-0.007 l -7.51659,-12.59863 -10e-4,0.001 a 0.30000001,0.30000001 0 0 0 -0.27344,-0.14551 z m -11.104491,1.09473 a 0.30000001,0.30000001 0 0 0 -0.274413,0.19824 h -0.002 l -4.90625,13.79883 a 2.4500001,2.4500001 0 0 0 -0.01563,0.0449 2.4500001,2.4500001 0 0 0 -0.08887,0.31152 2.4500001,2.4500001 0 0 0 -0.0068,0.0332 2.4500001,2.4500001 0 0 0 -0.0059,0.0312 2.4500001,2.4500001 0 0 0 1.931641,2.84863 2.4500001,2.4500001 0 0 0 2.880859,-1.92382 2.4500001,2.4500001 0 0 0 0.04395,-0.3545 l 0.001,-0.0156 a 2.4500001,2.4500001 0 0 0 0,-0.008 l 0.749024,-14.65039 -0.001,-10e-4 a 0.30000001,0.30000001 0 0 0 -0.240235,-0.3086 0.30000001,0.30000001 0 0 0 -0.06543,-0.005 z m 7.521485,0 a 0.30000001,0.30000001 0 0 0 -0.06738,0.005 0.30000001,0.30000001 0 0 0 -0.240234,0.3086 l -0.001,9.9e-4 0.748047,14.62598 a 2.4500001,2.4500001 0 0 0 0.0019,0.0478 2.4500001,2.4500001 0 0 0 0.03711,0.32129 2.4500001,2.4500001 0 0 0 0.0068,0.0332 2.4500001,2.4500001 0 0 0 0.0059,0.0312 2.4500001,2.4500001 0 0 0 2.875001,1.89258 2.4500001,2.4500001 0 0 0 1.92578,-2.87988 2.4500001,2.4500001 0 0 0 -0.0957,-0.34473 l -0.005,-0.0137 a 2.4500001,2.4500001 0 0 0 -0.003,-0.008 L 90.035156,104.7666 h -0.001 a 0.30000001,0.30000001 0 0 0 -0.27246,-0.19824 z M 86,104.9375 a 0.30000001,0.30000001 0 0 0 -0.295898,0.25586 h -0.001 l -2.120117,14.49121 a 2.4500001,2.4500001 0 0 0 -0.0068,0.0469 2.4500001,2.4500001 0 0 0 -0.02636,0.32325 2.4500001,2.4500001 0 0 0 0,0.0332 2.4500001,2.4500001 0 0 0 0,0.0322 2.4500001,2.4500001 0 0 0 2.450196,2.417 2.4500001,2.4500001 0 0 0 2.450195,-2.44922 2.4500001,2.4500001 0 0 0 -0.02636,-0.35644 l -0.0019,-0.0146 a 2.4500001,2.4500001 0 0 0 -10e-4,-0.008 L 86.29697,105.19327 h -0.001 A 0.30000001,0.30000001 0 0 0 86,104.9375 Z m -33.646485,0.90332 a 2.625,2.625 0 0 0 -1.43457,0.44239 2.625,2.625 0 0 0 -0.723633,3.64062 2.625,2.625 0 0 0 3.640625,0.72461 2.625,2.625 0 0 0 0.723633,-3.64063 2.625,2.625 0 0 0 -2.206055,-1.16699 z m 67.273435,0 a 2.625,2.625 0 0 0 -2.18652,1.16699 2.625,2.625 0 0 0 0.72363,3.64063 2.625,2.625 0 0 0 3.64063,-0.72461 2.625,2.625 0 0 0 -0.72364,-3.64062 2.625,2.625 0 0 0 -1.4541,-0.44239 z m -73.006833,3.44532 a 3,3 0 0 0 -1.625976,0.50488 3,3 0 0 0 -0.827149,4.16113 3,3 0 0 0 4.161133,0.82813 3,3 0 0 0 0.827148,-4.16114 3,3 0 0 0 -2.535156,-1.333 z m 78.684573,0.0849 a 3,3 0 0 0 -2.51368,1.32813 3,3 0 0 0 0.81836,4.16308 3,3 0 0 0 4.16309,-0.81933 3,3 0 0 0 -0.81934,-4.16211 3,3 0 0 0 -1.64843,-0.50977 z m -67.956057,2.59766 a 2.625,2.625 0 0 0 -1.798829,0.76856 2.625,2.625 0 0 0 0,3.71289 2.625,2.625 0 0 0 3.712891,0 2.625,2.625 0 0 0 0,-3.71289 2.625,2.625 0 0 0 -1.817383,-0.76856 2.625,2.625 0 0 0 -0.09668,0 z m 57.186527,0 a 2.625,2.625 0 0 0 -1.79785,0.76856 2.625,2.625 0 0 0 0,3.71289 2.625,2.625 0 0 0 3.71289,0 2.625,2.625 0 0 0 0,-3.71289 2.625,2.625 0 0 0 -1.81836,-0.76856 2.625,2.625 0 0 0 -0.0967,0 z m -62.002934,4.48633 a 3,3 0 0 0 -2.108398,0.87891 3,3 0 0 0 0,4.24218 3,3 0 0 0 4.242187,0 3,3 0 0 0 0,-4.24218 3,3 0 0 0 -2.133789,-0.87891 z m 66.910164,0 a 3,3 0 0 0 -2.1084,0.87891 3,3 0 0 0 0,4.24218 3,3 0 0 0 4.24218,0 3,3 0 0 0 0,-4.24218 3,3 0 0 0 -2.13378,-0.87891 z m -55.903328,0.54199 a 2.625,2.625 0 0 0 -2.1875,1.16699 2.625,2.625 0 0 0 0.72461,3.64063 2.625,2.625 0 0 0 3.640625,-0.72364 2.625,2.625 0 0 0 -0.72461,-3.64062 2.625,2.625 0 0 0 -1.453125,-0.44336 z m 44.902348,10e-4 a 2.625,2.625 0 0 0 -1.4336,0.44239 2.625,2.625 0 0 0 -0.7246,3.64062 2.625,2.625 0 0 0 3.64062,0.72364 2.625,2.625 0 0 0 0.72461,-3.64063 2.625,2.625 0 0 0 -2.20703,-1.16602 z m -37.945316,3.73633 a 2.625,2.625 0 0 0 -2.396484,1.62011 2.625,2.625 0 0 0 1.420898,3.42969 2.625,2.625 0 0 0 3.429688,-1.41992 2.625,2.625 0 0 0 -1.420899,-3.42969 2.625,2.625 0 0 0 -1.033203,-0.20019 z m 30.988286,0 a 2.625,2.625 0 0 0 -1.01367,0.20019 2.625,2.625 0 0 0 -1.420905,3.42969 2.625,2.625 0 0 0 3.429685,1.41992 2.625,2.625 0 0 0 1.4209,-3.42969 2.625,2.625 0 0 0 -2.41601,-1.62011 z m -41.833013,1.54687 a 3,3 0 0 0 -2.513671,1.32813 3,3 0 0 0 0.819335,4.16308 3,3 0 0 0 4.16211,-0.81836 3,3 0 0 0 -0.81836,-4.16308 3,3 0 0 0 -1.649414,-0.50977 z m 52.592773,0.0576 a 3,3 0 0 0 -1.625,0.50586 3,3 0 0 0 -0.82812,4.16113 3,3 0 0 0 4.16113,0.82715 3,3 0 0 0 0.82813,-4.16113 3,3 0 0 0 -2.53614,-1.33301 z m -34.195312,0.69727 a 2.625,2.625 0 0 0 -2.512695,2.11231 2.625,2.625 0 0 0 2.0625,3.0869 2.625,2.625 0 0 0 3.086914,-2.06249 2.625,2.625 0 0 0 -2.0625,-3.08691 2.625,2.625 0 0 0 -0.574219,-0.0498 z m 15.787112,0 a 2.625,2.625 0 0 0 -0.458985,0.0498 2.625,2.625 0 0 0 -2.062502,3.08691 2.625,2.625 0 0 0 3.086912,2.0625 2.625,2.625 0 0 0 2.0625,-3.08691 2.625,2.625 0 0 0 -2.627925,-2.11231 z M 86,123.8125 a 2.625,2.625 0 0 0 -2.625,2.625 2.625,2.625 0 0 0 2.625,2.625 2.625,2.625 0 0 0 2.625,-2.625 2.625,2.625 0 0 0 -2.625,-2.625 z m -18.340821,2.81933 a 3,3 0 0 0 -2.721679,1.83985 3,3 0 0 0 1.606446,3.92676 3,3 0 0 0 3.926757,-1.60645 3,3 0 0 0 -1.606445,-3.92675 3,3 0 0 0 -1.205079,-0.23341 z m 36.198241,0.15821 a 3,3 0 0 0 -1.07813,0.22265 3,3 0 0 0 -1.64062,3.91309 3,3 0 0 0 3.91211,1.64062 3,3 0 0 0 1.64063,-3.91308 3,3 0 0 0 -2.83399,-1.86328 z m -27.116209,2.61328 a 3,3 0 0 0 -2.914063,2.41504 3,3 0 0 0 2.357422,3.52734 3,3 0 0 0 3.527344,-2.35742 3,3 0 0 0 -2.356445,-3.52734 3,3 0 0 0 -0.614258,-0.0576 z m 18.398439,0.0205 a 3,3 0 0 0 -0.589845,0.0557 3,3 0 0 0 -2.364258,3.52246 3,3 0 0 0 3.522463,2.36524 3,3 0 0 0 2.364255,-3.52247 3,3 0 0 0 -2.932615,-2.42089 z M 86,130.3125 a 3,3 0 0 0 -3,3 3,3 0 0 0 3,3 3,3 0 0 0 3,-3 3,3 0 0 0 -3,-3 z" />
  </g>
</svg>
