<svg version="1.1" xmlns="http://www.w3.org/2000/svg" xmlns:xlink="http://www.w3.org/1999/xlink" width="72.22842" height="94.3558" viewBox="0,0,72.22842,94.3558"><g transform="translate(-203.99328,-89.01072)"><g data-paper-data="{&quot;isPaintingLayer&quot;:true}" fill="#ffffff" fill-rule="nonzero" stroke="#000000" stroke-width="4" stroke-linecap="butt" stroke-linejoin="miter" stroke-miterlimit="4" stroke-dasharray="" stroke-dashoffset="0" style="mix-blend-mode: normal"><path d="M250.09363,91.01072c2.03831,0 3.84539,1.00674 5.2411,2.3529c1.22857,1.18496 2.3082,2.1034 3.19087,2.74333c1.80487,1.17947 3.51646,2.7163 5.17993,4.58689c2.14446,2.36865 3.46753,5.07515 3.46753,7.92289c0,0.87446 -0.20823,1.73065 -0.53003,2.54671c3.15276,2.61131 4.83727,6.69574 4.83727,11.42837c0,5.04418 -3.41985,9.23754 -8.63679,11.01733c-0.47277,0.16576 -0.73159,0.22554 -1.17753,0.37826c2.2186,1.45067 4.03343,2.79281 5.17508,4.1047c4.81085,5.20416 7.38064,11.25426 7.38064,17.73616c0,6.71995 -2.61361,12.67767 -7.59032,17.19778c-6.13234,5.62878 -14.71382,8.34048 -25.15319,8.34048c-10.08771,0 -18.36369,-2.10902 -24.51734,-6.62987c-7.06839,-5.18128 -10.96757,-11.97681 -10.96757,-19.66305c0,-5.28873 1.48393,-10.19429 4.41693,-14.4376c2.28413,-3.30457 5.42776,-6.33586 9.32117,-9.15411c-2.40519,-1.95098 -4.46705,-3.86121 -5.79637,-5.78441c-2.38542,-3.4511 -3.63352,-7.34225 -3.63352,-11.41526c0,-3.7896 1.09423,-7.40636 3.20736,-10.60911l0.006,-0.009l0.006,-0.008c3.2749,-4.88153 8.32351,-8.23322 14.62828,-9.89472c3.84457,-1.05787 7.36107,-1.61697 10.58801,-1.61697c2.27401,0 4.79486,0.32467 7.45927,0.81363c0.14448,-0.17714 0.24455,-0.3707 0.41742,-0.53743c0.86019,-0.82966 2.21248,-1.40911 3.48015,-1.40911zM238.73717,106.96126c-2.41986,0 -4.08862,0.50815 -5.31487,1.35294l-0.0398,0.0271l-0.0398,0.0253c-1.71334,1.10167 -2.19584,1.99552 -2.19584,3.65059c0,2.06049 0.60508,3.34744 2.09197,4.61124c1.31501,1.05198 3.20599,2.20898 5.65755,3.39124l0.10193,0.0496l0.099,0.0562c0.95487,0.55259 2.21095,1.25218 3.46364,1.94936c0.70204,-0.2647 1.39369,-0.58932 2.11042,-0.76214l-0.0961,0.0243c1.70923,-0.47102 4.1304,-1.20993 7.12436,-2.17032c0.77202,-0.33683 1.30602,-0.66673 1.79492,-0.98498c-0.4867,-0.19047 -0.9598,-0.41611 -1.4105,-0.67693l-0.0612,-0.0356l-0.0592,-0.0374c-2.22995,-1.43386 -3.70882,-3.72745 -4.85183,-6.58494c-0.7602,-1.05578 -1.77268,-1.9688 -3.19668,-2.75363c-1.29633,-0.71445 -2.96499,-1.13197 -5.178,-1.13197zM237.37192,143.35855c-1.36568,-0.04846 -3.48697,1.02425 -6.17344,3.40907c-2.68648,2.38483 -3.96768,5.22488 -3.96768,9.06142c0,3.60376 1.1629,6.18461 3.73157,8.45564c2.49403,2.20502 5.94573,3.39874 10.90739,3.39874c2.85635,0 5.37119,-0.70718 7.79223,-2.19186c2.97347,-1.84567 4.10629,-3.83113 4.10629,-7.01844c0,-1.28984 -0.53848,-3.07806 -1.91141,-5.29285c-1.03964,-1.59734 -2.68457,-3.22404 -5.04016,-4.8144c-4.759,-3.21304 -8.0791,-4.95882 -9.44479,-5.00732z"/></g></g></svg>