<svg xmlns="http://www.w3.org/2000/svg" xmlns:xlink="http://www.w3.org/1999/xlink" version="1.1" width="485.9941" height="129.99999" viewBox="0,0,485.9941,129.99999"><defs><linearGradient x1="-0.00002" y1="142.00001" x2="479.99998" y2="142.00001" gradientUnits="userSpaceOnUse" id="color-1"><stop offset="0" stop-color="#ff3a2c" stop-opacity="0.27059"/><stop offset="0.26" stop-color="#ff3a2c" stop-opacity="0.27059"/><stop offset="0.6" stop-color="#ff3c41" stop-opacity="0.42353"/><stop offset="0.62" stop-color="#ff474f" stop-opacity="0.43137"/><stop offset="0.7" stop-color="#ff6485" stop-opacity="0.47059"/><stop offset="0.81" stop-color="#ff7bb0" stop-opacity="0.51765"/><stop offset="0.83" stop-color="#ff7fb4" stop-opacity="0.52941"/><stop offset="0.9" stop-color="#ff89be" stop-opacity="0.37647"/><stop offset="0.92" stop-color="#ff8dc2" stop-opacity="0.30196"/><stop offset="0.96" stop-color="#ff9fce" stop-opacity="0.19216"/><stop offset="1" stop-color="#ff9fce" stop-opacity="0"/></linearGradient><linearGradient x1="-0.00002" y1="142.00001" x2="479.99998" y2="142.00001" gradientUnits="userSpaceOnUse" id="color-2"><stop offset="0" stop-color="#ff3a2c" stop-opacity="0.27059"/><stop offset="0.26" stop-color="#ff3a2c" stop-opacity="0.27059"/><stop offset="0.6" stop-color="#ff3c41" stop-opacity="0.42353"/><stop offset="0.62" stop-color="#ff474f" stop-opacity="0.43137"/><stop offset="0.7" stop-color="#ff6485" stop-opacity="0.47059"/><stop offset="0.81" stop-color="#ff7bb0" stop-opacity="0.51765"/><stop offset="0.83" stop-color="#ff7fb4" stop-opacity="0.52941"/><stop offset="0.9" stop-color="#ff89be" stop-opacity="0.37647"/><stop offset="0.92" stop-color="#ff8dc2" stop-opacity="0.30196"/><stop offset="0.96" stop-color="#ff9fce" stop-opacity="0.19216"/><stop offset="1" stop-color="#ff9fce" stop-opacity="0"/></linearGradient><linearGradient x1="2.997" y1="27" x2="482.997" y2="27" gradientUnits="userSpaceOnUse" id="color-1-,0,0,1,2.99704,-115.00002"><stop offset="0" stop-color="#ff3a2c" stop-opacity="0.27059"/><stop offset="0.26" stop-color="#ff3a2c" stop-opacity="0.27059"/><stop offset="0.6" stop-color="#ff3c41" stop-opacity="0.42353"/><stop offset="0.62" stop-color="#ff474f" stop-opacity="0.43137"/><stop offset="0.7" stop-color="#ff6485" stop-opacity="0.47059"/><stop offset="0.81" stop-color="#ff7bb0" stop-opacity="0.51765"/><stop offset="0.83" stop-color="#ff7fb4" stop-opacity="0.52941"/><stop offset="0.9" stop-color="#ff89be" stop-opacity="0.37647"/><stop offset="0.92" stop-color="#ff8dc2" stop-opacity="0.30196"/><stop offset="0.96" stop-color="#ff9fce" stop-opacity="0.19216"/><stop offset="1" stop-color="#ff9fce" stop-opacity="0"/></linearGradient><linearGradient x1="2.997" y1="27" x2="482.997" y2="27" gradientUnits="userSpaceOnUse" id="color-2-,0,0,1,2.99704,-115.00002"><stop offset="0" stop-color="#ff3a2c" stop-opacity="0.27059"/><stop offset="0.26" stop-color="#ff3a2c" stop-opacity="0.27059"/><stop offset="0.6" stop-color="#ff3c41" stop-opacity="0.42353"/><stop offset="0.62" stop-color="#ff474f" stop-opacity="0.43137"/><stop offset="0.7" stop-color="#ff6485" stop-opacity="0.47059"/><stop offset="0.81" stop-color="#ff7bb0" stop-opacity="0.51765"/><stop offset="0.83" stop-color="#ff7fb4" stop-opacity="0.52941"/><stop offset="0.9" stop-color="#ff89be" stop-opacity="0.37647"/><stop offset="0.92" stop-color="#ff8dc2" stop-opacity="0.30196"/><stop offset="0.96" stop-color="#ff9fce" stop-opacity="0.19216"/><stop offset="1" stop-color="#ff9fce" stop-opacity="0"/></linearGradient></defs><g><g data-paper-data="{&quot;isPaintingLayer&quot;:true}" fill-rule="nonzero" stroke-linejoin="round" stroke-dasharray="" stroke-dashoffset="0" style="mix-blend-mode: normal"><path d="M 2.997 130 L 2.997 0 L 482.9971 0 L 482.9971 130 Z " fill="#282828" stroke-width="0.26459" stroke-linecap="round" stroke-miterlimit="10" stroke="none"/><g stroke-linecap="butt" stroke-miterlimit="4"><path d="M 62.0005 58.4965 L 62.0005 68.75 C 62.0005 69.1483 62.1544 69.5313 62.436 69.813 C 62.7177 70.0946 63.1007 70.2485 63.499 70.2485 L 63.499 72.751 C 62.4386 72.751 61.4216 72.3271 60.6718 71.5773 C 59.9219 70.8275 59.498 69.8104 59.498 68.75 L 59.498 58.4966 Z " stroke-width="0.66146" fill="#243a3b" stroke="none"/><path d="M 68.7476 71.5034 L 68.7476 79.0034 C 68.7476 81.1978 66.9409 82.997 64.7466 82.997 L 51.5035 82.997 L 51.5035 80.502 L 64.7466 80.502 C 65.5898 80.502 66.2451 79.8467 66.2451 79.0034 L 66.2451 71.5034 Z " stroke-width="0.66146" fill="#243a3b" stroke="none"/><path d="M 205.3568 70.2485 L 205.3568 72.751 L 131.966 72.751 L 131.7446 80.5389 C 131.6976 82.1852 130.2897 83.499 128.7475 83.499 L 106.4985 83.499 C 105.4381 83.499 104.4211 83.0751 103.6713 82.3253 C 102.9215 81.5755 102.4975 80.5584 102.4975 79.498 L 102.4975 75.748 L 105 75.748 L 105 79.4982 C 105 79.8965 105.1539 80.2796 105.4355 80.5612 C 105.7172 80.8428 106.1002 80.9967 106.4985 80.9967 L 128.7475 80.9967 C 129.1385 80.9967 129.2348 80.9836 129.2495 80.4652 L 129.5005 71.7177 C 129.5005 71.7152 129.5005 71.7127 129.5005 71.7101 C 129.5245 70.8942 130.1206 70.2485 130.999 70.2485 Z " stroke-width="0.66146" fill="#243a3b" stroke="none"/><path d="M 9.7441 88.002 C 9.7441 89.9202 8.1633 91.501 6.2451 91.501 C 4.3269 91.501 2.7461 89.9202 2.7461 88.002 C 2.7461 86.0838 4.3269 84.503 6.2451 84.503 C 8.1633 84.503 9.7441 86.0838 9.7441 88.002 Z M 5.2485 88.002 C 5.2485 88.5691 5.678 88.9985 6.2451 88.9985 C 6.8122 88.9985 7.249 88.5691 7.249 88.002 C 7.249 87.4349 6.8122 86.9981 6.2451 86.9981 C 5.678 86.9981 5.2485 87.4349 5.2485 88.002 Z " stroke-width="0.66146" fill="#243a3b" stroke="none"/><path d="M 52.7436 81.7495 C 52.7436 83.6677 51.1628 85.2485 49.2446 85.2485 C 47.3264 85.2485 45.7456 83.6677 45.7456 81.7495 C 45.7456 79.8313 47.3264 78.2505 49.2446 78.2505 C 51.1628 78.2505 52.7436 79.8313 52.7436 81.7495 Z M 48.248 81.7495 C 48.248 82.3166 48.6775 82.7534 49.2446 82.7534 C 49.8117 82.7534 50.2485 82.3166 50.2485 81.7495 C 50.2485 81.1824 49.8117 80.7529 49.2446 80.7529 C 48.6775 80.7529 48.248 81.1824 48.248 81.7495 Z " stroke-width="0.66146" fill="#243a3b" stroke="none"/><path d="M 59.2471 88.002 C 59.2471 89.9202 57.6662 91.501 55.748 91.501 C 53.8299 91.501 52.249 89.9202 52.249 88.002 C 52.249 86.0838 53.8299 84.503 55.748 84.503 C 57.6662 84.503 59.2471 86.0838 59.2471 88.002 Z M 54.7441 88.002 C 54.7441 88.5691 55.181 88.9985 55.748 88.9985 C 56.3151 88.9985 56.7446 88.5691 56.7446 88.002 C 56.7446 87.4349 56.3152 86.9981 55.748 86.9981 C 55.181 86.9981 54.7441 87.4349 54.7441 88.002 Z " stroke-width="0.66146" fill="#243a3b" stroke="none"/><path d="M 88.2505 71.2525 C 88.2505 73.1707 86.6623 74.7515 84.7441 74.7515 C 82.8259 74.7515 81.2451 73.1707 81.2451 71.2525 C 81.2451 69.3343 82.8259 67.7534 84.7441 67.7535 C 86.6623 67.7535 88.2505 69.3343 88.2505 71.2525 Z M 83.7476 71.2525 C 83.7476 71.8196 84.177 72.249 84.7441 72.249 C 85.3112 72.249 85.7481 71.8196 85.7481 71.2525 C 85.7481 70.6854 85.3112 70.2485 84.7441 70.2485 C 84.177 70.2485 83.7476 70.6854 83.7476 71.2525 Z " stroke-width="0.66146" fill="#243a3b" stroke="none"/><path d="M 107.0005 88.9985 C 107.0005 90.9167 105.4123 92.4975 103.4941 92.4975 C 101.5759 92.4975 99.9951 90.9167 99.9951 88.9985 C 99.9951 87.0803 101.5759 85.4995 103.4941 85.4995 C 105.4123 85.4995 107.0005 87.0804 107.0005 88.9985 Z M 102.4976 88.9985 C 102.4976 89.5656 102.927 90.0025 103.4941 90.0025 C 104.0612 90.0025 104.4981 89.5656 104.4981 88.9985 C 104.4981 88.4314 104.0612 88.002 103.4941 88.002 C 102.927 88.002 102.4976 88.4314 102.4976 88.9985 Z " stroke-width="0.66146" fill="#243a3b" stroke="none"/><path d="M 107.2441 73.4965 C 107.2441 75.4147 105.6633 77.0029 103.7451 77.0029 C 101.8269 77.003 100.2461 75.4147 100.2461 73.4965 C 100.2461 71.5783 101.8269 69.9975 103.7451 69.9975 C 105.6633 69.9975 107.2441 71.5784 107.2441 73.4965 Z M 102.7485 73.4965 C 102.7485 74.0636 103.178 74.5005 103.7451 74.5005 C 104.3122 74.5005 104.749 74.0636 104.749 73.4965 C 104.749 72.9295 104.3122 72.5 103.7451 72.5 C 103.178 72.5 102.7485 72.9295 102.7485 73.4965 Z " stroke-width="0.66146" fill="#243a3b" stroke="none"/><path d="M 108.499 115.2485 C 108.499 117.1667 106.9182 118.7475 105 118.7475 C 103.0818 118.7475 101.4936 117.1667 101.4936 115.2485 C 101.4936 113.3303 103.0818 111.7495 105 111.7495 C 106.9182 111.7495 108.499 113.3303 108.499 115.2485 Z M 103.9961 115.2485 C 103.9961 115.8156 104.4329 116.2525 105 116.2525 C 105.5671 116.2525 105.9966 115.8156 105.9966 115.2485 C 105.9966 114.6814 105.5671 114.252 105 114.252 C 104.4329 114.252 103.9961 114.6814 103.9961 115.2485 Z " stroke-width="0.66146" fill="#243a3b" stroke="none"/><path d="M 10.4971 105.999 C 12.7156 105.999 14.2541 107.8791 14.4907 109.8522 C 14.4907 109.8597 14.4907 109.8671 14.4907 109.8745 L 14.7416 112.3548 C 14.8586 113.3307 15.4286 114.001 16.2476 114.001 L 102.4976 114.001 L 102.4976 116.5036 L 16.2476 116.5036 C 14.029 116.5036 12.4905 114.6236 12.254 112.6503 C 12.2539 112.6428 12.2539 112.6354 12.254 112.628 L 12.003 110.1476 C 11.886 109.1718 11.3161 108.5015 10.4971 108.5015 L 0 108.5015 L 0 105.999 Z " stroke-width="0.66146" fill="#243a3b" stroke="none"/><path d="M 37.7436 90.0025 C 39.9335 90.0025 41.7446 91.8136 41.7446 94.0035 C 41.7446 96.1933 39.9335 97.9971 37.7436 97.9971 L 25.748 97.9971 C 23.5581 97.9971 21.7471 96.1934 21.7471 94.0035 C 21.7471 91.8136 23.5581 90.0025 25.748 90.0025 Z M 24.9951 94.0034 C 24.9951 94.4369 25.3146 94.749 25.748 94.749 L 37.7436 94.749 C 38.1771 94.749 38.4966 94.4369 38.4966 94.0034 C 38.4966 93.57 38.1771 93.2505 37.7436 93.2505 L 25.748 93.2505 C 25.3146 93.2505 24.9951 93.57 24.9951 94.0034 Z " stroke-width="0.8599" fill="#243a3b" stroke="none"/><path d="M 13.2505 92.2465 L 23.061 92.2465 L 23.061 94.749 L 13.2505 94.749 C 10.4395 94.749 7.9332 92.9342 7.0645 90.2608 L 9.4414 89.4857 C 9.9785 91.1385 11.5127 92.2465 13.2505 92.2465 Z M 56.4936 90.7481 C 55.4857 93.1669 53.1199 94.749 50.4995 94.749 L 40.6816 94.749 L 40.6816 92.2466 L 50.4995 92.2466 C 52.1178 92.2466 53.568 91.2822 54.1905 89.7884 Z " stroke-width="0.66146" fill="#243a3b" stroke="none"/><path d="M 81.998 109.0034 C 81.998 110.9216 80.4172 112.5024 78.499 112.5024 C 76.5808 112.5024 75 110.9216 75 109.0034 C 75 107.0852 76.5808 105.497 78.499 105.497 C 80.4172 105.497 81.9981 107.0852 81.998 109.0034 Z M 77.4951 109.0034 C 77.4951 109.5705 77.9319 110 78.499 110 C 79.0661 110 79.4956 109.5705 79.4956 109.0034 C 79.4956 108.4364 79.0661 107.9995 78.499 107.9995 C 77.9319 107.9995 77.4951 108.4363 77.4951 109.0034 Z " stroke-width="0.66146" fill="#243a3b" stroke="none"/><path d="M 32.4951 109.0034 C 32.4951 110.9216 30.9143 112.5024 28.9961 112.5024 C 27.0779 112.5024 25.497 110.9216 25.497 109.0034 C 25.497 107.0852 27.0779 105.497 28.9961 105.497 C 30.9143 105.497 32.4951 107.0852 32.4951 109.0034 Z M 27.9995 109.0034 C 27.9995 109.5705 28.429 110 28.9961 110 C 29.5632 110 30 109.5705 30 109.0034 C 30 108.4363 29.5632 107.9995 28.9961 107.9995 C 28.429 107.9995 27.9995 108.4363 27.9995 109.0034 Z " stroke-width="0.66146" fill="#243a3b" stroke="none"/><path d="M 58.9961 99.001 C 61.186 99.001 62.9971 100.8121 62.9971 103.002 C 62.9971 105.1919 61.186 107.003 58.9961 107.003 L 47.0005 107.003 C 44.8106 107.003 42.9995 105.1919 42.9995 103.002 C 42.9995 100.8121 44.8106 99.001 47.0005 99.001 Z M 46.2475 103.002 C 46.2475 103.4355 46.5671 103.7476 47.0005 103.7476 L 58.9961 103.7476 C 59.4295 103.7476 59.749 103.4354 59.749 103.002 C 59.749 102.5685 59.4295 102.249 58.9961 102.249 L 47.0005 102.249 C 46.567 102.249 46.2475 102.5685 46.2475 103.002 Z " stroke-width="0.8599" fill="#243a3b" stroke="none"/><path d="M 44.0625 102.249 L 44.0625 104.7515 L 34.2446 104.7515 C 32.6263 104.7515 31.1761 105.7158 30.5537 107.2097 L 28.2505 106.25 C 29.2584 103.8312 31.6242 102.249 34.2446 102.249 Z M 71.4936 102.249 C 74.3046 102.249 76.811 104.0712 77.6796 106.7446 L 75.3027 107.5123 C 74.7656 105.8596 73.2314 104.7515 71.4936 104.7515 L 61.6831 104.7515 L 61.6831 102.249 Z " stroke-width="0.66146" fill="#243a3b" stroke="none"/><path d="M 99.9951 99.503 C 99.9951 101.4212 98.4143 103.002 96.4961 103.002 C 94.5779 103.002 92.9971 101.4212 92.9971 99.503 C 92.9971 97.5848 94.5779 95.9966 96.4961 95.9966 C 98.4143 95.9966 99.9951 97.5848 99.9951 99.503 Z M 95.4995 99.503 C 95.4995 100.0701 95.929 100.4995 96.4961 100.4995 C 97.0632 100.4995 97.5 100.0701 97.5 99.503 C 97.5 98.9359 97.0632 98.499 96.4961 98.499 C 95.929 98.499 95.4995 98.9359 95.4995 99.503 Z " stroke-width="0.66146" fill="#243a3b" stroke="none"/><path d="M 94.4956 117.5 L 94.4956 124.0035 C 94.4956 126.1934 92.6845 127.9971 90.4946 127.9971 C 88.3047 127.9971 86.4936 126.1933 86.4936 124.0035 L 86.4936 117.5 C 86.4936 115.3101 88.3047 113.499 90.4946 113.499 C 92.6845 113.499 94.4956 115.3101 94.4956 117.5 Z M 89.749 117.5 L 89.749 124.0035 C 89.749 124.4369 90.0611 124.749 90.4946 124.749 C 90.9281 124.749 91.2476 124.4369 91.2476 124.0035 L 91.2476 117.5 C 91.2476 117.0666 90.9281 116.7471 90.4946 116.7471 C 90.0611 116.7471 89.749 117.0666 89.749 117.5 Z " stroke-width="0.8599" fill="#243a3b" stroke="none"/><path d="M 94.7097 101.0606 C 93.2159 101.683 92.2441 103.1332 92.2441 104.7515 L 92.2441 114.562 L 89.749 114.562 L 89.749 104.7515 C 89.749 102.1311 91.3312 99.7579 93.75 98.75 Z " stroke-width="0.66146" fill="#243a3b" stroke="none"/><path d="M 100.2461 84.7465 C 100.2461 86.6647 98.6652 88.2529 96.7471 88.2529 C 94.8289 88.2529 93.248 86.6647 93.248 84.7465 C 93.248 82.8284 94.8289 81.2475 96.7471 81.2475 C 98.6653 81.2475 100.2461 82.8284 100.2461 84.7465 Z M 95.7505 84.7465 C 95.7505 85.3136 96.18 85.7505 96.7471 85.7505 C 97.3142 85.7505 97.7436 85.3136 97.7436 84.7465 C 97.7436 84.1795 97.3142 83.75 96.7471 83.75 C 96.18 83.75 95.7505 84.1795 95.7505 84.7465 Z " stroke-width="0.66146" fill="#243a3b" stroke="none"/><path d="M 94.7466 60.0025 L 94.7466 66.2475 C 94.7466 68.4374 92.9355 70.2485 90.7456 70.2485 C 88.5557 70.2485 86.7446 68.4374 86.7446 66.2475 L 86.7446 60.0025 C 86.7446 57.8126 88.5557 56.0015 90.7456 56.0015 C 92.9355 56.0015 94.7466 57.8126 94.7466 60.0025 Z M 90 60.0025 L 90 66.2475 C 90 66.681 90.3121 67.0005 90.7456 67.0005 C 91.1791 67.0005 91.4985 66.681 91.4985 66.2475 L 91.4985 60.0025 C 91.4985 59.569 91.1791 59.2495 90.7456 59.2495 C 90.3121 59.2495 90 59.569 90 60.0025 Z " stroke-width="0.8599" fill="#243a3b" stroke="none"/><path d="M 92.4951 67.938 L 92.4951 77.7485 C 92.4951 79.4863 93.6105 81.0205 95.2633 81.5576 L 94.4882 83.9345 C 91.8148 83.0659 90 80.5595 90 77.7485 L 90 67.938 Z " stroke-width="0.66146" fill="#243a3b" stroke="none"/><path d="M 101.2502 87.7512 L 101.2502 90.2537 L 82.5002 90.2537 C 81.685 90.2537 81.115 90.9239 80.9943 91.8924 L 80.7433 94.3728 C 80.7409 94.3826 80.7384 94.3924 80.7357 94.4022 C 80.4992 96.3755 78.9681 98.2482 76.7495 98.2482 L 55.999 98.2482 C 55.1558 98.2482 54.5005 98.9035 54.5005 99.7467 L 51.998 99.7467 C 51.998 97.5524 53.8047 95.7531 55.999 95.7531 L 76.7495 95.7531 C 77.5685 95.7531 78.1384 95.0755 78.2554 94.0996 L 78.5064 91.6267 C 78.5063 91.6192 78.5063 91.6118 78.5064 91.6044 C 78.743 89.6311 80.2814 87.751 82.5 87.751 Z " stroke-width="0.66146" fill="#243a3b" stroke="none"/><path d="M 82.3524 70.2485 L 82.3524 72.751 L 8.969 72.751 L 8.7475 80.5389 C 8.7005 82.1852 7.2927 83.499 5.7505 83.499 L 0 83.499 L 0 80.9966 L 5.7505 80.9966 C 6.1415 80.9966 6.2303 80.9834 6.2451 80.4651 L 6.4961 71.7177 C 6.496 71.7152 6.496 71.7127 6.4961 71.7101 C 6.5201 70.8941 7.1162 70.2485 7.9946 70.2485 Z " stroke-width="0.66146" fill="#243a3b" stroke="none"/><path d="M 123.499 58.4965 L 123.499 79.498 C 123.499 81.6924 121.6924 83.499 119.4981 83.499 L 119.4981 80.9965 C 120.3413 80.9965 120.9966 80.3413 120.9966 79.498 L 120.9966 58.4965 Z " stroke-width="0.66146" fill="#243a3b" stroke="none"/><path d="M 111.2451 87.751 C 113.4394 87.751 115.2461 89.5577 115.2461 91.752 L 115.2461 112.5025 C 115.2461 113.3457 115.9014 114.001 116.7446 114.001 L 119.2471 114.001 C 121.4414 114.001 123.2481 115.8077 123.2481 118.002 L 120.7456 118.002 C 120.7456 117.1588 120.0903 116.5035 119.2471 116.5035 L 116.7446 116.5035 C 114.5503 116.5035 112.7436 114.6968 112.7436 112.5025 L 112.7436 91.752 C 112.7436 90.9088 112.0883 90.2535 111.2451 90.2535 L 105.7456 90.2535 L 105.7456 87.751 Z " stroke-width="0.66146" fill="#243a3b" stroke="none"/><path d="M 184.9975 58.4965 L 184.9975 68.75 C 184.9975 69.1483 185.1514 69.5313 185.4331 69.813 C 185.7147 70.0946 186.0978 70.2485 186.4961 70.2485 L 186.4961 72.751 C 185.4357 72.751 184.4186 72.3271 183.6688 71.5773 C 182.919 70.8275 182.4951 69.8104 182.4951 68.75 L 182.4951 58.4966 Z " stroke-width="0.66146" fill="#243a3b" stroke="none"/><path d="M 191.7446 71.5034 L 191.7446 79.0034 C 191.7446 81.1978 189.938 82.997 187.7436 82.997 L 174.5079 82.997 L 174.5079 80.502 L 187.7436 80.502 C 188.5868 80.502 189.2495 79.8467 189.2495 79.0034 L 189.2495 71.5034 Z " stroke-width="0.66146" fill="#243a3b" stroke="none"/><path d="M 328.3538 70.2485 L 328.3538 72.751 L 254.9705 72.751 L 254.749 80.5389 C 254.702 82.1852 253.2868 83.499 251.7446 83.499 L 229.4956 83.499 C 228.4352 83.499 227.4181 83.0751 226.6683 82.3253 C 225.9185 81.5755 225.4946 80.5584 225.4946 79.498 L 225.4946 75.748 L 227.9971 75.748 L 227.9971 79.4982 C 227.9971 79.8965 228.1583 80.2796 228.44 80.5612 C 228.7216 80.8428 229.0973 80.9967 229.4956 80.9967 L 251.7446 80.9967 C 252.1356 80.9967 252.2318 80.9836 252.2466 80.4652 L 252.4976 71.7177 C 252.4976 71.7152 252.4976 71.7127 252.4976 71.7101 C 252.5216 70.8942 253.1177 70.2485 253.9961 70.2485 Z " stroke-width="0.66146" fill="#243a3b" stroke="none"/><path d="M 132.7485 88.002 C 132.7485 89.9202 131.1677 91.501 129.2495 91.501 C 127.3313 91.501 125.7505 89.9202 125.7505 88.002 C 125.7505 86.0838 127.3313 84.503 129.2495 84.503 C 131.1677 84.503 132.7485 86.0838 132.7485 88.002 Z M 128.2456 88.002 C 128.2456 88.5691 128.6824 88.9985 129.2495 88.9985 C 129.8166 88.9985 130.2461 88.5691 130.2461 88.002 C 130.2461 87.4349 129.8166 86.9981 129.2495 86.9981 C 128.6824 86.9981 128.2456 87.4349 128.2456 88.002 Z " stroke-width="0.66146" fill="#243a3b" stroke="none"/><path d="M 175.748 81.7495 C 175.748 83.6677 174.1672 85.2485 172.249 85.2485 C 170.3308 85.2485 168.75 83.6677 168.75 81.7495 C 168.75 79.8313 170.3308 78.2505 172.249 78.2505 C 174.1672 78.2505 175.748 79.8313 175.748 81.7495 Z M 171.2451 81.7495 C 171.2451 82.3166 171.6819 82.7534 172.249 82.7534 C 172.8161 82.7534 173.2456 82.3166 173.2456 81.7495 C 173.2456 81.1824 172.8161 80.7529 172.249 80.7529 C 171.6819 80.7529 171.2451 81.1824 171.2451 81.7495 Z " stroke-width="0.66146" fill="#243a3b" stroke="none"/><path d="M 182.2441 88.002 C 182.2441 89.9202 180.6633 91.501 178.7451 91.501 C 176.8269 91.501 175.2461 89.9202 175.2461 88.002 C 175.2461 86.0838 176.8269 84.503 178.7451 84.503 C 180.6633 84.503 182.2441 86.0838 182.2441 88.002 Z M 177.7485 88.002 C 177.7485 88.5691 178.178 88.9985 178.7451 88.9985 C 179.3122 88.9985 179.749 88.5691 179.749 88.002 C 179.749 87.4349 179.3122 86.9981 178.7451 86.9981 C 178.178 86.9981 177.7485 87.4349 177.7485 88.002 Z " stroke-width="0.66146" fill="#243a3b" stroke="none"/><path d="M 211.2475 71.2525 C 211.2475 73.1707 209.6667 74.7515 207.7485 74.7515 C 205.8303 74.7515 204.2495 73.1707 204.2495 71.2525 C 204.2495 69.3343 205.8303 67.7534 207.7485 67.7535 C 209.6667 67.7535 211.2475 69.3343 211.2475 71.2525 Z M 206.7446 71.2525 C 206.7446 71.8196 207.1814 72.249 207.7485 72.249 C 208.3156 72.249 208.7451 71.8196 208.7451 71.2525 C 208.7451 70.6854 208.3156 70.2485 207.7485 70.2485 C 207.1814 70.2485 206.7446 70.6854 206.7446 71.2525 Z " stroke-width="0.66146" fill="#243a3b" stroke="none"/><path d="M 229.9975 88.9985 C 229.9975 90.9167 228.4167 92.4975 226.4985 92.4975 C 224.5803 92.4975 222.9995 90.9167 222.9995 88.9985 C 222.9995 87.0803 224.5803 85.4995 226.4985 85.4995 C 228.4167 85.4995 229.9975 87.0804 229.9975 88.9985 Z M 225.4946 88.9985 C 225.4946 89.5656 225.9314 90.0025 226.4985 90.0025 C 227.0656 90.0025 227.4951 89.5656 227.4951 88.9985 C 227.4951 88.4314 227.0656 88.002 226.4985 88.002 C 225.9314 88.002 225.4946 88.4314 225.4946 88.9985 Z " stroke-width="0.66146" fill="#243a3b" stroke="none"/><path d="M 230.2485 73.4965 C 230.2485 75.4147 228.6677 77.0029 226.7495 77.0029 C 224.8313 77.003 223.2505 75.4147 223.2505 73.4965 C 223.2505 71.5783 224.8313 69.9975 226.7495 69.9975 C 228.6677 69.9975 230.2485 71.5784 230.2485 73.4965 Z M 225.7456 73.4965 C 225.7456 74.0636 226.1824 74.5005 226.7495 74.5005 C 227.3166 74.5005 227.7461 74.0636 227.7461 73.4965 C 227.7461 72.9295 227.3166 72.5 226.7495 72.5 C 226.1824 72.5 225.7456 72.9295 225.7456 73.4965 Z " stroke-width="0.66146" fill="#243a3b" stroke="none"/><path d="M 231.4961 115.2485 C 231.4961 117.1667 229.9152 118.7475 227.9971 118.7475 C 226.0789 118.7475 224.4981 117.1667 224.4981 115.2485 C 224.4981 113.3303 226.0789 111.7495 227.9971 111.7495 C 229.9153 111.7495 231.4961 113.3303 231.4961 115.2485 Z M 227.0005 115.2485 C 227.0005 115.8156 227.43 116.2525 227.9971 116.2525 C 228.5642 116.2525 228.9936 115.8156 228.9936 115.2485 C 228.9936 114.6814 228.5642 114.252 227.9971 114.252 C 227.43 114.252 227.0005 114.6814 227.0005 115.2485 Z " stroke-width="0.66146" fill="#243a3b" stroke="none"/><path d="M 115.2461 101.9979 C 115.2461 103.0592 115.6693 104.0747 116.4198 104.8252 C 117.1703 105.5756 118.1857 105.9989 119.247 105.9989 L 133.4941 105.9989 C 135.7127 105.9989 137.2511 107.8789 137.4877 109.8522 C 137.4878 109.8597 137.4878 109.8671 137.4877 109.8745 L 137.7387 112.3548 C 137.8557 113.3307 138.4256 114.001 139.2446 114.001 L 225.4946 114.001 L 225.4946 116.5036 L 139.2448 116.5036 C 137.0262 116.5036 135.4951 114.6236 135.2586 112.6503 C 135.256 112.6429 135.2534 112.6354 135.251 112.628 L 135 110.1403 C 134.8793 109.1717 134.3093 108.5015 133.4941 108.5015 L 119.247 108.5015 C 117.5236 108.5015 115.8668 107.8156 114.6481 106.597 C 113.4295 105.3783 112.7436 103.7215 112.7436 101.998 Z " stroke-width="0.66146" fill="#243a3b" stroke="none"/><path d="M 160.748 90.0025 C 162.9379 90.0025 164.749 91.8136 164.749 94.0035 C 164.749 96.1933 162.9379 97.9971 160.748 97.9971 L 148.7451 97.9971 C 146.5552 97.9971 144.7441 96.1934 144.7441 94.0035 C 144.7441 91.8136 146.5552 90.0025 148.7451 90.0025 Z M 147.9995 94.0034 C 147.9995 94.4369 148.3116 94.749 148.7451 94.749 L 160.748 94.749 C 161.1815 94.749 161.4936 94.4369 161.4936 94.0034 C 161.4936 93.57 161.1815 93.2505 160.748 93.2505 L 148.7451 93.2505 C 148.3116 93.2505 147.9995 93.57 147.9995 94.0034 Z " stroke-width="0.8599" fill="#243a3b" stroke="none"/><path d="M 136.2475 92.2465 L 146.0581 92.2465 L 146.0581 94.749 L 136.2475 94.749 C 133.4365 94.749 130.9302 92.9342 130.0615 90.2608 L 132.4459 89.4857 C 132.9829 91.1385 134.5097 92.2465 136.2475 92.2465 Z M 179.498 90.7481 C 178.4901 93.1669 176.117 94.749 173.4966 94.749 L 163.686 94.749 L 163.686 92.2466 L 173.4966 92.2466 C 175.1149 92.2466 176.565 91.2822 177.1875 89.7884 Z " stroke-width="0.66146" fill="#243a3b" stroke="none"/><path d="M 204.9951 109.0034 C 204.9951 110.9216 203.4143 112.5024 201.4961 112.5024 C 199.5779 112.5024 197.9971 110.9216 197.9971 109.0034 C 197.9971 107.0852 199.5779 105.497 201.4961 105.497 C 203.4143 105.497 204.9951 107.0852 204.9951 109.0034 Z M 200.4995 109.0034 C 200.4995 109.5705 200.929 110 201.4961 110 C 202.0632 110 202.5 109.5705 202.5 109.0034 C 202.5 108.4364 202.0632 107.9995 201.4961 107.9995 C 200.929 107.9995 200.4995 108.4363 200.4995 109.0034 Z " stroke-width="0.66146" fill="#243a3b" stroke="none"/><path d="M 155.4995 109.0034 C 155.4995 110.9216 153.9187 112.5024 152.0005 112.5024 C 150.0823 112.5024 148.4941 110.9216 148.4941 109.0034 C 148.4941 107.0852 150.0823 105.497 152.0005 105.497 C 153.9187 105.497 155.4995 107.0852 155.4995 109.0034 Z M 150.9966 109.0034 C 150.9966 109.5705 151.4334 110 152.0005 110 C 152.5676 110 152.9971 109.5705 152.9971 109.0034 C 152.9971 108.4363 152.5676 107.9995 152.0005 107.9995 C 151.4334 107.9995 150.9966 108.4363 150.9966 109.0034 Z " stroke-width="0.66146" fill="#243a3b" stroke="none"/><path d="M 182.0005 99.001 C 184.1904 99.001 185.9941 100.8121 185.9941 103.002 C 185.9941 105.1919 184.1904 107.003 182.0005 107.003 L 169.9975 107.003 C 167.8076 107.003 165.9966 105.1919 165.9966 103.002 C 165.9966 100.8121 167.8076 99.001 169.9975 99.001 Z M 169.2446 103.002 C 169.2446 103.4355 169.5641 103.7476 169.9975 103.7476 L 182.0005 103.7476 C 182.434 103.7476 182.7461 103.4354 182.7461 103.002 C 182.7461 102.5685 182.4339 102.249 182.0005 102.249 L 169.9975 102.249 C 169.5641 102.249 169.2446 102.5685 169.2446 103.002 Z " stroke-width="0.8599" fill="#243a3b" stroke="none"/><path d="M 167.0596 102.249 L 167.0596 104.7515 L 157.249 104.7515 C 155.6307 104.7515 154.1806 105.7158 153.5581 107.2097 L 151.2476 106.25 C 152.2555 103.8312 154.6286 102.249 157.249 102.249 Z M 194.498 102.249 C 197.3091 102.249 199.808 104.0712 200.6767 106.7446 L 198.2997 107.5123 C 197.7627 105.8596 196.2359 104.7515 194.498 104.7515 L 184.6875 104.7515 L 184.6875 102.249 Z " stroke-width="0.66146" fill="#243a3b" stroke="none"/><path d="M 222.9995 99.503 C 222.9995 101.4212 221.4187 103.002 219.5005 103.002 C 217.5823 103.002 215.9941 101.4212 215.9941 99.503 C 215.9941 97.5848 217.5823 95.9966 219.5005 95.9966 C 221.4187 95.9966 222.9995 97.5848 222.9995 99.503 Z M 218.4966 99.503 C 218.4966 100.0701 218.9334 100.4995 219.5005 100.4995 C 220.0676 100.4995 220.4971 100.0701 220.4971 99.503 C 220.4971 98.9359 220.0676 98.499 219.5005 98.499 C 218.9334 98.499 218.4966 98.9359 218.4966 99.503 Z " stroke-width="0.66146" fill="#243a3b" stroke="none"/><path d="M 217.5 117.5 L 217.5 124.0035 C 217.5 126.1934 215.6889 127.9971 213.499 127.9971 C 211.3091 127.9971 209.498 126.1933 209.498 124.0035 L 209.498 117.5 C 209.498 115.3101 211.3091 113.499 213.499 113.499 C 215.6889 113.499 217.5 115.3101 217.5 117.5 Z M 212.7461 117.5 L 212.7461 124.0035 C 212.7461 124.4369 213.0656 124.749 213.499 124.749 C 213.9325 124.749 214.2446 124.4369 214.2446 124.0035 L 214.2446 117.5 C 214.2446 117.0666 213.9325 116.7471 213.499 116.7471 C 213.0656 116.7471 212.7461 117.0666 212.7461 117.5 Z " stroke-width="0.8599" fill="#243a3b" stroke="none"/><path d="M 217.7067 101.0606 C 216.2129 101.683 215.2485 103.1332 215.2485 104.7515 L 215.2485 114.562 L 212.7461 114.562 L 212.7461 104.7515 C 212.7461 102.1311 214.3282 99.7579 216.7471 98.75 Z " stroke-width="0.66146" fill="#243a3b" stroke="none"/><path d="M 223.2505 84.7465 C 223.2505 86.6647 221.6623 88.2529 219.7441 88.2529 C 217.8259 88.2529 216.2451 86.6647 216.2451 84.7465 C 216.2451 82.8284 217.8259 81.2475 219.7441 81.2475 C 221.6623 81.2475 223.2505 82.8284 223.2505 84.7465 Z M 218.7475 84.7465 C 218.7475 85.3136 219.177 85.7505 219.7441 85.7505 C 220.3112 85.7505 220.748 85.3136 220.748 84.7465 C 220.748 84.1795 220.3112 83.75 219.7441 83.75 C 219.177 83.75 218.7475 84.1795 218.7475 84.7465 Z " stroke-width="0.66146" fill="#243a3b" stroke="none"/><path d="M 217.7436 60.0025 L 217.7436 66.2475 C 217.7436 68.4374 215.9399 70.2485 213.75 70.2485 C 211.5601 70.2485 209.749 68.4374 209.749 66.2475 L 209.749 60.0025 C 209.749 57.8126 211.5601 56.0015 213.75 56.0015 C 215.9399 56.0015 217.7436 57.8126 217.7436 60.0025 Z M 212.9971 60.0025 L 212.9971 66.2475 C 212.9971 66.681 213.3166 67.0005 213.75 67.0005 C 214.1835 67.0005 214.4956 66.681 214.4956 66.2475 L 214.4956 60.0025 C 214.4956 59.569 214.1835 59.2495 213.75 59.2495 C 213.3165 59.2495 212.9971 59.569 212.9971 60.0025 Z " stroke-width="0.8599" fill="#243a3b" stroke="none"/><path d="M 215.4995 67.938 L 215.4995 77.7485 C 215.4995 79.4863 216.6076 81.0205 218.2603 81.5576 L 217.4852 83.9345 C 214.8118 83.0659 212.9971 80.5595 212.9971 77.7485 L 212.9971 67.938 Z " stroke-width="0.66146" fill="#243a3b" stroke="none"/><path d="M 224.2471 87.7512 L 224.2471 90.2537 L 205.4971 90.2537 C 204.6781 90.2537 204.1081 90.9239 203.9912 91.8998 L 203.7401 94.3728 C 203.7403 94.3826 203.7403 94.3924 203.7401 94.4022 C 203.5036 96.3755 201.9651 98.2482 199.7466 98.2482 L 178.9961 98.2482 C 178.1528 98.2482 177.4975 98.9035 177.4975 99.7467 L 174.9951 99.7467 C 174.9951 97.5524 176.8017 95.7531 178.9961 95.7531 L 199.7466 95.7531 C 200.5656 95.7531 201.1355 95.0755 201.2525 94.0996 L 201.5035 91.6267 C 201.5034 91.6192 201.5034 91.6118 201.5035 91.6044 C 201.74 89.6311 203.2785 87.751 205.4971 87.751 Z " stroke-width="0.66146" fill="#243a3b" stroke="none"/><path d="M 246.4961 58.4965 L 246.4961 79.498 C 246.4961 81.6924 244.6894 83.499 242.4951 83.499 L 242.4951 80.9965 C 243.3383 80.9965 243.9936 80.3413 243.9936 79.498 L 243.9936 58.4965 Z " stroke-width="0.66146" fill="#243a3b" stroke="none"/><path d="M 234.2495 87.751 C 236.4438 87.751 238.2505 89.5577 238.2505 91.752 L 238.2505 112.5025 C 238.2505 113.3457 238.9058 114.001 239.749 114.001 L 242.2441 114.001 C 244.4385 114.001 246.2451 115.8077 246.2451 118.002 L 243.75 118.002 C 243.75 117.1588 243.0873 116.5035 242.2441 116.5035 L 239.749 116.5035 C 237.5547 116.5035 235.748 114.6968 235.748 112.5025 L 235.748 91.752 C 235.748 90.9088 235.0927 90.2535 234.2495 90.2535 L 228.75 90.2535 L 228.75 87.751 Z " stroke-width="0.66146" fill="#243a3b" stroke="none"/><path d="M 307.9946 58.4965 L 307.9946 68.75 C 307.9946 69.1483 308.1559 69.5313 308.4375 69.813 C 308.7192 70.0946 309.1022 70.2485 309.5005 70.2485 L 309.5005 72.751 C 308.4401 72.751 307.4157 72.3271 306.6659 71.5773 C 305.916 70.8275 305.4995 69.8104 305.4995 68.75 L 305.4995 58.4966 Z " stroke-width="0.66146" fill="#243a3b" stroke="none"/><path d="M 314.749 71.5034 L 314.749 79.0034 C 314.749 81.1978 312.9424 82.997 310.748 82.997 L 297.5049 82.997 L 297.5049 80.502 L 310.748 80.502 C 311.5913 80.502 312.2466 79.8467 312.2466 79.0034 L 312.2466 71.5034 Z " stroke-width="0.66146" fill="#243a3b" stroke="none"/><path d="M 451.3509 70.2485 L 451.3509 72.751 L 377.9675 72.751 L 377.7461 80.5389 C 377.6991 82.1852 376.2913 83.499 374.749 83.499 L 352.5 83.499 C 351.4396 83.499 350.4152 83.0751 349.6654 82.3253 C 348.9156 81.5755 348.499 80.5584 348.499 79.498 L 348.499 75.748 L 350.9941 75.748 L 350.9941 79.4982 C 350.9941 79.8965 351.1554 80.2796 351.437 80.5612 C 351.7187 80.8428 352.1017 80.9967 352.5 80.9967 L 374.749 80.9967 C 375.14 80.9967 375.2363 80.9836 375.251 80.4652 L 375.4946 71.7177 C 375.4946 71.7152 375.4946 71.7127 375.4946 71.7101 C 375.5186 70.8942 376.1221 70.2485 377.0005 70.2485 Z " stroke-width="0.66146" fill="#243a3b" stroke="none"/><path d="M 255.7456 88.002 C 255.7456 89.9202 254.1647 91.501 252.2466 91.501 C 250.3284 91.501 248.7476 89.9202 248.7475 88.002 C 248.7475 86.0838 250.3284 84.503 252.2466 84.503 C 254.1647 84.503 255.7456 86.0838 255.7456 88.002 Z M 251.25 88.002 C 251.25 88.5691 251.6795 88.9985 252.2466 88.9985 C 252.8137 88.9985 253.2505 88.5691 253.2505 88.002 C 253.2505 87.4349 252.8137 86.9981 252.2466 86.9981 C 251.6795 86.9981 251.25 87.4349 251.25 88.002 Z " stroke-width="0.66146" fill="#243a3b" stroke="none"/><path d="M 298.7451 81.7495 C 298.7451 83.6677 297.1643 85.2485 295.2461 85.2485 C 293.3279 85.2485 291.7471 83.6677 291.7471 81.7495 C 291.7471 79.8313 293.3279 78.2505 295.2461 78.2505 C 297.1643 78.2505 298.7451 79.8313 298.7451 81.7495 Z M 294.2495 81.7495 C 294.2495 82.3166 294.679 82.7534 295.2461 82.7534 C 295.8132 82.7534 296.25 82.3166 296.25 81.7495 C 296.25 81.1824 295.8132 80.7529 295.2461 80.7529 C 294.679 80.7529 294.2495 81.1824 294.2495 81.7495 Z " stroke-width="0.66146" fill="#243a3b" stroke="none"/><path d="M 305.2485 88.002 C 305.2485 89.9202 303.6677 91.501 301.7495 91.501 C 299.8313 91.501 298.2505 89.9202 298.2505 88.002 C 298.2505 86.0838 299.8313 84.503 301.7495 84.503 C 303.6677 84.503 305.2485 86.0838 305.2485 88.002 Z M 300.7456 88.002 C 300.7456 88.5691 301.1824 88.9985 301.7495 88.9985 C 302.3166 88.9985 302.7461 88.5691 302.7461 88.002 C 302.7461 87.4349 302.3166 86.9981 301.7495 86.9981 C 301.1824 86.9981 300.7456 87.4349 300.7456 88.002 Z " stroke-width="0.66146" fill="#243a3b" stroke="none"/><path d="M 334.2446 71.2525 C 334.2446 73.1707 332.6638 74.7515 330.7456 74.7515 C 328.8274 74.7515 327.2466 73.1707 327.2466 71.2525 C 327.2466 69.3343 328.8274 67.7534 330.7456 67.7535 C 332.6638 67.7535 334.2446 69.3343 334.2446 71.2525 Z M 329.749 71.2525 C 329.749 71.8196 330.1785 72.249 330.7456 72.249 C 331.3127 72.249 331.7495 71.8196 331.7495 71.2525 C 331.7495 70.6854 331.3127 70.2485 330.7456 70.2485 C 330.1785 70.2485 329.749 70.6854 329.749 71.2525 Z " stroke-width="0.66146" fill="#243a3b" stroke="none"/><path d="M 352.9946 88.9985 C 352.9946 90.9167 351.4138 92.4975 349.4956 92.4975 C 347.5774 92.4975 345.9966 90.9167 345.9966 88.9985 C 345.9966 87.0803 347.5774 85.4995 349.4956 85.4995 C 351.4138 85.4995 352.9946 87.0804 352.9946 88.9985 Z M 348.499 88.9985 C 348.499 89.5656 348.9285 90.0025 349.4956 90.0025 C 350.0627 90.0025 350.4995 89.5656 350.4995 88.9985 C 350.4995 88.4314 350.0627 88.002 349.4956 88.002 C 348.9285 88.002 348.499 88.4314 348.499 88.9985 Z " stroke-width="0.66146" fill="#243a3b" stroke="none"/><path d="M 353.2456 73.4965 C 353.2456 75.4147 351.6647 77.0029 349.7466 77.0029 C 347.8284 77.003 346.2476 75.4147 346.2476 73.4965 C 346.2476 71.5783 347.8284 69.9975 349.7466 69.9975 C 351.6648 69.9975 353.2456 71.5784 353.2456 73.4965 Z M 348.75 73.4965 C 348.75 74.0636 349.1795 74.5005 349.7466 74.5005 C 350.3136 74.5005 350.7505 74.0636 350.7505 73.4965 C 350.7505 72.9295 350.3136 72.5 349.7466 72.5 C 349.1795 72.5 348.75 72.9295 348.75 73.4965 Z " stroke-width="0.66146" fill="#243a3b" stroke="none"/><path d="M 354.5005 115.2485 C 354.5005 117.1667 352.9123 118.7475 350.9941 118.7475 C 349.0759 118.7475 347.4951 117.1667 347.4951 115.2485 C 347.4951 113.3303 349.0759 111.7495 350.9941 111.7495 C 352.9123 111.7495 354.5005 113.3303 354.5005 115.2485 Z M 349.9976 115.2485 C 349.9976 115.8156 350.427 116.2525 350.9941 116.2525 C 351.5612 116.2525 351.9981 115.8156 351.9981 115.2485 C 351.9981 114.6814 351.5612 114.252 350.9941 114.252 C 350.427 114.252 349.9976 114.6814 349.9976 115.2485 Z " stroke-width="0.66146" fill="#243a3b" stroke="none"/><path d="M 238.2503 101.9979 C 238.2503 103.0592 238.6662 104.0747 239.4166 104.8252 C 240.1671 105.5756 241.1826 105.9989 242.2439 105.9989 L 256.4983 105.9989 C 258.7169 105.9989 260.248 107.8789 260.4846 109.8522 C 260.4871 109.8596 260.4897 109.8671 260.4921 109.8745 L 260.7431 112.3622 C 260.8638 113.3307 261.4339 114.001 262.249 114.001 L 348.499 114.001 L 348.499 116.5036 L 262.2491 116.5036 C 260.0305 116.5036 258.492 114.6236 258.2554 112.6503 C 258.2554 112.6428 258.2554 112.6354 258.2554 112.628 L 258.0045 110.1477 C 257.8875 109.1718 257.3175 108.5015 256.4986 108.5015 L 242.2441 108.5015 C 240.5207 108.5015 238.8712 107.8156 237.6526 106.597 C 236.4339 105.3783 235.7481 103.7215 235.7481 101.998 Z " stroke-width="0.66146" fill="#243a3b" stroke="none"/><path d="M 283.7451 90.0025 C 285.935 90.0025 287.7461 91.8136 287.7461 94.0035 C 287.7461 96.1933 285.935 97.9971 283.7451 97.9971 L 271.7495 97.9971 C 269.5596 97.9971 267.7485 96.1934 267.7485 94.0035 C 267.7485 91.8136 269.5596 90.0025 271.7495 90.0025 Z M 270.9966 94.0034 C 270.9966 94.4369 271.3161 94.749 271.7495 94.749 L 283.7451 94.749 C 284.1786 94.749 284.498 94.4369 284.498 94.0034 C 284.498 93.57 284.1786 93.2505 283.7451 93.2505 L 271.7495 93.2505 C 271.3161 93.2505 270.9966 93.57 270.9966 94.0034 Z " stroke-width="0.8599" fill="#243a3b" stroke="none"/><path d="M 259.2446 92.2465 L 269.0625 92.2465 L 269.0625 94.749 L 259.2446 94.749 C 256.4336 94.749 253.9346 92.9342 253.066 90.2608 L 255.4429 89.4857 C 255.98 91.1385 257.5068 92.2465 259.2446 92.2465 Z M 302.4951 90.7481 C 301.4872 93.1669 299.114 94.749 296.4936 94.749 L 286.6831 94.749 L 286.6831 92.2466 L 296.4936 92.2466 C 298.1119 92.2466 299.5694 91.2822 300.1919 89.7884 Z " stroke-width="0.66146" fill="#243a3b" stroke="none"/><path d="M 327.9995 109.0034 C 327.9995 110.9216 326.4187 112.5024 324.5005 112.5024 C 322.5823 112.5024 320.9941 110.9216 320.9941 109.0034 C 320.9941 107.0852 322.5823 105.497 324.5005 105.497 C 326.4187 105.497 327.9995 107.0852 327.9995 109.0034 Z M 323.4966 109.0034 C 323.4966 109.5705 323.9334 110 324.5005 110 C 325.0676 110 325.4971 109.5705 325.4971 109.0034 C 325.4971 108.4364 325.0676 107.9995 324.5005 107.9995 C 323.9334 107.9995 323.4966 108.4363 323.4966 109.0034 Z " stroke-width="0.66146" fill="#243a3b" stroke="none"/><path d="M 278.4966 109.0034 C 278.4966 110.9216 276.9157 112.5024 274.9976 112.5024 C 273.0794 112.5024 271.4986 110.9216 271.4986 109.0034 C 271.4985 107.0852 273.0794 105.497 274.9976 105.497 C 276.9158 105.497 278.4966 107.0852 278.4966 109.0034 Z M 273.9936 109.0034 C 273.9936 109.5705 274.4305 110 274.9976 110 C 275.5646 110 275.9941 109.5705 275.9941 109.0034 C 275.9941 108.4363 275.5646 107.9995 274.9976 107.9995 C 274.4305 107.9995 273.9936 108.4363 273.9936 109.0034 Z " stroke-width="0.66146" fill="#243a3b" stroke="none"/><path d="M 304.9976 99.001 C 307.1874 99.001 308.9985 100.8121 308.9985 103.002 C 308.9985 105.1919 307.1875 107.003 304.9976 107.003 L 292.9946 107.003 C 290.8047 107.003 288.9936 105.1919 288.9936 103.002 C 288.9936 100.8121 290.8047 99.001 292.9946 99.001 Z M 292.249 103.002 C 292.249 103.4355 292.5611 103.7476 292.9946 103.7476 L 304.9975 103.7476 C 305.431 103.7476 305.7505 103.4354 305.7505 103.002 C 305.7505 102.5685 305.431 102.249 304.9975 102.249 L 292.9946 102.249 C 292.5611 102.249 292.249 102.5685 292.249 103.002 Z " stroke-width="0.8599" fill="#243a3b" stroke="none"/><path d="M 290.0566 102.249 L 290.0566 104.7515 L 280.2461 104.7515 C 278.6278 104.7515 277.1776 105.7158 276.5551 107.2097 L 274.2446 106.25 C 275.2525 103.8312 277.6257 102.249 280.2461 102.249 Z M 317.4951 102.249 C 320.3061 102.249 322.8124 104.0712 323.6811 106.7446 L 321.3041 107.5123 C 320.7671 105.8596 319.2329 104.7515 317.4951 104.7515 L 307.6846 104.7515 L 307.6846 102.249 Z " stroke-width="0.66146" fill="#243a3b" stroke="none"/><path d="M 345.9966 99.503 C 345.9966 101.4212 344.4158 103.002 342.4976 103.002 C 340.5794 103.002 338.9986 101.4212 338.9986 99.503 C 338.9986 97.5848 340.5794 95.9966 342.4976 95.9966 C 344.4158 95.9966 345.9966 97.5848 345.9966 99.503 Z M 341.4936 99.503 C 341.4936 100.0701 341.9305 100.4995 342.4976 100.4995 C 343.0646 100.4995 343.4941 100.0701 343.4941 99.503 C 343.4941 98.9359 343.0647 98.499 342.4976 98.499 C 341.9305 98.499 341.4936 98.9359 341.4936 99.503 Z " stroke-width="0.66146" fill="#243a3b" stroke="none"/><path d="M 340.4971 117.5 L 340.4971 124.0035 C 340.4971 126.1934 338.686 127.9971 336.4961 127.9971 C 334.3062 127.9971 332.4951 126.1933 332.4951 124.0035 L 332.4951 117.5 C 332.4951 115.3101 334.3062 113.499 336.4961 113.499 C 338.686 113.499 340.4971 115.3101 340.4971 117.5 Z M 335.7505 117.5 L 335.7505 124.0035 C 335.7505 124.4369 336.0626 124.749 336.4961 124.749 C 336.9296 124.749 337.249 124.4369 337.249 124.0035 L 337.249 117.5 C 337.249 117.0666 336.9295 116.7471 336.4961 116.7471 C 336.0626 116.7471 335.7505 117.0666 335.7505 117.5 Z " stroke-width="0.8599" fill="#243a3b" stroke="none"/><path d="M 340.7111 101.0606 C 339.2173 101.683 338.2456 103.1332 338.2456 104.7515 L 338.2456 114.562 L 335.7505 114.562 L 335.7505 104.7515 C 335.7505 102.1311 337.3253 99.7579 339.7441 98.75 Z " stroke-width="0.66146" fill="#243a3b" stroke="none"/><path d="M 346.2476 84.7465 C 346.2476 86.6647 344.6667 88.2529 342.7485 88.2529 C 340.8304 88.2529 339.2495 86.6647 339.2495 84.7465 C 339.2495 82.8284 340.8304 81.2475 342.7485 81.2475 C 344.6667 81.2475 346.2476 82.8284 346.2476 84.7465 Z M 341.7446 84.7465 C 341.7446 85.3136 342.1815 85.7505 342.7485 85.7505 C 343.3156 85.7505 343.7451 85.3136 343.7451 84.7465 C 343.7451 84.1795 343.3156 83.75 342.7485 83.75 C 342.1815 83.75 341.7446 84.1795 341.7446 84.7465 Z " stroke-width="0.66146" fill="#243a3b" stroke="none"/><path d="M 340.748 60.0025 L 340.748 66.2475 C 340.748 68.4374 338.937 70.2485 336.7471 70.2485 C 334.5572 70.2485 332.7461 68.4374 332.7461 66.2475 L 332.7461 60.0025 C 332.7461 57.8126 334.5572 56.0015 336.7471 56.0015 C 338.9369 56.0015 340.748 57.8126 340.748 60.0025 Z M 335.9941 60.0025 L 335.9941 66.2475 C 335.9941 66.681 336.3136 67.0005 336.7471 67.0005 C 337.1805 67.0005 337.5 66.681 337.5 66.2475 L 337.5 60.0025 C 337.5 59.569 337.1805 59.2495 336.7471 59.2495 C 336.3136 59.2495 335.9941 59.569 335.9941 60.0025 Z " stroke-width="0.8599" fill="#243a3b" stroke="none"/><path d="M 338.4966 67.938 L 338.4966 77.7485 C 338.4966 79.4863 339.6046 81.0205 341.2574 81.5576 L 340.4897 83.9345 C 337.8163 83.0659 335.9941 80.5595 335.9941 77.7485 L 335.9941 67.938 Z " stroke-width="0.66146" fill="#243a3b" stroke="none"/><path d="M 347.2439 87.7512 L 347.2439 90.2537 L 328.4939 90.2537 C 327.675 90.2537 327.105 90.9239 326.988 91.8998 L 326.737 94.3728 C 326.7371 94.3826 326.7371 94.3924 326.737 94.4022 C 326.5004 96.3755 324.962 98.2482 322.7434 98.2482 L 302.0003 98.2482 C 301.1571 98.2482 300.4944 98.9035 300.4944 99.7467 L 297.9993 99.7467 C 297.9993 97.5524 299.806 95.7531 302.0003 95.7531 L 322.7434 95.7531 C 323.5586 95.7531 324.1287 95.0755 324.2493 94.107 L 324.5003 91.6267 C 324.5028 91.6192 324.5053 91.6118 324.5079 91.6044 C 324.7445 89.6311 326.2756 87.751 328.4941 87.751 Z " stroke-width="0.66146" fill="#243a3b" stroke="none"/><path d="M 369.5005 58.4965 L 369.5005 79.498 C 369.5005 81.6924 367.6939 83.499 365.4995 83.499 L 365.4995 80.9965 C 366.3428 80.9965 366.998 80.3413 366.998 79.498 L 366.998 58.4965 Z " stroke-width="0.66146" fill="#243a3b" stroke="none"/><path d="M 357.2466 87.751 C 359.4409 87.751 361.2476 89.5577 361.2476 91.752 L 361.2476 112.5025 C 361.2476 113.3457 361.9028 114.001 362.7461 114.001 L 365.2485 114.001 C 367.4429 114.001 369.2495 115.8077 369.2495 118.002 L 366.7471 118.002 C 366.7471 117.1588 366.0918 116.5035 365.2485 116.5035 L 362.7461 116.5035 C 360.5518 116.5035 358.7451 114.6968 358.7451 112.5025 L 358.7451 91.752 C 358.7451 90.9088 358.0898 90.2535 357.2466 90.2535 L 351.7471 90.2535 L 351.7471 87.751 Z " stroke-width="0.66146" fill="#243a3b" stroke="none"/><path d="M 430.999 58.4965 L 430.999 68.75 C 430.999 69.1483 431.153 69.5313 431.4346 69.813 C 431.7162 70.0946 432.0993 70.2485 432.4975 70.2485 L 432.4975 72.751 C 431.4372 72.751 430.4201 72.3271 429.6703 71.5773 C 428.9205 70.8275 428.4966 69.8104 428.4966 68.75 L 428.4966 58.4966 Z " stroke-width="0.66146" fill="#243a3b" stroke="none"/><path d="M 437.7461 71.5034 L 437.7461 79.0034 C 437.7461 81.1978 435.9394 82.997 433.7451 82.997 L 420.5094 82.997 L 420.5094 80.502 L 433.7451 80.502 C 434.5883 80.502 435.2436 79.8467 435.2436 79.0034 L 435.2436 71.5034 Z " stroke-width="0.66146" fill="#243a3b" stroke="none"/><path d="M 473.9985 75.7481 L 473.9985 79.4981 C 473.9985 79.8962 474.1525 80.2793 474.4341 80.561 C 474.7157 80.8427 475.0988 80.9966 475.497 80.9966 L 485.9941 80.9966 L 485.9941 83.499 L 475.497 83.499 C 474.4366 83.499 473.4196 83.0751 472.6698 82.3253 C 471.9203 81.5756 471.4961 80.5586 471.4961 79.4981 L 471.4961 75.7481 Z " stroke-width="0.66146" fill="#243a3b" stroke="none"/><path d="M 378.75 88.002 C 378.75 89.9202 377.1618 91.501 375.2436 91.501 C 373.3254 91.501 371.7446 89.9202 371.7446 88.002 C 371.7446 86.0838 373.3254 84.503 375.2436 84.503 C 377.1618 84.503 378.75 86.0838 378.75 88.002 Z M 374.2471 88.002 C 374.2471 88.5691 374.6765 88.9985 375.2436 88.9985 C 375.8107 88.9985 376.2476 88.5691 376.2476 88.002 C 376.2476 87.4349 375.8107 86.9981 375.2436 86.9981 C 374.6765 86.9981 374.2471 87.4349 374.2471 88.002 Z " stroke-width="0.66146" fill="#243a3b" stroke="none"/><path d="M 421.7495 81.7495 C 421.7495 83.6677 420.1687 85.2485 418.2505 85.2485 C 416.3323 85.2485 414.7441 83.6677 414.7441 81.7495 C 414.7441 79.8313 416.3323 78.2505 418.2505 78.2505 C 420.1687 78.2505 421.7495 79.8313 421.7495 81.7495 Z M 417.2466 81.7495 C 417.2466 82.3166 417.6834 82.7534 418.2505 82.7534 C 418.8176 82.7534 419.2471 82.3166 419.2471 81.7495 C 419.2471 81.1824 418.8176 80.7529 418.2505 80.7529 C 417.6834 80.7529 417.2466 81.1824 417.2466 81.7495 Z " stroke-width="0.66146" fill="#243a3b" stroke="none"/><path d="M 428.2456 88.002 C 428.2456 89.9202 426.6648 91.501 424.7466 91.501 C 422.8284 91.501 421.2476 89.9202 421.2476 88.002 C 421.2476 86.0838 422.8284 84.503 424.7466 84.503 C 426.6648 84.503 428.2456 86.0838 428.2456 88.002 Z M 423.75 88.002 C 423.75 88.5691 424.1795 88.9985 424.7466 88.9985 C 425.3137 88.9985 425.7505 88.5691 425.7505 88.002 C 425.7505 87.4349 425.3137 86.9981 424.7466 86.9981 C 424.1795 86.9981 423.75 87.4349 423.75 88.002 Z " stroke-width="0.66146" fill="#243a3b" stroke="none"/><path d="M 457.249 71.2525 C 457.249 73.1707 455.6682 74.7515 453.75 74.7515 C 451.8318 74.7515 450.2436 73.1707 450.2436 71.2525 C 450.2436 69.3342 451.8318 67.7534 453.75 67.7535 C 455.6682 67.7535 457.249 69.3343 457.249 71.2525 Z M 452.7461 71.2525 C 452.7461 71.8195 453.1829 72.249 453.75 72.249 C 454.3171 72.249 454.7466 71.8196 454.7466 71.2525 C 454.7466 70.6854 454.3171 70.2485 453.75 70.2485 C 453.1829 70.2485 452.7461 70.6854 452.7461 71.2525 Z " stroke-width="0.66146" fill="#243a3b" stroke="none"/><path d="M 475.999 88.9985 C 475.999 90.9167 474.4182 92.4975 472.5 92.4975 C 470.5818 92.4975 468.9936 90.9167 468.9936 88.9985 C 468.9936 87.0803 470.5818 85.4995 472.5 85.4995 C 474.4182 85.4995 475.999 87.0804 475.999 88.9985 Z M 471.4961 88.9985 C 471.4961 89.5656 471.9329 90.0025 472.5 90.0025 C 473.067 90.0025 473.4966 89.5656 473.4966 88.9985 C 473.4966 88.4314 473.0671 88.002 472.5 88.002 C 471.9329 88.002 471.4961 88.4314 471.4961 88.9985 Z " stroke-width="0.66146" fill="#243a3b" stroke="none"/><path d="M 476.25 73.4965 C 476.25 75.4147 474.6618 77.0029 472.7436 77.0029 C 470.8254 77.003 469.2446 75.4147 469.2446 73.4965 C 469.2446 71.5784 470.8254 69.9975 472.7436 69.9975 C 474.6618 69.9975 476.25 71.5784 476.25 73.4965 Z M 471.7471 73.4965 C 471.7471 74.0636 472.1765 74.5005 472.7436 74.5005 C 473.3107 74.5005 473.7475 74.0636 473.7475 73.4965 C 473.7475 72.9295 473.3107 72.5 472.7436 72.5 C 472.1765 72.5 471.7471 72.9295 471.7471 73.4965 Z " stroke-width="0.66146" fill="#243a3b" stroke="none"/><path d="M 477.4975 115.2485 C 477.4975 117.1667 475.9167 118.7475 473.9985 118.7475 C 472.0803 118.7475 470.4995 117.1667 470.4995 115.2485 C 470.4995 113.3303 472.0804 111.7495 473.9985 111.7495 C 475.9167 111.7495 477.4975 113.3303 477.4975 115.2485 Z M 472.9946 115.2485 C 472.9946 115.8156 473.4315 116.2525 473.9985 116.2525 C 474.5656 116.2525 474.9951 115.8156 474.9951 115.2485 C 474.9951 114.6814 474.5656 114.252 473.9985 114.252 C 473.4315 114.252 472.9946 114.6814 472.9946 115.2485 Z " stroke-width="0.66146" fill="#243a3b" stroke="none"/><path d="M 361.2475 101.9981 C 361.2475 103.0594 361.6708 104.0748 362.4212 104.8253 C 363.1717 105.5758 364.1872 105.999 365.2485 105.999 L 379.4955 105.999 C 381.7141 105.999 383.2526 107.8791 383.4892 109.8524 C 383.4892 109.8598 383.4892 109.8673 383.4892 109.8747 L 383.7401 112.355 C 383.8572 113.331 384.427 114.0012 385.246 114.0012 L 471.496 114.0012 L 471.496 116.5036 L 385.246 116.5036 C 383.0275 116.5036 381.489 114.6234 381.2524 112.6503 C 381.2524 112.6428 381.2524 112.6354 381.2524 112.628 L 381.0015 110.1403 C 380.8808 109.1718 380.3107 108.5015 379.4956 108.5015 L 365.2485 108.5015 C 363.5251 108.5015 361.8683 107.8156 360.6496 106.597 C 359.431 105.3783 358.7451 103.7215 358.7451 101.998 Z " stroke-width="0.66146" fill="#243a3b" stroke="none"/><path d="M 406.7495 90.0025 C 408.9394 90.0025 410.7505 91.8136 410.7505 94.0035 C 410.7505 96.1934 408.9394 97.9971 406.7495 97.9971 L 394.7466 97.9971 C 392.5567 97.9971 390.7456 96.1934 390.7456 94.0035 C 390.7456 91.8136 392.5567 90.0025 394.7466 90.0025 Z M 393.9936 94.0034 C 393.9936 94.4369 394.3131 94.749 394.7466 94.749 L 406.7495 94.749 C 407.1829 94.749 407.4951 94.4369 407.4951 94.0034 C 407.4951 93.57 407.183 93.2505 406.7495 93.2505 L 394.7466 93.2505 C 394.313 93.2505 393.9936 93.57 393.9936 94.0034 Z " stroke-width="0.8599" fill="#243a3b" stroke="none"/><path d="M 382.249 92.2465 L 392.0596 92.2465 L 392.0596 94.749 L 382.249 94.749 C 379.438 94.749 376.9317 92.9342 376.063 90.2608 L 378.44 89.4857 C 378.977 91.1385 380.5112 92.2465 382.249 92.2465 Z M 425.4995 90.7481 C 424.4916 93.1669 422.1185 94.749 419.4981 94.749 L 409.6875 94.749 L 409.6875 92.2466 L 419.4981 92.2466 C 421.1164 92.2466 422.5665 91.2822 423.189 89.7884 Z " stroke-width="0.66146" fill="#243a3b" stroke="none"/><path d="M 450.9966 109.0034 C 450.9966 110.9216 449.4157 112.5024 447.4975 112.5024 C 445.5794 112.5024 443.9985 110.9216 443.9985 109.0034 C 443.9985 107.0852 445.5794 105.497 447.4975 105.497 C 449.4157 105.497 450.9966 107.0852 450.9966 109.0034 Z M 446.4936 109.0034 C 446.4936 109.5705 446.9305 110 447.4976 110 C 448.0646 110 448.4941 109.5705 448.4941 109.0034 C 448.4941 108.4364 448.0646 107.9995 447.4976 107.9995 C 446.9305 107.9995 446.4936 108.4363 446.4936 109.0034 Z " stroke-width="0.66146" fill="#243a3b" stroke="none"/><path d="M 401.4936 109.0034 C 401.4936 110.9216 399.9128 112.5024 397.9946 112.5024 C 396.0764 112.5024 394.4956 110.9216 394.4956 109.0034 C 394.4956 107.0852 396.0764 105.497 397.9946 105.497 C 399.9128 105.497 401.4936 107.0852 401.4936 109.0034 Z M 396.998 109.0034 C 396.998 109.5705 397.4275 110 397.9946 110 C 398.5617 110 398.9985 109.5705 398.9985 109.0034 C 398.9985 108.4363 398.5617 107.9995 397.9946 107.9995 C 397.4275 107.9995 396.998 108.4363 396.998 109.0034 Z " stroke-width="0.66146" fill="#243a3b" stroke="none"/><path d="M 427.9946 99.001 C 430.1845 99.001 431.9956 100.8121 431.9956 103.002 C 431.9956 105.1919 430.1845 107.003 427.9946 107.003 L 415.999 107.003 C 413.8091 107.003 411.998 105.1919 411.998 103.002 C 411.998 100.8121 413.8091 99.001 415.999 99.001 Z M 415.2461 103.002 C 415.2461 103.4355 415.5656 103.7476 415.999 103.7476 L 427.9946 103.7476 C 428.4282 103.7476 428.7475 103.4355 428.7475 103.002 C 428.7475 102.5685 428.4281 102.249 427.9946 102.249 L 415.999 102.249 C 415.5654 102.249 415.2461 102.5685 415.2461 103.002 Z " stroke-width="0.8599" fill="#243a3b" stroke="none"/><path d="M 413.061 102.249 L 413.061 104.7515 L 403.2505 104.7515 C 401.6322 104.7515 400.1746 105.7158 399.5522 107.2097 L 397.249 106.25 C 398.2569 103.8312 400.6301 102.249 403.2505 102.249 Z M 440.4995 102.249 C 443.3105 102.249 445.8095 104.0712 446.6781 106.7446 L 444.3012 107.5123 C 443.7642 105.8596 442.2373 104.7515 440.4995 104.7515 L 430.6816 104.7515 L 430.6816 102.249 Z " stroke-width="0.66146" fill="#243a3b" stroke="none"/><path d="M 468.9936 99.503 C 468.9936 101.4212 467.4128 103.002 465.4946 103.002 C 463.5764 103.002 461.9956 101.4212 461.9956 99.503 C 461.9956 97.5848 463.5764 95.9966 465.4946 95.9966 C 467.4128 95.9966 468.9936 97.5848 468.9936 99.503 Z M 464.4981 99.503 C 464.4981 100.0701 464.9275 100.4995 465.4946 100.4995 C 466.0617 100.4995 466.4986 100.0701 466.4986 99.503 C 466.4986 98.9359 466.0617 98.499 465.4946 98.499 C 464.9274 98.499 464.4981 98.9359 464.4981 99.503 Z " stroke-width="0.66146" fill="#243a3b" stroke="none"/><path d="M 463.4941 117.5 L 463.4941 124.0035 C 463.4941 126.1934 461.6904 127.9971 459.5005 127.9971 C 457.3106 127.9971 455.4995 126.1934 455.4995 124.0035 L 455.4995 117.5 C 455.4995 115.3101 457.3106 113.499 459.5005 113.499 C 461.6904 113.499 463.4941 115.3101 463.4941 117.5 Z M 458.7475 117.5 L 458.7475 124.0035 C 458.7475 124.4369 459.067 124.749 459.5005 124.749 C 459.9339 124.749 460.2461 124.4369 460.2461 124.0035 L 460.2461 117.5 C 460.2461 117.0666 459.934 116.7471 459.5005 116.7471 C 459.0669 116.7471 458.7475 117.0666 458.7475 117.5 Z " stroke-width="0.8599" fill="#243a3b" stroke="none"/><path d="M 463.7082 101.0606 C 462.2144 101.683 461.25 103.1332 461.25 104.7515 L 461.25 114.562 L 458.7475 114.562 L 458.7475 104.7515 C 458.7475 102.1311 460.3297 99.7579 462.7485 98.75 Z " stroke-width="0.66146" fill="#243a3b" stroke="none"/><path d="M 469.2446 84.7465 C 469.2446 86.6647 467.6638 88.2529 465.7456 88.2529 C 463.8274 88.2529 462.2466 86.6647 462.2466 84.7465 C 462.2466 82.8284 463.8274 81.2475 465.7456 81.2475 C 467.6638 81.2475 469.2446 82.8284 469.2446 84.7465 Z M 464.7491 84.7465 C 464.7491 85.3136 465.1784 85.7505 465.7456 85.7505 C 466.3127 85.7505 466.7495 85.3136 466.7495 84.7465 C 466.7495 84.1795 466.3127 83.75 465.7456 83.75 C 465.1784 83.75 464.7491 84.1794 464.7491 84.7465 Z " stroke-width="0.66146" fill="#243a3b" stroke="none"/><path d="M 463.7451 60.0025 L 463.7451 66.2475 C 463.7451 68.4374 461.934 70.2485 459.7441 70.2485 C 457.5542 70.2485 455.7505 68.4374 455.7505 66.2475 L 455.7505 60.0025 C 455.7505 57.8126 457.5542 56.0015 459.7441 56.0015 C 461.934 56.0015 463.7451 57.8126 463.7451 60.0025 Z M 458.9985 60.0025 L 458.9985 66.2475 C 458.9985 66.681 459.3106 67.0005 459.7441 67.0005 C 460.1773 67.0005 460.4971 66.681 460.4971 66.2475 L 460.4971 60.0025 C 460.4971 59.569 460.1775 59.2495 459.7441 59.2495 C 459.3107 59.2495 458.9985 59.569 458.9985 60.0025 Z " stroke-width="0.8599" fill="#243a3b" stroke="none"/><path d="M 461.4936 67.938 L 461.4936 77.7485 C 461.4936 79.4863 462.609 81.0205 464.2618 81.5576 L 463.4867 83.9345 C 460.8133 83.0659 458.9985 80.5595 458.9985 77.7485 L 458.9985 67.938 Z " stroke-width="0.66146" fill="#243a3b" stroke="none"/><path d="M 470.2485 87.7512 L 470.2485 90.2537 L 451.4986 90.2537 C 450.6834 90.2537 450.1136 90.9238 449.9926 91.8924 L 449.7417 94.3728 C 449.7418 94.3826 449.7418 94.3924 449.7417 94.4022 C 449.5051 96.3755 447.9667 98.2482 445.7481 98.2482 L 424.9976 98.2482 C 424.1543 98.2482 423.4991 98.9035 423.4991 99.7467 L 420.9966 99.7467 C 420.9966 97.5524 422.8032 95.7531 424.9976 95.7531 L 445.7481 95.7531 C 446.5671 95.7531 447.1368 95.0755 447.254 94.0996 L 447.505 91.6267 C 447.5049 91.6192 447.5049 91.6118 447.505 91.6044 C 447.7416 89.6312 449.28 87.751 451.4986 87.751 Z " stroke-width="0.66146" fill="#243a3b" stroke="none"/><path d="M 480.2436 87.751 C 482.4379 87.751 484.2446 89.5577 484.2446 91.752 L 484.2446 112.5025 C 484.2446 113.3457 484.9072 114.001 485.7505 114.001 L 485.9939 114.001 L 485.9939 116.5035 L 485.7505 116.5035 C 483.5562 116.5035 481.7495 114.6968 481.7495 112.5025 L 481.7495 91.752 C 481.7495 90.9088 481.0868 90.2535 480.2436 90.2535 L 474.7441 90.2535 L 474.7441 87.751 Z " stroke-width="0.66146" fill="#243a3b" stroke="none"/></g><path d="M 2.997 29 L 2.997 25 L 482.997 25 L 482.997 29 Z " fill="url(#color-1-,0,0,1,2.99704,-115.00002)" stroke-width="1" stroke-linecap="butt" stroke-miterlimit="4" stroke="none"/><path d="M 2.997 63 L 2.997 52.5 L 482.9971 52.5 L 482.9971 63 Z " fill="#838383" stroke-width="0.26459" stroke-linecap="round" stroke-miterlimit="10" stroke="none"/><path d="M 2.997 129 L 2.997 118.5 L 482.9971 118.5 L 482.9971 129 Z " fill="#838383" stroke-width="0.26459" stroke-linecap="round" stroke-miterlimit="10" stroke="none"/><path d="M 2.997 95 L 2.997 91 L 482.997 91 L 482.997 95 Z " fill="url(#color-2-,0,0,1,2.99704,-115.00002)" stroke-width="1" stroke-linecap="butt" stroke-miterlimit="4" stroke="none"/></g></g></svg>