<?xml version="1.0" encoding="UTF-8" standalone="no"?>
<svg
   xmlns:dc="http://purl.org/dc/elements/1.1/"
   xmlns:cc="http://creativecommons.org/ns#"
   xmlns:rdf="http://www.w3.org/1999/02/22-rdf-syntax-ns#"
   xmlns:svg="http://www.w3.org/2000/svg"
   xmlns="http://www.w3.org/2000/svg"
   xmlns:xlink="http://www.w3.org/1999/xlink"
   xmlns:sodipodi="http://sodipodi.sourceforge.net/DTD/sodipodi-0.dtd"
   xmlns:inkscape="http://www.inkscape.org/namespaces/inkscape"
   sodipodi:docname="h40.svg"
   inkscape:version="1.0 (4035a4fb49, 2020-05-01)"
   id="svg8"
   version="1.1"
   viewBox="0 0 256 256"
   height="256"
   width="256">
  <defs
     id="defs2">
    <linearGradient
       inkscape:collect="always"
       id="linearGradient956">
      <stop
         style="stop-color:#ffffff;stop-opacity:0.94117647"
         offset="0"
         id="stop950" />
      <stop
         id="stop952"
         offset="0.53614873"
         style="stop-color:#ffffff;stop-opacity:0" />
      <stop
         style="stop-color:#ffffff;stop-opacity:1"
         offset="1"
         id="stop954" />
    </linearGradient>
    <radialGradient
       inkscape:collect="always"
       xlink:href="#linearGradient956"
       id="radialGradient948"
       cx="128"
       cy="128.00011"
       fx="128"
       fy="128.00011"
       r="120.67202"
       gradientTransform="matrix(0.50756765,0,0,0.5075677,63.031343,63.031418)"
       gradientUnits="userSpaceOnUse" />
  </defs>
  <sodipodi:namedview
     inkscape:window-maximized="1"
     inkscape:window-y="-8"
     inkscape:window-x="-8"
     inkscape:window-height="1017"
     inkscape:window-width="1920"
     showborder="true"
     inkscape:showpageshadow="false"
     inkscape:pagecheckerboard="true"
     units="px"
     showgrid="true"
     inkscape:document-rotation="0"
     inkscape:current-layer="layer1"
     inkscape:document-units="px"
     inkscape:cy="152.37312"
     inkscape:cx="9.5229343"
     inkscape:zoom="1.6030819"
     inkscape:pageshadow="2"
     inkscape:pageopacity="0.0"
     borderopacity="1.0"
     bordercolor="#666666"
     pagecolor="#ffffff"
     id="base"
     borderlayer="true">
    <inkscape:grid
       visible="true"
       snapvisiblegridlinesonly="false"
       enabled="false"
       originy="128"
       originx="128"
       id="grid878"
       type="xygrid" />
  </sodipodi:namedview>
  <metadata
     id="metadata5">
    <rdf:RDF>
      <cc:Work
         rdf:about="">
        <dc:format>image/svg+xml</dc:format>
        <dc:type
           rdf:resource="http://purl.org/dc/dcmitype/StillImage" />
        <dc:title />
        <cc:license
           rdf:resource="" />
      </cc:Work>
    </rdf:RDF>
  </metadata>
  <g
     style="display:inline"
     id="layer1"
     inkscape:groupmode="layer"
     inkscape:label="レイヤー 1">
    <path
       id="path899"
       style="fill:url(#radialGradient948);fill-opacity:1;stroke:none;stroke-width:1;stroke-linecap:butt;stroke-linejoin:miter;stroke-miterlimit:4;stroke-dasharray:none;stroke-opacity:1;paint-order:markers stroke fill"
       d="m 116.26855,67.668994 c -0.0858,-0.0092 -0.17464,-0.0056 -0.26659,0.0127 -0.73559,0.146318 -0.9326,1.078114 -0.9336,2.034179 -0.001,0.956066 0.19341,1.936444 0.24219,2.181641 1.174,5.902134 4.44799,17.658304 5.32031,19.99414 0.0489,0.130757 0.15017,0.329041 0.24805,0.309571 0.0979,-0.01947 0.11626,-0.242346 0.11133,-0.381836 -0.088,-2.491854 -1.56233,-14.605677 -2.73633,-20.507812 -0.0487,-0.245196 -0.24453,-1.224516 -0.61133,-2.107423 -0.32094,-0.772542 -0.77315,-1.470846 -1.37403,-1.535156 z m 23.46289,0 c -0.60099,0.06442 -1.05405,0.762613 -1.375,1.535156 -0.36679,0.882907 -0.56059,1.863202 -0.60937,2.108399 -1.174,5.902135 -2.64934,18.014982 -2.7373,20.506836 -0.005,0.139488 0.0125,0.362368 0.11034,0.381836 0.0979,0.01947 0.20117,-0.178814 0.25,-0.309571 0.87232,-2.335836 4.14533,-14.092006 5.31934,-19.99414 0.0488,-0.245197 0.2432,-1.225574 0.24219,-2.181641 -10e-4,-0.956065 -0.19801,-1.887862 -0.9336,-2.034179 -0.0919,-0.01829 -0.18074,-0.0219 -0.2666,-0.0127 z m -45.403315,9.046875 c -0.173074,-6.49e-4 -0.340193,0.04427 -0.496094,0.148438 -0.623602,0.416678 -0.448931,1.352656 -0.08398,2.236328 0.364947,0.883672 0.920677,1.715961 1.05957,1.923828 3.343291,5.003589 10.866599,14.611339 12.566399,16.435547 0.0952,0.102118 0.26468,0.246849 0.34766,0.191406 0.083,-0.05544 0.015,-0.267546 -0.043,-0.394531 C 106.64382,94.988376 100.64502,84.36106 97.301732,79.357471 97.16284,79.149603 96.607386,78.31796 95.930638,77.642627 95.423077,77.136127 94.84732,76.717764 94.328099,76.715869 Z m 67.342775,0 c -0.51922,0.0019 -1.09401,0.419279 -1.60156,0.925781 -0.67676,0.675334 -1.23221,1.506978 -1.3711,1.714844 -3.34329,5.003591 -9.34209,15.630907 -10.37695,17.899415 -0.058,0.126961 -0.12562,0.340091 -0.043,0.395507 0.083,0.05545 0.25349,-0.08831 0.34864,-0.190429 1.6998,-1.824209 9.22116,-11.432935 12.56444,-16.436524 0.13893,-0.207857 0.6956,-1.039179 1.06056,-1.922851 0.36494,-0.883673 0.53863,-1.820627 -0.085,-2.237305 -0.1559,-0.10417 -0.32302,-0.149069 -0.49609,-0.148438 z M 77.807617,93.419971 c -0.396512,-0.01125 -0.73502,0.100308 -0.943359,0.412109 -0.416678,0.623603 0.102009,1.421889 0.777344,2.098633 0.675333,0.676748 1.506968,1.232223 1.714844,1.371094 5.003589,3.343293 15.630903,9.342113 17.899413,10.376953 0.126982,0.058 0.340063,0.12595 0.395508,0.043 0.05545,-0.083 -0.0883,-0.25351 -0.19043,-0.34863 C 95.636728,105.6733 86.028003,98.150956 81.024414,94.807668 80.816547,94.668773 79.985235,94.113044 79.101562,93.748097 78.659727,93.565624 78.20413,93.431221 77.807617,93.419972 Z m 100.309573,0.0029 c -0.37824,0.02475 -0.80356,0.154127 -1.21778,0.325196 -0.88367,0.364946 -1.71596,0.920677 -1.92383,1.05957 -5.00359,3.343291 -14.61134,10.866603 -16.43554,12.566403 -0.10213,0.0952 -0.24685,0.26468 -0.19141,0.34766 0.0554,0.083 0.26755,0.015 0.39453,-0.043 2.26851,-1.03486 12.89583,-7.03366 17.89942,-10.376954 0.20786,-0.138893 1.0395,-0.694346 1.71484,-1.371094 0.67532,-0.676748 1.195,-1.475031 0.77832,-2.098633 -0.15626,-0.23385 -0.38606,-0.355025 -0.6582,-0.396484 -0.1134,-0.01727 -0.23428,-0.02094 -0.36035,-0.01269 z M 69.715821,115.06841 c -0.956067,0.001 -1.887863,0.198 -2.03418,0.93359 -0.146318,0.7356 0.639554,1.27481 1.522461,1.6416 0.882906,0.3668 1.863201,0.56061 2.108398,0.60938 5.902135,1.174 18.014982,2.64934 20.506836,2.7373 0.139487,0.005 0.362369,-0.0125 0.381836,-0.11035 0.01946,-0.0979 -0.178816,-0.20114 -0.30957,-0.25 -2.335836,-0.87232 -14.092006,-4.14533 -19.994141,-5.31934 -0.183914,-0.0364 -0.781981,-0.15416 -1.472657,-0.21093 -0.230202,-0.0191 -0.469969,-0.0315 -0.708983,-0.0312 z m 116.568359,0 c -0.95606,-0.001 -1.93644,0.19341 -2.18164,0.24218 -5.90214,1.17401 -17.65831,4.44799 -19.99414,5.32032 -0.13076,0.0488 -0.32905,0.15016 -0.30957,0.24804 0.0195,0.0979 0.24235,0.11627 0.38183,0.11133 2.49185,-0.088 14.60568,-1.56232 20.50781,-2.73633 0.2452,-0.0487 1.22453,-0.24453 2.10743,-0.61132 0.88291,-0.36679 1.66878,-0.90504 1.52246,-1.64063 -0.10974,-0.55169 -0.66088,-0.80029 -1.33301,-0.89062 -0.22405,-0.0301 -0.46215,-0.0427 -0.70117,-0.0429 z m -94.464844,19.9414 c -2.491853,0.088 -14.605675,1.56232 -20.507813,2.73633 -0.245194,0.0488 -1.224516,0.24453 -2.107421,0.61133 -0.882908,0.3668 -1.66878,0.90504 -1.522461,1.64062 0.146317,0.73558 1.078113,0.9326 2.03418,0.9336 0.956066,0.001 1.936445,-0.19342 2.18164,-0.24219 5.902134,-1.17401 17.658305,-4.44799 19.994141,-5.32031 0.130754,-0.0488 0.32904,-0.15017 0.30957,-0.24805 -0.0097,-0.0489 -0.06998,-0.0785 -0.145508,-0.0947 -0.07553,-0.0162 -0.166577,-0.0191 -0.236328,-0.0166 z m 72.361324,0 c -0.13948,-0.005 -0.36237,0.0125 -0.38183,0.11035 -0.0195,0.0979 0.17881,0.20117 0.30957,0.25 2.33583,0.87232 14.092,4.14533 19.99414,5.31934 0.24519,0.0487 1.22558,0.2432 2.18164,0.24219 0.95607,-0.001 1.88787,-0.19801 2.03418,-0.9336 0.14632,-0.73559 -0.63955,-1.27481 -1.52246,-1.6416 -0.8829,-0.36679 -1.8632,-0.5606 -2.1084,-0.60937 -5.16436,-1.02726 -15.08369,-2.28624 -19.15234,-2.64356 -0.58124,-0.0511 -1.04301,-0.0828 -1.3545,-0.0937 z m -66.596676,13.23243 c -0.08914,-0.0133 -0.231909,0.0357 -0.327148,0.0791 -2.268509,1.03486 -12.895824,7.03365 -17.899414,10.37695 -0.207867,0.13889 -1.039511,0.69434 -1.714844,1.37109 -0.675335,0.67675 -1.194998,1.47503 -0.77832,2.09864 0.416677,0.6236 1.352656,0.44893 2.236328,0.084 0.883672,-0.36494 1.715961,-0.92068 1.923828,-1.05957 5.003588,-3.34329 14.611338,-10.86661 16.435547,-12.56641 0.102117,-0.0952 0.24685,-0.26468 0.191406,-0.34765 -0.01386,-0.0207 -0.03766,-0.0317 -0.06738,-0.0361 z m 60.832036,0 c -0.0298,0.004 -0.0535,0.0154 -0.0674,0.0361 -0.0554,0.083 0.0883,0.25349 0.19043,0.34863 1.82421,1.69981 11.43294,9.22214 16.43653,12.56543 0.20785,0.13892 1.03918,0.69462 1.92285,1.05957 0.88366,0.36495 1.82062,0.53864 2.2373,-0.085 0.41667,-0.62361 -0.10201,-1.42091 -0.77734,-2.09766 -0.67534,-0.67674 -1.50698,-1.23221 -1.71484,-1.37109 -5.00359,-3.3433 -15.63091,-9.34209 -17.89942,-10.37695 -0.0635,-0.029 -0.14863,-0.0602 -0.22461,-0.0742 -0.038,-0.007 -0.0737,-0.009 -0.10351,-0.005 z m -50.77051,10.09863 c -0.0874,0.0221 -0.20112,0.12165 -0.27246,0.19824 -1.69981,1.82421 -9.222145,11.43294 -12.565433,16.43652 h -10e-4 c -0.138895,0.20787 -0.693648,1.03918 -1.058593,1.92286 -0.364947,0.88366 -0.539619,1.82062 0.08398,2.2373 0.623604,0.41667 1.420912,-0.10201 2.097656,-0.77734 0.676749,-0.67534 1.2332,-1.50698 1.372071,-1.71485 3.343289,-5.00359 9.342089,-15.6309 10.376959,-17.89941 0.058,-0.12699 0.12596,-0.34011 0.043,-0.39551 -0.0208,-0.0138 -0.047,-0.0152 -0.0762,-0.008 z m 40.70898,0 c -0.0291,-0.007 -0.0554,-0.006 -0.0762,0.008 -0.083,0.0554 -0.014,0.26754 0.0439,0.39453 1.03486,2.26851 7.03267,12.89583 10.37597,17.89941 0.13889,0.20787 0.69435,1.03951 1.3711,1.71484 0.67675,0.67532 1.47503,1.195 2.09863,0.77832 0.6236,-0.41667 0.44893,-1.35264 0.084,-2.23632 -0.36495,-0.88367 -0.92068,-1.71597 -1.05957,-1.92383 -3.3433,-5.00359 -10.86661,-14.61134 -12.56641,-16.43555 -0.0714,-0.0766 -0.1841,-0.1772 -0.27149,-0.19922 z m -27.4746,5.45801 c -0.0979,-0.0195 -0.20115,0.17881 -0.25,0.30957 -0.87232,2.33583 -4.14533,14.092 -5.31934,19.99414 -0.0486,0.24521 -0.24319,1.22655 -0.24219,2.18261 0.001,0.95607 0.19801,1.88689 0.9336,2.03321 0.73559,0.14632 1.27481,-0.63955 1.64159,-1.52246 0.3668,-0.88291 0.56061,-1.8632 0.60938,-2.1084 1.17401,-5.90213 2.64935,-18.01499 2.73731,-20.50684 0.005,-0.13949 -0.0125,-0.36234 -0.11035,-0.38183 z m 14.2412,0 c -0.0979,0.0195 -0.11628,0.24234 -0.11132,0.38183 0.088,2.49185 1.56232,14.60567 2.73632,20.50781 0.0487,0.2452 0.24453,1.2255 0.61133,2.1084 0.36679,0.88291 0.90503,1.6678 1.64062,1.52149 0.73558,-0.14632 0.9326,-1.07812 0.9336,-2.03418 0.001,-0.95607 -0.19342,-1.93644 -0.24219,-2.18164 -1.17401,-5.90214 -4.44799,-17.6583 -5.32031,-19.99414 -0.0488,-0.13076 -0.15016,-0.32907 -0.24805,-0.30957 z" />
  </g>
</svg>
