<svg xmlns="http://www.w3.org/2000/svg" xmlns:xlink="http://www.w3.org/1999/xlink" version="1.1" width="22.93171" height="25.9468" viewBox="0,0,22.93171,25.9468"><g><g data-paper-data="{&quot;isPaintingLayer&quot;:true}" fill-rule="nonzero" stroke-linecap="butt" stroke-linejoin="miter" stroke-dasharray="" stroke-dashoffset="0" style="mix-blend-mode: normal"><path d="M 11.0333 0.0019 C 12.4211 -0.0151 13.8203 0.0801 15.17 0.4199 C 17.1481 0.9037 19.0486 1.9179 20.3497 3.5119 C 21.5846 5.0075 22.1806 6.9709 22.1536 8.897 C 22.1481 10.5938 21.442 12.2217 20.4198 13.5516 C 19.1563 15.1844 17.4756 16.4266 15.7765 17.5707 C 16.6225 17.5703 17.4684 17.5731 18.3143 17.5745 C 19.2674 17.5243 20.2516 17.7204 21.057 18.2489 C 22.293 19.0349 23.005 20.5204 22.9257 21.9728 C 22.8557 23.9408 21.1846 25.681 19.2415 25.9052 C 17.2647 25.9724 15.285 25.9347 13.3069 25.9438 C 10.5305 25.912 7.7499 26.0215 4.9773 25.83 C 3.6163 25.7739 2.2055 25.2943 1.2879 24.2481 C 0.3227 23.1453 0.0931 21.5405 0.4684 20.1527 C 0.8993 18.5587 2.0009 17.2354 3.2594 16.2078 C 5.5306 14.4674 7.8772 12.83 10.1837 11.1386 C 11.2451 10.3286 12.4093 9.629 13.3094 8.6277 C 12.9453 8.4821 12.5523 8.4308 12.1637 8.4022 C 11.2903 8.3173 10.3759 8.376 9.5785 8.7723 C 8.8747 9.0939 8.3471 9.6834 7.9083 10.304 C 7.2452 11.3245 6.141 12.0696 4.9231 12.2102 C 3.3991 12.4268 1.845 11.6769 0.9135 10.4822 C 0.0321 9.4432 -0.236 7.9355 0.2167 6.6528 C 0.7173 5.4145 1.5759 4.3536 2.5322 3.4354 C 4.7801 1.2428 7.9116 0.0593 11.0333 0.002 Z " fill="#12484c" stroke-width="0.99999" stroke-miterlimit="10" stroke="none"/><path d="M 20.7142 21.7276 C 20.7142 22.287 20.5351 22.7271 20.1771 23.0404 C 19.8191 23.4954 19.2969 23.7266 18.6256 23.7266 L 8.7495 23.7266 C 6.3029 23.7266 4.7812 23.6446 4.1844 23.488 C 3.0655 23.1896 2.5135 22.5182 2.5135 21.459 C 2.5135 20.1089 3.4758 18.7364 5.4077 17.3415 L 12.8969 11.9112 C 14.8213 10.5014 15.7911 9.3675 15.7911 8.5097 C 15.7911 7.9578 15.5374 7.4804 15.0451 7.0776 C 14.3067 6.4659 13.1057 6.1526 11.4348 6.1526 C 9.1672 6.1526 7.377 7.1298 6.0642 9.0766 C 5.6241 9.7181 5.0646 10.0314 4.3933 10.0314 C 3.8115 10.0165 3.3042 9.7853 2.8716 9.3452 C 2.3942 8.8902 2.1704 8.3755 2.2152 7.7936 C 2.2749 7.4207 2.4091 7.0701 2.6329 6.7493 C 3.4833 5.4589 4.5872 4.4146 5.9448 3.6165 C 7.556 2.684 9.3835 2.2141 11.4348 2.2141 C 14.0157 2.2141 16.067 2.781 17.5813 3.9148 C 19.1477 5.0934 19.9384 6.7419 19.9384 8.8678 C 19.9384 10.1209 19.3864 11.389 18.2974 12.6571 C 17.4172 13.6566 16.0074 14.7904 14.0605 16.0585 C 12.1286 17.3117 10.219 18.5574 8.3318 19.7882 L 18.6256 19.7882 C 19.2969 19.7882 19.8041 19.9821 20.1473 20.3551 C 20.5202 20.7579 20.7142 21.2129 20.7142 21.7276 Z M 20.7142 21.7276 " fill="#ffffff" stroke-width="0.99975" stroke-miterlimit="4" stroke="none"/></g></g></svg>