<svg xmlns="http://www.w3.org/2000/svg" xmlns:xlink="http://www.w3.org/1999/xlink" version="1.1" width="24.43106" height="26.42756" viewBox="0,0,24.43106,26.42756"><g><g data-paper-data="{&quot;isPaintingLayer&quot;:true}" fill-rule="nonzero" stroke-linecap="butt" stroke-linejoin="miter" stroke-dasharray="" stroke-dashoffset="0" style="mix-blend-mode: normal"><path d="M 15.7007 0.0045 C 16.7117 -0.0411 17.7329 0.2634 18.5535 0.8557 C 19.7831 1.7161 20.4482 3.2067 20.5501 4.6756 C 20.5901 7.9014 20.5726 11.1283 20.5753 14.3545 C 21.1216 14.3781 21.6688 14.4908 22.1657 14.7233 C 23.4762 15.3145 24.3052 16.7027 24.411 18.1108 C 24.5382 19.4252 24.056 20.8069 23.0573 21.6876 C 22.3846 22.3088 21.4703 22.6054 20.5662 22.6351 C 20.504 23.4675 20.2401 24.3321 19.702 24.9966 C 19.0754 25.8083 18.0904 26.2866 17.0811 26.3929 C 15.7808 26.5325 14.3784 26.2599 13.3625 25.3958 C 12.5468 24.7177 12.1058 23.6793 12.0156 22.6376 C 9.8818 22.6376 7.748 22.6376 5.6142 22.6376 C 4.4239 22.6663 3.1658 22.6308 2.1005 22.0336 C 0.7921 21.3599 0.0217 19.8889 0.0018 18.4436 C -0.0375 17.1591 0.5623 15.9589 1.2944 14.9403 C 4.4786 10.8029 7.7104 6.701 10.9239 2.5857 C 12.0105 1.0603 13.8122 0.0253 15.7007 0.0045 Z " fill="#12484c" stroke-width="0.99999" stroke-miterlimit="10" stroke="none"/><path d="M 22.2071 18.5105 C 22.2071 19.0923 22.043 19.5473 21.7297 19.883 C 21.4314 20.241 20.9987 20.4201 20.4467 20.4201 L 18.3581 20.4201 L 18.3581 22.2103 C 18.3581 23.538 17.739 24.2094 16.5082 24.2094 C 14.9716 24.2094 14.2108 23.5231 14.2108 22.1506 L 14.2108 20.4201 L 4.7524 20.4201 C 3.0592 20.4201 2.2163 19.6965 2.2163 18.242 C 2.2163 17.6303 2.6489 16.765 3.5291 15.6461 L 12.5996 4.0395 C 13.0546 3.4279 13.4723 3.0176 13.8528 2.8162 C 14.4047 2.4209 15.091 2.2195 15.9115 2.2195 C 16.6052 2.2195 17.202 2.5029 17.7017 3.0549 C 18.1344 3.6144 18.3582 4.3528 18.3582 5.2629 L 18.3582 16.5711 L 20.4468 16.5711 C 20.9838 16.5711 21.409 16.7501 21.7298 17.1082 C 22.043 17.4662 22.2071 17.9361 22.2071 18.5105 Z M 14.2108 16.5711 L 14.2108 8.4256 L 7.8555 16.5711 Z M 14.2108 16.5711 " fill="#ffffff" stroke-width="0.99975" stroke-miterlimit="4" stroke="none"/></g></g></svg>