<svg xmlns="http://www.w3.org/2000/svg" xmlns:xlink="http://www.w3.org/1999/xlink" version="1.1" width="23.76992" height="26.41876" viewBox="0,0,23.76992,26.41876"><g><g data-paper-data="{&quot;isPaintingLayer&quot;:true}" fill-rule="nonzero" stroke-linecap="butt" stroke-linejoin="miter" stroke-dasharray="" stroke-dashoffset="0" style="mix-blend-mode: normal"><path d="M 11.3583 0.0095 C 11.5118 0.007 11.6652 0.0032 11.8186 0.0013 C 14.0029 -0.0244 16.2273 0.3205 18.204 1.2847 C 19.7533 2.0447 21.1564 3.2242 21.9179 4.7981 C 23.0111 7.0565 22.8628 9.8868 21.4892 11.9944 C 21.6401 12.1434 21.7823 12.301 21.9198 12.4623 C 22.7861 13.4681 23.3857 14.6994 23.6286 16.0053 C 23.9716 17.9242 23.6965 19.9785 22.734 21.6857 C 21.8246 23.3084 20.2853 24.4974 18.6004 25.2351 C 16.5147 26.138 14.2151 26.4539 11.9548 26.4157 C 8.3433 26.3515 4.7057 25.1144 1.9698 22.7214 C 0.6213 21.6782 -0.1973 19.9214 0.0411 18.2129 C 0.2131 16.67 1.4181 15.3595 2.8792 14.9048 C 4.1068 14.5095 5.464 14.7538 6.5799 15.3605 C 6.4069 15.109 6.261 14.8382 6.1538 14.5523 C 5.7128 13.3011 5.7289 11.8572 6.3321 10.661 C 4.6933 11.2175 2.7416 10.6719 1.6379 9.3362 C 0.6684 8.1528 0.5185 6.443 1.0538 5.0388 C 1.4687 3.8347 2.4523 2.9251 3.5279 2.2958 C 5.8648 0.8319 8.6138 0.1003 11.3583 0.0095 Z M 10.0961 8.5653 C 10.7406 8.5496 11.3827 8.6191 12.0246 8.6649 C 12.6436 8.7107 13.2943 8.7403 13.9207 8.6 C 13.3601 8.3535 12.7097 8.3157 12.095 8.3175 C 11.4221 8.3209 10.7482 8.3968 10.0961 8.5653 Z M 8.8782 16.8791 C 8.8397 16.8703 8.8012 16.8615 8.7627 16.8527 C 8.9338 16.9591 9.1085 17.06 9.2866 17.1546 C 10.5475 17.818 11.9959 18.2279 13.4272 18.0242 C 13.9772 17.927 14.553 17.8221 15.0264 17.508 C 15.1436 17.4744 15.0915 17.3112 15.0047 17.2718 C 14.6722 17.1011 14.2821 17.1152 13.9198 17.0635 C 13.7644 17.0478 13.5551 17.037 13.4333 17.0293 C 12.8648 17.0087 12.296 16.998 11.7271 16.9952 C 10.7778 16.9691 9.8158 17.07 8.8782 16.8791 Z " fill="#12484c" stroke-width="0.99999" stroke-miterlimit="10" stroke="none"/><path d="M 21.5538 17.5222 C 21.5538 19.7749 20.6364 21.4756 18.8088 22.6244 C 17.1379 23.6761 14.9375 24.2057 12.2148 24.2057 C 10.5813 24.2057 8.9477 23.9148 7.3216 23.3404 C 5.6507 22.7064 4.2484 21.8486 3.1145 20.7744 C 2.5178 20.2001 2.2194 19.5437 2.2194 18.8052 C 2.2194 18.2308 2.4134 17.7758 2.8162 17.4327 C 3.2115 17.097 3.6665 16.9255 4.1887 16.9255 C 4.86 16.9255 5.6209 17.2686 6.4563 17.9399 C 7.3067 18.6411 8.3137 19.2155 9.4698 19.6705 C 10.6037 20.0882 11.5957 20.2971 12.4536 20.2971 C 13.7216 20.2971 14.8107 20.0882 15.7058 19.6705 C 16.7799 19.1558 17.317 18.4695 17.317 17.6117 C 17.317 16.2616 16.668 15.4038 15.3776 15.0457 C 14.7808 14.8667 13.5724 14.7772 11.7673 14.7772 L 9.9771 14.7772 C 8.7015 14.7772 8.0675 14.1133 8.0675 12.7781 C 8.0675 11.4504 8.7687 10.779 10.1859 10.779 C 10.4619 10.779 10.8871 10.8014 11.4689 10.8387 C 12.0657 10.8984 12.5207 10.9282 12.8414 10.9282 C 15.206 10.9282 16.392 10.0778 16.392 8.3622 C 16.392 7.6685 15.9221 7.0941 14.9897 6.6317 C 14.1916 6.2736 13.2741 6.0946 12.2447 6.0946 C 10.5514 6.0946 9.067 6.4153 7.799 7.0494 C 7.5976 7.1091 7.15 7.4373 6.4563 8.034 C 5.9789 8.4517 5.5314 8.6606 5.1136 8.6606 C 4.4945 8.6606 3.9798 8.4965 3.5621 8.1534 C 3.1593 7.7953 2.9654 7.3328 2.9654 6.751 C 2.9654 6.0349 3.2041 5.4307 3.6815 4.931 C 4.0544 4.558 4.7332 4.1179 5.7104 3.6181 C 7.5379 2.6857 9.6563 2.2158 12.0657 2.2158 C 14.3109 2.2158 16.213 2.6633 17.7645 3.5585 C 19.5324 4.6177 20.42 6.0872 20.42 7.9743 C 20.42 9.9063 19.5846 11.3758 17.9137 12.3902 C 18.9058 12.6289 19.7487 13.2257 20.4499 14.1805 C 21.1809 15.1203 21.5539 16.2318 21.5539 17.5222 Z M 21.5538 17.5222 " fill="#ffffff" stroke-width="0.99975" stroke-miterlimit="4" stroke="none"/></g></g></svg>