<svg xmlns="http://www.w3.org/2000/svg" xmlns:xlink="http://www.w3.org/1999/xlink" version="1.1" width="22.99067" height="25.89085" viewBox="0,0,22.99067,25.89085"><g><g data-paper-data="{&quot;isPaintingLayer&quot;:true}" fill-rule="nonzero" stroke-linecap="butt" stroke-linejoin="miter" stroke-dasharray="" stroke-dashoffset="0" style="mix-blend-mode: normal"><path d="M 18.8196 0.0221 C 19.8819 0.0956 20.9567 0.5007 21.6768 1.309 C 22.5012 2.2236 22.8051 3.5171 22.6611 4.7221 C 22.4694 6.6243 20.7515 8.2344 18.8461 8.3229 C 20.2657 9.2028 21.4448 10.4837 22.139 12.0082 C 22.8851 13.6633 23.1075 15.5253 22.9359 17.3236 C 22.7743 19.3468 21.9022 21.3127 20.4691 22.7556 C 18.8635 24.3756 16.6719 25.3084 14.4439 25.674 C 12.3247 26.0068 10.1444 25.9549 8.042 25.5296 C 6.1883 25.1584 4.4051 24.4528 2.7944 23.4636 C 1.7316 22.7998 0.7197 21.9219 0.2626 20.7224 C -0.4341 18.9213 0.3013 16.6985 1.9263 15.6589 C 1.0075 14.859 0.4299 13.6741 0.3814 12.4552 C 0.4574 10.4768 0.6415 8.5035 0.7779 6.5282 C 0.8889 5.2006 0.8614 3.8068 1.4603 2.5815 C 2.1198 1.0994 3.6784 0.1344 5.2746 0.0265 C 9.5204 -0.0114 13.7669 0.0071 18.0131 0.0038 C 18.2821 -0.0045 18.5514 0.0004 18.8196 0.0221 Z M 12.0201 15.0059 C 11.6582 14.9924 11.2952 15.0065 10.9348 15.0417 C 9.6846 15.12 8.5315 15.6464 7.3789 16.0891 C 8.0423 16.4209 8.6961 16.7746 9.3826 17.0573 C 10.2362 17.4223 11.1652 17.5982 12.0931 17.5739 C 12.7698 17.5537 13.485 17.4611 14.0597 17.0769 C 14.4197 16.8494 14.5124 16.3919 14.4573 15.9962 C 14.4647 15.7097 14.2585 15.478 14.0078 15.3687 C 13.3844 15.0985 12.6921 15.0395 12.0201 15.0059 Z " fill="#12484c" stroke-width="0.99999" stroke-miterlimit="10" stroke="none"/><path d="M 20.7749 16.2446 C 20.7749 18.6913 19.8648 20.5859 18.0597 21.9137 C 16.4261 23.0848 14.3152 23.6741 11.7343 23.6741 C 8.7058 23.6741 6.0428 22.9282 3.7379 21.4363 C 2.7234 20.765 2.2162 20.0638 2.2162 19.3477 C 2.2162 18.7957 2.3729 18.3183 2.6936 17.9155 C 3.0293 17.4829 3.4992 17.2591 4.096 17.2591 C 4.6106 17.2591 5.4088 17.55 6.4829 18.1244 C 7.572 18.6838 8.4074 19.0717 8.9892 19.288 C 9.944 19.6312 10.9137 19.7953 11.9133 19.7953 C 13.3827 19.7953 14.5464 19.482 15.4042 18.8405 C 16.2546 18.2288 16.6872 17.3412 16.6872 16.185 C 16.6872 13.9174 15.0163 12.7836 11.6746 12.7836 C 10.2797 12.7836 8.8997 13.0745 7.5272 13.6489 C 6.192 14.2083 5.3193 14.4843 4.9016 14.4843 C 4.1258 14.4843 3.544 14.2456 3.171 13.7682 C 2.7309 13.2908 2.5444 12.6791 2.6041 11.9183 L 3.1113 5.0259 C 3.2307 3.1611 4.1332 2.2213 5.8265 2.2213 L 18.3581 2.2213 C 19.7679 2.2213 20.4765 2.8702 20.4765 4.1607 C 20.4765 4.7574 20.2751 5.2348 19.8798 5.5928 C 19.477 5.9509 19.0219 6.1299 18.5072 6.1299 L 7.6764 6.1299 C 7.02 6.1299 6.6619 6.488 6.6023 7.204 L 6.3934 10.0982 C 8.1389 9.3076 10.123 8.9048 12.331 8.9048 C 14.9566 8.9048 16.9706 9.5164 18.3879 10.7248 C 19.9767 11.978 20.7749 13.8204 20.7749 16.2447 Z M 20.7749 16.2446 " fill="#ffffff" stroke-width="0.99975" stroke-miterlimit="4" stroke="none"/></g></g></svg>