<svg version="1.1" xmlns="http://www.w3.org/2000/svg" xmlns:xlink="http://www.w3.org/1999/xlink" width="78.49422" height="94.35617" viewBox="0,0,78.49422,94.35617"><g transform="translate(-200.85976,-89.38883)"><g data-paper-data="{&quot;isPaintingLayer&quot;:true}" fill="#ffffff" fill-rule="nonzero" stroke="#000000" stroke-width="4" stroke-linecap="butt" stroke-linejoin="miter" stroke-miterlimit="4" stroke-dasharray="" stroke-dashoffset="0" style="mix-blend-mode: normal"><path d="M234.82051,91.38926c3.62523,0 7.15356,0.89517 10.42201,2.61225c2.41033,1.23275 4.34857,2.54076 5.80025,4.10564c1.45623,1.56977 2.42397,3.52696 2.42397,5.60089c0,1.06248 -0.2962,2.10077 -0.73389,3.08133c2.18488,0.79719 4.21504,1.92957 5.99052,3.45023c2.40079,2.02842 4.14123,4.28023 4.14123,7.06525c0,1.40554 -0.31734,2.89477 -0.82611,4.65805c-0.50018,3.15136 -0.73971,5.66745 -0.73971,7.42853v0.0552l-0.003,0.0552c-0.20421,5.12096 -0.26208,8.38761 -0.30578,11.46769c0.18084,-0.0214 0.2553,-0.0145 0.44751,-0.0393c0.50536,-0.23573 1.03791,-0.44099 1.96966,-0.44099c2.8128,0 5.43473,1.25911 8.07181,3.23301c3.50412,2.53941 5.875,5.5476 5.875,9.08576c0,1.99016 -0.5622,3.99996 -2.04828,5.4333c-1.74717,1.68513 -4.22236,2.3529 -6.8079,2.3529c-1.21999,0 -2.81058,-0.14544 -4.78387,-0.37733h-2.29583c0.05473,2.1431 0.08674,4.30907 0.26113,6.32745l0.0107,0.11891v3.51858c0,3.20556 -0.77009,6.0879 -2.64919,8.26277c-1.74348,2.0179 -4.3109,3.30042 -6.99039,3.30042c-3.86576,0 -7.35656,-2.14118 -9.56386,-5.48666l-0.0835,-0.12452l-0.068,-0.13296c-0.84246,-1.62512 -1.44682,-3.03046 -1.79298,-4.36592l-0.009,-0.0365l-0.009,-0.0374c-0.56018,-2.43134 -1.04225,-3.94557 -0.30967,-6.0653c0.30492,-0.88227 0.82195,-1.65091 1.41342,-2.3763v-2.61038c-3.48066,0.31874 -7.40856,0.7893 -12.16451,1.5533c-2.67933,0.47082 -4.79964,1.0539 -6.32057,1.67503c-2.36667,1.49326 -4.37124,2.52237 -6.72732,2.52237c-3.24036,0 -5.93873,-1.79699 -9.0348,-4.50918c-2.71526,-2.32962 -4.5208,-5.09615 -4.5208,-8.18693c0,-2.62933 1.24807,-4.99542 3.20737,-7.96502l0.002,-0.003l0.002,-0.004c4.13962,-6.23854 8.15164,-12.72933 12.03637,-19.47297c3.61015,-6.46745 6.69756,-12.42497 9.26584,-17.87004c0.79654,-1.92255 1.30412,-3.28063 1.77647,-4.56629c-1.63915,-1.34802 -2.79382,-3.20441 -2.79382,-5.26289c0,-2.2925 1.33214,-4.63307 3.36366,-5.83216c1.52729,-0.95401 3.2338,-1.19845 5.10033,-1.19845zM241.25711,123.75117c-3.12016,4.76486 -6.24046,9.65576 -9.36195,14.67355c-1.5986,2.56975 -2.76659,4.52849 -3.83641,6.33962c0.78336,-0.15077 1.39342,-0.28529 2.29583,-0.44848l0.0155,-0.003l0.0155,-0.003c3.69283,-0.62855 7.60023,-1.14751 11.63351,-1.60294v-20.1471z"/></g></g></svg>