<svg version="1.1" xmlns="http://www.w3.org/2000/svg" xmlns:xlink="http://www.w3.org/1999/xlink" width="71.05292" height="93.60137" viewBox="0,0,71.05292,93.60137"><g transform="translate(-204.48963,-89.76615)"><g data-paper-data="{&quot;isPaintingLayer&quot;:true}" fill="#ffffff" fill-rule="nonzero" stroke="#000000" stroke-width="4" stroke-linecap="butt" stroke-linejoin="miter" stroke-miterlimit="4" stroke-dasharray="" stroke-dashoffset="0" style="mix-blend-mode: normal"><path d="M245.88967,91.76634c2.53534,0 4.25554,1.07903 7.01661,2.67686c2.89895,1.67762 5.60468,3.88586 8.12326,6.58493c2.49305,2.67172 3.68315,6.04607 3.53743,9.53799c6.10134,6.27477 8.97558,15.59491 8.97558,27.51197c0,11.47072 -2.4411,21.23206 -7.49616,29.08775l-0.00099,0.00096c-5.90498,9.21722 -14.83004,14.20072 -25.63759,14.20072c-10.82962,0 -19.95075,-5.09058 -26.36857,-14.50034c-0.00101,-0.002 -0.00101,-0.00304 -0.002,-0.004c-5.12168,-7.41169 -7.54761,-17.07282 -7.54761,-28.78533c0,-14.01645 3.23498,-25.19401 10.07351,-33.1709c6.18997,-7.32388 14.26227,-11.25235 23.45242,-11.25235c0.76949,0 1.45231,0.0309 2.11236,0.089c0.15875,-0.18905 0.29424,-0.39053 0.47858,-0.56833c0.74305,-0.71666 1.89744,-1.40912 3.28309,-1.40912zM239.51833,109.60481c-2.37489,-0.00049 -4.83767,1.60974 -7.43362,6.38969c-2.50156,4.60616 -3.96746,12.01601 -3.96746,22.08242c0,10.03506 1.62051,17.11819 4.23248,21.11429c2.50927,3.73321 4.94226,5.09155 8.05822,5.09155c2.97716,0 5.14648,-1.10806 7.33889,-4.05507c2.78144,-3.93439 4.55963,-11.36984 4.55963,-22.15077c0,-6.00315 -0.1362,-10.37728 -0.37956,-12.9592c-0.20357,-2.15971 -0.5432,-4.01644 -0.90377,-5.81999c-3.25739,-1.45045 -5.8775,-3.92422 -7.44956,-7.20943l-0.003,-0.007l-0.004,-0.007c-0.96443,-2.04639 -1.67337,-2.469 -4.04825,-2.46949z"/></g></g></svg>