<svg version="1.1" xmlns="http://www.w3.org/2000/svg" xmlns:xlink="http://www.w3.org/1999/xlink" width="75.36103" height="93.22289" viewBox="0,0,75.36103,93.22289"><g transform="translate(-202.53928,-90.9)"><g data-paper-data="{&quot;isPaintingLayer&quot;:true}" fill="#ffffff" fill-rule="nonzero" stroke="#000000" stroke-width="4" stroke-linecap="butt" stroke-linejoin="miter" stroke-miterlimit="4" stroke-dasharray="" stroke-dashoffset="0" style="mix-blend-mode: normal"><path d="M243.54814,92.90004c6.92422,0 12.57281,1.31218 16.69889,4.37342l0.01,0.007l0.0107,0.007c6.55328,4.94658 10.1502,11.48922 10.1502,18.88405c0,3.93604 -0.8922,7.59969 -2.71325,10.81977l-0.01,0.0159l-0.01,0.0169c-2.49708,4.28166 -5.46146,7.84487 -8.91345,10.61941c-10.93966,8.79274 -19.00543,15.57254 -24.1339,20.27163c-0.90706,0.83515 -1.25764,1.2252 -2.01625,1.94281c1.51613,-0.28556 2.97956,-0.59352 4.61107,-0.82955l0.002,-0.00096h0.003c6.76028,-0.96597 11.74541,-1.56701 15.27286,-1.85011c1.63908,-0.92797 3.33401,-1.58046 5.13529,-1.58046c2.0383,0 3.7669,0.72159 6.03323,1.81453c3.50669,1.6911 6.58422,4.10157 9.17167,7.14389c1.87481,2.11728 3.05011,4.5618 3.05011,7.13736c0,2.14994 -0.86904,4.29497 -2.44048,5.81061c-1.72705,1.66575 -4.02094,2.73116 -6.4157,2.73116c-2.10056,0 -4.21189,-0.64858 -6.98166,-1.71716l0.0602,0.0234c-1.79526,-0.64932 -4.36594,-1.25449 -7.62915,-1.73869c-3.28025,-0.48674 -6.14148,-0.72282 -8.55331,-0.72282c-2.59513,0 -5.95674,0.35024 -10.0007,1.08048c-2.36908,0.45789 -4.60399,1.13754 -6.71955,2.03737c-3.49805,1.81206 -6.03957,2.92591 -8.73387,2.92591c-4.62005,0 -8.42136,-3.24089 -11.54322,-8.16352c-1.56631,-2.42219 -2.40359,-5.13842 -2.40359,-7.93226c0,-1.83036 0.2532,-3.50335 1.28431,-4.99511c0.74371,-1.07596 1.99994,-1.8399 3.31221,-2.19092c5.85716,-6.34517 12.05639,-12.57659 18.63846,-18.68087c6.97228,-6.4757 12.35625,-12.17555 16.12906,-17.02738l0.009,-0.0112l0.009,-0.0103c3.18816,-4.02113 4.47712,-7.22272 4.47712,-9.20561c0,-1.07774 -0.27105,-1.71454 -1.08434,-2.49896c-1.0392,-1.00231 -2.07867,-1.42409 -3.76555,-1.42409c-2.78937,0 -6.29402,1.59697 -10.422,5.57841c-1.37559,1.32675 -3.11347,3.9595 -4.85862,7.80679l0.009,-0.0206c-0.88952,2.00188 -1.93609,3.66326 -3.35006,4.93612c-1.41398,1.27287 -3.31743,2.09542 -5.26537,2.09542c-2.2705,0 -4.50363,-0.88206 -6.15943,-2.39035c-1.65579,-1.50829 -2.81446,-3.52611 -3.70148,-5.95013l-0.009,-0.0234l-0.008,-0.0234c-0.9194,-2.66031 -1.32798,-5.72505 -1.32798,-9.21965c0,-3.56835 0.56239,-6.74129 1.82307,-9.47714l0.0747,-0.16104l0.0932,-0.15074c1.00882,-1.62168 2.46722,-3.28451 4.90716,-3.28451c1.24282,0.00001 2.4846,0.50966 3.51606,1.27804c0.28742,-0.20713 0.4274,-0.27094 0.80864,-0.58612c0.05923,-0.0453 0.11347,-0.0971 0.1777,-0.1358c4.11752,-2.91232 7.93199,-4.87058 11.61312,-5.75819c4.36139,-1.05164 8.37939,-1.59638 12.07908,-1.59638z"/></g></g></svg>